<svg width="47" height="47" viewBox="0 0 47 47" fill="none" xmlns="http://www.w3.org/2000/svg">
<path d="M0.0181261 36.8583C0.134133 36.3602 0.232014 35.8549 0.369772 35.3604C1.51897 31.3212 5.2892 28.6199 9.46545 28.9035C11.3469 29.0307 12.8877 28.4708 14.2145 27.1038C16.8536 24.388 19.5508 21.7303 22.2262 19.0472C22.3422 18.9309 22.451 18.8109 22.5742 18.68C22.3314 18.3201 22.0486 18.211 21.6679 18.4037C21.2619 18.6109 20.8559 18.8182 20.4426 19.0036C19.5943 19.3853 18.8076 19.2508 18.137 18.6037C17.6331 18.1165 17.14 17.6184 16.6543 17.1167C15.806 16.2441 15.7987 15.0953 16.6543 14.23C18.1152 12.7466 19.5943 11.2742 21.0662 9.80173C21.1822 9.68539 21.3344 9.60178 21.4432 9.52543C20.7689 8.21295 20.8559 7.66397 21.8347 6.68234C22.1682 6.34786 22.5017 6.01338 22.8316 5.6789C23.7814 4.72636 24.3687 4.63546 25.5651 5.27897L26.2466 4.53367C26.1487 4.30826 25.9856 4.05739 25.9276 3.78472C25.7934 3.15575 25.9276 2.57405 26.3952 2.10141C26.9209 1.57424 27.432 1.02889 27.9795 0.52717C28.2187 0.30903 28.5341 0.174512 28.8133 0H29.7232C30.2271 0.421736 30.7527 0.825295 31.2349 1.27248C31.5648 1.57788 31.5503 2.01052 31.2712 2.28683C30.992 2.5595 30.586 2.54496 30.2561 2.23229C30.035 2.02506 29.8211 1.80692 29.6108 1.58515C29.3643 1.33065 29.1286 1.3052 28.8676 1.5706C28.3891 2.06142 27.8997 2.54132 27.4175 3.02487C27.1964 3.24664 27.1892 3.47569 27.4212 3.69746C27.4973 3.77018 27.5698 3.85016 27.6459 3.92651C32.685 8.98007 37.7204 14.0336 42.7595 19.0872C43.2996 19.6289 43.3323 19.6253 43.8833 19.0763C44.2494 18.7091 44.6156 18.3455 44.9781 17.9783C45.4023 17.5493 45.4023 17.433 44.9781 17.0076C42.1649 14.1827 39.3481 11.3614 36.535 8.53653C35.2263 7.22042 33.9103 5.90795 32.6052 4.5882C32.279 4.25736 32.2717 3.8647 32.5545 3.57749C32.8336 3.29027 33.2288 3.30118 33.5659 3.60657C33.6565 3.68656 33.7399 3.77745 33.8269 3.8647C35.9658 6.00974 38.1011 8.15115 40.2399 10.2962C42.1504 12.2158 44.0646 14.1318 45.975 16.0514C46.9176 16.9967 46.9212 17.982 45.9895 18.92C45.6161 19.2981 45.2391 19.6762 44.8621 20.0507C43.9195 20.9959 43.3033 21.0941 42.1287 20.4688L41.4508 21.2286C41.5378 21.4577 41.6792 21.7412 41.7553 22.0394C41.9075 22.6502 41.7082 23.1846 41.2876 23.6281C40.8381 24.1044 40.3668 24.5589 39.9064 25.0206C39.0436 25.8859 38.3403 25.9768 37.2709 25.3405C37.1585 25.4423 37.0389 25.5514 36.9229 25.6678C35.4837 27.1111 34.0444 28.5581 32.6016 29.9978C31.5902 31.0122 30.499 31.0122 29.4912 30.0087C29.038 29.5579 28.5812 29.1107 28.139 28.649C27.461 27.9473 27.3342 27.1475 27.7474 26.2604C27.9287 25.875 28.1136 25.4932 28.3057 25.1115C28.4942 24.7407 28.4254 24.4425 28.0483 24.1808C27.9287 24.2898 27.8091 24.3953 27.6931 24.508C25.6194 26.5876 23.5458 28.6672 21.4722 30.7468C21.3634 30.8558 21.2619 30.9722 21.1423 31.0594C20.8305 31.2848 20.5151 31.2776 20.2324 31.0158C19.9713 30.7759 19.9641 30.3614 20.2034 30.0669C20.2904 29.9615 20.3919 29.8706 20.4897 29.7724C22.5634 27.6928 24.637 25.6132 26.7106 23.5336C26.8266 23.4173 26.9644 23.3191 27.084 23.221L23.4951 19.6289C23.2739 19.8725 23.0528 20.1452 22.8099 20.3888C20.1925 23.021 17.5678 25.6459 14.9468 28.2782C13.4894 29.7397 11.7493 30.4123 9.67934 30.2705C5.72422 30.0015 2.49778 32.3392 1.58785 36.0912C0.518407 40.5122 3.57084 44.8677 8.08424 45.3694C12.9384 45.9075 16.9769 41.8464 16.473 36.971C16.2954 35.2695 16.8391 33.7571 17.8941 32.4301C18.1877 32.0629 18.5684 32.012 18.8946 32.2628C19.1883 32.4919 19.2717 32.9209 19.007 33.2408C17.9992 34.4733 17.7962 35.8912 17.8578 37.44C17.9883 40.8903 16.5528 43.5952 13.6707 45.4494C8.25463 48.9287 0.957058 45.4966 0.0870053 39.1015C0.0761296 39.0143 0.0290018 38.9343 0 38.8507V36.8401L0.0181261 36.8583ZM36.274 24.4062C31.6192 19.738 27.0006 15.1134 22.3712 10.4707C20.7979 12.0449 19.1955 13.6446 17.6041 15.2516C17.3177 15.5388 17.3576 15.8587 17.6331 16.1423C18.1116 16.6331 18.5974 17.113 19.0795 17.6002C19.3224 17.8474 19.5907 17.8984 19.9061 17.7347C20.2831 17.5384 20.6638 17.353 21.048 17.1749C21.9652 16.7422 22.7555 16.8586 23.4661 17.5675C25.3838 19.4762 27.2979 21.3959 29.2012 23.3191C29.8899 24.0172 30.0023 24.8097 29.5891 25.7077C29.4042 26.1077 29.212 26.504 29.0126 26.8966C28.8568 27.1984 28.9075 27.4529 29.1395 27.6855C29.6217 28.1727 30.0966 28.6635 30.5896 29.1398C30.9304 29.467 31.2095 29.4743 31.543 29.1398C33.1273 27.5656 34.7042 25.9804 36.2776 24.4098L36.274 24.4062ZM24.434 6.22788C24.2709 6.31877 24.1331 6.3624 24.0425 6.44966C23.5494 6.92593 23.0673 7.41311 22.5887 7.90029C22.335 8.15842 22.3712 8.40201 22.625 8.64923C23.0927 9.10732 23.5494 9.57633 24.0135 10.0381C28.6646 14.7062 33.3158 19.3708 37.9706 24.0353C38.4092 24.4753 38.5361 24.4753 38.9747 24.0353C39.3844 23.6282 39.7868 23.21 40.2001 22.8101C40.5046 22.5156 40.5046 22.2539 40.2001 21.9557C39.62 21.3959 39.0581 20.8178 38.489 20.247C33.9647 15.7097 29.444 11.1724 24.9198 6.63508C24.7748 6.48965 24.608 6.36604 24.4412 6.22425L24.434 6.22788ZM41.0737 19.538C36.4407 14.888 31.8294 10.2598 27.2472 5.66072L26.6309 6.27878C31.2313 10.8961 35.8462 15.5279 40.4538 20.1525L41.0701 19.538H41.0737Z" fill="black"/>
<path d="M13.4544 37.8386C13.4652 40.3254 11.475 42.3359 8.98084 42.3504C6.48668 42.365 4.48919 40.3835 4.47469 37.8822C4.46019 35.37 6.46856 33.3304 8.96271 33.334C11.4387 33.334 13.4435 35.3481 13.4544 37.8422V37.8386ZM8.96271 34.7374C7.23711 34.7374 5.8559 36.108 5.84865 37.824C5.8414 39.5619 7.23711 40.9762 8.95908 40.9762C10.6702 40.9762 12.0586 39.5946 12.0659 37.8749C12.0731 36.1116 10.7137 34.7374 8.96271 34.7374Z" fill="black"/>
<path d="M31.974 22.2063C31.9849 22.8425 31.4302 23.1916 30.9807 22.9516C30.8502 22.8825 30.7342 22.7735 30.6291 22.668C28.4503 20.4866 26.2715 18.3052 24.1037 16.1093C23.9333 15.9384 23.7701 15.6912 23.7448 15.4585C23.6831 14.9532 24.2632 14.6005 24.7199 14.8368C24.8505 14.9059 24.9628 15.0186 25.068 15.124C27.2467 17.3054 29.4255 19.4868 31.597 21.6791C31.771 21.8536 31.887 22.0827 31.9704 22.2027L31.974 22.2063Z" fill="black"/>
</svg>
