<svg width="27" height="56" viewBox="0 0 27 56" fill="none" xmlns="http://www.w3.org/2000/svg">
<path d="M13.8211 0.00386452C14.6896 0.336213 15.2052 1.0125 15.5851 1.82019C16.4071 3.57081 16.7715 5.45283 17.0661 7.33872C17.353 9.1705 17.5585 11.0139 17.8028 12.9075C18.0935 12.9075 18.3959 12.9075 18.7022 12.9075C19.8149 12.9191 20.6213 13.6456 20.6446 14.7431C20.6795 16.3894 20.6795 18.0318 20.6446 19.6781C20.6213 20.7331 19.8614 21.4906 18.7991 21.4983C15.1897 21.5215 11.5802 21.5215 7.97078 21.4983C6.86197 21.4906 6.12147 20.6945 6.10984 19.5815C6.09433 18.0086 6.09821 16.4358 6.10984 14.8629C6.11759 13.6688 6.89687 12.9152 8.09485 12.9075C8.38174 12.9075 8.66864 12.9075 8.98655 12.9075C9.11449 11.7636 9.22304 10.6545 9.36649 9.54922C9.66502 7.23824 10.0101 4.93885 10.7893 2.72835C11.1848 1.60764 11.7121 0.575813 12.8402 0H13.8211V0.00386452ZM13.4683 1.54967C12.7472 2.09843 12.5146 2.77086 12.2975 3.43169C11.2895 6.48852 11.0064 9.66902 10.6614 12.8766H16.0736C16.0736 12.7877 16.0814 12.7181 16.0736 12.6486C15.8682 10.9675 15.7441 9.26711 15.4301 7.60537C15.1199 5.96681 14.6392 4.35918 14.1817 2.75154C14.0654 2.3419 13.7397 1.99023 13.4722 1.54967H13.4683ZM13.3714 19.8675C15.0579 19.8675 16.7444 19.852 18.4308 19.8752C18.8612 19.8829 19.0007 19.7515 18.993 19.3226C18.9736 17.912 18.9775 16.5054 18.993 15.0948C18.9969 14.6929 18.8961 14.5229 18.4463 14.5267C15.0734 14.546 11.7043 14.5422 8.33134 14.5267C7.89712 14.5267 7.76143 14.6658 7.76918 15.0832C7.78469 16.4938 7.79245 17.9004 7.76918 19.311C7.76143 19.7825 7.94752 19.8791 8.37786 19.8752C10.045 19.8559 11.7121 19.8675 13.383 19.8675H13.3714Z" fill="black"/>
<path d="M0.00389448 39.7119C0.00389448 35.4648 0.0116505 31.2138 1.96459e-05 26.9667C-0.00385732 25.5794 0.566059 24.536 1.72915 23.794C2.59759 23.2375 3.46215 22.6771 4.33447 22.1206C4.86949 21.7806 5.34248 21.8269 5.62937 22.2366C5.9279 22.6655 5.78057 23.137 5.22229 23.5041C4.35773 24.0683 3.49316 24.6287 2.61697 25.1775C1.94238 25.5987 1.63222 26.1977 1.63222 26.9899C1.63222 35.5035 1.63222 44.0208 1.6361 52.5344C1.6361 53.4657 2.10133 53.9179 3.05119 53.9179C9.94443 53.9179 16.8338 53.9179 23.727 53.9179C24.673 53.9179 25.1344 53.4657 25.1344 52.5228C25.1344 44.0093 25.1344 35.4919 25.1344 26.9783C25.1344 26.1938 24.8203 25.5948 24.1419 25.1697C23.2657 24.6248 22.405 24.0568 21.5366 23.4964C20.9899 23.1409 20.8465 22.7119 21.114 22.2752C21.3892 21.8308 21.8777 21.769 22.4399 22.1245C23.3122 22.6771 24.1768 23.2375 25.0452 23.794C26.2044 24.5398 26.7705 25.591 26.7666 26.9745C26.7588 35.5073 26.7666 44.0402 26.7627 52.573C26.7627 54.3894 25.5957 55.541 23.7658 55.541C16.8377 55.541 9.90954 55.541 2.98141 55.541C1.15148 55.541 1.96459e-05 54.3894 1.96459e-05 52.5653C1.96459e-05 48.2795 1.96459e-05 43.9977 1.96459e-05 39.7119H0.00389448Z" fill="black"/>
<path d="M4.16016 38.8534C4.16016 35.87 4.16016 32.8904 4.16016 29.907C4.16016 28.0057 5.24958 26.9275 7.17256 26.9275C11.3054 26.9275 15.4421 26.9275 19.575 26.9275C21.5251 26.9275 22.599 28.0018 22.6029 29.9495C22.6029 35.9125 22.6029 41.8793 22.6029 47.8423C22.6029 49.8016 21.5367 50.8682 19.5905 50.8682C15.4189 50.8682 11.2511 50.8682 7.07951 50.8682C5.27672 50.8682 4.16791 49.7668 4.16404 47.9621C4.16016 44.9245 4.16404 41.8909 4.16404 38.8534H4.16016ZM5.83888 38.9036C5.83888 41.8677 5.83888 44.8318 5.83888 47.7959C5.83888 48.9321 6.11802 49.218 7.23847 49.218C11.3364 49.218 15.4344 49.218 19.5323 49.218C20.6334 49.218 20.9203 48.9321 20.9203 47.8423C20.9203 41.8754 20.9203 35.9125 20.9203 29.9457C20.9203 28.8752 20.6411 28.5931 19.5788 28.5931C15.446 28.5931 11.3093 28.5931 7.17643 28.5931C6.11802 28.5931 5.83888 28.8791 5.83888 29.9534C5.83888 32.9368 5.83888 35.9202 5.83888 38.8998V38.9036Z" fill="black"/>
<path d="M15.5432 17.4335C15.5432 17.7233 15.5625 18.0132 15.5432 18.2991C15.5005 18.7976 15.1593 19.1068 14.6941 19.0952C14.2444 19.0875 13.9303 18.8015 13.9071 18.3069C13.8799 17.6769 13.8799 17.047 13.9071 16.4171C13.9303 15.9456 14.2793 15.6365 14.7096 15.6365C15.1361 15.6365 15.4928 15.9495 15.5354 16.4094C15.5664 16.7495 15.5432 17.0934 15.5432 17.4335Z" fill="black"/>
<path d="M10.2161 17.3813C10.2161 17.6866 10.2355 17.9957 10.2161 18.301C10.1773 18.7957 9.83226 19.1049 9.36703 19.0933C8.9173 19.0817 8.60714 18.788 8.58776 18.2972C8.5645 17.6673 8.5645 17.0373 8.58776 16.4074C8.60714 15.9437 8.96382 15.6268 9.39416 15.6307C9.82063 15.6307 10.1734 15.9514 10.2122 16.4113C10.2393 16.732 10.2161 17.0605 10.2161 17.3813Z" fill="black"/>
<path d="M12.8562 17.3865C12.8562 17.7111 12.8795 18.0357 12.8523 18.3565C12.8136 18.8163 12.5422 19.0753 12.0731 19.0907C11.6001 19.11 11.2822 18.8395 11.2473 18.4028C11.1891 17.7227 11.2007 17.0348 11.2395 16.3508C11.2628 15.9025 11.6815 15.5856 12.1041 15.6358C12.5538 15.69 12.8291 15.945 12.8562 16.4088C12.8717 16.7334 12.8562 17.058 12.8562 17.3787V17.3865Z" fill="black"/>
<path d="M18.1834 17.4052C18.1834 17.7105 18.1989 18.0196 18.1834 18.3249C18.1563 18.7848 17.9004 19.0515 17.4352 19.094C16.9893 19.1326 16.5939 18.8389 16.5706 18.3906C16.5357 17.7066 16.5241 17.0187 16.5783 16.3386C16.6132 15.8942 16.9428 15.6275 17.4003 15.643C17.85 15.6584 18.1446 15.9135 18.1795 16.3811C18.2067 16.7212 18.1834 17.0651 18.1834 17.4052Z" fill="black"/>
</svg>
