<svg width="53" height="29" viewBox="0 0 53 29" fill="none" xmlns="http://www.w3.org/2000/svg">
<path d="M0 7.31383C0.24427 6.84154 0.641209 6.61414 1.15156 6.49169C2.18971 6.24243 3.21913 5.95381 4.24856 5.66956C5.07297 5.44216 5.78833 5.62145 6.41209 6.20307C7.84282 7.53686 9.28663 8.8619 10.713 10.2044C10.9834 10.4581 11.2146 10.5062 11.5723 10.4056C14.7783 9.53098 17.9888 8.67823 21.1992 7.81674C21.2951 7.7905 21.3911 7.75114 21.5787 7.68117C21.3736 7.55873 21.2297 7.46689 21.0857 7.37943C18.5733 5.92319 16.0564 4.46696 13.5439 3.01073C13.0292 2.70898 12.7936 2.2673 12.8809 1.79938C12.9769 1.27899 13.3302 0.964124 13.9452 0.863544C14.2462 0.811067 14.5472 0.762963 14.8525 0.719232C16.4839 0.487459 18.1065 0.207583 19.7423 0.0457787C21.7182 -0.15101 23.5939 0.295044 25.343 1.22214C26.451 1.8125 27.5458 2.43785 28.6407 3.05008C29.0856 3.29935 29.2514 3.67981 29.0333 3.99904C28.7715 4.38824 28.4357 4.36638 28.0562 4.14772C27.0835 3.59234 26.0933 3.05883 25.1206 2.50345C23.053 1.32709 20.8589 1.01223 18.5296 1.41455C17.2123 1.64195 15.8819 1.8125 14.4643 2.02678C14.6257 2.14923 14.7129 2.23669 14.8176 2.29354C17.5526 3.88097 20.2831 5.46839 23.0268 7.03396C23.2144 7.14328 23.5154 7.16078 23.7335 7.10393C29.0245 5.70017 34.3243 4.30516 39.6023 2.84455C41.9621 2.19296 44.1736 2.42036 46.2761 3.64482C47.1136 4.13023 47.9773 4.50632 48.9151 4.79057C49.7351 5.03983 50.5508 5.49026 51.2182 6.03252C52.4745 7.05582 52.5792 8.4727 51.6282 9.80649C50.7951 10.9785 49.6174 11.7044 48.287 12.1198C46.1496 12.7846 43.9861 13.3487 41.8269 13.939C39.5194 14.5688 37.2076 15.1723 34.9045 15.8107C34.6776 15.8763 34.429 16.0687 34.3025 16.2743C33.2556 17.9885 32.2219 19.7071 31.2099 21.4432C29.8838 23.7216 28.0082 25.3397 25.548 26.2842C24.1391 26.8265 22.7389 27.395 21.3344 27.946C20.667 28.2084 20.1915 28.1341 19.8382 27.7274C19.4849 27.3207 19.4805 26.8309 19.8382 26.2143C21.2035 23.8397 22.5732 21.4695 23.9385 19.0949C24.0301 18.9375 24.113 18.78 24.2351 18.5658C19.4675 19.4447 14.7827 20.315 10.0587 18.5701C9.70538 19.1824 9.33897 19.7946 8.99438 20.4112C8.45785 21.3689 7.6727 21.9943 6.60402 22.2566C6.22453 22.3485 5.84504 22.4403 5.47427 22.5628C4.98573 22.7246 4.55826 22.6371 4.21802 22.2654C3.86906 21.8849 3.87343 21.452 4.04791 20.9797C4.6673 19.3442 5.25617 17.6955 5.88429 16.06C6.01079 15.7276 5.96281 15.5134 5.74471 15.2466C3.95194 13.0163 2.17226 10.7773 0.392577 8.53829C0.257356 8.38086 0.130859 8.20594 0 8.03102V7.31383ZM45.1202 4.47571C43.4452 3.67106 41.8792 3.54424 40.2348 3.98592C30.6254 6.57478 21.0116 9.14615 11.4022 11.7394C10.9136 11.8706 10.569 11.7787 10.2114 11.4376C8.90277 10.1957 7.57237 8.9756 6.2507 7.74677C4.93775 6.53105 5.27798 6.71035 3.66405 7.11267C2.90507 7.30509 2.15045 7.52811 1.32604 7.75114C3.25403 10.1607 5.11223 12.5047 7.00532 14.8268C7.34119 15.2422 7.39353 15.5964 7.20597 16.0819C6.63455 17.5556 6.09803 19.0424 5.54842 20.5249C5.45682 20.7698 5.37831 21.0191 5.29107 21.2771C6.66072 21.1415 7.61163 20.5468 8.21795 19.3179C8.84171 18.0541 9.60941 16.8646 10.3161 15.6402C10.3946 15.5046 10.4556 15.3647 10.5647 15.1329C10.0064 15.2772 9.57016 15.3909 9.1296 15.5002C8.64978 15.6183 8.33136 15.474 8.24848 15.0848C8.15252 14.6387 8.40551 14.4157 8.78936 14.3064C9.3128 14.1577 9.8406 14.0353 10.3597 13.8778C10.9136 13.7116 11.4109 13.7597 11.7773 14.2539C12.1306 14.7306 12.0172 15.2072 11.7293 15.6839C11.3804 16.2612 11.0532 16.8515 10.6214 17.6081C11.1623 17.6212 11.5854 17.7218 11.9562 17.6212C16.5929 16.3923 21.2253 15.1329 25.8621 13.8909C26.5644 13.7029 27.2841 13.6154 27.6156 12.7977C27.6723 12.6577 28.1696 12.5528 28.3441 12.649C28.5229 12.7452 28.6058 13.1038 28.645 13.3618C28.6668 13.4974 28.5098 13.6635 28.4226 13.8079C26.1718 17.713 23.9254 21.6225 21.6746 25.5277C21.4652 25.8907 21.2602 26.258 21.0029 26.7084C21.221 26.6341 21.3475 26.5991 21.4652 26.551C22.6648 26.0787 23.8556 25.5845 25.0639 25.1341C27.2885 24.3032 28.9547 22.8426 30.1586 20.796C32.1346 17.4375 34.1498 14.1008 36.1476 10.7598C36.61 9.98578 37.0505 9.98141 37.526 10.7598C39.5849 10.2088 41.6481 9.65343 43.7069 9.09805C45.2467 8.68261 46.7865 8.26716 48.3219 7.85172C48.3568 7.84298 48.3873 7.83423 48.4222 7.82986C48.9282 7.71616 49.2859 7.87796 49.3469 8.27591C49.4167 8.74383 49.1157 8.93624 48.7101 9.04557C44.8934 10.0689 41.0766 11.0922 37.2643 12.1242C37.0287 12.1854 36.7321 12.2685 36.61 12.4435C36.2043 13.0251 35.8641 13.6504 35.4584 14.3326C35.6853 14.2889 35.8336 14.2714 35.9775 14.232C38.6776 13.5061 41.382 12.7889 44.0777 12.0411C45.5607 11.6301 47.0438 11.1971 48.5007 10.6898C49.3731 10.3881 50.1234 9.83273 50.6599 9.04557C51.1877 8.27154 51.1441 7.60683 50.4505 7.00334C50.0623 6.66224 49.5956 6.37799 49.1201 6.18121C48.3568 5.86634 47.5585 5.63895 46.769 5.39405C46.6556 5.35907 46.5029 5.40717 46.3764 5.44215C45.2118 5.74827 44.0515 6.06751 42.8869 6.37362C42.4856 6.47857 42.1235 6.43922 41.9665 5.98879C41.8356 5.62145 42.0799 5.30659 42.5815 5.16665C43.3798 4.948 44.178 4.73372 45.1202 4.47571ZM26.2503 15.0804C22.3245 16.1343 18.5078 17.162 14.6955 18.1853C14.9485 18.299 15.1971 18.334 15.4457 18.3384C18.6343 18.3646 21.7575 17.8573 24.8501 17.1401C24.981 17.1095 25.1249 17.0089 25.1947 16.8952C25.5393 16.3311 25.8621 15.7539 26.246 15.0848L26.2503 15.0804Z" fill="black"/>
<path d="M34.3239 8.17099C34.3065 8.55145 34.0971 8.79197 33.7307 8.80509C33.3599 8.81821 33.1113 8.57769 33.0982 8.21035C33.0851 7.83864 33.3163 7.59375 33.6914 7.58063C34.0709 7.56751 34.2803 7.79053 34.3239 8.17099Z" fill="black"/>
<path d="M23.0132 10.4668C23.3752 10.5236 23.5889 10.7248 23.5671 11.114C23.5453 11.5032 23.2967 11.7088 22.9303 11.6869C22.5639 11.665 22.3371 11.4245 22.3589 11.044C22.3807 10.6636 22.6206 10.4755 23.0132 10.4668Z" fill="black"/>
<path d="M37.3428 7.83425C36.9197 7.83425 36.6972 7.6156 36.6841 7.24826C36.6711 6.88092 36.8935 6.63165 37.273 6.61416C37.6569 6.59667 37.888 6.84156 37.9055 7.20453C37.9186 7.56749 37.7092 7.80364 37.3472 7.82988L37.3428 7.83425Z" fill="black"/>
<path d="M30.137 9.77134C29.7488 9.74072 29.5176 9.52207 29.5176 9.15473C29.5176 8.79177 29.7357 8.54688 30.1239 8.54688C30.5121 8.54688 30.7258 8.7699 30.7302 9.15036C30.7302 9.53519 30.5034 9.73198 30.137 9.77134Z" fill="black"/>
<path d="M19.3765 12.65C19.0014 12.6107 18.7789 12.4183 18.7833 12.0291C18.7876 11.6398 19.0275 11.4212 19.3939 11.4299C19.7603 11.4343 19.9959 11.6617 19.9915 12.0465C19.9872 12.4314 19.756 12.6238 19.3765 12.65Z" fill="black"/>
<path d="M26.5244 10.7321C26.1275 10.6534 25.9007 10.4347 25.9399 10.0586C25.9748 9.6913 26.2322 9.46828 26.6029 9.49889C26.965 9.53387 27.1787 9.77002 27.1526 10.1636C27.122 10.5659 26.8603 10.7015 26.5288 10.7321H26.5244Z" fill="black"/>
</svg>
