<svg width="41" height="42" viewBox="0 0 41 42" fill="none" xmlns="http://www.w3.org/2000/svg">
<g clip-path="url(#clip0_97_8371)">
<path d="M35.079 42C34.7141 41.7605 34.5558 41.4258 34.5866 40.9894C34.6041 40.7444 34.5899 40.4972 34.5899 40.2511C34.5899 39.503 34.7503 39.2809 35.4911 39.0502C35.2702 37.2914 35.0471 35.525 34.8262 33.7673C34.5184 33.6394 34.3283 33.7564 34.1261 33.9609C31.1113 37.0158 27.4634 38.8292 23.2133 39.433C13.903 40.7542 4.78727 34.5877 2.57592 25.4898C2.19345 23.9159 2.00111 22.3234 2.00331 20.7047C2.0088 16.4259 2.00331 12.1472 2.0088 7.86844C2.0088 7.60156 1.97363 7.4375 1.67358 7.31938C1.14822 7.11266 0.939398 6.65438 0.939398 6.10203C0.939398 5.07719 0.939398 4.05344 0.939398 3.03734C0.0623337 2.71906 0.0051817 2.63594 0.0051817 1.69641C0.0051817 1.45031 0.0172716 1.20312 0.00298354 0.958125C-0.0211962 0.558906 0.0997024 0.234063 0.434921 0H7.84161C8.12077 0.30625 8.24057 0.662813 8.2109 1.07734C8.19441 1.30813 8.2087 1.54219 8.2076 1.77406C8.2054 2.60859 8.07901 2.77922 7.258 3.02641C7.258 4.05562 7.26129 5.0925 7.2569 6.12937C7.2547 6.72 6.98213 7.13891 6.43369 7.38172C6.33917 7.42328 6.20728 7.525 6.20398 7.60484C6.1831 8.08609 6.19299 8.56953 6.19299 9.08906C6.83045 8.43609 7.38879 7.79734 8.01526 7.23297C12.3742 3.30312 17.4948 1.64391 23.3133 2.41938C28.3581 3.09203 32.4752 5.51359 35.5944 9.53312C37.9893 12.6208 39.3225 16.1394 39.428 20.0484C39.5192 23.4073 39.4654 26.7717 39.4764 30.1328C39.4764 30.3067 39.4764 30.4817 39.4764 30.6906C39.6874 30.6906 39.8512 30.6863 40.0138 30.6906C40.648 30.7103 40.9898 31.0592 40.9986 31.698C41.0019 31.9298 40.9986 32.1628 40.9986 32.3947C40.9986 33.3911 40.8821 33.5431 39.9215 33.775C39.7006 35.5217 39.4786 37.2783 39.2576 39.0228C40.0501 39.3378 40.1655 39.5139 40.1655 40.3594C40.1655 40.5508 40.1556 40.7422 40.1677 40.9336C40.1941 41.3744 40.0578 41.7375 39.6863 41.9978H35.0779L35.079 42ZM38.5674 30.6677C38.5751 30.5342 38.585 30.4402 38.585 30.3461C38.585 27.2158 38.618 24.0844 38.5685 20.9541C38.5498 19.7586 38.4399 18.5478 38.2069 17.3764C36.0868 6.72875 24.8839 0.462656 14.6515 4.17594C6.22047 7.23516 1.37793 15.9764 3.3233 24.7505C5.36209 33.9522 14.1844 39.9613 23.62 38.4519C27.2766 37.8667 30.4386 36.2425 33.1314 33.7006C33.5743 33.2828 33.8974 32.8727 33.7612 32.2241C33.7205 32.0283 33.7568 31.815 33.7667 31.6105C33.793 31.0669 34.125 30.7289 34.6756 30.695C34.8734 30.683 35.0735 30.6928 35.2823 30.6928V26.3069C35.1735 26.4064 35.1196 26.5223 35.0724 26.6405C32.3609 33.3955 25.0916 37.4128 18.007 36.0719C9.59134 34.4794 4.12013 26.6689 5.53794 18.2394C6.67439 11.4877 12.438 5.8975 19.9853 5.52125C23.7343 5.33422 27.1513 6.37328 30.1155 8.67891C33.9953 11.6966 36.056 15.6833 36.1528 20.6084C36.2154 23.7923 36.1824 26.9784 36.1923 30.1645C36.1923 30.3242 36.1923 30.485 36.1923 30.6677H38.5652H38.5674ZM35.2812 20.9202C35.268 12.8373 28.7702 6.38641 20.6492 6.39406C12.6721 6.40172 6.1787 12.9227 6.1864 20.9212C6.19299 28.9308 12.7303 35.4364 20.769 35.4342C28.701 35.432 35.2933 28.8389 35.2812 20.9202ZM6.36335 2.9925H1.83295C1.83295 4.06 1.83075 5.09797 1.83515 6.13484C1.83625 6.41156 1.97913 6.56469 2.26928 6.56469C3.48926 6.56469 4.70924 6.56469 5.92921 6.56469C6.21717 6.56469 6.36225 6.42031 6.36225 6.13812C6.36445 5.10016 6.36225 4.06328 6.36225 2.9925H6.36335ZM2.91004 14.8575C3.46948 13.7266 3.97175 12.5136 4.64879 11.4067C5.12798 10.6247 5.39396 9.87 5.30603 8.96328C5.25877 8.46891 5.29724 7.96688 5.29724 7.48781H2.90895V14.8575H2.91004ZM39.0301 33.7291H35.7373C35.8681 34.7506 35.9967 35.7438 36.1253 36.7511C36.9177 36.7511 37.6563 36.7598 38.3949 36.7402C38.496 36.738 38.6674 36.6012 38.6806 36.5094C38.8114 35.5928 38.9158 34.673 39.0301 33.728V33.7291ZM0.903128 2.04094H7.28218V0.8225H0.903128V2.04094ZM40.0995 31.6028H34.6778V32.7895H40.0995V31.6028ZM39.2511 41.1742V39.9842H35.5164V41.1742H39.2511ZM38.541 37.6666H36.2286C36.2912 38.15 36.3495 38.6039 36.4044 39.0338H38.3619C38.4234 38.5623 38.4795 38.1303 38.5399 37.6666H38.541Z" fill="black"/>
<path d="M20.7044 33.0318C13.9484 33.0088 8.56293 27.5477 8.58601 20.7446C8.60799 14.1471 14.1243 8.75271 20.8165 8.78333C27.4869 8.81396 32.9064 14.2641 32.9086 20.9415C32.9108 27.5904 27.3945 33.0547 20.7044 33.0318ZM32.014 20.8988C32.0436 14.8066 26.9989 9.70865 20.9067 9.67365C14.6243 9.63865 9.51363 14.5857 9.47956 20.7347C9.44439 27.0424 14.4254 32.1054 20.6989 32.1382C26.9065 32.171 31.9832 27.1277 32.014 20.8988Z" fill="black"/>
<path d="M3.65254 4.7475C3.65254 4.51672 3.64704 4.28485 3.65364 4.05407C3.66133 3.76313 3.80971 3.59141 4.10975 3.59578C4.38782 3.59907 4.53839 3.75985 4.54279 4.03328C4.55048 4.52219 4.54938 5.01219 4.54279 5.5011C4.53839 5.77563 4.37133 5.94516 4.11085 5.94953C3.82729 5.95391 3.66353 5.77235 3.65474 5.48141C3.64704 5.23641 3.65364 4.9925 3.65364 4.7475H3.65254Z" fill="black"/>
<path d="M20.473 29.7543C16.1657 29.576 12.9289 26.496 12.0936 22.8177C10.9989 17.9954 14.2049 13.1173 19.109 12.2193C23.6856 11.3804 28.1137 14.1148 29.3106 18.5193C29.4403 18.9973 29.3634 19.2631 29.0688 19.3473C28.76 19.4359 28.5622 19.2609 28.4226 18.7785C27.7236 16.3788 26.2266 14.6518 23.9504 13.6259C19.3343 11.5445 13.8455 14.4221 12.9278 19.3845C12.087 23.9279 15.0853 28.1148 19.6728 28.7776C21.0544 28.9766 22.4029 28.7962 23.7031 28.2832C23.8306 28.2329 23.9581 28.1848 24.0823 28.1268C24.3626 27.9956 24.578 28.0841 24.6901 28.3477C24.8033 28.6157 24.7044 28.8574 24.4219 28.9384C23.5064 29.202 22.5887 29.4634 21.66 29.6777C21.2786 29.7663 20.8697 29.7313 20.473 29.7532V29.7543Z" fill="black"/>
<path d="M15.168 20.8959C15.1702 17.8049 17.6552 15.3407 20.7722 15.3418C23.8276 15.3418 26.3566 17.8738 26.3368 20.9101C26.317 23.9693 23.8012 26.4805 20.7568 26.4784C17.6662 26.4762 15.1658 23.9791 15.168 20.8959ZM20.7535 16.2299C18.1355 16.2299 16.0582 18.2993 16.0604 20.9079C16.0626 23.5001 18.175 25.5957 20.7722 25.5837C23.3297 25.5716 25.4312 23.4585 25.4432 20.8882C25.4542 18.3376 23.333 16.2299 20.7535 16.2299Z" fill="black"/>
<path d="M27.8113 26.02C27.4321 26.0353 27.1848 25.7302 27.3211 25.4502C27.5475 24.9875 27.7915 24.5292 28.0805 24.1048C28.1608 23.9878 28.4806 23.9025 28.5905 23.9681C28.7279 24.0513 28.873 24.3531 28.8202 24.4756C28.6125 24.958 28.3344 25.413 28.0629 25.8658C28.0102 25.9544 27.8651 25.9883 27.8124 26.0189L27.8113 26.02Z" fill="black"/>
</g>
<defs>
<clipPath id="clip0_97_8371">
<rect width="41" height="42" fill="white"/>
</clipPath>
</defs>
</svg>
