<svg width="50" height="50" viewBox="0 0 50 50" fill="none" xmlns="http://www.w3.org/2000/svg">
<path d="M1.18134e-06 24.7673C-0.00417583 11.1512 11.0691 0 24.5984 0C38.2281 0 49.2971 11.1049 49.293 24.7799C49.2888 38.5054 38.2406 49.6314 24.6068 49.6356C11.0315 49.6398 0.00835521 38.497 1.18134e-06 24.7673ZM24.636 1.78772C12.1342 1.73304 1.83789 12.064 1.77106 24.7295C1.7084 37.4076 11.9588 47.81 24.565 47.8521C37.1671 47.8983 47.4718 37.5884 47.5177 24.8893C47.5637 12.1902 37.3133 1.84241 24.636 1.78772Z" fill="black"/>
<path d="M24.6273 45.4369C13.2825 45.4243 4.14321 36.1996 4.1641 24.7919C4.18498 13.3841 13.341 4.17208 24.6231 4.19732C36.0097 4.22676 45.1406 13.4388 45.1197 24.876C45.0989 36.2585 35.9387 45.4495 24.6273 45.4369ZM42.8391 28.9352C43.286 27.484 43.4113 25.4439 43.2735 23.1934C43.2443 22.6971 43.0688 22.4994 42.6135 22.3774C39.7189 21.6076 36.795 21.4562 33.846 21.961C32.7391 22.1503 31.6572 22.4826 30.4626 22.777C30.755 23.1934 30.4417 23.7529 31.1142 23.8328C35.1701 24.3208 38.8166 25.8182 42.0538 28.3295C42.3086 28.5272 42.5676 28.7249 42.8349 28.9352H42.8391ZM18.8714 26.8909C18.508 26.4366 18.8296 25.8771 18.1404 25.793C13.9091 25.284 10.1331 23.673 6.81651 20.9809C6.69537 20.8841 6.56171 20.7958 6.40716 20.6822C5.93933 22.7223 5.79731 24.7204 6.05629 26.7352C6.07717 26.8993 6.31526 27.1096 6.4907 27.1601C9.15981 27.9635 11.8916 28.157 14.6442 27.7826C16.0101 27.5975 17.3509 27.219 18.8714 26.8909ZM10.1289 36.6666C11.3527 38.1893 12.7938 39.4764 14.4187 40.5743C14.7403 40.7888 14.9408 40.7636 15.2332 40.5491C18.2574 38.3155 20.5255 35.4804 22.0083 32.0101C22.1879 31.5936 22.3383 31.1646 22.497 30.7524C21.9596 30.4046 21.4904 30.4229 21.0894 30.807C19.1053 32.7041 16.8748 34.2395 14.3226 35.2448C12.9651 35.779 11.5616 36.187 10.1331 36.6666H10.1289ZM25.2873 31.0258C24.8069 31.1141 24.3433 30.8197 24.1052 31.4927C22.6933 35.4846 20.3083 38.7824 17.0168 41.4198C16.8831 41.525 16.762 41.6469 16.62 41.7731C17.9858 42.5345 20.183 43.1823 22.0417 43.4809C22.568 43.5651 22.7769 43.422 23.0024 42.9846C24.5187 40.0569 25.329 36.9526 25.3833 33.6506C25.4 32.7925 25.3207 31.9301 25.2831 31.03L25.2873 31.0258ZM32.5929 7.79379C30.9095 6.97775 29.1176 6.45616 27.2421 6.1533C26.7158 6.06917 26.507 6.21219 26.2772 6.64965C24.7568 9.57731 23.9506 12.6858 23.8963 15.9837C23.8796 16.8418 23.959 17.7041 23.9924 18.5538C24.644 18.6127 25.0715 18.3687 25.2747 17.8219C26.1853 15.3821 27.451 13.1401 29.1844 11.2052C30.2454 10.019 31.4317 8.94635 32.5887 7.78959L32.5929 7.79379ZM16.503 7.98308C16.4278 7.97467 16.386 7.95784 16.3568 7.97046C14.5398 8.8454 12.9317 10.019 11.5031 11.445C11.4154 11.5333 11.3987 11.7899 11.4572 11.9161C11.8331 12.7321 12.2007 13.5608 12.6434 14.339C14.3059 17.254 16.5657 19.6012 19.4144 21.4141C19.5313 21.2669 19.6316 21.1407 19.7318 21.0145C19.8279 20.8883 19.9198 20.7579 20.0159 20.6317C17.5723 16.7492 16.4153 12.5344 16.4988 7.98308H16.503ZM26.7868 18.8903C27.327 19.2296 27.7963 19.2072 28.1945 18.823C30.9722 16.1645 34.2052 14.339 37.9186 13.3757C38.3321 13.2705 38.7414 13.1612 39.2093 13.0434C37.8935 11.3987 36.4107 10.0653 34.7064 8.98841C34.577 8.90849 34.272 8.94214 34.1467 9.0473C33.2111 9.81707 32.2504 10.5616 31.3982 11.4197C29.293 13.5355 27.7851 16.0383 26.7826 18.8903H26.7868ZM27.8937 30.1803C26.8328 30.6808 26.9998 30.4285 27.0876 31.4254C27.4384 35.5308 26.6949 39.426 24.9197 43.1276C24.8445 43.2874 24.7735 43.4473 24.6733 43.666C26.7868 43.6366 28.7625 43.3001 30.6756 42.6186C30.8093 42.5723 30.9555 42.32 30.9513 42.1685C30.9262 40.8603 30.9513 39.5437 30.7968 38.2482C30.4501 35.3542 29.4476 32.6789 27.8937 30.1761V30.1803ZM10.0203 13.1107C8.75046 14.7217 7.83152 16.4085 7.12978 18.2257C6.97523 18.6253 7.05042 18.8482 7.35952 19.1174C9.55245 21.0229 12.0127 22.4405 14.7904 23.2607C15.9892 23.6141 17.2256 23.837 18.462 24.1189L18.6751 23.0673C14.8071 20.6402 11.9417 17.3465 10.0161 13.1107H10.0203ZM21.3985 19.4497C22.284 19.0922 22.2923 19.088 22.2172 18.2804C21.8872 14.8774 22.3634 11.588 23.5622 8.39952C23.8629 7.59609 24.2347 6.81791 24.5939 5.97242C22.5012 6.01028 20.5088 6.32576 18.5873 7.04085C18.462 7.08712 18.3492 7.34371 18.3367 7.51196C18.1863 9.4427 18.3952 11.344 18.8213 13.2243C19.3267 15.4495 20.1913 17.5274 21.4026 19.4539L21.3985 19.4497ZM42.7973 20.4761C42.7848 20.5098 42.8098 20.4761 42.8057 20.4425C42.7973 20.3499 42.7806 20.2616 42.7597 20.1732C42.3044 18.3771 41.5902 16.6945 40.6545 15.0961C40.4624 14.7638 40.2535 14.6881 39.9027 14.7554C37.1542 15.277 34.602 16.2781 32.2712 17.8387C31.1309 18.6 30.0574 19.4497 29.1218 20.4509C29.6815 21.2122 29.6773 21.208 30.496 20.9514C33.1025 20.1228 35.7716 19.7147 38.5034 19.9419C39.9319 20.0597 41.3521 20.2952 42.7973 20.4803V20.4761ZM29.268 28.9899C31.7115 32.8598 32.8769 37.0872 32.7892 41.6764C32.8936 41.6638 32.9521 41.668 32.998 41.6469C34.7649 40.7594 36.3605 39.6237 37.7557 38.2187C37.8601 38.1136 37.8726 37.8149 37.8058 37.6593C37.033 35.7496 35.9804 34.0123 34.6689 32.4307C33.2988 30.7776 31.7115 29.3769 29.8653 28.2243L29.268 28.9941V28.9899ZM30.6088 26.5628C34.5059 28.9941 37.363 32.3087 39.2761 36.5235C40.5501 34.8957 41.4816 33.2005 42.175 31.3623C42.3086 31.0047 42.246 30.8028 41.9703 30.5631C39.7732 28.6365 37.2962 27.2064 34.4976 26.3819C33.2988 26.0286 32.0624 25.8056 30.8302 25.5238L30.6046 26.567L30.6088 26.5628ZM6.46564 29.1623C6.92093 31.1435 7.68532 33.0028 8.7797 34.719C8.85907 34.8452 9.15981 34.9083 9.33942 34.8746C11.4613 34.4918 13.483 33.8104 15.3877 32.784C17.1588 31.8292 18.7586 30.6472 20.1662 29.2086C19.6441 28.4178 19.6483 28.4262 18.8254 28.6828C16.1939 29.503 13.5123 29.9405 10.7554 29.7008C9.33942 29.5788 7.93595 29.3516 6.46564 29.1623ZM20.2373 24.8087C20.2373 27.2694 22.1879 29.2549 24.6106 29.2633C27.0834 29.2675 29.0549 27.3031 29.0591 24.8255C29.0675 22.3522 27.0917 20.3709 24.6273 20.3752C22.1963 20.3794 20.2373 22.3564 20.2331 24.8087H20.2373Z" fill="black"/>
<path d="M21.5244 24.8504C21.5244 23.4202 22.4058 22.1036 23.6923 21.6241C24.9203 21.1656 26.257 21.5021 27.0924 22.478C28.0865 23.6432 27.9445 25.2374 26.7749 26.0072C26.2737 26.3395 25.7683 26.2806 25.4592 25.8599C25.171 25.4687 25.2378 24.964 25.6847 24.598C26.1066 24.2531 26.0022 23.946 25.7098 23.6179C25.3088 23.172 24.5903 23.0963 24.0515 23.4371C23.4375 23.824 23.1451 24.6695 23.3957 25.3215C23.6422 25.9609 24.1434 26.289 24.7741 26.4741C25.2127 26.6045 25.5009 26.9536 25.3798 27.3869C25.2963 27.6897 24.9746 27.9337 24.7282 28.1693C24.6614 28.2366 24.4817 28.2113 24.3606 28.1903C22.8193 27.9421 21.5286 26.4194 21.5244 24.8462V24.8504Z" fill="black"/>
</svg>
