<svg width="47" height="48" viewBox="0 0 47 48" fill="none" xmlns="http://www.w3.org/2000/svg">
<path d="M42.3695 0.00322726C42.7541 0.154909 42.8631 0.442135 42.8566 0.845543C42.8374 2.24617 42.8502 3.64681 42.8502 5.08294C43.6098 5.31853 43.3918 6.00594 43.5136 6.59652C44.1001 6.58684 44.2283 7.01284 44.318 7.50339C44.4077 7.9907 44.5391 8.47156 44.6673 8.9492C44.9141 9.85606 45.0487 10.7726 44.9814 11.7117C44.9653 11.9538 45.0134 12.0926 45.2954 12.17C45.837 12.3185 46.1543 12.8122 46.1543 13.3641C46.1543 13.8998 45.8434 14.4 45.3339 14.542C45.0166 14.6324 44.975 14.7905 44.9782 15.0713C44.9846 18.589 44.9782 22.1067 44.9878 25.6245C44.9878 26.2344 44.8628 26.754 44.3565 27.1477C44.2571 27.2252 44.2283 27.4446 44.2251 27.5963C44.2154 28.8711 44.2186 30.1491 44.2186 31.4239C44.2186 32.2113 43.8822 32.8148 43.1803 33.1569C42.8951 33.2957 42.8599 33.4699 42.8599 33.7378C42.8663 36.2744 42.8598 38.8111 42.8663 41.3477C42.8663 42.2029 42.6708 42.9807 42.1035 43.6358C41.4209 44.4265 40.5493 44.7589 39.5141 44.7524C36.9792 44.7363 34.4443 44.746 31.9093 44.746H31.3709C31.3453 44.8815 31.3261 44.9977 31.3004 45.1107C30.9736 46.6598 29.8647 47.6279 28.2976 47.7377C28.1278 47.7506 27.9579 47.7538 27.7881 47.7538C21.2665 47.7538 14.7449 47.7603 8.2233 47.7441C7.66568 47.7441 7.05999 47.6796 6.55364 47.4633C5.29739 46.9276 4.6885 45.8884 4.64363 44.5233C4.6212 43.9069 4.64043 43.2873 4.64043 42.6192C4.04755 42.6192 3.50916 42.6225 2.97077 42.6192C1.08319 42.6095 0 41.5058 0 39.5921C0 28.2482 0 16.9012 0 5.55412C0 4.0599 0.794769 2.98845 2.14075 2.6754C2.34906 2.62699 2.57018 2.62054 2.7849 2.62054C9.12062 2.62054 15.4563 2.61731 21.7953 2.62054C23.4233 2.62054 24.5705 3.75331 24.5705 5.39921C24.577 16.8689 24.577 28.3386 24.5705 39.8083C24.5705 41.4671 23.4585 42.5902 21.8081 42.5999C19.1193 42.616 16.4306 42.6031 13.7418 42.6031C13.572 42.6031 13.4053 42.6031 13.1457 42.6031C13.463 43.1743 13.8956 43.4744 14.4436 43.61C14.6808 43.6681 14.934 43.6842 15.1775 43.6842C20.0455 43.6875 24.9135 43.6875 29.7814 43.6842C29.9192 43.6842 30.0538 43.6713 30.2333 43.6616C30.2461 43.4938 30.2621 43.3454 30.2621 43.1937C30.2621 41.154 30.2621 39.1176 30.2685 37.078C30.2685 36.8037 30.214 36.6423 29.9384 36.5036C29.259 36.1647 28.9258 35.5773 28.9258 34.806C28.9258 33.5313 28.9354 32.2533 28.9129 30.9785C28.9097 30.7816 28.7976 30.546 28.6598 30.404C28.2784 30.0232 28.1438 29.5779 28.147 29.055C28.1534 27.1574 28.147 25.2566 28.147 23.3589C28.147 21.7098 28.1438 20.0607 28.1502 18.4083C28.1502 18.1372 28.131 17.9662 27.7945 17.879C27.2817 17.7467 26.9805 17.24 26.9837 16.7011C26.9869 16.1621 27.2946 15.6748 27.8105 15.5296C28.1118 15.4457 28.1694 15.2972 28.147 15.0326C28.0092 13.4254 28.5957 11.9441 28.9482 10.4208C28.9995 10.2014 29.3167 10.0465 29.5122 9.85929L29.6212 9.94965C29.6596 9.64306 29.6789 9.33324 29.7397 9.03311C29.7686 8.89111 29.8391 8.67488 29.9384 8.64261C30.3486 8.50706 30.2813 8.19079 30.2813 7.88743C30.2813 6.71916 30.2813 5.55412 30.2813 4.38585C30.2813 4.25999 30.2813 4.13735 30.2813 4.01149C30.2878 3.64358 30.4608 3.40476 30.839 3.4209C31.1947 3.43703 31.3389 3.67585 31.3389 4.0244C31.3389 5.37985 31.3389 6.73207 31.3357 8.08752C31.3357 8.31666 31.3517 8.48125 31.6081 8.5942C31.7395 8.65229 31.842 8.87174 31.8805 9.03311C31.9478 9.31711 31.9542 9.61724 31.9927 9.96256C32.5535 9.94965 32.6849 10.3595 32.7874 10.8275C32.9829 11.7214 33.2553 12.6025 33.3931 13.5029C33.4893 14.1225 33.4124 14.7712 33.4124 15.4263C34.095 15.5715 34.5372 15.9007 34.6109 16.5881C34.675 17.1884 34.3738 17.7435 33.8097 17.9016C33.4861 17.992 33.4572 18.1566 33.4604 18.4309C33.4668 21.9486 33.4604 25.4663 33.47 28.984C33.47 29.5811 33.3354 30.0781 32.8611 30.4718C32.7586 30.5557 32.7169 30.7687 32.7169 30.9204C32.7041 32.1177 32.6977 33.3183 32.7169 34.5156C32.7297 35.4579 32.4093 36.1808 31.528 36.5972C31.4415 36.6391 31.3453 36.7714 31.3453 36.865C31.3357 39.1176 31.3389 41.3703 31.3389 43.6842H31.8741C34.377 43.6842 36.8799 43.6842 39.3859 43.6842C40.9755 43.6842 41.8151 42.8387 41.8151 41.2347C41.8151 38.7304 41.8119 36.2228 41.8215 33.7184C41.8215 33.4409 41.7638 33.2828 41.4882 33.1472C40.7608 32.7954 40.4499 32.1597 40.4467 31.3658C40.4403 30.12 40.4403 28.8743 40.4467 27.6318C40.4467 27.3704 40.4082 27.1735 40.1839 26.9928C39.8122 26.6959 39.6872 26.2731 39.6872 25.7923C39.6936 22.2584 39.6904 18.7278 39.6904 15.194C39.6904 15.01 39.6904 14.826 39.6904 14.6582C38.7706 14.3387 38.4309 13.8611 38.5527 13.1285C38.636 12.638 38.8988 12.283 39.3763 12.1636C39.6615 12.0926 39.7128 11.9506 39.6904 11.7053C39.5398 10.0981 40.1294 8.61679 40.4691 7.09352C40.5204 6.86439 40.8537 6.6998 41.0941 6.54489C41.312 6.07048 40.9883 5.33789 41.8023 5.09262C41.8023 3.6694 41.8119 2.25263 41.7959 0.839088C41.7895 0.43568 41.8952 0.145227 42.283 0H42.3759L42.3695 0.00322726ZM12.8413 41.5639H13.4021C16.0909 41.5639 18.7796 41.5639 21.4684 41.5639C22.9361 41.5639 23.529 40.9733 23.529 39.5081C23.529 28.2418 23.529 16.9754 23.529 5.70903C23.529 4.2858 22.9393 3.68876 21.5389 3.68876C15.373 3.68876 9.20714 3.7049 3.04127 3.67585C1.79784 3.6694 1.06397 4.40844 1.07037 5.63803C1.10563 12.1281 1.0864 18.6149 1.0864 25.1049C1.0864 29.991 1.0864 34.877 1.0864 39.7631C1.0864 40.7248 1.54147 41.3961 2.40995 41.509C3.13101 41.6026 3.8745 41.5284 4.6244 41.5284V39.0015C3.23035 38.285 2.7176 37.3975 3.00923 36.2228C3.27201 35.161 4.12126 34.4801 5.18523 34.4801C6.24919 34.4801 7.10485 35.1643 7.36443 36.2228C7.65286 37.4007 7.1369 38.2882 5.76208 38.9918V41.5381H11.7581V38.9853C11.6523 38.9402 11.5562 38.8982 11.4569 38.8562C10.4089 38.4141 9.90257 37.4492 10.1109 36.2809C10.2903 35.2578 11.1812 34.5027 12.2388 34.4768C13.3444 34.451 14.2193 35.1417 14.4789 36.2518C14.7385 37.3556 14.2225 38.3657 13.181 38.853C13.0432 38.9176 12.8669 39.0854 12.8605 39.2112C12.8317 39.9729 12.8445 40.7345 12.8445 41.5671L12.8413 41.5639ZM30.2012 44.7557H29.618C24.7821 44.7557 19.9461 44.7492 15.1102 44.7589C13.7034 44.7589 12.6746 44.1619 12.0625 42.8903C11.9376 42.6257 11.7645 42.6289 11.5434 42.6289C9.75195 42.6289 7.95731 42.6289 6.16587 42.6289C6.03127 42.6289 5.89667 42.645 5.73964 42.658C5.73964 43.4196 5.69157 44.1554 5.75246 44.8783C5.84219 45.953 6.80361 46.6985 8.0214 46.6985C14.6808 46.6985 21.3402 46.6985 27.9996 46.6985C28.0925 46.6985 28.1855 46.6985 28.2784 46.6953C29.3552 46.6178 30.2237 45.769 30.2044 44.7557H30.2012ZM40.7319 14.6808C40.7319 16.0492 40.7319 17.3691 40.7319 18.6858C40.7319 21.003 40.7319 23.3202 40.7319 25.6374C40.7319 26.2376 40.8441 26.3409 41.437 26.3441C41.9914 26.3441 42.549 26.3441 43.1034 26.3441C43.8405 26.3441 43.9238 26.2602 43.9238 25.518C43.9238 22.0648 43.9238 18.6148 43.9238 15.1617C43.9238 15.01 43.911 14.8583 43.9014 14.6808H40.7287H40.7319ZM29.2719 18.0307C29.243 18.1114 29.227 18.1404 29.227 18.1695C29.2238 21.8227 29.2206 25.476 29.2206 29.1293C29.2206 29.5359 29.4353 29.7134 29.8359 29.707C30.4384 29.6973 31.0409 29.707 31.6433 29.707C32.326 29.707 32.4157 29.6198 32.4157 28.9292C32.4157 25.447 32.4157 21.9647 32.4157 18.4825C32.4157 18.3341 32.3997 18.1889 32.39 18.0307H29.2783H29.2719ZM41.5171 27.4382C41.5171 28.7969 41.5139 30.1007 41.5171 31.4045C41.5171 31.9886 41.8311 32.3243 42.3343 32.3178C42.8374 32.3114 43.129 31.9822 43.1322 31.3851C43.1387 30.1717 43.1355 28.9615 43.1322 27.748C43.1322 27.6447 43.1002 27.5447 43.0842 27.4414H41.5171V27.4382ZM29.9961 30.7978C29.9961 32.1661 29.9865 33.4861 29.9993 34.8028C30.0057 35.3482 30.3358 35.6838 30.8133 35.6806C31.3004 35.6806 31.6177 35.3224 31.6209 34.7479C31.6273 33.5506 31.6209 32.3533 31.6209 31.156C31.6209 31.0366 31.5985 30.9204 31.5857 30.7978H29.9993H29.9961ZM43.7796 9.83992C43.6226 9.18802 43.5008 8.60065 43.3341 8.02297C43.2989 7.89711 43.113 7.73898 42.9848 7.72607C42.5586 7.69057 42.1228 7.70025 41.6933 7.71961C41.578 7.72607 41.3889 7.80352 41.3697 7.8842C41.203 8.51997 41.0652 9.16543 40.9146 9.8367H43.7796V9.83992ZM32.2587 13.1801C32.1048 12.5315 31.9638 11.9183 31.8004 11.3083C31.7747 11.2115 31.6337 11.0792 31.5408 11.076C30.9928 11.0534 30.4416 11.0663 29.8872 11.0663L29.3936 13.1834H32.2619L32.2587 13.1801ZM29.2398 15.4199H32.39V14.3226H29.2398V15.4199ZM43.9206 10.9662H40.7928V12.0538H43.9206V10.9662ZM4.64363 37.788C4.64363 37.4782 4.64363 37.2297 4.64363 36.9844C4.64684 36.6165 4.76541 36.3196 5.18202 36.3196C5.59543 36.3196 5.73003 36.6004 5.73003 36.9747C5.73003 37.2329 5.73003 37.4879 5.73003 37.7751C6.27483 37.4717 6.46391 37.0457 6.33252 36.5132C6.19471 35.9452 5.80694 35.6032 5.27176 35.5806C4.6885 35.5548 4.23022 35.8613 4.06678 36.3938C3.89373 36.9618 4.05717 37.4137 4.64363 37.7912V37.788ZM12.8381 37.7428C13.3829 37.4653 13.5752 36.9941 13.4278 36.4229C13.2867 35.871 12.8124 35.5418 12.2068 35.5677C11.6652 35.5935 11.2229 35.9937 11.1236 36.5423C11.0274 37.0845 11.2678 37.5427 11.7677 37.7332C11.7677 37.4459 11.7741 37.1652 11.7677 36.8876C11.7549 36.51 11.8767 36.2292 12.2965 36.226C12.7259 36.2228 12.8285 36.5294 12.8381 36.8908C12.8445 37.1619 12.8381 37.4362 12.8381 37.7396V37.7428ZM42.3247 13.1672C41.5523 13.1672 40.7832 13.1575 40.0109 13.1769C39.8731 13.1769 39.7353 13.2931 39.5975 13.3544C39.7288 13.4222 39.857 13.548 39.9884 13.5513C41.5619 13.5642 43.1323 13.5642 44.7058 13.5513C44.8243 13.5513 44.9461 13.4383 45.0647 13.377C44.9365 13.306 44.8115 13.1801 44.6801 13.1769C43.895 13.1575 43.1066 13.1672 42.3215 13.1672H42.3247ZM30.8261 16.9205C31.6145 16.9173 32.3997 16.9238 33.1848 16.9076C33.3098 16.9076 33.4316 16.7947 33.5534 16.7334C33.438 16.6656 33.3258 16.5365 33.2105 16.5365C31.6049 16.5236 30.0025 16.5236 28.397 16.5365C28.2912 16.5365 28.1855 16.6494 28.0829 16.7108C28.1951 16.7818 28.304 16.9076 28.4162 16.9109C29.2174 16.927 30.0218 16.9205 30.8229 16.9205H30.8261Z" fill="black"/>
<path d="M12.3058 5.79492C15.0875 5.79492 17.8659 5.79492 20.6476 5.79492C21.2726 5.79492 21.4104 5.93369 21.4104 6.55656C21.4104 9.38687 21.4104 12.2204 21.4104 15.0507C21.4104 15.6703 21.2629 15.8349 20.6572 15.8382C15.081 15.8382 9.50484 15.8382 3.92864 15.8382C3.35499 15.8382 3.17233 15.6542 3.17233 15.083C3.16912 12.2365 3.16912 9.39009 3.17233 6.54365C3.17233 5.96274 3.34858 5.79815 3.91902 5.79815C6.71354 5.79815 9.51125 5.79815 12.3058 5.79815V5.79492ZM20.3111 6.92769H4.27795V14.7409H20.3111V6.92446V6.92769Z" fill="black"/>
<path d="M17.625 27.162C17.6314 28.6885 17.1443 29.8664 16.2214 30.8604C16.0323 31.0637 15.965 31.2186 16.0611 31.5026C16.2662 32.1223 15.9778 32.7451 15.3913 33.0775C14.8305 33.3938 14.1351 33.3293 13.7377 32.8581C13.5134 32.5902 13.3243 32.5192 12.9654 32.5644C10.69 32.8645 8.62619 31.7382 7.56864 29.6728C6.50788 27.5944 6.81232 25.3063 8.39545 23.5862C8.55889 23.4087 8.61978 23.2731 8.53646 23.0214C8.32495 22.3534 8.59415 21.7369 9.19343 21.4013C9.82155 21.0495 10.4497 21.1754 10.956 21.7047C11.081 21.8338 11.3246 21.9532 11.488 21.9241C14.8946 21.3464 17.6603 24.2155 17.625 27.1587V27.162ZM12.8949 31.4252C11.6611 29.0661 10.4304 26.7166 9.19343 24.3543C7.90513 25.4677 7.6776 27.7235 8.6294 29.4017C9.58761 31.096 11.5617 31.8221 12.8981 31.4252H12.8949ZM11.6739 23.0117C12.9333 25.4128 14.1671 27.7719 15.4042 30.1343C16.6123 29.0047 16.904 27.0167 16.122 25.3805C15.2952 23.6507 13.5518 22.7051 11.6739 23.0085V23.0117ZM15.0773 31.8673C14.994 31.6834 14.9331 31.5414 14.8626 31.4058C13.3467 28.511 11.8341 25.6161 10.3151 22.7213C10.2574 22.6115 10.2157 22.4631 10.1228 22.4114C10.0074 22.3469 9.81194 22.3017 9.71259 22.3598C9.61965 22.4147 9.57158 22.6083 9.57158 22.7406C9.57158 22.8503 9.66772 22.9633 9.72541 23.073C11.2476 25.984 12.7667 28.8918 14.2889 31.8028C14.3402 31.8996 14.3787 32.0222 14.4588 32.0739C14.5645 32.1384 14.7216 32.1868 14.8273 32.1513C14.9299 32.1158 14.994 31.9674 15.0741 31.8673H15.0773Z" fill="black"/>
<path d="M19.4207 39.0296C18.1645 39.0393 17.1614 38.0291 17.1582 36.7511C17.1582 35.4731 18.1517 34.4662 19.4143 34.4727C20.6642 34.4791 21.632 35.4505 21.6512 36.7253C21.6736 37.9936 20.677 39.0231 19.4175 39.0328L19.4207 39.0296ZM18.2414 36.7415C18.2414 37.4385 18.7093 37.9226 19.3919 37.9291C20.0745 37.9355 20.5712 37.4515 20.5808 36.7737C20.5937 36.0702 20.0969 35.5603 19.3983 35.5635C18.7125 35.5635 18.2414 36.0444 18.2414 36.7415Z" fill="black"/>
<path d="M20.5562 26.7178C20.7549 26.7178 20.9888 26.6533 21.149 26.7339C21.3541 26.834 21.6041 27.0341 21.6394 27.2245C21.665 27.3762 21.4118 27.7118 21.2484 27.7344C20.7677 27.8022 20.2645 27.8022 19.7838 27.7344C19.63 27.7118 19.4057 27.3794 19.4185 27.2083C19.4345 27.0341 19.6781 26.8178 19.8704 26.7404C20.0691 26.6597 20.3254 26.721 20.5562 26.721V26.7178Z" fill="black"/>
<path d="M12.8642 18.9756C12.8514 19.2079 12.8642 19.4435 12.8194 19.6694C12.7617 19.976 12.5309 20.1567 12.2489 20.0599C12.0598 19.9954 11.8259 19.7759 11.7939 19.592C11.7266 19.1853 11.7618 18.7593 11.7746 18.3398C11.7842 18.0106 11.9861 17.7718 12.2938 17.8234C12.4957 17.8589 12.7264 18.0848 12.8194 18.2849C12.9091 18.4753 12.8386 18.74 12.8386 18.9723H12.8642V18.9756Z" fill="black"/>
<path d="M4.11189 26.7213C4.32661 26.7213 4.56696 26.66 4.74963 26.7375C4.92909 26.8149 5.16304 27.0279 5.16624 27.186C5.16945 27.3732 4.97075 27.7056 4.82334 27.725C4.32981 27.7928 3.81385 27.796 3.31712 27.725C3.17291 27.7056 2.9614 27.3668 2.97742 27.1893C2.99345 27.0182 3.2338 26.8052 3.42288 26.731C3.62157 26.6503 3.87795 26.7116 4.10869 26.7116L4.11189 26.7213Z" fill="black"/>
<path d="M6.94191 22.404C6.76565 22.3104 6.62785 22.2716 6.53171 22.1813C6.24969 21.9199 5.97729 21.6423 5.7113 21.3615C5.47415 21.1098 5.44851 20.8226 5.69528 20.5773C5.94524 20.332 6.22405 20.3675 6.47082 20.6128C6.74642 20.8839 7.04446 21.1389 7.27199 21.4455C7.38096 21.5907 7.41621 21.8618 7.36173 22.0328C7.31366 22.1845 7.08933 22.2781 6.9387 22.4007L6.94191 22.404Z" fill="black"/>
<path d="M17.6131 22.371C17.501 22.2774 17.2991 22.1805 17.2254 22.0256C17.1613 21.8901 17.1741 21.6319 17.267 21.519C17.5619 21.164 17.8855 20.8186 18.2509 20.5411C18.3823 20.441 18.7252 20.4669 18.8566 20.5766C18.988 20.6863 19.0841 21.0575 19.0008 21.164C18.6803 21.5738 18.2861 21.9288 17.9112 22.2935C17.8631 22.3387 17.767 22.3355 17.6099 22.371H17.6131Z" fill="black"/>
<path d="M15.8446 10.8312C15.8446 11.4702 15.8446 12.1059 15.8446 12.7449C15.8446 13.1096 15.6972 13.3549 15.3126 13.3613C14.9152 13.3678 14.771 13.0967 14.7678 12.7482C14.7582 11.4572 14.7614 10.1631 14.7678 8.87221C14.7678 8.52044 14.9376 8.24289 15.3094 8.24612C15.7068 8.24935 15.8542 8.53012 15.8478 8.91416C15.8382 9.55316 15.8478 10.1889 15.8478 10.8279L15.8446 10.8312Z" fill="black"/>
<path d="M5.73443 10.7847C5.73443 10.1457 5.74084 9.50991 5.73443 8.87091C5.73123 8.49977 5.89467 8.24805 6.26321 8.24805C6.63816 8.24805 6.79199 8.51591 6.79199 8.87736C6.79199 10.1683 6.79199 11.4592 6.79199 12.7501C6.79199 13.1051 6.65418 13.3697 6.2568 13.3665C5.86582 13.3633 5.73123 13.1083 5.73443 12.7469C5.73764 12.0949 5.73443 11.4398 5.73443 10.7879V10.7847Z" fill="black"/>
<path d="M17.8828 11.3282C17.8828 10.8635 17.8828 10.3988 17.8828 9.93404C17.8828 9.58872 18.0366 9.35959 18.3956 9.3499C18.7577 9.34022 18.9308 9.56936 18.934 9.90822C18.9436 10.8861 18.9436 11.8607 18.934 12.8386C18.9308 13.1871 18.7321 13.3904 18.3763 13.3711C18.043 13.3549 17.8892 13.1452 17.886 12.816C17.886 12.319 17.886 11.8252 17.886 11.3282H17.8828Z" fill="black"/>
<path d="M9.81241 11.6602C9.81241 12.0475 9.81882 12.4347 9.81241 12.8252C9.806 13.1512 9.63615 13.3545 9.30927 13.3771C8.97278 13.3997 8.76126 13.1964 8.75165 12.8833C8.72601 12.0636 8.72601 11.2406 8.75165 10.4177C8.76126 10.1079 8.95996 9.89488 9.29966 9.91101C9.65538 9.93038 9.81241 10.1531 9.81562 10.4984C9.81562 10.8856 9.81562 11.2729 9.81562 11.6634L9.81241 11.6602Z" fill="black"/>
<path d="M11.7618 12.179C11.7618 11.9176 11.7426 11.6498 11.7682 11.3916C11.8003 11.085 12.0118 10.8784 12.297 10.9527C12.4861 11.0011 12.7521 11.2238 12.7713 11.3948C12.8354 11.8983 12.8098 12.4114 12.7873 12.9213C12.7745 13.2343 12.5406 13.428 12.2586 13.357C12.0695 13.3086 11.8516 13.102 11.7811 12.9148C11.6977 12.6986 11.7618 12.4275 11.7618 12.179Z" fill="black"/>
</svg>
