<svg width="161" height="235" viewBox="0 0 161 235" fill="none" xmlns="http://www.w3.org/2000/svg">
<path d="M36.0131 202.979V185.524H42.1153C43.3312 185.524 44.3341 185.734 45.1238 186.155C45.9136 186.569 46.5017 187.129 46.8881 187.834C47.2744 188.532 47.4676 189.308 47.4676 190.16C47.4676 190.91 47.3341 191.53 47.067 192.018C46.8057 192.507 46.4591 192.893 46.0273 193.177C45.6011 193.461 45.1381 193.672 44.6381 193.808V193.979C45.1721 194.013 45.7091 194.2 46.2488 194.541C46.7886 194.882 47.2403 195.371 47.604 196.007C47.9676 196.643 48.1494 197.422 48.1494 198.342C48.1494 199.217 47.9506 200.004 47.5528 200.703C47.1551 201.402 46.5273 201.956 45.6693 202.365C44.8113 202.774 43.6949 202.979 42.3199 202.979H36.0131ZM38.1267 201.104H42.3199C43.7006 201.104 44.6807 200.836 45.2602 200.302C45.8454 199.763 46.1381 199.109 46.1381 198.342C46.1381 197.751 45.9875 197.206 45.6863 196.706C45.3852 196.2 44.9562 195.797 44.3994 195.496C43.8426 195.189 43.1835 195.035 42.4221 195.035H38.1267V201.104ZM38.1267 193.194H42.0471C42.6835 193.194 43.2574 193.069 43.7687 192.819C44.2858 192.569 44.6949 192.217 44.996 191.763C45.3028 191.308 45.4562 190.774 45.4562 190.16C45.4562 189.393 45.1892 188.743 44.6551 188.209C44.121 187.669 43.2744 187.399 42.1153 187.399H38.1267V193.194ZM59.5997 197.626V189.888H61.6111V202.979H59.5997V200.763H59.4633C59.1565 201.427 58.6792 201.993 58.0315 202.459C57.3838 202.919 56.5656 203.149 55.577 203.149C54.7588 203.149 54.0315 202.97 53.3952 202.612C52.7588 202.248 52.2588 201.703 51.8952 200.976C51.5315 200.243 51.3497 199.319 51.3497 198.206V189.888H53.3611V198.069C53.3611 199.024 53.6281 199.785 54.1622 200.354C54.702 200.922 55.3895 201.206 56.2247 201.206C56.7247 201.206 57.2332 201.078 57.7503 200.822C58.273 200.567 58.7105 200.175 59.0628 199.646C59.4207 199.118 59.5997 198.444 59.5997 197.626ZM65.295 202.979V189.888H67.3064V202.979H65.295ZM66.3177 187.706C65.9257 187.706 65.5876 187.572 65.3035 187.305C65.0251 187.038 64.8859 186.717 64.8859 186.342C64.8859 185.967 65.0251 185.646 65.3035 185.379C65.5876 185.112 65.9257 184.979 66.3177 184.979C66.7098 184.979 67.045 185.112 67.3234 185.379C67.6075 185.646 67.7496 185.967 67.7496 186.342C67.7496 186.717 67.6075 187.038 67.3234 187.305C67.045 187.572 66.7098 187.706 66.3177 187.706ZM73.0017 185.524V202.979H70.9903V185.524H73.0017ZM82.3788 189.888V191.592H75.5947V189.888H82.3788ZM77.572 186.751H79.5834V199.229C79.5834 199.797 79.6657 200.223 79.8305 200.507C80.001 200.785 80.2169 200.973 80.4782 201.069C80.7453 201.16 81.0265 201.206 81.322 201.206C81.5436 201.206 81.7254 201.194 81.8675 201.172C82.0095 201.143 82.1231 201.121 82.2084 201.104L82.6175 202.91C82.4811 202.961 82.2907 203.013 82.0464 203.064C81.8021 203.121 81.4925 203.149 81.1175 203.149C80.5493 203.149 79.9925 203.027 79.447 202.782C78.9072 202.538 78.4584 202.166 78.1004 201.666C77.7481 201.166 77.572 200.535 77.572 199.774V186.751ZM97.9839 189.888V191.592H90.9271V189.888H97.9839ZM93.0407 202.979V188.081C93.0407 187.331 93.2169 186.706 93.5692 186.206C93.9214 185.706 94.3788 185.331 94.9413 185.081C95.5038 184.831 96.0976 184.706 96.7226 184.706C97.2169 184.706 97.6203 184.746 97.9328 184.825C98.2453 184.905 98.4782 184.979 98.6317 185.047L98.0521 186.785C97.9498 186.751 97.8078 186.709 97.626 186.657C97.4498 186.606 97.2169 186.581 96.9271 186.581C96.2623 186.581 95.7822 186.748 95.4868 187.084C95.197 187.419 95.0521 187.91 95.0521 188.558V202.979H93.0407ZM105.582 203.251C104.4 203.251 103.363 202.97 102.471 202.407C101.585 201.845 100.892 201.058 100.392 200.047C99.8973 199.035 99.6501 197.854 99.6501 196.501C99.6501 195.138 99.8973 193.947 100.392 192.93C100.892 191.913 101.585 191.123 102.471 190.561C103.363 189.998 104.4 189.717 105.582 189.717C106.764 189.717 107.798 189.998 108.684 190.561C109.576 191.123 110.269 191.913 110.764 192.93C111.264 193.947 111.514 195.138 111.514 196.501C111.514 197.854 111.264 199.035 110.764 200.047C110.269 201.058 109.576 201.845 108.684 202.407C107.798 202.97 106.764 203.251 105.582 203.251ZM105.582 201.444C106.48 201.444 107.218 201.214 107.798 200.754C108.377 200.294 108.806 199.689 109.085 198.939C109.363 198.189 109.502 197.376 109.502 196.501C109.502 195.626 109.363 194.811 109.085 194.055C108.806 193.3 108.377 192.689 107.798 192.223C107.218 191.757 106.48 191.524 105.582 191.524C104.684 191.524 103.946 191.757 103.366 192.223C102.786 192.689 102.358 193.3 102.079 194.055C101.801 194.811 101.661 195.626 101.661 196.501C101.661 197.376 101.801 198.189 102.079 198.939C102.358 199.689 102.786 200.294 103.366 200.754C103.946 201.214 104.684 201.444 105.582 201.444ZM114.584 202.979V189.888H116.527V191.865H116.664C116.902 191.217 117.334 190.692 117.959 190.288C118.584 189.885 119.289 189.683 120.073 189.683C120.22 189.683 120.405 189.686 120.627 189.692C120.848 189.697 121.016 189.706 121.13 189.717V191.763C121.061 191.746 120.905 191.72 120.661 191.686C120.422 191.646 120.169 191.626 119.902 191.626C119.266 191.626 118.698 191.76 118.198 192.027C117.703 192.288 117.311 192.652 117.022 193.118C116.737 193.578 116.595 194.104 116.595 194.694V202.979H114.584ZM22.4662 231.979V214.524H33.0003V216.399H24.5798V222.297H32.4548V224.172H24.5798V230.104H33.1366V231.979H22.4662ZM38.5486 224.104V231.979H36.5372V218.888H38.4804V220.933H38.6508C38.9577 220.268 39.4236 219.734 40.0486 219.331C40.6736 218.922 41.4804 218.717 42.469 218.717C43.3554 218.717 44.1309 218.899 44.7957 219.263C45.4605 219.621 45.9775 220.166 46.3469 220.899C46.7162 221.626 46.9008 222.547 46.9008 223.66V231.979H44.8895V223.797C44.8895 222.768 44.6224 221.967 44.0883 221.393C43.5542 220.814 42.8213 220.524 41.8895 220.524C41.2474 220.524 40.6736 220.663 40.1679 220.942C39.6679 221.22 39.273 221.626 38.9832 222.16C38.6934 222.694 38.5486 223.342 38.5486 224.104ZM55.5194 232.251C54.4285 232.251 53.4655 231.976 52.6302 231.425C51.795 230.868 51.1416 230.084 50.67 229.072C50.1984 228.055 49.9626 226.854 49.9626 225.467C49.9626 224.092 50.1984 222.899 50.67 221.888C51.1416 220.876 51.7979 220.095 52.6388 219.544C53.4797 218.993 54.4513 218.717 55.5535 218.717C56.4058 218.717 57.0791 218.859 57.5734 219.143C58.0734 219.422 58.4541 219.74 58.7155 220.098C58.9825 220.45 59.1899 220.74 59.3376 220.967H59.5081V214.524H61.5194V231.979H59.5763V229.967H59.3376C59.1899 230.206 58.9797 230.507 58.7069 230.871C58.4342 231.229 58.045 231.55 57.5393 231.834C57.0336 232.112 56.3604 232.251 55.5194 232.251ZM55.7922 230.444C56.599 230.444 57.2808 230.234 57.8376 229.814C58.3944 229.388 58.8177 228.8 59.1075 228.05C59.3973 227.294 59.5422 226.422 59.5422 225.433C59.5422 224.456 59.4001 223.601 59.116 222.868C58.8319 222.129 58.4115 221.555 57.8547 221.146C57.2979 220.731 56.6104 220.524 55.7922 220.524C54.9399 220.524 54.2297 220.743 53.6615 221.18C53.099 221.612 52.6757 222.2 52.3916 222.944C52.1132 223.683 51.974 224.513 51.974 225.433C51.974 226.365 52.116 227.211 52.4001 227.973C52.6899 228.729 53.116 229.331 53.6785 229.78C54.2467 230.223 54.9513 230.444 55.7922 230.444ZM73.7325 226.626V218.888H75.7439V231.979H73.7325V229.763H73.5961C73.2893 230.427 72.8121 230.993 72.1643 231.459C71.5166 231.919 70.6984 232.149 69.7098 232.149C68.8916 232.149 68.1643 231.97 67.528 231.612C66.8916 231.248 66.3916 230.703 66.028 229.976C65.6643 229.243 65.4825 228.319 65.4825 227.206V218.888H67.4939V227.069C67.4939 228.024 67.7609 228.785 68.295 229.354C68.8348 229.922 69.5223 230.206 70.3575 230.206C70.8575 230.206 71.366 230.078 71.8831 229.822C72.4058 229.567 72.8433 229.175 73.1956 228.646C73.5535 228.118 73.7325 227.444 73.7325 226.626ZM79.4278 231.979V218.888H81.371V220.865H81.5074C81.746 220.217 82.1778 219.692 82.8028 219.288C83.4278 218.885 84.1324 218.683 84.9165 218.683C85.0642 218.683 85.2488 218.686 85.4704 218.692C85.692 218.697 85.8596 218.706 85.9733 218.717V220.763C85.9051 220.746 85.7488 220.72 85.5045 220.686C85.2659 220.646 85.0131 220.626 84.746 220.626C84.1096 220.626 83.5415 220.76 83.0415 221.027C82.5471 221.288 82.1551 221.652 81.8653 222.118C81.5812 222.578 81.4392 223.104 81.4392 223.694V231.979H79.4278ZM92.2098 232.285C91.3802 232.285 90.6274 232.129 89.9513 231.817C89.2751 231.498 88.7382 231.041 88.3405 230.444C87.9427 229.842 87.7439 229.115 87.7439 228.263C87.7439 227.513 87.8916 226.905 88.1871 226.439C88.4825 225.967 88.8774 225.598 89.3717 225.331C89.866 225.064 90.4115 224.865 91.0081 224.734C91.6104 224.598 92.2155 224.49 92.8234 224.41C93.6189 224.308 94.2638 224.231 94.7581 224.18C95.2581 224.123 95.6217 224.03 95.849 223.899C96.0819 223.768 96.1984 223.541 96.1984 223.217V223.149C96.1984 222.308 95.9683 221.655 95.5081 221.189C95.0535 220.723 94.3632 220.49 93.4371 220.49C92.4768 220.49 91.724 220.7 91.1785 221.121C90.6331 221.541 90.2496 221.99 90.028 222.467L88.1189 221.785C88.4598 220.99 88.9143 220.371 89.4825 219.927C90.0564 219.479 90.6814 219.166 91.3575 218.99C92.0393 218.808 92.7098 218.717 93.3689 218.717C93.7893 218.717 94.2723 218.768 94.8177 218.871C95.3689 218.967 95.9001 219.169 96.4115 219.476C96.9285 219.782 97.3575 220.246 97.6984 220.865C98.0393 221.484 98.2098 222.314 98.2098 223.354V231.979H96.1984V230.206H96.0961C95.9598 230.49 95.7325 230.794 95.4143 231.118C95.0961 231.442 94.6729 231.717 94.1444 231.944C93.616 232.172 92.9711 232.285 92.2098 232.285ZM92.5166 230.479C93.3121 230.479 93.9825 230.322 94.528 230.01C95.0791 229.697 95.4939 229.294 95.7723 228.8C96.0564 228.305 96.1984 227.785 96.1984 227.24V225.399C96.1132 225.501 95.9257 225.595 95.6359 225.68C95.3518 225.76 95.0223 225.831 94.6473 225.893C94.278 225.95 93.9172 226.001 93.5649 226.047C93.2183 226.086 92.9371 226.121 92.7211 226.149C92.1984 226.217 91.7098 226.328 91.2552 226.481C90.8064 226.629 90.4427 226.854 90.1643 227.155C89.8916 227.45 89.7552 227.854 89.7552 228.365C89.7552 229.064 90.0138 229.592 90.5308 229.95C91.0535 230.302 91.7155 230.479 92.5166 230.479ZM103.892 224.104V231.979H101.881V218.888H103.824V220.933H103.995C104.301 220.268 104.767 219.734 105.392 219.331C106.017 218.922 106.824 218.717 107.813 218.717C108.699 218.717 109.475 218.899 110.139 219.263C110.804 219.621 111.321 220.166 111.691 220.899C112.06 221.626 112.245 222.547 112.245 223.66V231.979H110.233V223.797C110.233 222.768 109.966 221.967 109.432 221.393C108.898 220.814 108.165 220.524 107.233 220.524C106.591 220.524 106.017 220.663 105.512 220.942C105.012 221.22 104.617 221.626 104.327 222.16C104.037 222.694 103.892 223.342 103.892 224.104ZM121.238 232.251C120.011 232.251 118.954 231.961 118.068 231.382C117.181 230.802 116.5 230.004 116.022 228.987C115.545 227.97 115.306 226.808 115.306 225.501C115.306 224.172 115.551 222.998 116.039 221.981C116.534 220.959 117.221 220.16 118.102 219.586C118.988 219.007 120.022 218.717 121.204 218.717C122.125 218.717 122.954 218.888 123.693 219.229C124.431 219.569 125.036 220.047 125.508 220.66C125.98 221.274 126.272 221.99 126.386 222.808H124.375C124.221 222.211 123.88 221.683 123.352 221.223C122.829 220.757 122.125 220.524 121.238 220.524C120.454 220.524 119.767 220.729 119.176 221.138C118.59 221.541 118.133 222.112 117.804 222.851C117.48 223.584 117.318 224.444 117.318 225.433C117.318 226.444 117.477 227.325 117.795 228.075C118.119 228.825 118.573 229.407 119.159 229.822C119.75 230.237 120.443 230.444 121.238 230.444C121.761 230.444 122.235 230.354 122.661 230.172C123.088 229.99 123.448 229.729 123.744 229.388C124.039 229.047 124.25 228.638 124.375 228.16H126.386C126.272 228.933 125.991 229.629 125.542 230.248C125.099 230.862 124.511 231.351 123.778 231.714C123.051 232.072 122.204 232.251 121.238 232.251ZM134.815 232.251C133.554 232.251 132.465 231.973 131.551 231.416C130.642 230.854 129.94 230.069 129.446 229.064C128.957 228.052 128.713 226.876 128.713 225.535C128.713 224.194 128.957 223.013 129.446 221.99C129.94 220.961 130.627 220.16 131.508 219.586C132.394 219.007 133.429 218.717 134.61 218.717C135.292 218.717 135.965 218.831 136.63 219.058C137.295 219.285 137.9 219.655 138.446 220.166C138.991 220.672 139.426 221.342 139.75 222.177C140.073 223.013 140.235 224.041 140.235 225.263V226.115H130.144V224.376H138.19C138.19 223.638 138.042 222.979 137.747 222.399C137.457 221.819 137.042 221.362 136.502 221.027C135.968 220.692 135.338 220.524 134.61 220.524C133.809 220.524 133.116 220.723 132.531 221.121C131.951 221.513 131.505 222.024 131.193 222.655C130.88 223.285 130.724 223.961 130.724 224.683V225.842C130.724 226.831 130.894 227.669 131.235 228.356C131.582 229.038 132.062 229.558 132.676 229.916C133.289 230.268 134.002 230.444 134.815 230.444C135.343 230.444 135.821 230.371 136.247 230.223C136.679 230.069 137.051 229.842 137.363 229.541C137.676 229.234 137.917 228.854 138.088 228.399L140.031 228.944C139.826 229.604 139.483 230.183 139 230.683C138.517 231.177 137.92 231.564 137.21 231.842C136.5 232.115 135.701 232.251 134.815 232.251Z" fill="black"/>
<circle cx="80.9046" cy="80.5647" r="78.0022" fill="white" stroke="#777100" stroke-width="4"/>
<circle cx="80.9028" cy="80.5649" r="69.3657" fill="white"/>
<path d="M119.658 65.4945C119.658 70.0022 119.566 74.516 119.677 79.0237C119.867 86.4033 117.998 93.2417 114.154 99.4713C106.547 111.808 95.7915 120.251 82.0102 124.771C81.3583 124.986 80.522 124.986 79.8578 124.789C72.1154 122.508 65.3631 118.418 59.2688 113.197C53.7956 108.505 49.2448 103.063 46.0347 96.5626C43.501 91.4337 42.0989 86.0344 42.1174 80.2721C42.1481 69.6701 42.1235 59.0743 42.1235 48.4723C42.1235 46.9103 42.308 46.652 43.8823 46.4982C53.033 45.6065 61.1198 41.9967 68.6224 36.8617C69.1697 36.4866 69.9261 36.2345 70.5841 36.2345C77.4225 36.1914 84.2609 36.216 91.0994 36.1914C91.9173 36.1914 92.5814 36.4066 93.2517 36.874C99.3092 41.0988 105.846 44.2598 113.121 45.7603C114.726 46.0923 116.362 46.2645 117.986 46.4982C119.437 46.7073 119.652 46.9349 119.652 48.3862C119.652 54.0869 119.652 59.7938 119.652 65.4945H119.658ZM44.6941 48.9581C44.6756 49.284 44.651 49.5239 44.651 49.7575C44.651 60.089 44.651 70.4142 44.651 80.7457C44.651 85.2964 45.6903 89.6134 47.5106 93.7583C50.6408 100.904 55.5052 106.734 61.4211 111.715C66.9927 116.407 73.1424 120.116 80.1653 122.25C80.6388 122.391 81.2415 122.391 81.7088 122.237C93.4608 118.351 102.851 111.217 110.046 101.224C114.911 94.4717 117.358 86.9506 117.186 78.5195C116.989 69.0306 117.143 59.5355 117.143 50.0404V49.0319C115.354 48.706 113.675 48.46 112.014 48.0971C104.776 46.5044 98.2391 43.3373 92.1387 39.1924C91.7697 38.9403 91.2839 38.7374 90.8472 38.7312C84.2179 38.7005 77.5886 38.7066 70.9592 38.7251C70.6026 38.7251 70.1844 38.8358 69.8892 39.0387C62.2636 44.2475 54.0231 47.8819 44.6941 48.9581Z" fill="black"/>
<path d="M113.364 67.9867C113.364 71.6273 113.265 75.274 113.382 78.9146C113.597 85.5932 111.703 91.6567 108.136 97.2037C101.851 106.976 93.2295 113.918 82.3754 118.088C81.3669 118.475 80.4629 118.494 79.4482 118.1C67.0505 113.224 57.4877 105.143 51.4426 93.1634C49.3579 89.0308 48.3801 84.6092 48.4109 79.9478C48.4601 71.3198 48.4232 62.6918 48.4232 54.0639C48.4232 52.3912 48.5093 52.2682 50.1451 51.9177C57.5246 50.3187 64.2647 47.2316 70.5804 43.1544C71.1646 42.7793 71.9517 42.5394 72.6466 42.5333C78.1075 42.4841 83.5746 42.521 89.0416 42.4902C89.9272 42.4902 90.6467 42.7301 91.3723 43.2036C97.3252 47.1209 103.715 50.0605 110.676 51.684C113.579 52.3604 113.364 51.8992 113.364 55.097C113.364 59.3956 113.364 63.6942 113.364 67.9929V67.9867ZM50.9445 54.5805V55.3799C50.9445 63.5897 50.9753 71.7995 50.9322 80.0093C50.9138 83.8959 51.6333 87.6225 53.2814 91.1217C58.8222 102.874 67.9852 110.727 79.8909 115.579C80.592 115.868 81.2193 115.856 81.9326 115.579C91.9873 111.612 100 105.118 105.886 96.066C108.893 91.4415 110.811 86.3988 110.83 80.7841C110.854 72.1869 110.842 63.5897 110.836 54.9925C110.836 54.7895 110.811 54.5805 110.799 54.3714C110.67 54.316 110.565 54.2607 110.449 54.2299C103.063 52.5511 96.2982 49.4455 89.9641 45.3437C89.6443 45.1346 89.1892 45.0423 88.7956 45.0423C83.5438 45.0239 78.2859 45.0177 73.0341 45.0423C72.5606 45.0423 72.0563 45.233 71.632 45.4544C68.1574 47.287 64.7812 49.3532 61.2021 50.9522C57.9551 52.4035 54.4806 53.3567 50.9384 54.5866L50.9445 54.5805Z" fill="black"/>
<path d="M74.804 57.5042C79.7852 56.1821 84.502 56.4034 89.1142 58.236C100.86 62.9098 106.327 76.5067 101.1 88.0004C100.965 88.2956 100.829 88.603 100.645 88.8675C100.276 89.3963 99.7408 89.5624 99.1504 89.3164C98.517 89.052 98.2772 88.5292 98.4309 87.8589C98.4801 87.6314 98.5908 87.41 98.6892 87.1948C104.046 75.4428 97.3547 62.178 84.7172 59.5459C81.9376 58.9679 79.1456 59.0355 76.1876 59.755C76.5259 59.9026 76.7288 59.9702 76.9071 60.0748C77.4545 60.3823 77.7435 60.8496 77.5898 61.4831C77.436 62.1103 76.9748 62.51 76.3537 62.4363C74.4288 62.221 72.504 61.975 70.5976 61.6429C69.6751 61.4831 69.3062 60.5237 69.8535 59.7673C70.9727 58.2237 72.1535 56.7171 73.3526 55.235C73.8077 54.6754 74.4534 54.6323 75.0315 55.0874C75.6034 55.5425 75.6711 56.1329 75.3021 56.7601C75.1791 56.9631 75.0376 57.1537 74.8101 57.4919L74.804 57.5042Z" fill="#777100"/>
<path d="M85.6883 97.8281C84.3661 97.4161 83.9418 96.8196 84.2554 96.0079C84.4952 95.399 84.9749 95.1162 85.596 95.1899C87.3733 95.4113 89.1505 95.6389 90.9155 95.9218C92.1823 96.1247 92.5451 97.1209 91.7641 98.1602C90.7925 99.4455 89.7962 100.712 88.8 101.979C88.0928 102.883 87.4225 103.074 86.7645 102.576C86.131 102.096 86.1249 101.487 86.7276 100.534C86.7706 100.466 86.7829 100.38 86.8013 100.325C85.3808 100.528 83.9787 100.805 82.5642 100.909C70.7139 101.764 60.4993 93.4803 58.9004 81.6915C58.3223 77.4174 58.9988 73.3095 60.8191 69.3983C61.3049 68.359 61.9137 68.0208 62.6701 68.3406C63.4388 68.6726 63.5864 69.4106 63.0944 70.4868C57.898 81.7837 64.0415 94.7533 76.0763 97.8712C79.1081 98.6584 82.1522 98.6707 85.2086 98.0003C85.3131 97.9757 85.4177 97.9265 85.6944 97.822L85.6883 97.8281Z" fill="#777100"/>
<path d="M78.407 79.1316C80.4917 77.4527 82.5088 75.8292 84.5259 74.2057C85.3868 73.5108 86.2355 72.8036 87.1087 72.1333C88.7753 70.848 90.9707 71.0571 92.2375 72.6006C93.5413 74.1934 93.326 76.4257 91.6595 77.7787C87.7667 80.9457 83.8678 84.0944 79.9444 87.2184C78.1487 88.6451 75.8671 88.2823 74.5511 86.3882C73.1244 84.328 71.7161 82.2556 70.3386 80.1586C69.1825 78.3998 69.5945 76.2289 71.2426 75.0913C72.9276 73.929 75.123 74.3595 76.3591 76.106C77.0417 77.0776 77.6936 78.0677 78.407 79.1254V79.1316ZM77.5891 85.6871C78.0318 85.4165 78.4008 85.232 78.7144 84.9799C81.6048 82.6676 84.4767 80.3431 87.3608 78.0185C88.2218 77.3236 89.0828 76.6348 89.9437 75.9399C90.5218 75.4725 90.7924 74.9252 90.3065 74.2426C89.913 73.6891 89.2488 73.6768 88.5723 74.1811C88.4555 74.2672 88.3386 74.3656 88.2218 74.464C85.2454 76.8624 82.2751 79.2607 79.2987 81.6529C78.2225 82.5139 77.5891 82.4155 76.7957 81.2594C75.9655 80.054 75.1661 78.8302 74.3359 77.6311C73.8685 76.9608 73.1859 76.7824 72.657 77.2006C72.0482 77.6803 72.0851 78.2706 72.4848 78.861C73.8501 80.8904 75.2153 82.9198 76.6113 84.9307C76.8265 85.2382 77.2262 85.4165 77.5891 85.6871Z" fill="#777100"/>
</svg>
