<svg width="160" height="237" viewBox="0 0 160 237" fill="none" xmlns="http://www.w3.org/2000/svg">
<path d="M52.3085 190.416H50.1949C50.0699 189.808 49.8511 189.274 49.5386 188.814C49.2318 188.354 48.8568 187.967 48.4136 187.655C47.9761 187.336 47.4903 187.098 46.9562 186.939C46.4221 186.78 45.8653 186.7 45.2858 186.7C44.229 186.7 43.2716 186.967 42.4136 187.501C41.5613 188.035 40.8824 188.822 40.3767 189.862C39.8767 190.902 39.6267 192.177 39.6267 193.689C39.6267 195.2 39.8767 196.476 40.3767 197.515C40.8824 198.555 41.5613 199.342 42.4136 199.876C43.2716 200.41 44.229 200.677 45.2858 200.677C45.8653 200.677 46.4221 200.598 46.9562 200.439C47.4903 200.28 47.9761 200.044 48.4136 199.731C48.8568 199.413 49.2318 199.024 49.5386 198.564C49.8511 198.098 50.0699 197.564 50.1949 196.961H52.3085C52.1494 197.854 51.8596 198.652 51.4392 199.356C51.0187 200.061 50.496 200.66 49.871 201.155C49.246 201.643 48.5443 202.015 47.7659 202.271C46.9932 202.527 46.1665 202.655 45.2858 202.655C43.7971 202.655 42.4733 202.291 41.3142 201.564C40.1551 200.836 39.2432 199.802 38.5784 198.461C37.9136 197.121 37.5812 195.53 37.5812 193.689C37.5812 191.848 37.9136 190.257 38.5784 188.916C39.2432 187.575 40.1551 186.541 41.3142 185.814C42.4733 185.086 43.7971 184.723 45.2858 184.723C46.1665 184.723 46.9932 184.851 47.7659 185.106C48.5443 185.362 49.246 185.737 49.871 186.231C50.496 186.72 51.0187 187.317 51.4392 188.021C51.8596 188.72 52.1494 189.518 52.3085 190.416ZM63.7013 197.064V189.325H65.7126V202.416H63.7013V200.2H63.5649C63.2581 200.865 62.7808 201.43 62.1331 201.896C61.4854 202.356 60.6672 202.586 59.6785 202.586C58.8604 202.586 58.1331 202.407 57.4967 202.05C56.8604 201.686 56.3604 201.14 55.9967 200.413C55.6331 199.68 55.4513 198.757 55.4513 197.643V189.325H57.4626V197.507C57.4626 198.461 57.7297 199.223 58.2638 199.791C58.8035 200.359 59.491 200.643 60.3263 200.643C60.8263 200.643 61.3348 200.515 61.8518 200.26C62.3746 200.004 62.8121 199.612 63.1643 199.084C63.5223 198.555 63.7013 197.882 63.7013 197.064ZM78.6693 192.257L76.8625 192.768C76.7488 192.467 76.5812 192.175 76.3596 191.89C76.1437 191.601 75.8483 191.362 75.4733 191.175C75.0983 190.987 74.6182 190.893 74.0329 190.893C73.2318 190.893 72.5642 191.078 72.0301 191.447C71.5017 191.811 71.2375 192.274 71.2375 192.836C71.2375 193.336 71.4193 193.731 71.7829 194.021C72.1466 194.311 72.7148 194.552 73.4875 194.746L75.4307 195.223C76.6011 195.507 77.4733 195.942 78.0471 196.527C78.621 197.106 78.9079 197.854 78.9079 198.768C78.9079 199.518 78.692 200.189 78.2602 200.78C77.8341 201.371 77.2375 201.836 76.4704 202.177C75.7034 202.518 74.8113 202.689 73.7943 202.689C72.4591 202.689 71.354 202.399 70.479 201.819C69.604 201.24 69.05 200.393 68.817 199.28L70.7261 198.802C70.9079 199.507 71.2517 200.035 71.7574 200.388C72.2687 200.74 72.9363 200.916 73.7602 200.916C74.6977 200.916 75.442 200.717 75.9932 200.319C76.55 199.916 76.8284 199.433 76.8284 198.871C76.8284 198.416 76.6693 198.035 76.3511 197.729C76.0329 197.416 75.5443 197.183 74.8852 197.03L72.7034 196.518C71.5045 196.234 70.6238 195.794 70.0613 195.197C69.5045 194.595 69.2261 193.842 69.2261 192.939C69.2261 192.2 69.4335 191.547 69.8483 190.979C70.2687 190.41 70.8398 189.964 71.5613 189.64C72.2886 189.317 73.1125 189.155 74.0329 189.155C75.3284 189.155 76.3454 189.439 77.0841 190.007C77.8284 190.575 78.3568 191.325 78.6693 192.257ZM87.6288 189.325V191.03H80.8447V189.325H87.6288ZM82.822 186.189H84.8334V198.666C84.8334 199.234 84.9157 199.66 85.0805 199.944C85.251 200.223 85.4669 200.41 85.7282 200.507C85.9953 200.598 86.2765 200.643 86.572 200.643C86.7936 200.643 86.9754 200.632 87.1175 200.609C87.2595 200.581 87.3731 200.558 87.4584 200.541L87.8675 202.348C87.7311 202.399 87.5407 202.45 87.2964 202.501C87.0521 202.558 86.7425 202.586 86.3675 202.586C85.7993 202.586 85.2425 202.464 84.697 202.22C84.1572 201.976 83.7084 201.604 83.3504 201.104C82.9981 200.604 82.822 199.973 82.822 199.211V186.189ZM95.8319 202.689C94.6501 202.689 93.6132 202.407 92.7211 201.845C91.8348 201.282 91.1416 200.496 90.6416 199.484C90.1473 198.473 89.9001 197.291 89.9001 195.939C89.9001 194.575 90.1473 193.385 90.6416 192.368C91.1416 191.351 91.8348 190.561 92.7211 189.998C93.6132 189.436 94.6501 189.155 95.8319 189.155C97.0138 189.155 98.0479 189.436 98.9342 189.998C99.8263 190.561 100.519 191.351 101.014 192.368C101.514 193.385 101.764 194.575 101.764 195.939C101.764 197.291 101.514 198.473 101.014 199.484C100.519 200.496 99.8263 201.282 98.9342 201.845C98.0479 202.407 97.0138 202.689 95.8319 202.689ZM95.8319 200.882C96.7297 200.882 97.4683 200.652 98.0479 200.192C98.6274 199.731 99.0564 199.126 99.3348 198.376C99.6132 197.626 99.7524 196.814 99.7524 195.939C99.7524 195.064 99.6132 194.248 99.3348 193.493C99.0564 192.737 98.6274 192.126 98.0479 191.66C97.4683 191.194 96.7297 190.961 95.8319 190.961C94.9342 190.961 94.1956 191.194 93.616 191.66C93.0365 192.126 92.6075 192.737 92.3291 193.493C92.0507 194.248 91.9115 195.064 91.9115 195.939C91.9115 196.814 92.0507 197.626 92.3291 198.376C92.6075 199.126 93.0365 199.731 93.616 200.192C94.1956 200.652 94.9342 200.882 95.8319 200.882ZM104.834 202.416V189.325H106.777V191.371H106.948C107.22 190.672 107.661 190.129 108.269 189.743C108.877 189.351 109.607 189.155 110.459 189.155C111.323 189.155 112.041 189.351 112.615 189.743C113.195 190.129 113.647 190.672 113.97 191.371H114.107C114.442 190.694 114.945 190.157 115.615 189.76C116.286 189.356 117.09 189.155 118.027 189.155C119.198 189.155 120.155 189.521 120.899 190.254C121.644 190.981 122.016 192.115 122.016 193.655V202.416H120.005V193.655C120.005 192.689 119.74 191.998 119.212 191.584C118.684 191.169 118.061 190.961 117.345 190.961C116.425 190.961 115.712 191.24 115.206 191.797C114.701 192.348 114.448 193.047 114.448 193.893V202.416H112.402V193.45C112.402 192.706 112.161 192.106 111.678 191.652C111.195 191.192 110.573 190.961 109.811 190.961C109.289 190.961 108.8 191.101 108.345 191.379C107.897 191.657 107.533 192.044 107.255 192.538C106.982 193.027 106.845 193.592 106.845 194.234V202.416H104.834ZM20.686 231.416H18.4701L24.8792 213.961H27.061L33.4701 231.416H31.2542L26.0383 216.723H25.9019L20.686 231.416ZM21.5042 224.598H30.436V226.473H21.5042V224.598ZM40.8593 231.689C39.7684 231.689 38.8053 231.413 37.9701 230.862C37.1349 230.305 36.4814 229.521 36.0099 228.51C35.5383 227.493 35.3025 226.291 35.3025 224.905C35.3025 223.53 35.5383 222.336 36.0099 221.325C36.4814 220.314 37.1377 219.532 37.9786 218.981C38.8195 218.43 39.7911 218.155 40.8934 218.155C41.7457 218.155 42.4189 218.297 42.9133 218.581C43.4133 218.859 43.7939 219.177 44.0553 219.535C44.3224 219.888 44.5297 220.177 44.6775 220.405H44.8479V213.961H46.8593V231.416H44.9161V229.405H44.6775C44.5297 229.643 44.3195 229.944 44.0468 230.308C43.7741 230.666 43.3849 230.987 42.8792 231.271C42.3735 231.55 41.7002 231.689 40.8593 231.689ZM41.132 229.882C41.9388 229.882 42.6207 229.672 43.1775 229.251C43.7343 228.825 44.1576 228.237 44.4474 227.487C44.7371 226.731 44.882 225.859 44.882 224.871C44.882 223.893 44.74 223.038 44.4559 222.305C44.1718 221.567 43.7513 220.993 43.1945 220.584C42.6377 220.169 41.9502 219.961 41.132 219.961C40.2797 219.961 39.5695 220.18 39.0013 220.618C38.4388 221.05 38.0155 221.638 37.7314 222.382C37.453 223.121 37.3138 223.95 37.3138 224.871C37.3138 225.802 37.4559 226.649 37.74 227.41C38.0297 228.166 38.4559 228.768 39.0184 229.217C39.5866 229.66 40.2911 229.882 41.132 229.882ZM54.6746 231.723C53.8451 231.723 53.0922 231.567 52.4161 231.254C51.74 230.936 51.203 230.479 50.8053 229.882C50.4076 229.28 50.2087 228.552 50.2087 227.7C50.2087 226.95 50.3564 226.342 50.6519 225.876C50.9474 225.405 51.3422 225.035 51.8366 224.768C52.3309 224.501 52.8763 224.302 53.4729 224.172C54.0752 224.035 54.6803 223.927 55.2883 223.848C56.0837 223.746 56.7286 223.669 57.2229 223.618C57.7229 223.561 58.0866 223.467 58.3138 223.336C58.5468 223.206 58.6633 222.979 58.6633 222.655V222.586C58.6633 221.746 58.4332 221.092 57.9729 220.626C57.5184 220.16 56.828 219.927 55.9019 219.927C54.9417 219.927 54.1888 220.138 53.6434 220.558C53.0979 220.979 52.7144 221.427 52.4928 221.905L50.5837 221.223C50.9246 220.427 51.3792 219.808 51.9474 219.365C52.5212 218.916 53.1462 218.604 53.8224 218.427C54.5042 218.246 55.1746 218.155 55.8337 218.155C56.2542 218.155 56.7371 218.206 57.2826 218.308C57.8337 218.405 58.365 218.606 58.8763 218.913C59.3934 219.22 59.8224 219.683 60.1633 220.302C60.5042 220.922 60.6746 221.751 60.6746 222.791V231.416H58.6633V229.643H58.561C58.4246 229.927 58.1974 230.231 57.8792 230.555C57.561 230.879 57.1377 231.155 56.6093 231.382C56.0809 231.609 55.436 231.723 54.6746 231.723ZM54.9814 229.916C55.7769 229.916 56.4474 229.76 56.9928 229.447C57.5439 229.135 57.9587 228.731 58.2371 228.237C58.5212 227.743 58.6633 227.223 58.6633 226.677V224.836C58.578 224.939 58.3905 225.032 58.1008 225.118C57.8167 225.197 57.4871 225.268 57.1121 225.331C56.7428 225.388 56.382 225.439 56.0297 225.484C55.6832 225.524 55.4019 225.558 55.186 225.586C54.6633 225.655 54.1746 225.765 53.7201 225.919C53.2712 226.067 52.9076 226.291 52.6292 226.592C52.3564 226.888 52.2201 227.291 52.2201 227.802C52.2201 228.501 52.4786 229.03 52.9957 229.388C53.5184 229.74 54.1803 229.916 54.9814 229.916ZM64.3458 236.325V218.325H66.289V220.405H66.5276C66.6753 220.177 66.8799 219.888 67.1412 219.535C67.4083 219.177 67.789 218.859 68.2833 218.581C68.7833 218.297 69.4594 218.155 70.3117 218.155C71.414 218.155 72.3856 218.43 73.2265 218.981C74.0674 219.532 74.7236 220.314 75.1952 221.325C75.6668 222.336 75.9026 223.53 75.9026 224.905C75.9026 226.291 75.6668 227.493 75.1952 228.51C74.7236 229.521 74.0702 230.305 73.235 230.862C72.3998 231.413 71.4367 231.689 70.3458 231.689C69.5049 231.689 68.8316 231.55 68.3259 231.271C67.8202 230.987 67.431 230.666 67.1583 230.308C66.8856 229.944 66.6753 229.643 66.5276 229.405H66.3572V236.325H64.3458ZM66.3231 224.871C66.3231 225.859 66.468 226.731 66.7577 227.487C67.0475 228.237 67.4708 228.825 68.0276 229.251C68.5844 229.672 69.2662 229.882 70.0731 229.882C70.914 229.882 71.6157 229.66 72.1782 229.217C72.7464 228.768 73.1725 228.166 73.4566 227.41C73.7464 226.649 73.8912 225.802 73.8912 224.871C73.8912 223.95 73.7492 223.121 73.4651 222.382C73.1867 221.638 72.7634 221.05 72.1952 220.618C71.6327 220.18 70.9253 219.961 70.0731 219.961C69.2549 219.961 68.5674 220.169 68.0106 220.584C67.4537 220.993 67.0333 221.567 66.7492 222.305C66.4651 223.038 66.3231 223.893 66.3231 224.871ZM84.664 218.325V220.03H77.8799V218.325H84.664ZM79.8572 215.189H81.8685V227.666C81.8685 228.234 81.9509 228.66 82.1157 228.944C82.2861 229.223 82.502 229.41 82.7634 229.507C83.0305 229.598 83.3117 229.643 83.6072 229.643C83.8287 229.643 84.0106 229.632 84.1526 229.609C84.2947 229.581 84.4083 229.558 84.4935 229.541L84.9026 231.348C84.7662 231.399 84.5759 231.45 84.3316 231.501C84.0873 231.558 83.7776 231.586 83.4026 231.586C82.8344 231.586 82.2776 231.464 81.7322 231.22C81.1924 230.976 80.7435 230.604 80.3856 230.104C80.0333 229.604 79.8572 228.973 79.8572 228.211V215.189ZM91.5418 231.723C90.7123 231.723 89.9594 231.567 89.2833 231.254C88.6072 230.936 88.0702 230.479 87.6725 229.882C87.2748 229.28 87.0759 228.552 87.0759 227.7C87.0759 226.95 87.2236 226.342 87.5191 225.876C87.8145 225.405 88.2094 225.035 88.7037 224.768C89.1981 224.501 89.7435 224.302 90.3401 224.172C90.9424 224.035 91.5475 223.927 92.1555 223.848C92.9509 223.746 93.5958 223.669 94.0901 223.618C94.5901 223.561 94.9537 223.467 95.181 223.336C95.414 223.206 95.5305 222.979 95.5305 222.655V222.586C95.5305 221.746 95.3003 221.092 94.8401 220.626C94.3856 220.16 93.6952 219.927 92.7691 219.927C91.8089 219.927 91.056 220.138 90.5106 220.558C89.9651 220.979 89.5816 221.427 89.36 221.905L87.4509 221.223C87.7918 220.427 88.2464 219.808 88.8145 219.365C89.3884 218.916 90.0134 218.604 90.6895 218.427C91.3714 218.246 92.0418 218.155 92.7009 218.155C93.1214 218.155 93.6043 218.206 94.1498 218.308C94.7009 218.405 95.2322 218.606 95.7435 218.913C96.2606 219.22 96.6895 219.683 97.0305 220.302C97.3714 220.922 97.5418 221.751 97.5418 222.791V231.416H95.5305V229.643H95.4282C95.2918 229.927 95.0645 230.231 94.7464 230.555C94.4282 230.879 94.0049 231.155 93.4765 231.382C92.9481 231.609 92.3032 231.723 91.5418 231.723ZM91.8486 229.916C92.6441 229.916 93.3145 229.76 93.86 229.447C94.4111 229.135 94.8259 228.731 95.1043 228.237C95.3884 227.743 95.5305 227.223 95.5305 226.677V224.836C95.4452 224.939 95.2577 225.032 94.968 225.118C94.6839 225.197 94.3543 225.268 93.9793 225.331C93.61 225.388 93.2492 225.439 92.8969 225.484C92.5503 225.524 92.2691 225.558 92.0532 225.586C91.5305 225.655 91.0418 225.765 90.5873 225.919C90.1384 226.067 89.7748 226.291 89.4964 226.592C89.2236 226.888 89.0873 227.291 89.0873 227.802C89.0873 228.501 89.3458 229.03 89.8628 229.388C90.3856 229.74 91.0475 229.916 91.8486 229.916ZM106.906 218.325V220.03H100.122V218.325H106.906ZM102.099 215.189H104.111V227.666C104.111 228.234 104.193 228.66 104.358 228.944C104.528 229.223 104.744 229.41 105.006 229.507C105.273 229.598 105.554 229.643 105.849 229.643C106.071 229.643 106.253 229.632 106.395 229.609C106.537 229.581 106.65 229.558 106.736 229.541L107.145 231.348C107.008 231.399 106.818 231.45 106.574 231.501C106.329 231.558 106.02 231.586 105.645 231.586C105.077 231.586 104.52 231.464 103.974 231.22C103.435 230.976 102.986 230.604 102.628 230.104C102.275 229.604 102.099 228.973 102.099 228.211V215.189ZM109.932 231.416V218.325H111.943V231.416H109.932ZM110.954 216.143C110.562 216.143 110.224 216.01 109.94 215.743C109.662 215.476 109.523 215.155 109.523 214.78C109.523 214.405 109.662 214.084 109.94 213.817C110.224 213.55 110.562 213.416 110.954 213.416C111.347 213.416 111.682 213.55 111.96 213.817C112.244 214.084 112.386 214.405 112.386 214.78C112.386 215.155 112.244 215.476 111.96 215.743C111.682 216.01 111.347 216.143 110.954 216.143ZM120.945 231.689C119.763 231.689 118.726 231.407 117.834 230.845C116.948 230.282 116.255 229.496 115.755 228.484C115.261 227.473 115.013 226.291 115.013 224.939C115.013 223.575 115.261 222.385 115.755 221.368C116.255 220.351 116.948 219.561 117.834 218.998C118.726 218.436 119.763 218.155 120.945 218.155C122.127 218.155 123.161 218.436 124.047 218.998C124.94 219.561 125.633 220.351 126.127 221.368C126.627 222.385 126.877 223.575 126.877 224.939C126.877 226.291 126.627 227.473 126.127 228.484C125.633 229.496 124.94 230.282 124.047 230.845C123.161 231.407 122.127 231.689 120.945 231.689ZM120.945 229.882C121.843 229.882 122.582 229.652 123.161 229.192C123.741 228.731 124.17 228.126 124.448 227.376C124.726 226.626 124.866 225.814 124.866 224.939C124.866 224.064 124.726 223.248 124.448 222.493C124.17 221.737 123.741 221.126 123.161 220.66C122.582 220.194 121.843 219.961 120.945 219.961C120.047 219.961 119.309 220.194 118.729 220.66C118.15 221.126 117.721 221.737 117.442 222.493C117.164 223.248 117.025 224.064 117.025 224.939C117.025 225.814 117.164 226.626 117.442 227.376C117.721 228.126 118.15 228.731 118.729 229.192C119.309 229.652 120.047 229.882 120.945 229.882ZM131.959 223.541V231.416H129.947V218.325H131.891V220.371H132.061C132.368 219.706 132.834 219.172 133.459 218.768C134.084 218.359 134.891 218.155 135.879 218.155C136.766 218.155 137.541 218.336 138.206 218.7C138.871 219.058 139.388 219.604 139.757 220.336C140.126 221.064 140.311 221.984 140.311 223.098V231.416H138.3V223.234C138.3 222.206 138.033 221.405 137.498 220.831C136.964 220.251 136.231 219.961 135.3 219.961C134.658 219.961 134.084 220.101 133.578 220.379C133.078 220.657 132.683 221.064 132.393 221.598C132.104 222.132 131.959 222.78 131.959 223.541Z" fill="black"/>
<circle cx="80.0022" cy="80.0022" r="78.0022" fill="white" stroke="#777100" stroke-width="4"/>
<circle cx="80.0005" cy="80.0024" r="69.3657" fill="white"/>
<path d="M104.708 97.8223C104.533 98.1232 104.382 98.4995 104.119 98.7754C102.351 100.569 100.57 102.337 98.789 104.118C98.2623 104.644 97.6854 104.732 97.0082 104.431C95.8796 103.917 94.7509 103.403 93.5971 102.939C93.3338 102.839 92.945 102.864 92.6691 102.964C90.8883 103.679 89.1201 104.406 87.3643 105.171C87.0508 105.309 86.7247 105.61 86.5868 105.924C86.1102 107.002 85.6964 108.118 85.2825 109.234C85.0066 109.999 84.4799 110.351 83.6773 110.351C81.2444 110.351 78.8115 110.351 76.3785 110.351C75.5383 110.351 74.999 110.012 74.7106 109.209C74.3093 108.093 73.8955 106.977 73.4064 105.899C73.2684 105.598 72.9298 105.297 72.6163 105.159C70.9107 104.419 69.1676 103.767 67.4745 103.002C67.0105 102.788 66.6719 102.776 66.2205 102.989C65.1796 103.491 64.101 103.93 63.0476 104.406C62.3077 104.745 61.7057 104.619 61.1289 104.043C59.3982 102.287 57.6551 100.556 55.9119 98.8255C55.3225 98.2486 55.2472 97.6341 55.5858 96.9068C56.1 95.8032 56.6016 94.6996 57.0531 93.5709C57.1534 93.3075 57.1283 92.9188 57.0155 92.6429C56.3006 90.8621 55.5733 89.0938 54.8083 87.3381C54.6703 87.0246 54.3568 86.7111 54.0558 86.5731C52.9773 86.0966 51.8612 85.6827 50.745 85.2689C49.98 84.993 49.6289 84.4663 49.6289 83.6636C49.6289 81.2307 49.6289 78.7978 49.6289 76.3649C49.6289 75.5246 49.9675 74.9854 50.7701 74.6969C51.8863 74.2956 52.9899 73.8692 54.0809 73.4052C54.3694 73.2798 54.6703 72.9914 54.7957 72.7029C55.5733 70.9221 56.3132 69.1288 57.028 67.3229C57.1409 67.047 57.1534 66.6583 57.0406 66.3949C56.5891 65.2662 56.0749 64.1626 55.5733 63.059C55.2347 62.3191 55.3475 61.7172 55.9244 61.1403C57.6801 59.4096 59.4108 57.679 61.1414 55.9233C61.7183 55.3339 62.3328 55.2461 63.0602 55.5847C64.1387 56.0863 65.2046 56.588 66.3082 57.0143C66.6218 57.1398 67.0607 57.1021 67.3868 56.9767C69.1425 56.287 70.8856 55.5721 72.6163 54.8197C72.9298 54.6817 73.2559 54.3808 73.3938 54.0672C73.8578 53.0138 74.2842 51.9353 74.6604 50.8317C74.9489 49.9915 75.5007 49.6152 76.3785 49.6152C78.7864 49.6278 81.1817 49.6278 83.5895 49.6152C84.4674 49.6152 85.0066 49.9915 85.3076 50.8317C85.6838 51.9228 86.1102 53.0013 86.5743 54.0672C86.7122 54.3808 87.0383 54.6817 87.3518 54.8197C89.0824 55.5721 90.8256 56.2995 92.5813 56.9767C92.8948 57.1021 93.3463 57.1272 93.6598 57.0018C94.7634 56.5754 95.8419 56.0612 96.9079 55.5721C97.6353 55.2335 98.2498 55.3339 98.8267 55.9107C100.557 57.6665 102.3 59.3971 104.044 61.1277C104.621 61.7046 104.733 62.3191 104.395 63.0465C103.893 64.125 103.392 65.2035 102.965 66.3071C102.84 66.6206 102.877 67.0596 103.003 67.3856C103.693 69.1413 104.407 70.8845 105.16 72.6151C105.298 72.9287 105.599 73.2547 105.9 73.3927C106.953 73.8567 108.044 74.2831 109.135 74.6593C109.975 74.9477 110.352 75.487 110.352 76.3774C110.339 78.7852 110.339 81.1805 110.352 83.5884C110.352 84.4662 109.975 85.0055 109.135 85.3065C108.044 85.6953 106.966 86.1091 105.9 86.5731C105.586 86.7111 105.285 87.0371 105.147 87.3506C104.395 89.0813 103.667 90.8245 102.978 92.5802C102.852 92.8937 102.827 93.3452 102.953 93.6587C103.366 94.7372 103.881 95.7781 104.345 96.8441C104.47 97.12 104.545 97.4209 104.671 97.8223H104.708ZM101.611 62.6577C101.523 62.5323 101.448 62.3818 101.335 62.2689C100.143 61.065 98.9521 59.8486 97.7231 58.6823C97.5726 58.5318 97.1462 58.5192 96.9205 58.607C95.9046 59.0209 94.9014 59.4723 93.8981 59.9363C93.2585 60.2373 92.6691 60.2123 92.0546 59.836C90.0857 58.6447 87.9788 57.7668 85.734 57.2275C85.0443 57.0645 84.6179 56.6632 84.3796 55.9735C84.0285 54.9576 83.6021 53.9794 83.2384 52.9636C83.0879 52.5372 82.8872 52.3366 82.3981 52.3491C80.818 52.3868 79.2253 52.3868 77.6452 52.3491C77.1561 52.3491 76.9429 52.5372 76.7924 52.9636C76.4162 54.0045 76.0776 55.058 75.5759 56.0362C75.3376 56.5127 74.836 57.0394 74.3595 57.1648C72.0896 57.8044 69.9451 58.6948 67.8758 59.8486C67.4369 60.0994 66.7221 60.0994 66.2205 59.9363C65.1796 59.5977 64.1888 59.0961 63.1981 58.6196C62.7843 58.4315 62.5084 58.4189 62.1572 58.7826C61.0662 59.9238 59.9375 61.04 58.7963 62.1435C58.4451 62.4822 58.42 62.758 58.6207 63.1719C59.0972 64.1626 59.5989 65.1533 59.9375 66.1942C60.1005 66.6959 60.1005 67.4107 59.8622 67.8496C58.721 69.9189 57.8181 72.0508 57.1785 74.3333C57.0406 74.8223 56.5264 75.324 56.0624 75.5623C55.0591 76.0639 53.9555 76.3774 52.9272 76.8289C52.6763 76.9417 52.413 77.3305 52.4004 77.6064C52.3503 79.1866 52.4004 80.7792 52.3628 82.3594C52.3628 82.8485 52.5384 83.0617 52.9648 83.2122C54.0057 83.5759 55.0591 83.927 56.0373 84.4161C56.5138 84.6544 57.028 85.156 57.166 85.6325C57.8056 87.9024 58.7085 90.0469 59.8497 92.1162C60.1005 92.5551 60.1005 93.2825 59.9375 93.7716C59.5863 94.8375 59.022 95.8408 58.6207 96.8817C58.5204 97.12 58.5831 97.5589 58.7461 97.747C59.8748 98.9384 61.0411 100.092 62.2199 101.221C62.3955 101.396 62.8344 101.459 63.0727 101.359C64.076 100.97 65.0542 100.544 66.0198 100.067C66.7221 99.7285 67.3491 99.7535 68.0138 100.155C69.9576 101.334 72.0394 102.199 74.2591 102.726C74.9489 102.889 75.3878 103.278 75.6261 103.967C75.9772 104.983 76.4162 105.961 76.7673 106.977C76.9303 107.466 77.2062 107.604 77.6953 107.604C79.2253 107.579 80.7553 107.566 82.2727 107.604C82.8245 107.617 83.0628 107.429 83.2384 106.914C83.577 105.899 83.9281 104.87 84.4172 103.93C84.6555 103.453 85.1571 102.926 85.6337 102.801C87.9161 102.174 90.0481 101.258 92.1173 100.13C92.5688 99.8915 93.2711 99.8664 93.7727 100.029C94.8136 100.368 95.8043 100.87 96.795 101.346C97.1963 101.534 97.4848 101.547 97.8359 101.183C98.927 100.042 100.056 98.9133 101.197 97.8223C101.548 97.4837 101.573 97.2078 101.372 96.7939C100.908 95.8283 100.507 94.8375 100.056 93.8593C99.7547 93.2198 99.7672 92.6303 100.143 92.0158C101.335 90.0469 102.225 87.9401 102.752 85.6953C102.915 85.0055 103.316 84.5666 104.006 84.3408C105.022 83.9897 106 83.5633 107.016 83.1996C107.442 83.0491 107.643 82.8485 107.63 82.3469C107.593 80.7667 107.593 79.174 107.63 77.5939C107.63 77.1048 107.442 76.8916 107.016 76.7411C106.088 76.415 105.172 76.0137 104.244 75.7002C103.392 75.4118 102.94 74.885 102.689 73.9946C102.288 72.565 101.949 70.9974 101.109 69.8185C99.6042 67.6866 99.855 65.7804 101.084 63.7488C101.285 63.4102 101.41 63.0339 101.586 62.6326L101.611 62.6577Z" fill="black"/>
<path d="M103.605 48.2971C101.172 46.4411 98.5514 44.9236 95.7422 43.7322C80.179 37.1357 62.7849 40.6597 51.2097 52.9999C43.3591 61.3647 39.9104 71.4224 40.6127 82.8722C40.8886 87.3493 41.9922 91.6132 43.7479 95.7391C43.9861 96.2909 44.2871 96.5041 44.8766 96.4665C45.5788 96.4163 46.2937 96.4414 46.996 96.4665C48.3253 96.4916 49.1906 97.2817 49.2408 98.611C49.2909 100.191 49.3035 101.784 49.2408 103.364C49.1906 104.693 48.3127 105.471 46.9709 105.483C45.466 105.496 43.9736 105.496 42.4687 105.483C41.1018 105.471 40.2364 104.643 40.1863 103.276C40.1361 101.746 40.0985 100.216 40.2114 98.6988C40.2615 97.9965 40.7005 97.3193 41.0391 96.4289C33.1258 77.6552 40.1361 57.9034 53.4294 47.1559C67.2494 35.9945 88.2553 33.9127 104.935 45.814C104.646 44.7731 104.37 43.8827 104.145 42.9672C103.881 41.8762 104.483 41.0736 105.486 41.1237C106.126 41.1614 106.54 41.5125 106.715 42.1145C107.418 44.5223 108.12 46.9427 108.785 49.3631C109.01 50.2033 108.534 50.9683 107.669 51.0185C105.048 51.169 102.414 51.2567 99.7804 51.3069C99.1032 51.3194 98.589 50.6673 98.5765 50.0026C98.5765 49.2878 99.1283 48.6608 99.9183 48.6357C101.135 48.5981 102.339 48.6357 103.555 48.6357L103.605 48.3222V48.2971ZM42.9453 102.687H46.4692V99.2004H42.9453V102.687Z" fill="#777100"/>
<path d="M55.0851 114.123C55.3861 115.177 55.6369 116.004 55.8626 116.845C56.1385 117.86 55.7999 118.638 54.9973 118.839C54.1571 119.052 53.5175 118.6 53.2291 117.572C52.602 115.377 51.9624 113.183 51.3479 110.975C50.9968 109.696 51.4733 108.981 52.7901 108.919C55.1603 108.806 57.5431 108.731 59.9133 108.668C60.8288 108.643 61.4433 109.195 61.4684 109.985C61.4935 110.762 60.879 111.352 59.976 111.377C58.8223 111.402 57.6685 111.377 56.5148 111.465C66.096 119.566 85.0703 123.767 101.424 113.195C118.956 101.858 123.245 80.5639 116.623 65.2014C115.733 65.0885 114.867 65.1011 114.077 64.8753C111.92 64.2608 110.465 62.2041 110.478 59.9593C110.491 57.7145 111.995 55.6954 114.127 55.0558C116.322 54.3912 118.667 55.2565 119.934 57.1627C121.175 59.0438 121.075 61.5269 119.595 63.2325C119.181 63.7216 119.169 64.0727 119.382 64.637C125.979 81.3665 121.113 100.617 107.318 112.204C98.9781 119.215 89.3216 122.563 78.4362 122.187C70.1592 121.899 62.5845 119.34 55.7749 114.575C55.6118 114.462 55.4488 114.362 55.0851 114.111V114.123ZM118.04 60.0346C118.065 58.6927 116.987 57.6016 115.645 57.5891C114.29 57.5891 113.224 58.6425 113.224 59.9969C113.224 61.3263 114.24 62.3672 115.57 62.3922C116.924 62.4173 118.028 61.3764 118.04 60.0346Z" fill="#777100"/>
<path d="M80.041 99.8775C69.0301 99.8901 60.1387 91.0112 60.1387 80.0003C60.1387 68.9769 69.0176 60.1105 80.041 60.1231C91.0268 60.1231 99.8806 68.9643 99.9057 79.9627C99.9308 90.9735 91.0519 99.8775 80.041 99.8901V99.8775ZM80.0159 97.1562C89.5093 97.1562 97.1718 89.5063 97.1718 80.0254C97.1718 70.4943 89.5093 62.8444 79.9657 62.857C70.4849 62.857 62.8475 70.532 62.8475 80.0254C62.8475 89.5188 70.5225 97.1687 80.0034 97.1562H80.0159Z" fill="black"/>
<path d="M70.8971 82.9834C70.8971 81.3405 70.8846 79.7102 70.8971 78.0673C70.8971 77.5406 70.7842 77.2271 70.2701 76.9387C68.5144 75.9856 67.7368 74.0417 68.2761 72.1857C68.8028 70.3547 70.5209 69.0881 72.402 69.1633C74.3709 69.2386 75.9762 70.6432 76.3649 72.6121C76.7035 74.3051 75.8633 76.111 74.2581 76.9512C73.7439 77.2146 73.6185 77.5281 73.6185 78.0673C73.6436 81.3781 73.6185 84.6764 73.631 87.9872C73.631 88.6393 73.5307 89.2412 72.8911 89.5673C71.9255 90.0564 70.9347 89.3666 70.9096 88.1502C70.8846 86.4321 70.9096 84.7015 70.9096 82.9834H70.8971ZM72.2766 74.744C73.0416 74.744 73.6937 74.1295 73.7188 73.3645C73.7439 72.587 73.0667 71.8847 72.2891 71.8847C71.5367 71.8847 70.8846 72.5243 70.8595 73.2768C70.8344 74.0919 71.4614 74.7315 72.2766 74.744Z" fill="#777100"/>
<path d="M89.134 77.0404C89.134 78.7083 89.1465 80.3762 89.134 82.0442C89.134 82.5207 89.2719 82.7841 89.7109 83.0224C91.454 83.9629 92.2692 85.8566 91.7926 87.675C91.3036 89.5436 89.6607 90.8353 87.767 90.8353C85.911 90.8353 84.2305 89.5436 83.754 87.7628C83.2523 85.8691 84.0424 83.9629 85.8107 83.0224C86.2997 82.759 86.4252 82.4831 86.4252 81.9815C86.4126 78.6205 86.4126 75.2596 86.4252 71.8986C86.4252 70.933 86.839 70.3937 87.5915 70.3059C88.5069 70.2056 89.1214 70.795 89.134 71.8736C89.1591 73.5916 89.134 75.3223 89.134 77.0404ZM87.8799 85.2546C87.0773 85.1919 86.375 85.8064 86.3248 86.5965C86.2747 87.3364 86.8892 88.0262 87.6416 88.1014C88.4191 88.1767 89.1465 87.5371 89.1841 86.747C89.2218 85.9695 88.6449 85.3173 87.8799 85.2546Z" fill="#777100"/>
<path d="M78.661 86.2816C78.661 86.081 78.6485 85.8803 78.661 85.6922C78.7739 84.6388 78.5482 83.9365 77.5198 83.2342C75.0242 81.5537 75.4004 77.7915 78.0841 76.3367C78.5231 76.0985 78.6736 75.8602 78.661 75.3711C78.6359 74.1797 78.6359 73.0009 78.661 71.8095C78.661 70.8564 79.1752 70.292 79.9904 70.2795C80.8431 70.267 81.3698 70.8438 81.3698 71.8346C81.3824 73.0259 81.3949 74.2048 81.3698 75.3962C81.3698 75.8351 81.4702 76.0734 81.9091 76.2991C83.3889 77.0641 84.179 78.3307 84.179 79.9987C84.179 81.6666 83.3513 82.8705 81.9091 83.7108C81.6583 83.8612 81.42 84.2249 81.4075 84.5134C81.3573 85.7298 81.3949 86.9463 81.3824 88.1628C81.3824 89.1159 80.8682 89.6802 80.0531 89.6927C79.2003 89.7053 78.6861 89.1284 78.661 88.1377C78.661 87.5106 78.661 86.8961 78.661 86.2691V86.2816ZM79.9778 78.5816C79.2003 78.6066 78.6109 79.2086 78.6109 79.9987C78.6109 80.8138 79.2379 81.4283 80.0656 81.4032C80.8431 81.3782 81.4325 80.7762 81.4325 79.9861C81.4325 79.171 80.793 78.5565 79.9778 78.5816Z" fill="#777100"/>
</svg>
