<svg width="256" height="259" viewBox="0 0 256 259" fill="none" xmlns="http://www.w3.org/2000/svg">
<circle cx="128.186" cy="105.025" r="103" fill="white" stroke="#777100" stroke-width="4"/>
<rect x="0.685547" y="51.8154" width="255" height="104.842" fill="#777100"/>
<path d="M230.377 254.575C229.204 254.575 228.295 254.26 227.649 253.629C227.004 252.999 226.681 252.097 226.681 250.923V240.231H228.793V250.835C228.793 251.466 228.947 251.95 229.255 252.287C229.578 252.625 230.033 252.793 230.619 252.793C231.279 252.793 231.829 252.61 232.269 252.243L232.929 253.761C232.607 254.04 232.218 254.245 231.763 254.377C231.323 254.509 230.861 254.575 230.377 254.575ZM224.701 244.521V242.783H232.137V244.521H224.701Z" fill="black"/>
<path d="M211.398 254.444V242.784H213.422V245.93L213.092 245.094C213.474 244.331 214.06 243.737 214.852 243.312C215.644 242.886 216.568 242.674 217.624 242.674C218.578 242.674 219.414 242.857 220.132 243.224C220.866 243.59 221.438 244.148 221.848 244.896C222.259 245.644 222.464 246.59 222.464 247.734V254.444H220.352V247.976C220.352 246.846 220.074 245.996 219.516 245.424C218.974 244.852 218.204 244.566 217.206 244.566C216.458 244.566 215.806 244.712 215.248 245.006C214.691 245.299 214.258 245.732 213.95 246.304C213.657 246.876 213.51 247.587 213.51 248.438V254.444H211.398Z" fill="black"/>
<path d="M203.12 254.576C201.873 254.576 200.773 254.319 199.82 253.806C198.881 253.292 198.148 252.588 197.62 251.694C197.106 250.799 196.85 249.772 196.85 248.614C196.85 247.455 197.099 246.428 197.598 245.534C198.111 244.639 198.808 243.942 199.688 243.444C200.582 242.93 201.587 242.674 202.702 242.674C203.831 242.674 204.828 242.923 205.694 243.422C206.559 243.92 207.234 244.624 207.718 245.534C208.216 246.428 208.466 247.477 208.466 248.68C208.466 248.768 208.458 248.87 208.444 248.988C208.444 249.105 208.436 249.215 208.422 249.318H198.5V247.8H207.322L206.464 248.328C206.478 247.58 206.324 246.912 206.002 246.326C205.679 245.739 205.232 245.284 204.66 244.962C204.102 244.624 203.45 244.456 202.702 244.456C201.968 244.456 201.316 244.624 200.744 244.962C200.172 245.284 199.724 245.746 199.402 246.348C199.079 246.934 198.918 247.609 198.918 248.372V248.724C198.918 249.501 199.094 250.198 199.446 250.814C199.812 251.415 200.318 251.884 200.964 252.222C201.609 252.559 202.35 252.728 203.186 252.728C203.875 252.728 204.498 252.61 205.056 252.376C205.628 252.141 206.126 251.789 206.552 251.32L207.718 252.684C207.19 253.3 206.53 253.769 205.738 254.092C204.96 254.414 204.088 254.576 203.12 254.576Z" fill="black"/>
<path d="M174.682 254.444V242.784H176.706V245.886L176.376 245.094C176.742 244.331 177.307 243.737 178.07 243.312C178.832 242.886 179.72 242.674 180.732 242.674C181.846 242.674 182.807 242.952 183.614 243.51C184.42 244.052 184.948 244.881 185.198 245.996L184.34 245.644C184.692 244.749 185.308 244.03 186.188 243.488C187.068 242.945 188.094 242.674 189.268 242.674C190.206 242.674 191.035 242.857 191.754 243.224C192.472 243.59 193.03 244.148 193.426 244.896C193.836 245.644 194.042 246.59 194.042 247.734V254.444H191.93V247.976C191.93 246.846 191.666 245.996 191.138 245.424C190.61 244.852 189.869 244.566 188.916 244.566C188.212 244.566 187.596 244.712 187.068 245.006C186.54 245.299 186.129 245.732 185.836 246.304C185.557 246.876 185.418 247.587 185.418 248.438V254.444H183.306V247.976C183.306 246.846 183.042 245.996 182.514 245.424C182 244.852 181.26 244.566 180.292 244.566C179.602 244.566 178.994 244.712 178.466 245.006C177.938 245.299 177.527 245.732 177.234 246.304C176.94 246.876 176.794 247.587 176.794 248.438V254.444H174.682Z" fill="black"/>
<path d="M162.898 258.843C162.341 258.843 161.798 258.748 161.27 258.557C160.742 258.381 160.288 258.117 159.906 257.765L160.808 256.181C161.102 256.46 161.424 256.673 161.776 256.819C162.128 256.966 162.502 257.039 162.898 257.039C163.412 257.039 163.837 256.907 164.174 256.643C164.512 256.379 164.827 255.91 165.12 255.235L165.846 253.629L166.066 253.365L170.642 242.783H172.71L167.056 255.609C166.719 256.431 166.338 257.076 165.912 257.545C165.502 258.015 165.047 258.345 164.548 258.535C164.05 258.741 163.5 258.843 162.898 258.843ZM165.67 254.817L160.346 242.783H162.546L167.078 253.167L165.67 254.817Z" fill="black"/>
<path d="M153.744 254.576C152.571 254.576 151.529 254.319 150.62 253.806C149.711 253.292 148.992 252.588 148.464 251.694C147.936 250.784 147.672 249.758 147.672 248.614C147.672 247.455 147.936 246.428 148.464 245.534C148.992 244.639 149.711 243.942 150.62 243.444C151.529 242.93 152.571 242.674 153.744 242.674C154.903 242.674 155.937 242.93 156.846 243.444C157.77 243.942 158.489 244.639 159.002 245.534C159.53 246.414 159.794 247.44 159.794 248.614C159.794 249.772 159.53 250.799 159.002 251.694C158.489 252.588 157.77 253.292 156.846 253.806C155.937 254.319 154.903 254.576 153.744 254.576ZM153.744 252.728C154.492 252.728 155.159 252.559 155.746 252.222C156.347 251.884 156.817 251.408 157.154 250.792C157.491 250.161 157.66 249.435 157.66 248.614C157.66 247.778 157.491 247.059 157.154 246.458C156.817 245.842 156.347 245.365 155.746 245.028C155.159 244.69 154.492 244.522 153.744 244.522C152.996 244.522 152.329 244.69 151.742 245.028C151.155 245.365 150.686 245.842 150.334 246.458C149.982 247.059 149.806 247.778 149.806 248.614C149.806 249.435 149.982 250.161 150.334 250.792C150.686 251.408 151.155 251.884 151.742 252.222C152.329 252.559 152.996 252.728 153.744 252.728Z" fill="black"/>
<path d="M142.605 254.443V238.119H144.717V254.443H142.605Z" fill="black"/>
<path d="M133.791 254.576C132.823 254.576 131.936 254.356 131.129 253.916C130.337 253.461 129.699 252.794 129.215 251.914C128.746 251.034 128.511 249.934 128.511 248.614C128.511 247.294 128.739 246.194 129.193 245.314C129.663 244.434 130.293 243.774 131.085 243.334C131.892 242.894 132.794 242.674 133.791 242.674C134.935 242.674 135.947 242.923 136.827 243.422C137.707 243.92 138.404 244.617 138.917 245.512C139.431 246.392 139.687 247.426 139.687 248.614C139.687 249.802 139.431 250.843 138.917 251.738C138.404 252.632 137.707 253.329 136.827 253.828C135.947 254.326 134.935 254.576 133.791 254.576ZM127.609 258.712V242.784H129.633V245.93L129.501 248.636L129.721 251.342V258.712H127.609ZM133.615 252.728C134.363 252.728 135.031 252.559 135.617 252.222C136.219 251.884 136.688 251.408 137.025 250.792C137.377 250.161 137.553 249.435 137.553 248.614C137.553 247.778 137.377 247.059 137.025 246.458C136.688 245.842 136.219 245.365 135.617 245.028C135.031 244.69 134.363 244.522 133.615 244.522C132.882 244.522 132.215 244.69 131.613 245.028C131.027 245.365 130.557 245.842 130.205 246.458C129.868 247.059 129.699 247.778 129.699 248.614C129.699 249.435 129.868 250.161 130.205 250.792C130.557 251.408 131.027 251.884 131.613 252.222C132.215 252.559 132.882 252.728 133.615 252.728Z" fill="black"/>
<path d="M119.331 254.576C118.084 254.576 116.984 254.319 116.031 253.806C115.092 253.292 114.359 252.588 113.831 251.694C113.317 250.799 113.061 249.772 113.061 248.614C113.061 247.455 113.31 246.428 113.809 245.534C114.322 244.639 115.019 243.942 115.899 243.444C116.793 242.93 117.798 242.674 118.913 242.674C120.042 242.674 121.039 242.923 121.905 243.422C122.77 243.92 123.445 244.624 123.929 245.534C124.427 246.428 124.677 247.477 124.677 248.68C124.677 248.768 124.669 248.87 124.655 248.988C124.655 249.105 124.647 249.215 124.633 249.318H114.711V247.8H123.533L122.675 248.328C122.689 247.58 122.535 246.912 122.213 246.326C121.89 245.739 121.443 245.284 120.871 244.962C120.313 244.624 119.661 244.456 118.913 244.456C118.179 244.456 117.527 244.624 116.955 244.962C116.383 245.284 115.935 245.746 115.613 246.348C115.29 246.934 115.129 247.609 115.129 248.372V248.724C115.129 249.501 115.305 250.198 115.657 250.814C116.023 251.415 116.529 251.884 117.175 252.222C117.82 252.559 118.561 252.728 119.397 252.728C120.086 252.728 120.709 252.61 121.267 252.376C121.839 252.141 122.337 251.789 122.763 251.32L123.929 252.684C123.401 253.3 122.741 253.769 121.949 254.092C121.171 254.414 120.299 254.576 119.331 254.576Z" fill="black"/>
<path d="M96.2715 254.443V239.043H102.761C104.404 239.043 105.849 239.366 107.095 240.011C108.357 240.656 109.332 241.558 110.021 242.717C110.725 243.876 111.077 245.218 111.077 246.743C111.077 248.268 110.725 249.61 110.021 250.769C109.332 251.928 108.357 252.83 107.095 253.475C105.849 254.12 104.404 254.443 102.761 254.443H96.2715ZM98.4715 252.529H102.629C103.905 252.529 105.005 252.287 105.929 251.803C106.868 251.319 107.594 250.644 108.107 249.779C108.621 248.899 108.877 247.887 108.877 246.743C108.877 245.584 108.621 244.572 108.107 243.707C107.594 242.842 106.868 242.167 105.929 241.683C105.005 241.199 103.905 240.957 102.629 240.957H98.4715V252.529Z" fill="black"/>
<path d="M79.8765 254.575C78.7471 254.575 77.7351 254.326 76.8405 253.827C75.9605 253.328 75.2638 252.632 74.7505 251.737C74.2371 250.842 73.9805 249.801 73.9805 248.613C73.9805 247.425 74.2371 246.391 74.7505 245.511C75.2638 244.616 75.9605 243.92 76.8405 243.421C77.7351 242.922 78.7471 242.673 79.8765 242.673C80.8591 242.673 81.7465 242.893 82.5385 243.333C83.3305 243.773 83.9611 244.433 84.4305 245.313C84.9145 246.193 85.1565 247.293 85.1565 248.613C85.1565 249.933 84.9218 251.033 84.4525 251.913C83.9978 252.793 83.3745 253.46 82.5825 253.915C81.7905 254.355 80.8885 254.575 79.8765 254.575ZM80.0525 252.727C80.7858 252.727 81.4458 252.558 82.0325 252.221C82.6338 251.884 83.1031 251.407 83.4405 250.791C83.7925 250.16 83.9685 249.434 83.9685 248.613C83.9685 247.777 83.7925 247.058 83.4405 246.457C83.1031 245.841 82.6338 245.364 82.0325 245.027C81.4458 244.69 80.7858 244.521 80.0525 244.521C79.3045 244.521 78.6371 244.69 78.0505 245.027C77.4638 245.364 76.9945 245.841 76.6425 246.457C76.2905 247.058 76.1145 247.777 76.1145 248.613C76.1145 249.434 76.2905 250.16 76.6425 250.791C76.9945 251.407 77.4638 251.884 78.0505 252.221C78.6371 252.558 79.3045 252.727 80.0525 252.727ZM84.0345 254.443V251.297L84.1665 248.591L83.9465 245.885V238.119H86.0585V254.443H84.0345Z" fill="black"/>
<path d="M68.915 254.443V242.783H71.027V254.443H68.915ZM69.971 240.539C69.5603 240.539 69.2157 240.407 68.937 240.143C68.673 239.879 68.541 239.556 68.541 239.175C68.541 238.779 68.673 238.449 68.937 238.185C69.2157 237.921 69.5603 237.789 69.971 237.789C70.3817 237.789 70.719 237.921 70.983 238.185C71.2617 238.434 71.401 238.75 71.401 239.131C71.401 239.527 71.269 239.864 71.005 240.143C70.741 240.407 70.3963 240.539 69.971 240.539Z" fill="black"/>
<path d="M60.1 254.576C59.132 254.576 58.2446 254.356 57.438 253.916C56.646 253.461 56.008 252.794 55.524 251.914C55.0546 251.034 54.82 249.934 54.82 248.614C54.82 247.294 55.0473 246.194 55.502 245.314C55.9713 244.434 56.602 243.774 57.394 243.334C58.2006 242.894 59.1026 242.674 60.1 242.674C61.244 242.674 62.256 242.923 63.136 243.422C64.016 243.92 64.7126 244.617 65.226 245.512C65.7393 246.392 65.996 247.426 65.996 248.614C65.996 249.802 65.7393 250.843 65.226 251.738C64.7126 252.632 64.016 253.329 63.136 253.828C62.256 254.326 61.244 254.576 60.1 254.576ZM53.918 258.712V242.784H55.942V245.93L55.81 248.636L56.03 251.342V258.712H53.918ZM59.924 252.728C60.672 252.728 61.3393 252.559 61.926 252.222C62.5273 251.884 62.9966 251.408 63.334 250.792C63.686 250.161 63.862 249.435 63.862 248.614C63.862 247.778 63.686 247.059 63.334 246.458C62.9966 245.842 62.5273 245.365 61.926 245.028C61.3393 244.69 60.672 244.522 59.924 244.522C59.1906 244.522 58.5233 244.69 57.922 245.028C57.3353 245.365 56.866 245.842 56.514 246.458C56.1766 247.059 56.008 247.778 56.008 248.614C56.008 249.435 56.1766 250.161 56.514 250.792C56.866 251.408 57.3353 251.884 57.922 252.222C58.5233 252.559 59.1906 252.728 59.924 252.728Z" fill="black"/>
<path d="M48.0072 254.444V251.98L47.8972 251.518V247.316C47.8972 246.421 47.6332 245.732 47.1052 245.248C46.5919 244.749 45.8145 244.5 44.7732 244.5C44.0839 244.5 43.4092 244.617 42.7492 244.852C42.0892 245.072 41.5319 245.372 41.0772 245.754L40.1972 244.17C40.7985 243.686 41.5172 243.319 42.3532 243.07C43.2039 242.806 44.0912 242.674 45.0152 242.674C46.6139 242.674 47.8459 243.062 48.7112 243.84C49.5765 244.617 50.0092 245.805 50.0092 247.404V254.444H48.0072ZM44.1792 254.576C43.3139 254.576 42.5512 254.429 41.8912 254.136C41.2459 253.842 40.7472 253.439 40.3952 252.926C40.0432 252.398 39.8672 251.804 39.8672 251.144C39.8672 250.513 40.0139 249.941 40.3072 249.428C40.6152 248.914 41.1065 248.504 41.7812 248.196C42.4705 247.888 43.3945 247.734 44.5532 247.734H48.2492V249.252H44.6412C43.5852 249.252 42.8739 249.428 42.5072 249.78C42.1405 250.132 41.9572 250.557 41.9572 251.056C41.9572 251.628 42.1845 252.09 42.6392 252.442C43.0939 252.779 43.7245 252.948 44.5312 252.948C45.3232 252.948 46.0125 252.772 46.5992 252.42C47.2005 252.068 47.6332 251.554 47.8972 250.88L48.3152 252.332C48.0365 253.021 47.5452 253.571 46.8412 253.982C46.1372 254.378 45.2499 254.576 44.1792 254.576Z" fill="black"/>
<path d="M25.2012 254.443V239.043H31.2072C33.2018 239.043 34.7712 239.52 35.9152 240.473C37.0592 241.412 37.6312 242.724 37.6312 244.411C37.6312 245.526 37.3745 246.486 36.8612 247.293C36.3478 248.085 35.6145 248.694 34.6612 249.119C33.7078 249.544 32.5565 249.757 31.2072 249.757H26.4112L27.4012 248.745V254.443H25.2012ZM35.4972 254.443L31.5812 248.855H33.9352L37.8952 254.443H35.4972ZM27.4012 248.965L26.4112 247.887H31.1412C32.5492 247.887 33.6125 247.586 34.3312 246.985C35.0645 246.369 35.4312 245.511 35.4312 244.411C35.4312 243.311 35.0645 242.46 34.3312 241.859C33.6125 241.258 32.5492 240.957 31.1412 240.957H26.4112L27.4012 239.857V248.965Z" fill="black"/>
<circle cx="128.186" cy="105.025" r="91.04" fill="white"/>
<path d="M167.506 67.5732C164.871 72.9915 162.237 78.4098 159.608 83.8281C159.52 84.0086 159.437 84.1942 159.334 84.4262H173.29C164.82 93.7832 156.432 103.058 148.039 112.332L147.956 112.286C149.952 105.862 151.947 99.4386 153.968 92.9325C150.452 93.0305 147.003 93.1284 143.461 93.2315C143.6 92.9686 143.693 92.7882 143.786 92.6077C148.281 84.3952 152.782 76.1879 157.277 67.9754C157.35 67.8413 157.417 67.7073 157.484 67.5732C160.824 67.5732 164.17 67.5732 167.511 67.5732H167.506Z" fill="#777100"/>
<path d="M168.687 92.3563C169.316 94.0576 169.914 95.6867 170.533 97.357C166.44 99.4656 164.115 102.739 164.11 107.333C164.11 111.916 166.409 115.179 170.43 117.277C170.244 118.674 168.208 123.618 167.198 125.134C162.888 123.783 158.939 124.438 155.701 127.671C152.464 130.903 151.752 134.831 153.129 139.162C152.232 139.946 146.741 142.235 145.277 142.436C141.328 134.017 129.476 133.945 125.398 142.477C122.655 141.693 120.041 140.595 117.526 139.229C118.918 134.868 118.227 130.939 114.994 127.696C111.757 124.449 107.818 123.783 103.441 125.144C102.07 122.66 100.997 120.051 100.188 117.308C104.22 115.2 106.545 111.962 106.555 107.369C106.56 102.78 104.266 99.5223 100.178 97.3725C100.43 96.6146 100.647 95.8156 100.967 95.0577C101.699 93.3307 102.482 91.6294 103.235 89.9126C103.379 89.5827 103.539 89.5312 103.89 89.6446C110.329 91.6758 116.773 87.8247 118.036 81.1898C118.402 79.2668 118.191 77.3799 117.5 75.4724C118.015 75.2044 118.515 74.895 119.046 74.6785C121.011 73.8846 122.99 73.1268 124.954 72.3328C125.336 72.1782 125.47 72.3174 125.645 72.637C127.728 76.4932 130.991 78.5811 135.358 78.5811C139.699 78.5811 142.952 76.4984 145.029 72.6679C145.236 72.2864 145.406 72.1936 145.813 72.3483C147.7 73.07 149.597 73.766 151.597 74.5084C149.113 79.04 146.71 83.4375 144.277 87.8711C144.081 87.7989 143.906 87.7422 143.735 87.6701C131.213 82.3291 116.917 89.9333 114.334 103.306C112.061 115.086 119.943 126.397 131.832 128.423C143.199 130.362 154.108 122.814 156.346 111.462C156.701 109.668 156.773 107.848 156.717 106.023C156.712 105.786 156.779 105.482 156.933 105.312C160.769 101.048 164.615 96.8002 168.466 92.5522C168.502 92.511 168.553 92.48 168.708 92.3511L168.687 92.3563Z" fill="#777100"/>
<path d="M143.788 119.793C147.438 115.762 151.083 111.735 154.779 107.652C154.97 113.38 151.511 121.675 142.963 125.315C134.627 128.861 124.935 126.191 119.583 118.896C114.206 111.565 114.567 101.584 120.501 94.6401C126.543 87.5772 136.132 86.2265 143.324 89.5517C142.324 91.3871 141.318 93.2224 140.251 95.1814C144.015 95.0732 147.654 94.9701 151.413 94.8618C148.825 103.203 146.257 111.467 143.69 119.726L143.783 119.788L143.788 119.793ZM132.142 106.405C129.698 106.405 127.291 106.405 124.878 106.405C123.661 106.405 122.45 106.394 121.233 106.405C120.594 106.41 120.218 106.755 120.197 107.297C120.176 107.9 120.558 108.25 121.269 108.255C124.687 108.255 128.105 108.266 131.523 108.25C131.951 108.25 132.173 108.348 132.364 108.771C132.962 110.101 134.421 110.849 135.828 110.622C137.22 110.395 138.38 109.266 138.581 107.941C138.813 106.4 138.117 104.987 136.746 104.373C136.364 104.203 136.261 104.007 136.266 103.616C136.282 100.883 136.277 98.1509 136.266 95.4134C136.266 95.1711 136.256 94.9185 136.194 94.6814C136.081 94.2328 135.735 94.0215 135.302 94.0369C134.843 94.0524 134.513 94.2998 134.436 94.7844C134.4 95.0061 134.405 95.2381 134.405 95.465C134.405 98.1973 134.405 100.93 134.39 103.667C134.39 103.863 134.266 104.172 134.116 104.239C133.163 104.672 132.513 105.363 132.142 106.4V106.405Z" fill="#777100"/>
<path d="M88.7279 120.216C90.2281 120.216 91.7232 120.216 93.2234 120.216C93.9451 120.216 94.3421 120.541 94.3524 121.128C94.3679 121.737 93.9606 122.092 93.2079 122.092C90.2127 122.098 87.2122 122.098 84.217 122.092C83.4746 122.092 83.0621 121.721 83.0828 121.118C83.0982 120.546 83.5055 120.221 84.2273 120.221C85.7275 120.221 87.2225 120.221 88.7227 120.221L88.7279 120.216Z" fill="#777100"/>
<path d="M88.6866 94.4545C87.1916 94.4545 85.6914 94.4545 84.1963 94.4545C83.4694 94.4545 83.0879 94.1245 83.0879 93.5316C83.0879 92.9439 83.4745 92.6191 84.2066 92.6191C87.2225 92.6191 90.2332 92.6191 93.2491 92.6191C93.9812 92.6191 94.3575 92.9439 94.3524 93.5419C94.3524 94.1348 93.9709 94.4493 93.2337 94.4545C91.718 94.4545 90.2023 94.4545 88.6866 94.4545Z" fill="#777100"/>
<path d="M93.9028 106.418C95.403 106.418 96.8981 106.418 98.3983 106.418C99.1046 106.418 99.5222 106.759 99.5325 107.326C99.5377 107.898 99.1355 108.259 98.4241 108.259C95.4082 108.264 92.3923 108.264 89.3816 108.259C88.6701 108.259 88.2474 107.903 88.2422 107.346C88.2371 106.769 88.6804 106.413 89.4177 106.413C90.9179 106.413 92.4129 106.413 93.9131 106.413L93.9028 106.418Z" fill="#777100"/>
</svg>
