<svg width="256" height="260" viewBox="0 0 256 260" fill="none" xmlns="http://www.w3.org/2000/svg">
<circle cx="128.186" cy="105.194" r="103" fill="white" stroke="#777100" stroke-width="4"/>
<rect x="0.685547" y="51.9844" width="255" height="104.842" fill="#777100"/>
<path d="M218.445 254.745C217.477 254.745 216.553 254.613 215.673 254.349C214.808 254.085 214.126 253.762 213.627 253.381L214.507 251.709C215.006 252.046 215.622 252.332 216.355 252.567C217.088 252.801 217.836 252.919 218.599 252.919C219.582 252.919 220.286 252.779 220.711 252.501C221.151 252.222 221.371 251.833 221.371 251.335C221.371 250.968 221.239 250.682 220.975 250.477C220.711 250.271 220.359 250.117 219.919 250.015C219.494 249.912 219.017 249.824 218.489 249.751C217.961 249.663 217.433 249.56 216.905 249.443C216.377 249.311 215.893 249.135 215.453 248.915C215.013 248.68 214.661 248.365 214.397 247.969C214.133 247.558 214.001 247.015 214.001 246.341C214.001 245.637 214.199 245.021 214.595 244.493C214.991 243.965 215.548 243.561 216.267 243.283C217 242.989 217.866 242.843 218.863 242.843C219.626 242.843 220.396 242.938 221.173 243.129C221.965 243.305 222.61 243.561 223.109 243.899L222.207 245.571C221.679 245.219 221.129 244.977 220.557 244.845C219.985 244.713 219.413 244.647 218.841 244.647C217.917 244.647 217.228 244.801 216.773 245.109C216.318 245.402 216.091 245.783 216.091 246.253C216.091 246.649 216.223 246.957 216.487 247.177C216.766 247.382 217.118 247.543 217.543 247.661C217.983 247.778 218.467 247.881 218.995 247.969C219.523 248.042 220.051 248.145 220.579 248.277C221.107 248.394 221.584 248.563 222.009 248.783C222.449 249.003 222.801 249.311 223.065 249.707C223.344 250.103 223.483 250.631 223.483 251.291C223.483 251.995 223.278 252.603 222.867 253.117C222.456 253.63 221.877 254.033 221.129 254.327C220.381 254.605 219.486 254.745 218.445 254.745Z" fill="black"/>
<path d="M206.1 254.613V242.953H208.124V246.121L207.926 245.329C208.248 244.522 208.791 243.906 209.554 243.481C210.316 243.055 211.255 242.843 212.37 242.843V244.889C212.282 244.874 212.194 244.867 212.106 244.867C212.032 244.867 211.959 244.867 211.886 244.867C210.756 244.867 209.862 245.204 209.202 245.879C208.542 246.553 208.212 247.529 208.212 248.805V254.613H206.1Z" fill="black"/>
<path d="M197.821 254.745C196.574 254.745 195.474 254.488 194.521 253.975C193.582 253.461 192.849 252.757 192.321 251.863C191.807 250.968 191.551 249.941 191.551 248.783C191.551 247.624 191.8 246.597 192.299 245.703C192.812 244.808 193.509 244.111 194.389 243.613C195.283 243.099 196.288 242.843 197.403 242.843C198.532 242.843 199.529 243.092 200.395 243.591C201.26 244.089 201.935 244.793 202.419 245.703C202.917 246.597 203.167 247.646 203.167 248.849C203.167 248.937 203.159 249.039 203.145 249.157C203.145 249.274 203.137 249.384 203.123 249.487H193.201V247.969H202.023L201.165 248.497C201.179 247.749 201.025 247.081 200.703 246.495C200.38 245.908 199.933 245.453 199.361 245.131C198.803 244.793 198.151 244.625 197.403 244.625C196.669 244.625 196.017 244.793 195.445 245.131C194.873 245.453 194.425 245.915 194.103 246.517C193.78 247.103 193.619 247.778 193.619 248.541V248.893C193.619 249.67 193.795 250.367 194.147 250.983C194.513 251.584 195.019 252.053 195.665 252.391C196.31 252.728 197.051 252.897 197.887 252.897C198.576 252.897 199.199 252.779 199.757 252.545C200.329 252.31 200.827 251.958 201.253 251.489L202.419 252.853C201.891 253.469 201.231 253.938 200.439 254.261C199.661 254.583 198.789 254.745 197.821 254.745Z" fill="black"/>
<path d="M184.35 254.745C183.103 254.745 182.003 254.488 181.05 253.975C180.111 253.461 179.378 252.757 178.85 251.863C178.337 250.968 178.08 249.941 178.08 248.783C178.08 247.624 178.329 246.597 178.828 245.703C179.341 244.808 180.038 244.111 180.918 243.613C181.813 243.099 182.817 242.843 183.932 242.843C185.061 242.843 186.059 243.092 186.924 243.591C187.789 244.089 188.464 244.793 188.948 245.703C189.447 246.597 189.696 247.646 189.696 248.849C189.696 248.937 189.689 249.039 189.674 249.157C189.674 249.274 189.667 249.384 189.652 249.487H179.73V247.969H188.552L187.694 248.497C187.709 247.749 187.555 247.081 187.232 246.495C186.909 245.908 186.462 245.453 185.89 245.131C185.333 244.793 184.68 244.625 183.932 244.625C183.199 244.625 182.546 244.793 181.974 245.131C181.402 245.453 180.955 245.915 180.632 246.517C180.309 247.103 180.148 247.778 180.148 248.541V248.893C180.148 249.67 180.324 250.367 180.676 250.983C181.043 251.584 181.549 252.053 182.194 252.391C182.839 252.728 183.58 252.897 184.416 252.897C185.105 252.897 185.729 252.779 186.286 252.545C186.858 252.31 187.357 251.958 187.782 251.489L188.948 252.853C188.42 253.469 187.76 253.938 186.968 254.261C186.191 254.583 185.318 254.745 184.35 254.745Z" fill="black"/>
<path d="M164.184 254.613V242.953H166.208V246.099L165.878 245.263C166.259 244.5 166.846 243.906 167.638 243.481C168.43 243.055 169.354 242.843 170.41 242.843C171.363 242.843 172.199 243.026 172.918 243.393C173.651 243.759 174.223 244.317 174.634 245.065C175.044 245.813 175.25 246.759 175.25 247.903V254.613H173.138V248.145C173.138 247.015 172.859 246.165 172.302 245.593C171.759 245.021 170.989 244.735 169.992 244.735C169.244 244.735 168.591 244.881 168.034 245.175C167.476 245.468 167.044 245.901 166.736 246.473C166.442 247.045 166.296 247.756 166.296 248.607V254.613H164.184Z" fill="black"/>
<path d="M158.04 254.612V242.952H160.152V254.612H158.04ZM159.096 240.708C158.685 240.708 158.341 240.576 158.062 240.312C157.798 240.048 157.666 239.725 157.666 239.344C157.666 238.948 157.798 238.618 158.062 238.354C158.341 238.09 158.685 237.958 159.096 237.958C159.507 237.958 159.844 238.09 160.108 238.354C160.387 238.603 160.526 238.919 160.526 239.3C160.526 239.696 160.394 240.033 160.13 240.312C159.866 240.576 159.521 240.708 159.096 240.708Z" fill="black"/>
<path d="M147.953 259.013C146.883 259.013 145.841 258.859 144.829 258.551C143.832 258.257 143.018 257.832 142.387 257.275L143.399 255.647C143.942 256.116 144.609 256.483 145.401 256.747C146.193 257.025 147.022 257.165 147.887 257.165C149.266 257.165 150.278 256.842 150.923 256.197C151.569 255.551 151.891 254.569 151.891 253.249V250.785L152.111 248.475L152.001 246.143V242.953H154.003V253.029C154.003 255.082 153.49 256.593 152.463 257.561C151.437 258.529 149.933 259.013 147.953 259.013ZM147.689 254.129C146.56 254.129 145.548 253.894 144.653 253.425C143.773 252.941 143.069 252.273 142.541 251.423C142.028 250.572 141.771 249.589 141.771 248.475C141.771 247.345 142.028 246.363 142.541 245.527C143.069 244.676 143.773 244.016 144.653 243.547C145.548 243.077 146.56 242.843 147.689 242.843C148.687 242.843 149.596 243.048 150.417 243.459C151.239 243.855 151.891 244.471 152.375 245.307C152.874 246.143 153.123 247.199 153.123 248.475C153.123 249.736 152.874 250.785 152.375 251.621C151.891 252.457 151.239 253.087 150.417 253.513C149.596 253.923 148.687 254.129 147.689 254.129ZM147.931 252.281C148.709 252.281 149.398 252.119 149.999 251.797C150.601 251.474 151.07 251.027 151.407 250.455C151.759 249.883 151.935 249.223 151.935 248.475C151.935 247.727 151.759 247.067 151.407 246.495C151.07 245.923 150.601 245.483 149.999 245.175C149.398 244.852 148.709 244.691 147.931 244.691C147.154 244.691 146.457 244.852 145.841 245.175C145.24 245.483 144.763 245.923 144.411 246.495C144.074 247.067 143.905 247.727 143.905 248.475C143.905 249.223 144.074 249.883 144.411 250.455C144.763 251.027 145.24 251.474 145.841 251.797C146.457 252.119 147.154 252.281 147.931 252.281Z" fill="black"/>
<path d="M127.875 254.613V242.953H129.899V246.099L129.569 245.263C129.95 244.5 130.537 243.906 131.329 243.481C132.121 243.055 133.045 242.843 134.101 242.843C135.054 242.843 135.89 243.026 136.609 243.393C137.342 243.759 137.914 244.317 138.325 245.065C138.736 245.813 138.941 246.759 138.941 247.903V254.613H136.829V248.145C136.829 247.015 136.55 246.165 135.993 245.593C135.45 245.021 134.68 244.735 133.683 244.735C132.935 244.735 132.282 244.881 131.725 245.175C131.168 245.468 130.735 245.901 130.427 246.473C130.134 247.045 129.987 247.756 129.987 248.607V254.613H127.875Z" fill="black"/>
<path d="M113.445 254.612V239.212H124.313V241.126H115.645V252.698H124.621V254.612H113.445ZM115.447 247.726V245.856H123.367V247.726H115.447Z" fill="black"/>
<path d="M102.123 254.744C100.95 254.744 100.041 254.429 99.3953 253.798C98.7499 253.168 98.4273 252.266 98.4273 251.092V240.4H100.539V251.004C100.539 251.635 100.693 252.119 101.001 252.456C101.324 252.794 101.779 252.962 102.365 252.962C103.025 252.962 103.575 252.779 104.015 252.412L104.675 253.93C104.353 254.209 103.964 254.414 103.509 254.546C103.069 254.678 102.607 254.744 102.123 254.744ZM96.4473 244.69V242.952H103.883V244.69H96.4473Z" fill="black"/>
<path d="M88.7734 254.613V242.953H90.7974V246.121L90.5994 245.329C90.9221 244.522 91.4648 243.906 92.2274 243.481C92.9901 243.055 93.9288 242.843 95.0434 242.843V244.889C94.9554 244.874 94.8674 244.867 94.7794 244.867C94.7061 244.867 94.6328 244.867 94.5594 244.867C93.4301 244.867 92.5354 245.204 91.8754 245.879C91.2154 246.553 90.8854 247.529 90.8854 248.805V254.613H88.7734Z" fill="black"/>
<path d="M80.4946 254.745C79.2479 254.745 78.1479 254.488 77.1946 253.975C76.2559 253.461 75.5226 252.757 74.9946 251.863C74.4813 250.968 74.2246 249.941 74.2246 248.783C74.2246 247.624 74.4739 246.597 74.9726 245.703C75.4859 244.808 76.1826 244.111 77.0626 243.613C77.9573 243.099 78.9619 242.843 80.0766 242.843C81.2059 242.843 82.2033 243.092 83.0686 243.591C83.9339 244.089 84.6086 244.793 85.0926 245.703C85.5913 246.597 85.8406 247.646 85.8406 248.849C85.8406 248.937 85.8333 249.039 85.8186 249.157C85.8186 249.274 85.8113 249.384 85.7966 249.487H75.8746V247.969H84.6966L83.8386 248.497C83.8533 247.749 83.6993 247.081 83.3766 246.495C83.0539 245.908 82.6066 245.453 82.0346 245.131C81.4773 244.793 80.8246 244.625 80.0766 244.625C79.3433 244.625 78.6906 244.793 78.1186 245.131C77.5466 245.453 77.0993 245.915 76.7766 246.517C76.4539 247.103 76.2926 247.778 76.2926 248.541V248.893C76.2926 249.67 76.4686 250.367 76.8206 250.983C77.1873 251.584 77.6933 252.053 78.3386 252.391C78.9839 252.728 79.7246 252.897 80.5606 252.897C81.2499 252.897 81.8733 252.779 82.4306 252.545C83.0026 252.31 83.5013 251.958 83.9266 251.489L85.0926 252.853C84.5646 253.469 83.9046 253.938 83.1126 254.261C82.3353 254.583 81.4626 254.745 80.4946 254.745Z" fill="black"/>
<path d="M66.4886 254.745C65.5206 254.745 64.6333 254.525 63.8266 254.085C63.0346 253.63 62.3966 252.963 61.9126 252.083C61.4433 251.203 61.2086 250.103 61.2086 248.783C61.2086 247.463 61.436 246.363 61.8906 245.483C62.36 244.603 62.9906 243.943 63.7826 243.503C64.5893 243.063 65.4913 242.843 66.4886 242.843C67.6326 242.843 68.6446 243.092 69.5246 243.591C70.4046 244.089 71.1013 244.786 71.6146 245.681C72.128 246.561 72.3846 247.595 72.3846 248.783C72.3846 249.971 72.128 251.012 71.6146 251.907C71.1013 252.801 70.4046 253.498 69.5246 253.997C68.6446 254.495 67.6326 254.745 66.4886 254.745ZM60.3066 258.881V242.953H62.3306V246.099L62.1986 248.805L62.4186 251.511V258.881H60.3066ZM66.3126 252.897C67.0606 252.897 67.728 252.728 68.3146 252.391C68.916 252.053 69.3853 251.577 69.7226 250.961C70.0746 250.33 70.2506 249.604 70.2506 248.783C70.2506 247.947 70.0746 247.228 69.7226 246.627C69.3853 246.011 68.916 245.534 68.3146 245.197C67.728 244.859 67.0606 244.691 66.3126 244.691C65.5793 244.691 64.912 244.859 64.3106 245.197C63.724 245.534 63.2546 246.011 62.9026 246.627C62.5653 247.228 62.3966 247.947 62.3966 248.783C62.3966 249.604 62.5653 250.33 62.9026 250.961C63.2546 251.577 63.724 252.053 64.3106 252.391C64.912 252.728 65.5793 252.897 66.3126 252.897Z" fill="black"/>
<path d="M46.4746 254.612L51.4906 248.1L51.4686 249.178L46.6946 242.952H49.0486L52.7006 247.748H51.7986L55.4506 242.952H57.7606L52.9206 249.222L52.9426 248.1L58.0026 254.612H55.6046L51.7546 249.508L52.6126 249.64L48.8286 254.612H46.4746Z" fill="black"/>
<path d="M33.9961 254.612V239.212H44.8641V241.126H36.1961V252.698H45.1721V254.612H33.9961ZM35.9981 247.726V245.856H43.9181V247.726H35.9981Z" fill="black"/>
<circle cx="128.186" cy="105.194" r="91.04" fill="white"/>
<path d="M86.7117 131.692C86.8853 131.678 87.0543 131.649 87.2279 131.649C90.6817 131.649 94.1402 131.649 97.594 131.649C97.7442 131.649 97.899 131.668 98.0211 131.673C97.7301 132.56 97.3782 133.409 97.1905 134.291C97.0121 135.113 96.9605 135.967 96.9417 136.807C96.9089 138.656 96.9183 140.504 96.9417 142.353C96.9464 142.79 96.8479 142.949 96.3739 142.949C94.7127 142.949 93.0515 142.963 91.5029 142.227C88.9079 140.988 87.3171 138.975 86.8103 136.126C86.7915 136.028 86.7446 135.939 86.707 135.84V131.692H86.7117Z" fill="#777100"/>
<path d="M117.659 85.9477C112.234 85.9477 106.81 85.9477 101.385 85.9477C100.259 85.9477 100.029 85.6756 99.9865 84.5352C99.8832 81.4475 100.446 78.5098 102.004 75.8256C104.679 71.208 108.649 68.3737 113.975 67.7355C117.176 67.3507 120.451 67.2005 123.591 68.1625C130.01 70.1287 133.891 74.4695 135.116 81.0861C135.346 82.3297 135.289 83.6295 135.332 84.906C135.35 85.5488 134.947 85.9336 134.299 85.943C133.506 85.9571 132.708 85.943 131.915 85.943C127.166 85.943 122.413 85.943 117.664 85.943L117.659 85.9477Z" fill="#777100"/>
<path d="M98.861 142.893C98.861 142.687 98.861 142.518 98.861 142.349C98.861 140.467 98.861 138.581 98.861 136.699C98.8703 132.217 101.892 128.646 106.308 127.9C106.782 127.82 107.27 127.811 107.754 127.811C114.356 127.806 120.959 127.844 127.557 127.792C131.846 127.759 135.412 130.936 136.177 134.395C136.318 135.033 136.43 135.69 136.445 136.338C136.477 138.412 136.459 140.486 136.459 142.56C136.459 142.659 136.44 142.762 136.426 142.898H98.8516L98.861 142.893Z" fill="#777100"/>
<path d="M139.401 103.888C138.735 103.888 138.026 103.888 137.322 103.888C136.201 103.883 135.412 103.151 135.384 102.029C135.351 100.753 135.351 99.4717 135.384 98.1953C135.412 97.0785 136.21 96.3558 137.331 96.3464C138.021 96.3464 138.711 96.3464 139.415 96.3464C139.805 95.4219 140.189 94.5069 140.649 93.4182C140.199 93.0099 139.654 92.5547 139.162 92.0526C138.242 91.1235 138.265 90.1286 139.19 89.1948C140.006 88.3735 140.823 87.5523 141.644 86.7405C142.531 85.8677 143.53 85.863 144.431 86.7217C144.854 87.1253 145.286 87.5289 145.694 87.9512C145.886 88.153 146.041 88.1999 146.318 88.0685C147.003 87.7447 147.707 87.4585 148.411 87.1863C148.655 87.0924 148.763 86.9751 148.753 86.703C148.735 86.1164 148.744 85.5298 148.753 84.9385C148.768 83.7607 149.523 82.977 150.692 82.9676C151.916 82.9535 153.146 82.9535 154.371 82.9676C155.544 82.9817 156.285 83.7513 156.29 84.9385C156.29 85.6283 156.29 86.3182 156.29 86.9798C157.191 87.374 158.054 87.7588 158.927 88.1108C159.04 88.1577 159.256 88.0685 159.359 87.97C159.814 87.5476 160.241 87.0924 160.687 86.6607C161.489 85.8911 162.526 85.8724 163.324 86.642C164.23 87.5195 165.121 88.4111 165.999 89.3168C166.769 90.1145 166.755 91.1469 165.985 91.9587C165.558 92.4092 165.126 92.8597 164.68 93.2962C164.497 93.4745 164.446 93.62 164.563 93.878C164.892 94.5773 165.197 95.2905 165.469 96.0179C165.567 96.2854 165.703 96.3511 165.957 96.3464C166.576 96.3323 167.2 96.3323 167.824 96.3464C168.871 96.3652 169.65 97.1441 169.659 98.1906C169.669 99.467 169.669 100.748 169.659 102.025C169.65 103.099 168.871 103.869 167.787 103.883C167.163 103.888 166.543 103.864 165.924 103.897C165.774 103.906 165.567 104.066 165.502 104.207C165.173 104.925 164.863 105.657 164.591 106.398C164.535 106.553 164.591 106.83 164.704 106.952C165.117 107.416 165.577 107.834 166.008 108.285C166.755 109.068 166.769 110.105 166.018 110.884C165.131 111.804 164.225 112.71 163.305 113.597C162.526 114.347 161.499 114.329 160.706 113.578C160.255 113.151 159.838 112.682 159.373 112.273C159.251 112.165 158.969 112.118 158.81 112.179C158.068 112.452 157.336 112.757 156.614 113.085C156.473 113.151 156.313 113.357 156.309 113.507C156.276 114.146 156.299 114.784 156.29 115.427C156.276 116.44 155.558 117.224 154.554 117.248C153.207 117.276 151.86 117.28 150.513 117.248C149.509 117.224 148.791 116.454 148.758 115.427C148.739 114.807 148.739 114.183 148.758 113.559C148.768 113.278 148.688 113.132 148.406 113.029C147.712 112.771 147.027 112.489 146.36 112.175C146.074 112.039 145.9 112.067 145.689 112.287C145.257 112.733 144.812 113.17 144.352 113.592C143.549 114.338 142.545 114.343 141.757 113.587C140.846 112.714 139.959 111.818 139.082 110.912C138.289 110.091 138.308 109.073 139.115 108.242C139.546 107.797 140.002 107.369 140.424 106.914C140.513 106.816 140.574 106.6 140.527 106.487C140.18 105.628 139.8 104.779 139.415 103.888H139.401ZM152.545 90.6636C147.275 90.673 143.075 94.8917 143.085 100.162C143.094 105.384 147.36 109.617 152.569 109.584C157.777 109.552 162.006 105.314 161.991 100.138C161.982 94.9057 157.74 90.6542 152.545 90.6636Z" fill="#777100"/>
<path d="M102.128 91.4385C104.01 93.0105 106.065 93.4704 108.323 93.4516C114.644 93.4094 120.969 93.4188 127.29 93.4516C129.426 93.461 131.35 92.9542 133.02 91.5933C133.044 91.5746 133.086 91.5793 133.194 91.5605C133.194 92.4615 133.189 93.3484 133.194 94.2353C133.236 100.744 128.698 106.089 122.795 107.455C121.875 107.666 120.922 107.797 119.979 107.811C118.083 107.844 116.159 107.943 114.287 107.717C108.553 107.028 104.723 103.855 102.776 98.4259C102.194 96.8116 102.105 95.1222 102.128 93.4235C102.138 92.8087 102.128 92.1893 102.128 91.4385Z" fill="#777100"/>
<path d="M129.279 125.911H106.003C105.994 125.751 105.975 125.582 105.975 125.418C105.975 120.631 105.98 115.845 105.961 111.058C105.961 110.58 106.106 110.434 106.571 110.434C107.256 110.434 107.941 110.368 108.687 110.326C108.537 113.545 109.527 116.239 111.996 118.285C113.727 119.716 115.731 120.331 117.988 120.317C121.738 120.289 127.059 116.882 126.684 110.331L129.279 110.476V125.911Z" fill="#777100"/>
<path d="M98.9038 112.7V129.669H86.9609C87.51 122.982 92.2355 115.858 98.9038 112.7Z" fill="#777100"/>
<path d="M148.415 129.684H136.43V112.654C139.55 114.24 142.108 116.394 144.163 119.144C146.505 122.27 147.903 125.78 148.415 129.684Z" fill="#777100"/>
<path d="M137.22 131.645C137.445 131.645 137.614 131.645 137.783 131.645C141.185 131.645 144.582 131.655 147.985 131.636C148.468 131.636 148.613 131.781 148.58 132.25C148.482 133.743 148.613 135.282 148.304 136.727C147.511 140.425 144.348 142.856 140.528 142.936C139.974 142.945 139.42 142.917 138.871 142.945C138.482 142.964 138.374 142.823 138.374 142.438C138.388 140.435 138.374 138.435 138.379 136.432C138.379 134.907 138.036 133.461 137.393 132.082C137.337 131.96 137.295 131.838 137.215 131.645H137.22Z" fill="#777100"/>
<path d="M124.633 108.955C124.816 111.56 124.732 114.019 122.869 116.06C120.992 118.115 118.002 118.908 115.346 117.984C112.704 117.069 110.799 114.563 110.672 111.79C110.63 110.865 110.668 109.936 110.668 108.937C112.977 109.786 115.323 109.767 117.674 109.767C120.025 109.767 122.367 109.777 124.638 108.951L124.633 108.955Z" fill="#777100"/>
<path d="M101.906 87.9238H133.38C133.324 88.0787 133.296 88.2101 133.235 88.318C132.155 90.2092 130.541 91.326 128.359 91.4386C126.651 91.5278 124.938 91.4762 123.23 91.4762C118.011 91.4762 112.793 91.4762 107.57 91.4762C105.262 91.4762 103.483 90.5142 102.239 88.5667C102.122 88.3837 102.042 88.1819 101.911 87.9238H101.906Z" fill="#777100"/>
<path d="M134.472 128.078C133.435 127.543 132.44 127.046 131.469 126.506C131.333 126.431 131.248 126.145 131.248 125.957C131.234 123.315 131.239 120.673 131.239 118.031C131.239 115.84 131.239 113.648 131.239 111.452V110.776C132.304 111.114 133.29 111.405 134.252 111.752C134.374 111.795 134.463 112.114 134.463 112.306C134.477 115.535 134.472 118.763 134.472 121.992C134.472 123.855 134.472 125.723 134.472 127.586V128.078Z" fill="#777100"/>
<path d="M100.875 128.093C100.865 127.957 100.851 127.793 100.851 127.629C100.851 122.532 100.851 117.436 100.842 112.344C100.842 111.96 100.936 111.753 101.325 111.641C102.203 111.392 103.061 111.101 104.023 110.796V111.425C104.023 116.263 104.023 121.096 104.033 125.934C104.033 126.31 103.934 126.483 103.573 126.652C102.663 127.079 101.79 127.6 100.879 128.098L100.875 128.093Z" fill="#777100"/>
<path d="M160.025 100.162C160.025 104.291 156.679 107.628 152.55 107.623C148.359 107.623 144.995 104.268 145.004 100.101C145.013 95.9383 148.387 92.5971 152.578 92.6065C156.712 92.6112 160.025 95.9758 160.02 100.162H160.025Z" fill="#777100"/>
</svg>
