<svg width="256" height="255" viewBox="0 0 256 255" fill="none" xmlns="http://www.w3.org/2000/svg">
<circle cx="128.186" cy="105.086" r="103" fill="white" stroke="#777100" stroke-width="4"/>
<rect x="0.685547" y="51.876" width="255" height="104.842" fill="#777100"/>
<path d="M188.646 254.504V238.18H190.758V245.99L190.34 245.154C190.722 244.391 191.308 243.797 192.1 243.372C192.892 242.946 193.816 242.734 194.872 242.734C195.826 242.734 196.662 242.917 197.38 243.284C198.114 243.65 198.686 244.208 199.096 244.956C199.507 245.704 199.712 246.65 199.712 247.794V254.504H197.6V248.036C197.6 246.906 197.322 246.056 196.764 245.484C196.222 244.912 195.452 244.626 194.454 244.626C193.706 244.626 193.054 244.772 192.496 245.066C191.939 245.359 191.506 245.792 191.198 246.364C190.905 246.936 190.758 247.647 190.758 248.498V254.504H188.646Z" fill="black"/>
<path d="M181.31 254.636C180.122 254.636 179.059 254.38 178.12 253.866C177.196 253.353 176.47 252.649 175.942 251.754C175.414 250.86 175.15 249.833 175.15 248.674C175.15 247.516 175.414 246.489 175.942 245.594C176.47 244.7 177.196 244.003 178.12 243.504C179.059 242.991 180.122 242.734 181.31 242.734C182.366 242.734 183.305 242.947 184.126 243.372C184.962 243.783 185.608 244.399 186.062 245.22L184.456 246.254C184.075 245.682 183.606 245.264 183.048 245C182.506 244.722 181.919 244.582 181.288 244.582C180.526 244.582 179.844 244.751 179.242 245.088C178.641 245.426 178.164 245.902 177.812 246.518C177.46 247.12 177.284 247.838 177.284 248.674C177.284 249.51 177.46 250.236 177.812 250.852C178.164 251.468 178.641 251.945 179.242 252.282C179.844 252.62 180.526 252.788 181.288 252.788C181.919 252.788 182.506 252.656 183.048 252.392C183.606 252.114 184.075 251.688 184.456 251.116L186.062 252.128C185.608 252.935 184.962 253.558 184.126 253.998C183.305 254.424 182.366 254.636 181.31 254.636Z" fill="black"/>
<path d="M170.318 254.504V252.04L170.208 251.578V247.376C170.208 246.482 169.944 245.792 169.416 245.308C168.902 244.81 168.125 244.56 167.084 244.56C166.394 244.56 165.72 244.678 165.06 244.912C164.4 245.132 163.842 245.433 163.388 245.814L162.508 244.23C163.109 243.746 163.828 243.38 164.664 243.13C165.514 242.866 166.402 242.734 167.326 242.734C168.924 242.734 170.156 243.123 171.022 243.9C171.887 244.678 172.32 245.866 172.32 247.464V254.504H170.318ZM166.49 254.636C165.624 254.636 164.862 254.49 164.202 254.196C163.556 253.903 163.058 253.5 162.706 252.986C162.354 252.458 162.178 251.864 162.178 251.204C162.178 250.574 162.324 250.002 162.618 249.488C162.926 248.975 163.417 248.564 164.092 248.256C164.781 247.948 165.705 247.794 166.864 247.794H170.56V249.312H166.952C165.896 249.312 165.184 249.488 164.818 249.84C164.451 250.192 164.268 250.618 164.268 251.116C164.268 251.688 164.495 252.15 164.95 252.502C165.404 252.84 166.035 253.008 166.842 253.008C167.634 253.008 168.323 252.832 168.91 252.48C169.511 252.128 169.944 251.615 170.208 250.94L170.626 252.392C170.347 253.082 169.856 253.632 169.152 254.042C168.448 254.438 167.56 254.636 166.49 254.636Z" fill="black"/>
<path d="M155.124 254.636C153.877 254.636 152.777 254.38 151.824 253.866C150.885 253.353 150.152 252.649 149.624 251.754C149.11 250.86 148.854 249.833 148.854 248.674C148.854 247.516 149.103 246.489 149.602 245.594C150.115 244.7 150.812 244.003 151.692 243.504C152.586 242.991 153.591 242.734 154.706 242.734C155.835 242.734 156.832 242.984 157.698 243.482C158.563 243.981 159.238 244.685 159.722 245.594C160.22 246.489 160.47 247.538 160.47 248.74C160.47 248.828 160.462 248.931 160.448 249.048C160.448 249.166 160.44 249.276 160.426 249.378H150.504V247.86H159.326L158.468 248.388C158.482 247.64 158.328 246.973 158.006 246.386C157.683 245.8 157.236 245.345 156.664 245.022C156.106 244.685 155.454 244.516 154.706 244.516C153.972 244.516 153.32 244.685 152.748 245.022C152.176 245.345 151.728 245.807 151.406 246.408C151.083 246.995 150.922 247.67 150.922 248.432V248.784C150.922 249.562 151.098 250.258 151.45 250.874C151.816 251.476 152.322 251.945 152.968 252.282C153.613 252.62 154.354 252.788 155.19 252.788C155.879 252.788 156.502 252.671 157.06 252.436C157.632 252.202 158.13 251.85 158.556 251.38L159.722 252.744C159.194 253.36 158.534 253.83 157.742 254.152C156.964 254.475 156.092 254.636 155.124 254.636Z" fill="black"/>
<path d="M134.256 254.504V239.104H140.262C142.257 239.104 143.826 239.58 144.97 240.534C146.114 241.472 146.686 242.785 146.686 244.472C146.686 245.586 146.429 246.547 145.916 247.354C145.403 248.146 144.669 248.754 143.716 249.18C142.763 249.605 141.611 249.818 140.262 249.818H135.466L136.456 248.806V254.504H134.256ZM144.552 254.504L140.636 248.916H142.99L146.95 254.504H144.552ZM136.456 249.026L135.466 247.948H140.196C141.604 247.948 142.667 247.647 143.386 247.046C144.119 246.43 144.486 245.572 144.486 244.472C144.486 243.372 144.119 242.521 143.386 241.92C142.667 241.318 141.604 241.018 140.196 241.018H135.466L136.456 239.918V249.026Z" fill="black"/>
<path d="M121.895 254.504V238.18H124.007V254.504H121.895Z" fill="black"/>
<path d="M115.984 254.504V252.04L115.874 251.578V247.376C115.874 246.482 115.61 245.792 115.082 245.308C114.568 244.81 113.791 244.56 112.75 244.56C112.06 244.56 111.386 244.678 110.726 244.912C110.066 245.132 109.508 245.433 109.054 245.814L108.174 244.23C108.775 243.746 109.494 243.38 110.33 243.13C111.18 242.866 112.068 242.734 112.992 242.734C114.59 242.734 115.822 243.123 116.688 243.9C117.553 244.678 117.986 245.866 117.986 247.464V254.504H115.984ZM112.156 254.636C111.29 254.636 110.528 254.49 109.868 254.196C109.222 253.903 108.724 253.5 108.372 252.986C108.02 252.458 107.844 251.864 107.844 251.204C107.844 250.574 107.99 250.002 108.284 249.488C108.592 248.975 109.083 248.564 109.758 248.256C110.447 247.948 111.371 247.794 112.53 247.794H116.226V249.312H112.618C111.562 249.312 110.85 249.488 110.484 249.84C110.117 250.192 109.934 250.618 109.934 251.116C109.934 251.688 110.161 252.15 110.616 252.502C111.07 252.84 111.701 253.008 112.508 253.008C113.3 253.008 113.989 252.832 114.576 252.48C115.177 252.128 115.61 251.615 115.874 250.94L116.292 252.392C116.013 253.082 115.522 253.632 114.818 254.042C114.114 254.438 113.226 254.636 112.156 254.636Z" fill="black"/>
<path d="M100.039 254.636C99.0421 254.636 98.1401 254.416 97.3334 253.976C96.5414 253.521 95.9108 252.854 95.4414 251.974C94.9868 251.094 94.7594 249.994 94.7594 248.674C94.7594 247.354 94.9941 246.254 95.4634 245.374C95.9474 244.494 96.5854 243.834 97.3774 243.394C98.1841 242.954 99.0714 242.734 100.039 242.734C101.183 242.734 102.195 242.983 103.075 243.482C103.955 243.98 104.652 244.677 105.165 245.572C105.679 246.452 105.935 247.486 105.935 248.674C105.935 249.862 105.679 250.903 105.165 251.798C104.652 252.692 103.955 253.389 103.075 253.888C102.195 254.386 101.183 254.636 100.039 254.636ZM93.8574 254.504V238.18H95.9694V245.946L95.7494 248.652L95.8814 251.358V254.504H93.8574ZM99.8634 252.788C100.611 252.788 101.279 252.619 101.865 252.282C102.467 251.944 102.936 251.468 103.273 250.852C103.625 250.221 103.801 249.495 103.801 248.674C103.801 247.838 103.625 247.119 103.273 246.518C102.936 245.902 102.467 245.425 101.865 245.088C101.279 244.75 100.611 244.582 99.8634 244.582C99.1301 244.582 98.4628 244.75 97.8614 245.088C97.2748 245.425 96.8054 245.902 96.4534 246.518C96.1161 247.119 95.9474 247.838 95.9474 248.674C95.9474 249.495 96.1161 250.221 96.4534 250.852C96.8054 251.468 97.2748 251.944 97.8614 252.282C98.4628 252.619 99.1301 252.788 99.8634 252.788Z" fill="black"/>
<path d="M84.8865 254.636C83.7131 254.636 82.6718 254.38 81.7625 253.866C80.8531 253.353 80.1345 252.649 79.6065 251.754C79.0785 250.845 78.8145 249.818 78.8145 248.674C78.8145 247.516 79.0785 246.489 79.6065 245.594C80.1345 244.7 80.8531 244.003 81.7625 243.504C82.6718 242.991 83.7131 242.734 84.8865 242.734C86.0451 242.734 87.0791 242.991 87.9885 243.504C88.9125 244.003 89.6311 244.7 90.1445 245.594C90.6725 246.474 90.9365 247.501 90.9365 248.674C90.9365 249.833 90.6725 250.86 90.1445 251.754C89.6311 252.649 88.9125 253.353 87.9885 253.866C87.0791 254.38 86.0451 254.636 84.8865 254.636ZM84.8865 252.788C85.6345 252.788 86.3018 252.62 86.8885 252.282C87.4898 251.945 87.9591 251.468 88.2965 250.852C88.6338 250.222 88.8025 249.496 88.8025 248.674C88.8025 247.838 88.6338 247.12 88.2965 246.518C87.9591 245.902 87.4898 245.426 86.8885 245.088C86.3018 244.751 85.6345 244.582 84.8865 244.582C84.1385 244.582 83.4711 244.751 82.8845 245.088C82.2978 245.426 81.8285 245.902 81.4765 246.518C81.1245 247.12 80.9485 247.838 80.9485 248.674C80.9485 249.496 81.1245 250.222 81.4765 250.852C81.8285 251.468 82.2978 251.945 82.8845 252.282C83.4711 252.62 84.1385 252.788 84.8865 252.788Z" fill="black"/>
<path d="M73.748 254.504V238.18H75.86V254.504H73.748Z" fill="black"/>
<path d="M64.0146 254.68C62.8266 254.68 61.7339 254.489 60.7366 254.108C59.7393 253.712 58.8739 253.162 58.1406 252.458C57.4073 251.739 56.8353 250.903 56.4246 249.95C56.0139 248.996 55.8086 247.948 55.8086 246.804C55.8086 245.66 56.0139 244.611 56.4246 243.658C56.8353 242.704 57.4073 241.876 58.1406 241.172C58.8886 240.453 59.7613 239.903 60.7586 239.522C61.7559 239.126 62.8559 238.928 64.0586 238.928C65.2759 238.928 66.3906 239.126 67.4026 239.522C68.4146 239.918 69.2726 240.512 69.9766 241.304L68.6126 242.668C67.9819 242.052 67.2926 241.604 66.5446 241.326C65.8113 241.032 65.0119 240.886 64.1466 240.886C63.2666 240.886 62.4453 241.032 61.6826 241.326C60.9346 241.619 60.2819 242.03 59.7246 242.558C59.1819 243.086 58.7566 243.716 58.4486 244.45C58.1553 245.168 58.0086 245.953 58.0086 246.804C58.0086 247.64 58.1553 248.424 58.4486 249.158C58.7566 249.876 59.1819 250.507 59.7246 251.05C60.2819 251.578 60.9346 251.988 61.6826 252.282C62.4306 252.575 63.2446 252.722 64.1246 252.722C64.9459 252.722 65.7306 252.597 66.4786 252.348C67.2413 252.084 67.9453 251.651 68.5906 251.05L69.8446 252.722C69.0819 253.367 68.1873 253.858 67.1606 254.196C66.1486 254.518 65.0999 254.68 64.0146 254.68ZM69.8446 252.722L67.7326 252.436V246.716H69.8446V252.722Z" fill="black"/>
<circle cx="128.186" cy="105.086" r="91.04" fill="white"/>
<path d="M166.722 103.141V107.189C166.692 107.36 166.648 107.53 166.626 107.704C166.387 109.502 166.264 111.321 165.885 113.088C164.031 121.792 159.676 129.026 152.87 134.754C147.456 139.309 141.226 142.136 134.232 143.253C133.364 143.392 132.496 143.51 131.628 143.641H124.686C124.564 143.611 124.446 143.563 124.324 143.545C123.29 143.401 122.252 143.305 121.226 143.118C114.167 141.796 107.872 138.838 102.575 133.99C92.6278 124.885 88.4263 113.546 89.9359 100.161C90.6252 94.0484 92.859 88.4552 96.2533 83.3288C96.3144 83.2328 96.3929 83.1499 96.4628 83.0583C96.4453 83.3157 96.3362 83.5295 96.2621 83.752C96.201 83.944 96.1792 84.1447 96.1443 84.3454C96.3406 84.3454 96.5369 84.3541 96.7376 84.3497C96.9165 84.3497 97.0997 84.3323 97.2786 84.3192C97.2786 84.546 97.3048 84.7816 97.2612 85.0041C97.1346 85.6106 96.8423 86.217 96.8554 86.8191C96.8816 87.8226 96.5544 88.6297 95.9261 89.3627C95.8519 89.4456 95.7952 89.5459 95.7341 89.6375C95.0928 90.5973 95.1015 91.6183 95.7341 92.5999C95.8607 92.7962 96.0134 93.0144 96.0396 93.2369C96.1094 93.8913 96.1966 94.5588 96.1312 95.2045C96.0395 96.1164 96.5675 96.6705 97.0997 97.242C97.1739 97.3249 97.4226 97.3729 97.4706 97.3205C97.5578 97.2289 97.5927 97.0457 97.5796 96.9104C97.5666 96.7752 97.4662 96.6487 97.4008 96.5221C97.1434 96.016 97.1913 95.4881 97.331 94.9166C97.7585 95.3136 98.1555 95.7194 98.4522 96.1906C98.8754 96.8624 99.4731 97.4776 99.3684 98.3894C99.3466 98.5858 99.4513 98.8606 99.5953 98.9959C100.45 99.7987 101.41 100.353 102.654 100.239C102.942 100.213 103.273 100.34 103.539 100.484C104.059 100.767 104.508 101.212 105.053 101.404C105.59 101.596 105.856 101.993 106.183 102.364C106.589 102.822 106.707 102.857 107.37 102.543C107.2 102.342 107.069 102.111 106.873 101.967C106.445 101.653 106.257 101.286 106.462 100.767C106.585 100.449 106.51 100.187 106.161 100.078C105.76 99.9514 105.346 99.8554 104.861 99.7245C104.918 99.5587 104.975 99.3493 105.053 99.1529C105.162 98.8868 105.293 98.6294 105.402 98.3633C105.555 97.9924 105.319 97.8921 105.031 97.9008C104.887 97.9052 104.722 97.9968 104.613 98.0971C104.15 98.516 103.596 98.6425 103.007 98.6163C102.819 98.6076 102.532 98.5247 102.47 98.3894C102.252 97.9139 101.916 97.3729 101.986 96.9104C102.23 95.2962 102.837 94.4323 104.643 94.2971C105.376 94.2404 106.113 94.236 106.851 94.2098C107.466 94.188 107.837 94.6112 107.732 95.2045C107.649 95.6801 107.867 95.9899 108.408 96.0815C108.408 95.8197 108.408 95.5667 108.408 95.3136C108.408 93.8782 109.01 92.8093 110.341 92.2334C110.834 92.0196 111.03 91.7012 111.187 91.1994C111.423 90.4447 111.881 89.7902 112.719 89.5677C113.216 89.4368 113.578 89.1794 113.81 88.7082C114.054 88.2152 114.455 87.9534 115.027 87.8967C115.463 87.8575 115.886 87.7048 116.423 87.5782C116.248 87.3121 116.139 87.1289 116.008 86.9587C115.768 86.6402 115.773 86.121 116.035 85.8505C116.305 85.5713 116.837 85.5015 117.13 85.7807C117.361 85.9989 117.527 86.2999 117.671 86.5879C117.819 86.8889 118.216 87.0678 118.609 86.9631C118.98 86.8627 118.927 86.6053 118.836 86.3566C118.731 86.0774 118.604 85.8026 118.465 85.5408C118.325 85.2746 118.164 85.0565 118.526 84.8035C118.652 84.7118 118.713 84.4326 118.7 84.2494C118.631 83.3899 118.517 82.5348 118.425 81.6796C118.364 81.0994 118.107 80.9641 117.631 81.2913C117.282 81.5313 116.968 81.8236 116.589 82.129C116.371 81.6665 116.183 81.2084 115.939 80.7809C115.864 80.6456 115.594 80.4842 115.494 80.5278C114.931 80.7591 114.303 80.9205 114.063 81.6011C113.962 81.8891 113.77 82.1465 113.7 82.4388C113.504 83.259 112.706 83.3768 112.169 83.7956C112.13 83.8262 112.038 83.8174 111.986 83.7956C111.166 83.451 110.254 83.3026 109.621 82.5828C109.032 81.9196 109.167 81.1081 109.97 80.6893C110.04 80.6544 110.119 80.6282 110.193 80.5976C110.655 80.4144 111.109 80.205 111.58 80.0523C112.134 79.869 112.706 79.7294 113.269 79.568L113.255 79.5593L113.094 79.9781C113.164 79.9999 113.234 80.0479 113.299 80.0436C113.604 80.0261 113.91 79.9912 114.259 79.9607C114.25 79.8952 114.189 79.712 114.202 79.5287C114.211 79.3935 114.268 79.1928 114.368 79.1404C114.8 78.9136 115.057 78.5689 115.323 78.1719C115.489 77.9276 115.952 77.7443 116.253 77.7792C116.501 77.8054 116.846 78.1719 116.89 78.4337C116.92 78.63 116.584 78.9485 116.349 79.1186C116.008 79.3586 115.607 79.5156 115.149 79.7469C115.398 79.8778 115.577 80.0523 115.755 80.0523C116.139 80.0523 116.318 80.2922 116.58 80.5017C116.859 80.7242 117.304 80.746 117.675 80.8551C117.719 80.554 117.758 80.253 117.802 79.9519C117.806 79.9214 117.819 79.8908 117.832 79.8472C118.722 79.9694 118.111 79.1535 118.473 78.8656C118.705 78.8656 118.993 78.8787 119.281 78.8612C119.411 78.8525 119.542 78.7914 119.669 78.7565C119.612 78.6169 119.595 78.4337 119.499 78.3377C119.206 78.0541 118.879 77.8098 118.626 77.596C118.543 77.3386 118.539 77.0245 118.399 76.9416C117.902 76.6449 117.439 76.3526 117.4 75.7025C117.679 75.7025 117.998 75.7898 118.233 75.685C118.665 75.4931 119.084 75.2357 119.446 74.9303C119.918 74.5289 120.354 74.6336 120.886 74.8648C120.738 74.939 120.637 74.987 120.541 75.0393C120.437 75.0961 120.336 75.1571 120.236 75.2138L120.206 75.3753C120.629 75.576 121.043 75.7985 121.475 75.973C121.833 76.1126 122.221 76.1693 122.579 76.3089C123.098 76.5096 123.246 76.9503 122.858 77.3255C122.348 77.8228 122.265 78.4686 122.025 79.075C121.776 79.7076 121.868 80.1919 122.252 80.7503C122.566 81.2084 122.767 81.636 123.421 81.3917C123.504 81.3611 123.613 81.3786 123.709 81.3917C124.215 81.4702 124.577 81.2608 124.682 80.7503C124.76 80.362 124.987 80.1919 125.319 80.0479C126.348 79.6029 127.365 79.1404 128.382 78.678C128.818 78.4816 129.228 78.2155 129.682 78.0672C130.175 77.9101 130.476 77.6309 130.615 77.1379C130.69 76.8761 130.777 76.61 130.912 76.3787C131.043 76.1519 131.235 75.9555 131.414 75.7549C131.71 75.4276 132.051 75.131 132.317 74.7819C132.557 74.4634 132.779 74.1886 133.211 74.1319C133.552 74.0882 133.726 73.8526 133.652 73.3814C133.307 73.3814 132.976 73.3814 132.644 73.3814C131.025 73.3814 129.411 73.3727 127.793 73.3945C127.439 73.3989 127.038 73.4207 126.75 73.5952C126.213 73.9181 125.707 73.9922 125.101 73.8395C124.682 73.7348 124.219 73.8046 123.779 73.7697C123.591 73.7566 123.342 73.7305 123.242 73.6083C123.006 73.3247 122.788 73.364 122.479 73.4513C122.025 73.5821 121.549 73.6868 121.078 73.7174C120.502 73.7523 119.922 73.6868 119.346 73.6781C119.189 73.6781 118.98 73.665 118.884 73.7523C118.482 74.1144 118.015 73.9704 117.562 74.0141C116.942 74.0708 116.331 74.2322 115.716 74.35V74.5769L117.121 75.0655C116.768 75.1397 116.436 75.0742 116.113 75.1004C115.808 75.1266 115.511 75.2531 115.214 75.336L115.223 75.4538L116.078 75.6458L116.048 75.7374L114.39 75.3709L114.364 75.4713L114.7 75.6022C114.7 75.7854 114.721 75.925 114.691 76.0559C114.678 76.1213 114.551 76.226 114.508 76.213C114.285 76.1519 114.076 76.0559 113.862 75.973V75.9206L114.337 75.9861C114.316 75.7156 113.644 75.1964 113.404 75.2444C112.994 75.3316 112.579 75.4233 112.165 75.5149C112.374 76.3831 113.029 75.9904 113.53 76.0428L112.95 76.1824L112.898 76.6623C112.357 76.165 111.881 76.4093 111.427 76.6841C111.327 76.7452 111.305 76.9372 111.222 77.1292H112.095V78.0366C111.192 78.6387 109.752 78.4773 109.499 78.0715C109.735 78.0715 109.979 78.1326 110.162 78.0541C110.332 77.9799 110.441 77.753 110.616 77.548C110.123 77.1553 110.542 76.7583 110.756 76.2435C110.45 76.3395 110.249 76.4442 110.04 76.4616C109.608 76.4965 109.154 76.5532 108.736 76.466C108.264 76.37 107.828 76.1257 107.379 75.9381C106.925 75.7505 106.585 75.9381 106.24 76.2173C105.991 76.418 105.703 76.5751 105.42 76.7539C105.616 77.1771 105.795 77.2557 106.271 77.0768C106.436 77.0157 106.593 76.9285 106.759 76.8848C106.829 76.8674 106.964 76.9023 106.999 76.959C107.047 77.0332 107.078 77.1815 107.038 77.2469C106.868 77.5262 106.672 77.7879 106.484 78.0497C105.956 77.9363 105.402 77.8359 104.861 77.7007C104.216 77.5393 103.583 77.5262 102.92 77.6745C101.851 77.9101 101.716 77.8621 101.07 77.4869C111.187 68.2507 122.893 64.6906 136.348 67.4305C143.468 68.8833 149.598 72.3038 154.777 77.4127C154.629 77.4607 154.511 77.4346 154.41 77.3822C153.987 77.1553 153.582 76.8936 153.141 76.7103C153.01 76.658 152.657 76.8019 152.626 76.9154C152.452 77.5349 152.05 77.7923 151.444 77.849C151.191 77.8708 150.951 77.9886 150.698 78.0366C149.738 78.2155 148.782 78.39 147.818 78.5384C147.631 78.5689 147.356 78.5209 147.234 78.3988C146.902 78.0585 146.54 78.0584 146.125 78.1457C145.733 78.2286 145.336 78.3071 144.934 78.3202C144.664 78.3289 144.328 78.2984 144.123 78.1413C143.499 77.6658 142.884 77.4084 142.142 77.8621C142.081 77.9014 141.985 77.8708 141.906 77.8839C141.387 77.9755 140.855 78.0323 140.349 78.1806C139.673 78.3769 139.201 78.8612 139.053 79.5418C138.966 79.9388 138.778 80.1265 138.438 80.2399C138.285 80.2879 138.137 80.3446 137.984 80.3969C137.491 80.5671 137.016 81.2913 137.164 81.6491C137.317 82.0156 138.067 82.1421 138.595 81.8891C138.783 81.7974 138.962 81.684 139.158 81.6186C139.585 81.4702 139.799 81.6535 139.76 82.0897C139.742 82.2773 139.712 82.4824 139.76 82.6613C139.865 83.0365 140.214 83.1761 140.441 82.9361C140.833 82.5217 141.2 82.0854 141.575 81.6535C141.771 81.4309 141.684 81.287 141.453 81.1648C141.256 81.0645 141.069 80.9467 140.872 80.8332C141.16 80.1744 141.675 79.8821 142.29 79.7338C142.443 79.6945 142.626 79.7556 142.792 79.7861C142.805 79.7861 142.818 79.9476 142.805 79.9563C142.653 80.013 142.491 80.0523 142.334 80.0959C142.308 80.1046 142.286 80.1308 142.194 80.2093C142.308 80.4886 142.452 80.7852 142.548 81.0994C142.605 81.2783 142.639 81.5008 142.587 81.6709C142.404 82.2424 142.142 82.7878 141.968 83.3637C141.806 83.896 141.614 84.1316 141.069 84.0748C140.436 84.0094 139.808 83.8654 139.184 83.7345C139.105 83.7171 139.005 83.5469 139.014 83.4553C139.057 82.9885 138.748 82.8576 138.368 82.7136C138.338 82.862 138.29 82.9798 138.29 83.1019C138.29 83.5775 138.128 83.8916 137.6 83.9527C137.469 83.9658 137.286 84.0879 137.247 84.2014C136.854 85.3008 135.894 85.6149 134.93 85.9422C134.764 85.9989 134.607 86.0687 134.446 86.1341C134.546 86.3392 134.634 86.553 134.747 86.7493C134.804 86.8453 134.965 86.902 134.983 86.998C135.052 87.3208 135.079 87.6524 135.14 88.0974L133.909 87.7964C133.826 87.8487 133.669 87.9622 133.495 88.0451C133.006 88.2807 132.727 88.8086 132.862 89.3234C133.002 89.8557 132.967 90.3356 132.47 90.8068C132.784 90.9944 133.093 91.1209 133.329 91.3303C133.979 91.9018 134.634 91.8669 135.135 91.2038C135.183 91.1427 135.24 91.0685 135.305 91.0424C135.846 90.8155 136.165 90.4359 136.313 89.8469C136.361 89.6506 136.693 89.511 136.915 89.3845C137.055 89.3059 137.282 89.3627 137.387 89.2667C137.657 89.018 137.871 88.7126 138.124 88.4465C138.311 88.2501 138.556 88.0887 138.743 88.4377C139.031 88.9787 139.437 89.3845 139.982 89.6593C140.445 89.8949 140.65 90.3181 140.824 90.9028L139.655 91.0293C140.017 91.6401 140.353 91.6881 140.689 91.2038C140.733 91.1427 140.811 91.1034 140.864 91.0424C141.008 90.8722 141.217 90.7152 141.261 90.5188C141.304 90.3356 141.169 90.1087 141.108 89.8818L141.475 89.9167C140.755 89.2318 139.838 88.7475 139.537 87.6742C139.734 87.7091 139.943 87.7571 140.061 87.8836C140.462 88.3199 140.811 88.8042 141.413 89.0005C141.518 89.0354 141.666 89.1881 141.653 89.2667C141.579 89.7989 141.985 90.0302 142.282 90.3312C142.356 90.4054 142.399 90.5275 142.417 90.6322C142.565 91.5397 143.032 91.4874 143.564 91.1296C143.473 90.7544 143.246 90.3705 143.647 89.9865C143.8 90.1 144.062 90.1872 144.088 90.3225C144.193 90.8548 144.598 90.8591 144.987 90.9333C145.65 91.0554 146.309 91.1863 146.967 91.3129C147.443 91.4045 147.665 91.723 147.478 92.0153C147.295 92.312 147.133 92.6217 146.963 92.9271C146.714 93.3678 146.435 93.7779 145.881 93.8564C145.453 93.9131 145.017 93.9917 144.59 93.9742C144.223 93.9568 143.835 93.8739 143.508 93.7168C143.036 93.4856 142.618 93.394 142.09 93.5728C141.06 93.9262 139.625 93.1976 139.241 92.1854C138.962 91.4525 138.194 91.2605 137.565 91.7491C137.356 91.9106 137.103 92.0502 136.85 92.1113C135.942 92.3294 135.022 92.4428 134.084 92.2596C133.931 92.2291 133.726 92.2858 133.595 92.3774C133.224 92.6304 132.84 92.8879 132.539 93.2107C132.169 93.6121 131.689 94.0048 131.741 94.6286C131.78 95.0955 131.632 95.3878 131.217 95.5754C131.087 95.6321 130.977 95.7368 130.868 95.8284C129.939 96.5788 129.494 97.495 129.861 98.7036C129.891 98.8039 129.887 98.9348 129.847 99.0264C129.616 99.5674 129.359 100.1 129.132 100.641C129.075 100.776 129.036 100.998 129.106 101.094C129.922 102.237 130.807 103.319 132.064 104.013C132.557 104.288 132.823 103.778 133.185 103.603C133.333 103.533 133.486 103.367 133.621 103.381C134.442 103.463 135.244 103.555 136.082 103.372C136.771 103.224 137.256 103.791 137.775 104.153C138.268 104.493 138.464 104.894 138.224 105.501C137.818 106.535 138.054 107.429 138.848 108.223C139.119 108.494 139.271 108.891 139.446 109.249C139.603 109.58 139.633 110.012 139.869 110.256C140.214 110.61 140.109 110.841 139.838 111.09C139.175 111.696 139.249 112.372 139.59 113.105C139.686 113.31 139.677 113.564 139.703 113.795C139.734 114.039 139.738 114.292 139.782 114.532C139.847 114.885 139.952 115.235 140.009 115.592C140.087 116.081 140.078 116.587 140.205 117.058C140.366 117.656 140.646 118.214 140.833 118.808C141.147 119.807 141.357 119.968 142.36 119.685C144.262 119.148 145.759 118.131 146.339 116.111C146.391 115.928 146.461 115.745 146.544 115.57C146.64 115.361 146.693 115.147 147.037 115.147C147.181 115.147 147.404 114.842 147.452 114.646C147.521 114.358 147.535 114.022 147.452 113.742C147.312 113.276 147.399 113.071 147.866 112.835C149.332 112.093 149.607 111.439 149.485 109.82C149.402 108.738 149.437 107.652 149.428 106.565C149.428 106.461 149.48 106.334 149.555 106.26C150.161 105.645 150.719 104.969 151.4 104.449C152.242 103.808 152.822 102.621 152.617 101.439C152.168 101.505 151.714 101.579 151.26 101.627C151.077 101.649 150.842 101.683 150.711 101.596C150.078 101.16 149.476 100.697 149.201 99.9121C149.057 99.5063 148.826 99.057 148.499 98.7995C147.521 98.0317 146.902 97.0762 146.566 95.8895C146.317 95.0126 146.274 95.0257 147.164 94.5152C147.744 95.2395 148.342 95.968 148.913 96.7141C149.022 96.8581 149.048 97.0719 149.092 97.2551C149.236 97.8485 149.271 98.4898 149.528 99.0221C150.24 100.501 150.597 100.767 152.168 99.947C153.15 99.4322 154.044 98.7428 154.96 98.1146C155.484 97.7568 155.501 97.2027 155.061 96.7752C154.89 96.6094 154.773 96.3869 154.602 96.2211C154.415 96.0422 154.214 95.8502 153.983 95.7586C153.342 95.5056 152.678 95.318 152.037 95.0606C151.863 94.9908 151.74 94.777 151.553 94.5894C152.342 94.6374 153.01 94.6243 153.656 94.7377C154.162 94.8293 154.69 94.9995 155.113 95.2744C155.798 95.7237 156.544 95.7368 157.29 95.7194C158.005 95.7019 158.507 95.9157 158.773 96.6007C158.821 96.7316 158.922 96.8537 159.031 96.9453C160.06 97.7874 160.54 98.9304 160.863 100.183C161.038 100.846 161.278 101.496 161.539 102.133C161.784 102.726 162.163 102.944 162.639 102.87C163.529 102.735 163.594 102.661 163.677 101.753C163.695 101.579 163.734 101.404 163.756 101.23C163.795 100.92 163.791 100.649 163.507 100.409C163.237 100.178 163.228 99.8903 163.551 99.6372C164.144 99.1748 164.724 98.6905 165.326 98.2324C165.518 98.0884 165.754 98.0055 166.038 97.8572C166.181 98.769 166.33 99.5718 166.435 100.383C166.557 101.304 166.64 102.229 166.736 103.154L166.722 103.141ZM116.414 121.46C116.606 121.037 116.737 120.754 116.868 120.466C117.051 120.06 117.291 119.72 117.767 119.619C117.819 119.606 117.884 119.549 117.911 119.497C118.207 118.808 118.635 118.136 118.761 117.416C118.94 116.412 119.337 115.71 120.332 115.409C120.38 115.396 120.428 115.387 120.472 115.37C120.825 115.213 121.104 114.981 121.157 114.567C121.27 113.699 121.37 112.826 121.493 111.958C121.532 111.679 121.584 111.391 121.68 111.129C121.92 110.466 122.239 109.829 122.426 109.153C122.513 108.83 122.483 108.385 122.317 108.106C122.073 107.7 121.737 107.329 121.235 107.137C120.873 106.997 120.568 106.709 120.232 106.5C120.127 106.435 119.996 106.374 119.883 106.382C118.696 106.491 117.893 105.741 117.322 104.938C116.728 104.105 116.004 103.573 115.162 103.097C114.734 102.857 114.32 102.56 113.988 102.203C113.343 101.509 112.435 101.099 111.641 101.103C110.847 101.103 109.787 100.955 109.176 101.849C108.583 101.936 108.587 102.582 108.225 102.888C108.142 102.957 108.125 103.119 108.107 103.241C108.059 103.612 108.016 103.987 108.003 104.358C107.994 104.646 108.037 104.934 108.046 105.222C108.046 105.309 108.033 105.435 107.976 105.479C107.396 105.907 107.239 106.583 106.951 107.181C106.72 107.656 106.811 108.088 107.287 108.332C107.614 108.498 107.597 108.69 107.505 108.952C107.44 109.135 107.366 109.31 107.3 109.493C107.069 110.143 107.169 110.488 107.715 110.915C108.356 111.417 108.98 111.941 109.639 112.416C110.28 112.879 110.882 113.328 110.838 114.253C110.812 114.785 110.904 115.326 110.926 115.863C110.947 116.369 110.934 116.879 110.952 117.385C110.965 117.765 111.105 118.166 111.017 118.52C110.834 119.266 111.148 119.859 111.401 120.5C111.554 120.889 111.632 121.316 111.667 121.735C111.728 122.398 111.541 123.144 111.785 123.72C112.326 124.999 113.042 126.211 114.093 127.18C114.721 127.756 115.45 127.699 116.349 127.595C115.991 127.097 115.672 126.704 115.419 126.277C115.241 125.972 115.053 125.614 115.044 125.273C115.014 124.44 115.079 123.607 115.118 122.769C115.123 122.634 115.136 122.442 115.223 122.368C115.651 122.014 116.104 121.692 116.432 121.447L116.414 121.46ZM133.844 82.6569C133.887 82.7136 133.931 82.7573 133.957 82.8096C134.04 82.9667 134.21 83.163 134.167 83.2852C134.123 83.4117 133.866 83.4553 133.722 83.56C133.442 83.7694 133.181 83.9963 132.919 84.2232C132.893 84.2494 132.936 84.3453 132.919 84.4021C132.888 84.5199 132.84 84.6333 132.801 84.7511C132.771 84.8427 132.701 84.9823 132.736 85.026C132.792 85.0914 132.954 85.1525 133.019 85.1176C133.438 84.9125 134.11 84.9998 134.066 84.2363C134.062 84.1359 134.136 84.0181 134.202 83.9352C134.311 83.8 134.433 83.656 134.586 83.5775C134.634 83.5513 134.869 83.7258 134.869 83.8087C134.869 84.0007 134.799 84.2014 134.725 84.3846C134.651 84.5722 134.538 84.7467 134.442 84.9212L134.847 85.1263L134.346 85.8069C134.673 85.6368 134.878 85.4404 135.079 85.4448C135.567 85.4535 135.916 85.2528 136.27 84.9387C136.54 84.6987 136.51 84.5897 136.252 84.389C135.964 84.1665 135.659 83.9396 135.454 83.6473C135.253 83.3593 135 83.0103 135.292 82.6875L135.004 82.1639L133.84 82.6569H133.844ZM107.902 75.7461C108.308 75.9032 108.679 76.117 109.071 76.1824C109.966 76.3307 110.834 76.1475 111.654 75.7723C111.715 75.7461 111.742 75.5193 111.698 75.4276C111.571 75.1659 111.384 75.2531 111.183 75.3753C110.869 75.5629 110.428 75.7156 110.241 75.3535C109.979 74.8343 109.617 74.9695 109.285 75.0873C108.818 75.2531 108.382 75.5105 107.898 75.7461H107.902ZM114.433 75.0306L114.46 75.1571L115.118 75.0611L114.966 74.5245L114.429 75.0306H114.433ZM113.417 74.5594C113.482 75.0873 113.757 75.0568 114.028 74.9957C114.071 74.987 114.084 74.8212 114.111 74.7252L113.417 74.5594Z" fill="#777100"/>
<path d="M113.265 79.5503C112.646 79.0399 112.563 78.512 113.091 77.8488C113.309 77.5783 113.248 77.0722 113.806 77.1508C114.036 77.7325 113.876 78.2386 113.326 78.669C113.693 78.9875 113.592 79.2798 113.248 79.5416L113.261 79.5503H113.265Z" fill="#777100"/>
</svg>
