<svg width="256" height="260" viewBox="0 0 256 260" fill="none" xmlns="http://www.w3.org/2000/svg">
<circle cx="128.186" cy="105.922" r="103" fill="white" stroke="#777100" stroke-width="4"/>
<rect x="0.685547" y="52.7119" width="255" height="104.842" fill="#777100"/>
<path d="M239.898 259.74C239.341 259.74 238.798 259.644 238.27 259.454C237.742 259.278 237.288 259.014 236.906 258.662L237.808 257.078C238.102 257.356 238.424 257.569 238.776 257.716C239.128 257.862 239.502 257.936 239.898 257.936C240.412 257.936 240.837 257.804 241.174 257.54C241.512 257.276 241.827 256.806 242.12 256.132L242.846 254.526L243.066 254.262L247.642 243.68H249.71L244.056 256.506C243.719 257.327 243.338 257.972 242.912 258.442C242.502 258.911 242.047 259.241 241.548 259.432C241.05 259.637 240.5 259.74 239.898 259.74ZM242.67 255.714L237.346 243.68H239.546L244.078 254.064L242.67 255.714Z" fill="black"/>
<path d="M235.125 255.472C233.952 255.472 233.043 255.157 232.397 254.526C231.752 253.895 231.429 252.993 231.429 251.82V241.128H233.541V251.732C233.541 252.363 233.695 252.847 234.003 253.184C234.326 253.521 234.781 253.69 235.367 253.69C236.027 253.69 236.577 253.507 237.017 253.14L237.677 254.658C237.355 254.937 236.966 255.142 236.511 255.274C236.071 255.406 235.609 255.472 235.125 255.472ZM229.449 245.418V243.68H236.885V245.418H229.449Z" fill="black"/>
<path d="M225.042 255.34V243.68H227.154V255.34H225.042ZM226.098 241.436C225.687 241.436 225.343 241.304 225.064 241.04C224.8 240.776 224.668 240.453 224.668 240.072C224.668 239.676 224.8 239.346 225.064 239.082C225.343 238.818 225.687 238.686 226.098 238.686C226.509 238.686 226.846 238.818 227.11 239.082C227.389 239.331 227.528 239.646 227.528 240.028C227.528 240.424 227.396 240.761 227.132 241.04C226.868 241.304 226.523 241.436 226.098 241.436Z" fill="black"/>
<path d="M218.896 255.34V239.016H221.008V255.34H218.896Z" fill="black"/>
<path d="M212.753 255.34V243.68H214.865V255.34H212.753ZM213.809 241.436C213.398 241.436 213.054 241.304 212.775 241.04C212.511 240.776 212.379 240.453 212.379 240.072C212.379 239.676 212.511 239.346 212.775 239.082C213.054 238.818 213.398 238.686 213.809 238.686C214.22 238.686 214.557 238.818 214.821 239.082C215.1 239.331 215.239 239.646 215.239 240.028C215.239 240.424 215.107 240.761 214.843 241.04C214.579 241.304 214.234 241.436 213.809 241.436Z" fill="black"/>
<path d="M203.938 255.472C202.941 255.472 202.039 255.252 201.232 254.812C200.44 254.357 199.809 253.69 199.34 252.81C198.885 251.93 198.658 250.83 198.658 249.51C198.658 248.19 198.893 247.09 199.362 246.21C199.846 245.33 200.484 244.67 201.276 244.23C202.083 243.79 202.97 243.57 203.938 243.57C205.082 243.57 206.094 243.819 206.974 244.318C207.854 244.816 208.551 245.513 209.064 246.408C209.577 247.288 209.834 248.322 209.834 249.51C209.834 250.698 209.577 251.739 209.064 252.634C208.551 253.528 207.854 254.225 206.974 254.724C206.094 255.222 205.082 255.472 203.938 255.472ZM197.756 255.34V239.016H199.868V246.782L199.648 249.488L199.78 252.194V255.34H197.756ZM203.762 253.624C204.51 253.624 205.177 253.455 205.764 253.118C206.365 252.78 206.835 252.304 207.172 251.688C207.524 251.057 207.7 250.331 207.7 249.51C207.7 248.674 207.524 247.955 207.172 247.354C206.835 246.738 206.365 246.261 205.764 245.924C205.177 245.586 204.51 245.418 203.762 245.418C203.029 245.418 202.361 245.586 201.76 245.924C201.173 246.261 200.704 246.738 200.352 247.354C200.015 247.955 199.846 248.674 199.846 249.51C199.846 250.331 200.015 251.057 200.352 251.688C200.704 252.304 201.173 252.78 201.76 253.118C202.361 253.455 203.029 253.624 203.762 253.624Z" fill="black"/>
<path d="M191.845 255.34V252.876L191.735 252.414V248.212C191.735 247.318 191.471 246.628 190.943 246.144C190.43 245.646 189.652 245.396 188.611 245.396C187.922 245.396 187.247 245.514 186.587 245.748C185.927 245.968 185.37 246.269 184.915 246.65L184.035 245.066C184.636 244.582 185.355 244.216 186.191 243.966C187.042 243.702 187.929 243.57 188.853 243.57C190.452 243.57 191.684 243.959 192.549 244.736C193.414 245.514 193.847 246.702 193.847 248.3V255.34H191.845ZM188.017 255.472C187.152 255.472 186.389 255.326 185.729 255.032C185.084 254.739 184.585 254.336 184.233 253.822C183.881 253.294 183.705 252.7 183.705 252.04C183.705 251.41 183.852 250.838 184.145 250.324C184.453 249.811 184.944 249.4 185.619 249.092C186.308 248.784 187.232 248.63 188.391 248.63H192.087V250.148H188.479C187.423 250.148 186.712 250.324 186.345 250.676C185.978 251.028 185.795 251.454 185.795 251.952C185.795 252.524 186.022 252.986 186.477 253.338C186.932 253.676 187.562 253.844 188.369 253.844C189.161 253.844 189.85 253.668 190.437 253.316C191.038 252.964 191.471 252.451 191.735 251.776L192.153 253.228C191.874 253.918 191.383 254.468 190.679 254.878C189.975 255.274 189.088 255.472 188.017 255.472Z" fill="black"/>
<path d="M175.901 255.472C174.933 255.472 174.045 255.252 173.239 254.812C172.447 254.358 171.809 253.69 171.325 252.81C170.855 251.93 170.621 250.83 170.621 249.51C170.621 248.19 170.848 247.09 171.303 246.21C171.772 245.33 172.403 244.67 173.195 244.23C174.001 243.79 174.903 243.57 175.901 243.57C177.045 243.57 178.057 243.82 178.937 244.318C179.817 244.817 180.513 245.514 181.027 246.408C181.54 247.288 181.797 248.322 181.797 249.51C181.797 250.698 181.54 251.74 181.027 252.634C180.513 253.529 179.817 254.226 178.937 254.724C178.057 255.223 177.045 255.472 175.901 255.472ZM169.719 259.608V243.68H171.743V246.826L171.611 249.532L171.831 252.238V259.608H169.719ZM175.725 253.624C176.473 253.624 177.14 253.456 177.727 253.118C178.328 252.781 178.797 252.304 179.135 251.688C179.487 251.058 179.663 250.332 179.663 249.51C179.663 248.674 179.487 247.956 179.135 247.354C178.797 246.738 178.328 246.262 177.727 245.924C177.14 245.587 176.473 245.418 175.725 245.418C174.991 245.418 174.324 245.587 173.723 245.924C173.136 246.262 172.667 246.738 172.315 247.354C171.977 247.956 171.809 248.674 171.809 249.51C171.809 250.332 171.977 251.058 172.315 251.688C172.667 252.304 173.136 252.781 173.723 253.118C174.324 253.456 174.991 253.624 175.725 253.624Z" fill="black"/>
<path d="M163.808 255.34V252.876L163.698 252.414V248.212C163.698 247.318 163.434 246.628 162.906 246.144C162.393 245.646 161.615 245.396 160.574 245.396C159.885 245.396 159.21 245.514 158.55 245.748C157.89 245.968 157.333 246.269 156.878 246.65L155.998 245.066C156.599 244.582 157.318 244.216 158.154 243.966C159.005 243.702 159.892 243.57 160.816 243.57C162.415 243.57 163.647 243.959 164.512 244.736C165.377 245.514 165.81 246.702 165.81 248.3V255.34H163.808ZM159.98 255.472C159.115 255.472 158.352 255.326 157.692 255.032C157.047 254.739 156.548 254.336 156.196 253.822C155.844 253.294 155.668 252.7 155.668 252.04C155.668 251.41 155.815 250.838 156.108 250.324C156.416 249.811 156.907 249.4 157.582 249.092C158.271 248.784 159.195 248.63 160.354 248.63H164.05V250.148H160.442C159.386 250.148 158.675 250.324 158.308 250.676C157.941 251.028 157.758 251.454 157.758 251.952C157.758 252.524 157.985 252.986 158.44 253.338C158.895 253.676 159.525 253.844 160.332 253.844C161.124 253.844 161.813 253.668 162.4 253.316C163.001 252.964 163.434 252.451 163.698 251.776L164.116 253.228C163.837 253.918 163.346 254.468 162.642 254.878C161.938 255.274 161.051 255.472 159.98 255.472Z" fill="black"/>
<path d="M148.232 255.516C147.058 255.516 145.973 255.325 144.976 254.944C143.993 254.548 143.135 253.998 142.402 253.294C141.683 252.575 141.118 251.739 140.708 250.786C140.297 249.832 140.092 248.784 140.092 247.64C140.092 246.496 140.297 245.447 140.708 244.494C141.118 243.54 141.69 242.712 142.424 242.008C143.157 241.289 144.015 240.739 144.998 240.358C145.995 239.962 147.08 239.764 148.254 239.764C149.442 239.764 150.534 239.969 151.532 240.38C152.544 240.776 153.402 241.37 154.106 242.162L152.676 243.548C152.089 242.932 151.429 242.477 150.696 242.184C149.962 241.876 149.178 241.722 148.342 241.722C147.476 241.722 146.67 241.868 145.922 242.162C145.188 242.455 144.55 242.866 144.008 243.394C143.465 243.922 143.04 244.552 142.732 245.286C142.438 246.004 142.292 246.789 142.292 247.64C142.292 248.49 142.438 249.282 142.732 250.016C143.04 250.734 143.465 251.358 144.008 251.886C144.55 252.414 145.188 252.824 145.922 253.118C146.67 253.411 147.476 253.558 148.342 253.558C149.178 253.558 149.962 253.411 150.696 253.118C151.429 252.81 152.089 252.34 152.676 251.71L154.106 253.096C153.402 253.888 152.544 254.489 151.532 254.9C150.534 255.31 149.434 255.516 148.232 255.516Z" fill="black"/>
<path d="M127.451 255.472C126.483 255.472 125.559 255.34 124.679 255.076C123.813 254.812 123.131 254.49 122.633 254.108L123.513 252.436C124.011 252.774 124.627 253.06 125.361 253.294C126.094 253.529 126.842 253.646 127.605 253.646C128.587 253.646 129.291 253.507 129.717 253.228C130.157 252.95 130.377 252.561 130.377 252.062C130.377 251.696 130.245 251.41 129.981 251.204C129.717 250.999 129.365 250.845 128.925 250.742C128.499 250.64 128.023 250.552 127.495 250.478C126.967 250.39 126.439 250.288 125.911 250.17C125.383 250.038 124.899 249.862 124.459 249.642C124.019 249.408 123.667 249.092 123.403 248.696C123.139 248.286 123.007 247.743 123.007 247.068C123.007 246.364 123.205 245.748 123.601 245.22C123.997 244.692 124.554 244.289 125.273 244.01C126.006 243.717 126.871 243.57 127.869 243.57C128.631 243.57 129.401 243.666 130.179 243.856C130.971 244.032 131.616 244.289 132.115 244.626L131.213 246.298C130.685 245.946 130.135 245.704 129.563 245.572C128.991 245.44 128.419 245.374 127.847 245.374C126.923 245.374 126.233 245.528 125.779 245.836C125.324 246.13 125.097 246.511 125.097 246.98C125.097 247.376 125.229 247.684 125.493 247.904C125.771 248.11 126.123 248.271 126.549 248.388C126.989 248.506 127.473 248.608 128.001 248.696C128.529 248.77 129.057 248.872 129.585 249.004C130.113 249.122 130.589 249.29 131.015 249.51C131.455 249.73 131.807 250.038 132.071 250.434C132.349 250.83 132.489 251.358 132.489 252.018C132.489 252.722 132.283 253.331 131.873 253.844C131.462 254.358 130.883 254.761 130.135 255.054C129.387 255.333 128.492 255.472 127.451 255.472Z" fill="black"/>
<path d="M114.125 255.472C113.128 255.472 112.248 255.288 111.485 254.922C110.737 254.555 110.151 253.998 109.725 253.25C109.315 252.487 109.109 251.534 109.109 250.39V243.68H111.221V250.148C111.221 251.292 111.493 252.15 112.035 252.722C112.593 253.294 113.37 253.58 114.367 253.58C115.101 253.58 115.739 253.433 116.281 253.14C116.824 252.832 117.242 252.392 117.535 251.82C117.829 251.233 117.975 250.529 117.975 249.708V243.68H120.087V255.34H118.085V252.194L118.415 253.03C118.034 253.807 117.462 254.408 116.699 254.834C115.937 255.259 115.079 255.472 114.125 255.472Z" fill="black"/>
<path d="M100.248 255.472C99.0744 255.472 98.0331 255.216 97.1238 254.702C96.2144 254.189 95.4958 253.485 94.9678 252.59C94.4398 251.681 94.1758 250.654 94.1758 249.51C94.1758 248.352 94.4398 247.325 94.9678 246.43C95.4958 245.536 96.2144 244.839 97.1238 244.34C98.0331 243.827 99.0744 243.57 100.248 243.57C101.406 243.57 102.44 243.827 103.35 244.34C104.274 244.839 104.992 245.536 105.506 246.43C106.034 247.31 106.298 248.337 106.298 249.51C106.298 250.669 106.034 251.696 105.506 252.59C104.992 253.485 104.274 254.189 103.35 254.702C102.44 255.216 101.406 255.472 100.248 255.472ZM100.248 253.624C100.996 253.624 101.663 253.456 102.25 253.118C102.851 252.781 103.32 252.304 103.658 251.688C103.995 251.058 104.164 250.332 104.164 249.51C104.164 248.674 103.995 247.956 103.658 247.354C103.32 246.738 102.851 246.262 102.25 245.924C101.663 245.587 100.996 245.418 100.248 245.418C99.4998 245.418 98.8324 245.587 98.2458 245.924C97.6591 246.262 97.1898 246.738 96.8378 247.354C96.4858 247.956 96.3098 248.674 96.3098 249.51C96.3098 250.332 96.4858 251.058 96.8378 251.688C97.1898 252.304 97.6591 252.781 98.2458 253.118C98.8324 253.456 99.4998 253.624 100.248 253.624Z" fill="black"/>
<path d="M80.2793 255.34V243.68H82.3033V246.826L81.9733 245.99C82.3546 245.228 82.9413 244.634 83.7333 244.208C84.5253 243.783 85.4493 243.57 86.5053 243.57C87.4586 243.57 88.2946 243.754 89.0133 244.12C89.7466 244.487 90.3186 245.044 90.7293 245.792C91.14 246.54 91.3453 247.486 91.3453 248.63V255.34H89.2333V248.872C89.2333 247.743 88.9546 246.892 88.3973 246.32C87.8546 245.748 87.0846 245.462 86.0873 245.462C85.3393 245.462 84.6866 245.609 84.1293 245.902C83.572 246.196 83.1393 246.628 82.8313 247.2C82.538 247.772 82.3913 248.484 82.3913 249.334V255.34H80.2793Z" fill="black"/>
<path d="M72.0005 255.472C70.7538 255.472 69.6538 255.216 68.7005 254.702C67.7618 254.189 67.0285 253.485 66.5005 252.59C65.9871 251.696 65.7305 250.669 65.7305 249.51C65.7305 248.352 65.9798 247.325 66.4785 246.43C66.9918 245.536 67.6885 244.839 68.5685 244.34C69.4631 243.827 70.4678 243.57 71.5825 243.57C72.7118 243.57 73.7091 243.82 74.5745 244.318C75.4398 244.817 76.1145 245.521 76.5985 246.43C77.0971 247.325 77.3465 248.374 77.3465 249.576C77.3465 249.664 77.3391 249.767 77.3245 249.884C77.3245 250.002 77.3171 250.112 77.3025 250.214H67.3805V248.696H76.2025L75.3445 249.224C75.3591 248.476 75.2051 247.809 74.8825 247.222C74.5598 246.636 74.1125 246.181 73.5405 245.858C72.9831 245.521 72.3305 245.352 71.5825 245.352C70.8491 245.352 70.1965 245.521 69.6245 245.858C69.0525 246.181 68.6051 246.643 68.2825 247.244C67.9598 247.831 67.7985 248.506 67.7985 249.268V249.62C67.7985 250.398 67.9745 251.094 68.3265 251.71C68.6931 252.312 69.1991 252.781 69.8445 253.118C70.4898 253.456 71.2305 253.624 72.0665 253.624C72.7558 253.624 73.3791 253.507 73.9365 253.272C74.5085 253.038 75.0071 252.686 75.4325 252.216L76.5985 253.58C76.0705 254.196 75.4105 254.666 74.6185 254.988C73.8411 255.311 72.9685 255.472 72.0005 255.472Z" fill="black"/>
<path d="M56.723 259.74C55.6523 259.74 54.611 259.586 53.599 259.278C52.6017 258.985 51.7877 258.56 51.157 258.002L52.169 256.374C52.7117 256.844 53.379 257.21 54.171 257.474C54.963 257.753 55.7917 257.892 56.657 257.892C58.0357 257.892 59.0477 257.57 59.693 256.924C60.3383 256.279 60.661 255.296 60.661 253.976V251.512L60.881 249.202L60.771 246.87V243.68H62.773V253.756C62.773 255.81 62.2597 257.32 61.233 258.288C60.2064 259.256 58.703 259.74 56.723 259.74ZM56.459 254.856C55.3297 254.856 54.3177 254.622 53.423 254.152C52.543 253.668 51.839 253.001 51.311 252.15C50.7977 251.3 50.541 250.317 50.541 249.202C50.541 248.073 50.7977 247.09 51.311 246.254C51.839 245.404 52.543 244.744 53.423 244.274C54.3177 243.805 55.3297 243.57 56.459 243.57C57.4563 243.57 58.3657 243.776 59.187 244.186C60.0083 244.582 60.661 245.198 61.145 246.034C61.6437 246.87 61.893 247.926 61.893 249.202C61.893 250.464 61.6437 251.512 61.145 252.348C60.661 253.184 60.0083 253.815 59.187 254.24C58.3657 254.651 57.4563 254.856 56.459 254.856ZM56.701 253.008C57.4783 253.008 58.1677 252.847 58.769 252.524C59.3703 252.202 59.8397 251.754 60.177 251.182C60.529 250.61 60.705 249.95 60.705 249.202C60.705 248.454 60.529 247.794 60.177 247.222C59.8397 246.65 59.3703 246.21 58.769 245.902C58.1677 245.58 57.4783 245.418 56.701 245.418C55.9237 245.418 55.227 245.58 54.611 245.902C54.0097 246.21 53.533 246.65 53.181 247.222C52.8437 247.794 52.675 248.454 52.675 249.202C52.675 249.95 52.8437 250.61 53.181 251.182C53.533 251.754 54.0097 252.202 54.611 252.524C55.227 252.847 55.9237 253.008 56.701 253.008Z" fill="black"/>
<path d="M45.4756 255.34V243.68H47.5876V255.34H45.4756ZM46.5316 241.436C46.1209 241.436 45.7762 241.304 45.4976 241.04C45.2336 240.776 45.1016 240.453 45.1016 240.072C45.1016 239.676 45.2336 239.346 45.4976 239.082C45.7762 238.818 46.1209 238.686 46.5316 238.686C46.9422 238.686 47.2796 238.818 47.5436 239.082C47.8222 239.331 47.9616 239.646 47.9616 240.028C47.9616 240.424 47.8296 240.761 47.5656 241.04C47.3016 241.304 46.9569 241.436 46.5316 241.436Z" fill="black"/>
<path d="M35.2964 255.472C34.1671 255.472 33.1551 255.222 32.2604 254.724C31.3804 254.225 30.6837 253.528 30.1704 252.634C29.6571 251.739 29.4004 250.698 29.4004 249.51C29.4004 248.322 29.6571 247.288 30.1704 246.408C30.6837 245.513 31.3804 244.816 32.2604 244.318C33.1551 243.819 34.1671 243.57 35.2964 243.57C36.2791 243.57 37.1664 243.79 37.9584 244.23C38.7504 244.67 39.3811 245.33 39.8504 246.21C40.3344 247.09 40.5764 248.19 40.5764 249.51C40.5764 250.83 40.3417 251.93 39.8724 252.81C39.4177 253.69 38.7944 254.357 38.0024 254.812C37.2104 255.252 36.3084 255.472 35.2964 255.472ZM35.4724 253.624C36.2057 253.624 36.8657 253.455 37.4524 253.118C38.0537 252.78 38.5231 252.304 38.8604 251.688C39.2124 251.057 39.3884 250.331 39.3884 249.51C39.3884 248.674 39.2124 247.955 38.8604 247.354C38.5231 246.738 38.0537 246.261 37.4524 245.924C36.8657 245.586 36.2057 245.418 35.4724 245.418C34.7244 245.418 34.0571 245.586 33.4704 245.924C32.8837 246.261 32.4144 246.738 32.0624 247.354C31.7104 247.955 31.5344 248.674 31.5344 249.51C31.5344 250.331 31.7104 251.057 32.0624 251.688C32.4144 252.304 32.8837 252.78 33.4704 253.118C34.0571 253.455 34.7244 253.624 35.4724 253.624ZM39.4544 255.34V252.194L39.5864 249.488L39.3664 246.782V239.016H41.4784V255.34H39.4544Z" fill="black"/>
<path d="M15.5039 255.34V243.68H17.5279V246.826L17.1979 245.99C17.5792 245.228 18.1659 244.634 18.9579 244.208C19.7499 243.783 20.6739 243.57 21.7299 243.57C22.6832 243.57 23.5192 243.754 24.2379 244.12C24.9712 244.487 25.5432 245.044 25.9539 245.792C26.3646 246.54 26.5699 247.486 26.5699 248.63V255.34H24.4579V248.872C24.4579 247.743 24.1792 246.892 23.6219 246.32C23.0792 245.748 22.3092 245.462 21.3119 245.462C20.5639 245.462 19.9112 245.609 19.3539 245.902C18.7966 246.196 18.3639 246.628 18.0559 247.2C17.7626 247.772 17.6159 248.484 17.6159 249.334V255.34H15.5039Z" fill="black"/>
<path d="M9.00195 255.339V239.939H11.202V255.339H9.00195Z" fill="black"/>
<circle cx="128.186" cy="105.922" r="91.04" fill="white"/>
<path d="M111.405 64.4453L112.227 64.7691L112.315 65.0977C112.348 65.1164 112.39 65.1446 112.437 65.154C112.842 65.2385 113.183 65.3839 113.262 65.8626C113.281 65.9612 113.37 66.0738 113.458 66.1348C113.939 66.4634 114.424 66.7731 114.91 67.0922C114.924 67.1016 114.942 67.111 114.947 67.1251C115.297 67.9088 116.118 68.1388 116.762 68.6128L116.384 68.9319L116.417 69.0915C116.981 69.0023 117.583 69.0023 118.11 68.8005C118.885 68.5002 119.632 68.1857 120.49 68.2796C120.649 68.2984 120.817 68.1623 120.98 68.1576C121.181 68.1482 121.386 68.1998 121.587 68.2327C121.731 68.2561 121.885 68.3547 122.016 68.3218C122.581 68.1904 122.907 68.5659 123.22 68.9085C123.364 69.068 123.472 69.359 123.439 69.5655C123.364 70.0301 123.234 70.4947 123.052 70.9265C122.959 71.1471 122.693 71.2926 122.515 71.4803C122.371 71.6352 122.245 71.8041 122.049 72.0435C121.507 72.1045 121.577 72.6817 121.414 73.2027H120.103L120.364 74.1648C119.893 74.5543 119.944 75.1034 120.504 75.3427C120.859 75.4929 121.255 75.5633 121.05 76.1171C121.027 76.1828 121.209 76.3142 121.26 76.4315C121.344 76.6193 121.498 76.8633 121.442 77.0135C121.353 77.2481 121.148 77.4875 120.933 77.6048C120.63 77.7691 120.266 77.816 119.846 77.938L119.515 77.2435L118.61 77.4593C118.759 77.6705 118.918 77.7972 118.908 77.9005C118.848 78.5575 119.249 79.0503 119.44 79.6182C119.492 79.773 119.576 79.9842 119.515 80.1062C119.305 80.5333 119.515 80.8149 119.795 81.12L120.159 80.6929C120.448 81.1012 120.728 81.533 121.05 81.9319C121.153 82.0586 121.358 82.1524 121.521 82.1618C121.96 82.1853 122.758 82.7016 122.926 83.0958C122.977 83.2225 123.071 83.3586 123.187 83.4243C123.738 83.7481 124.298 84.0438 124.909 84.3817C124.386 84.851 123.966 85.2218 123.56 85.6019C123.5 85.6582 123.49 85.7755 123.453 85.8647C123.378 86.0524 123.299 86.2355 123.22 86.4232C123.206 86.4514 123.164 86.4889 123.168 86.5077C123.476 87.3243 122.623 87.7279 122.497 88.4788C122.683 88.6243 122.931 88.9715 123.141 88.9528C123.938 88.873 124.298 89.699 125.002 89.7647C125.058 89.7694 125.142 89.8398 125.152 89.8867C125.282 90.7268 126.047 91.0365 126.617 91.1351C127.153 91.2289 127.531 91.5481 128.017 91.6654C128.115 91.6889 128.227 91.7311 128.311 91.703C128.805 91.5481 128.875 91.8343 128.866 92.1629L130.322 92.7495C130.527 92.3177 130.952 92.482 131.404 92.5665C131.693 92.6228 132.02 92.4961 132.328 92.4539C132.445 92.4398 132.575 92.4069 132.678 92.4445C132.972 92.5571 133.247 92.7167 133.546 92.8246C134.04 93.0029 133.69 93.3737 133.751 93.6506C134.162 93.8336 134.67 93.9181 134.96 94.2185C135.492 94.7816 135.926 94.2466 136.387 94.1809C136.518 94.9271 136.513 94.8755 137.227 94.8614C137.671 94.852 138.184 94.9037 138.548 95.1289C139.033 95.4246 139.383 95.3542 139.798 95.0163C140.111 95.8564 140.732 95.3683 141.236 95.3777C141.548 95.387 141.861 95.3166 142.267 95.2744C142.285 95.2556 142.421 95.143 142.523 95.0022C142.701 94.7535 142.85 94.5188 142.668 94.1621C142.402 93.6271 142.113 93.0733 142.257 92.4304C142.281 92.3177 142.309 92.2004 142.341 92.0878C142.453 91.7217 142.565 91.3557 142.71 90.891C142.869 90.8253 143.172 90.647 143.499 90.5907C143.76 90.5438 144.082 90.5766 144.31 90.6986C144.432 90.7643 144.464 91.1022 144.446 91.304C144.399 91.7687 144.157 92.2286 144.488 92.6932C144.53 92.7542 144.436 92.9138 144.408 93.0311C144.273 93.6741 144.889 94.2748 145.524 94.1387C145.645 94.1105 145.818 94.1574 145.925 94.2325C146.513 94.6596 147.525 94.3921 148.23 93.9697C148.398 93.8665 148.743 93.8665 148.907 93.9744C149.569 94.4062 150.274 94.1997 150.955 94.1574C151.599 94.1199 152.233 93.9791 152.971 93.8665L152.607 92.9138C152.607 92.9138 152.709 92.834 152.733 92.7448C152.77 92.6134 152.821 92.3975 152.761 92.3412C152.644 92.238 152.439 92.1629 152.285 92.1863C151.604 92.2943 151.431 92.1253 151.585 91.5011C152.247 91.3322 152.896 91.1867 153.526 90.9943C153.839 90.8957 154.151 90.6986 154.091 90.2997C154.039 89.9712 154.221 89.882 154.441 89.76C154.646 89.6474 154.977 89.5066 154.991 89.3517C155.061 88.6336 155.654 88.6008 156.106 88.3521C156.517 88.1268 156.951 87.8921 157.268 87.5589C157.641 87.16 157.968 86.7282 158.491 86.5217C158.565 86.4936 158.654 86.4326 158.719 86.4513C159.195 86.6015 159.662 86.7939 160.142 86.9113C160.324 86.9535 160.688 86.8784 160.726 86.7658C160.959 86.1134 161.584 85.9726 162.06 85.5784L162.606 86.1791L162.275 86.6438L162.532 87.2069C162.947 86.4091 163.227 87.0051 163.535 87.2633C163.367 87.6199 163.194 87.9672 163.049 88.3286C163.012 88.4272 163.082 88.5679 163.101 88.6853C163.203 88.6383 163.301 88.5914 163.404 88.5398C163.418 88.5351 163.418 88.4975 163.427 88.4975C164.001 88.4694 164.589 88.3708 165.149 88.4553C165.373 88.4882 165.578 88.9058 165.709 89.1874C165.802 89.3892 165.784 89.6145 165.49 89.7788C165.205 89.9383 164.935 90.2199 164.799 90.5109C164.715 90.6939 164.86 91.0177 164.967 91.243C165.084 91.4824 165.28 91.6842 165.438 91.9001L165.294 92.069C165.098 91.9564 164.771 91.8813 164.729 91.7217C164.571 91.1726 164.211 91.3932 163.955 91.4965C163.367 91.7264 162.802 91.9329 162.373 92.5149C161.972 93.0546 161.244 93.3361 160.735 93.8195C160.534 94.012 160.413 94.4625 160.483 94.7347C160.735 95.739 160.264 96.4336 159.681 97.1376C159.475 97.3816 159.321 97.7008 159.634 98.0387C159.741 98.156 159.821 98.4094 159.769 98.5361C159.597 98.935 159.326 99.2917 159.149 99.6906C158.943 100.155 158.803 100.653 158.626 101.131C158.556 101.324 158.463 101.512 158.365 101.742C157.945 101.286 157.184 101.169 156.82 101.455L156.47 101.15C156.424 101.192 156.358 101.23 156.363 101.253C156.391 101.465 156.372 101.713 156.48 101.878C156.876 102.497 156.792 103.168 156.75 103.835C156.722 104.229 156.61 104.6 156.111 104.562C156.214 105.304 156.307 106.022 156.405 106.74L156.232 106.665L155.537 107.397L155.14 106.852L154.818 107.369C154.389 105.679 153.993 104.126 153.605 102.596L152.798 102.854C152.681 103.126 152.527 103.436 152.42 103.76C152.373 103.91 152.457 104.097 152.42 104.252C152.378 104.431 152.261 104.586 152.182 104.754C152.042 104.623 151.874 104.506 151.767 104.351C151.692 104.243 151.697 104.074 151.664 103.933H151.52L151.398 104.417C151.216 103.877 151.02 103.337 150.857 102.788C150.768 102.488 151.254 101.854 151.571 101.751C151.893 101.643 152.205 101.502 152.555 101.427C152.653 101.192 152.681 100.93 153.097 100.836C153.433 100.761 153.657 99.8127 153.531 99.3668L154.184 99.517C153.941 98.9303 153.456 98.6253 152.859 98.6206C151.538 98.6206 150.213 98.6488 148.897 98.5924C148.347 98.569 147.791 98.386 147.259 98.217C147.152 98.1841 147.087 97.8885 147.068 97.7054C147.012 97.1892 146.998 96.6683 146.942 96.152C146.933 96.0535 146.826 95.9127 146.746 95.8939C146.667 95.8751 146.499 95.9784 146.476 96.0582C146.382 96.4008 146.149 96.5462 145.869 96.3867C145.598 96.2365 145.393 95.9643 145.174 95.7296C145.029 95.5748 144.922 95.3917 144.796 95.2181L144.651 95.3213L144.833 95.7296L144.306 95.8141L143.335 94.8239L143.181 94.9177L143.541 95.4997C143.163 95.9596 142.528 96.3444 142.696 97.1845C143.116 97.1939 143.429 97.3065 143.578 97.7852C143.625 97.9401 144.045 97.973 144.315 97.9683L144.898 98.4751C144.772 99.0383 144.129 98.7192 143.681 98.9116C143.578 99.2964 143.419 99.7047 142.841 99.4466L142.57 100.296C142.859 100.742 143.237 101.122 143.858 101.225C144.502 101.333 144.66 101.803 144.273 102.338C143.746 103.06 143.909 103.14 144.46 103.501C144.436 103.736 144.413 103.966 144.39 104.229H145.038C144.548 104.844 145.006 105.379 145.057 105.937C145.085 106.266 145.23 106.58 145.304 106.848C144.772 107.27 144.073 107.355 143.965 108.091L143.237 108.237V107.167C142.85 107.678 142.509 108.218 142.075 108.659C141.819 108.922 141.422 109.133 141.058 109.194C139.733 109.424 139.36 110.076 139.966 111.297L139.546 111.545L139.579 111.639L140.172 111.564C139.962 111.747 139.845 111.874 139.7 111.973C139.486 112.118 139.304 112.226 139.355 112.569C139.378 112.714 139.117 112.982 138.93 113.057C138.646 113.169 138.445 113.258 138.333 113.592C138.268 113.779 137.974 113.944 137.75 114.009C136.761 114.305 135.767 114.596 134.96 115.276C134.577 115.6 134.255 116.004 133.928 116.393C133.434 116.98 133.168 117.773 132.384 118.097C131.833 119.191 130.462 119.364 129.846 120.406C129.724 120.608 129.407 120.692 129.183 120.833C128.576 121.213 127.97 121.593 127.387 121.959L127.471 122.504L127.382 122.532L127.186 122.265C127.153 122.401 127.13 122.476 127.121 122.546C127.088 122.851 127.149 123.372 127.023 123.424C126.519 123.616 126.099 124.231 125.432 123.855C125.156 123.701 124.554 123.973 124.368 124.236C124.041 124.7 123.682 125.141 123.271 125.676L122.973 125.01C122.515 125.17 121.969 125.113 121.764 125.742C121.675 126.014 121.479 126.249 121.33 126.502C121.045 126.995 121.078 127.497 121.19 128.046C121.279 128.492 121.185 128.971 121.171 129.436C121.171 129.605 121.148 129.774 121.171 129.942C121.246 130.567 121.339 131.186 121.33 131.838L121.013 130.905L120.831 130.98C120.98 131.327 121.129 131.679 121.274 132.026C121.335 132.167 121.47 132.327 121.442 132.444C121.237 133.209 121.498 134.072 120.896 134.758C120.588 135.11 120.271 135.504 120.126 135.94C119.954 136.461 119.888 137.038 119.893 137.592C119.907 138.747 120 139.897 120.056 141.032C119.562 141.089 119.132 141.117 118.708 141.187C118.582 141.206 118.381 141.319 118.367 141.412C118.255 142.008 117.742 142.337 117.49 142.83C117.359 143.088 117.173 143.477 117.275 143.651C117.406 143.872 117.798 143.947 118.087 144.069C118.269 144.149 118.465 144.195 118.624 144.355C118.255 144.294 117.863 144.12 117.518 144.191C116.715 144.36 115.936 144.641 115.157 144.895C115.092 144.914 115.054 145.059 115.031 145.153C114.928 145.566 114.844 145.984 114.732 146.397C114.704 146.504 114.62 146.627 114.527 146.688C114.224 146.885 113.92 147.091 113.589 147.237C112.847 147.575 112.133 147.373 111.629 146.73C111.405 146.448 111.167 146.171 110.915 145.918C110.617 145.613 110.556 145.2 110.379 144.867C110.243 144.618 110.043 144.35 109.945 144.069C109.763 143.548 109.637 143.003 109.488 142.468L109.642 142.426L109.791 143.079L110.01 143.018C109.856 142.609 109.693 142.201 109.548 141.788C109.478 141.595 109.441 141.398 109.352 141.079C109.315 141.004 109.208 140.812 109.11 140.615C109.021 140.441 108.946 140.258 108.862 140.084C108.839 140.037 108.778 139.995 108.788 139.953C108.89 139.235 108.494 138.625 108.298 137.996C108.116 137.414 107.915 136.757 107.383 136.297C106.949 135.922 106.623 135.452 106.487 134.833C106.324 134.082 105.941 133.383 105.792 132.632C105.694 132.125 105.503 131.627 105.54 131.064C105.573 130.585 105.297 130.088 105.162 129.6C105.059 129.22 104.971 128.83 104.863 128.45C104.728 127.957 104.574 127.469 104.084 127.403C104.033 127.136 104.028 126.934 103.958 126.761C103.641 125.953 103.356 125.132 102.964 124.358C102.409 123.255 102.479 122.067 102.344 120.904C102.222 119.876 102.068 118.857 101.957 117.83C101.887 117.21 101.849 116.591 101.765 115.971C101.751 115.868 101.896 115.741 101.989 115.591V114.962C101.821 114.84 101.457 114.709 101.84 114.338C101.849 114.328 101.789 114.258 101.784 114.216C101.765 114.042 101.756 113.869 101.691 113.695C101.672 113.437 101.597 113.174 101.644 112.93C101.747 112.362 101.817 111.794 102.236 111.315C102.47 111.053 102.61 110.63 102.633 110.274C102.652 109.987 102.474 109.649 102.288 109.405C101.901 108.884 102.124 108.49 102.498 108.054H102.11C102.087 107.81 101.98 107.533 102.073 107.369C102.18 107.181 102.46 107.096 102.778 106.895L102.073 106.965L102.12 106.228L103.002 106.284C102.488 106.111 101.957 105.754 101.453 106.284C101.383 106.848 101.429 107.542 101.191 108.115C100.944 108.706 100.449 109.208 99.7401 109.387C99.2689 109.504 98.8069 109.673 98.345 109.828C97.4071 110.147 96.5672 110.058 95.8393 109.316C95.5127 108.983 95.116 108.72 94.8267 108.359C94.0288 107.373 93.2636 106.355 92.4937 105.346C92.2651 105.045 92.4331 104.811 92.6477 104.562L93.1096 105.172C93.6369 105.121 94.2528 105.074 94.8641 104.999C94.9667 104.984 95.0554 104.872 95.144 104.801C95.2187 104.745 95.2794 104.656 95.3587 104.632C95.5453 104.581 95.8253 104.623 95.9233 104.506C96.2686 104.102 96.5532 103.647 96.8612 103.215L96.7398 103.032C96.5905 103.065 96.4319 103.079 96.3012 103.14C95.8346 103.365 95.396 103.708 94.9107 103.816C94.3228 103.947 93.7116 103.811 93.203 103.417C93.1236 103.356 93.049 103.271 92.9557 103.234C92.2977 102.948 91.8451 102.492 91.6818 101.774C91.6631 101.699 91.6118 101.62 91.5558 101.573C91.2012 101.291 91.3692 101.089 91.6492 100.897C91.7985 100.794 91.9524 100.695 92.1018 100.592L92.0271 100.446C91.7191 100.61 91.4205 100.794 91.1032 100.925C90.9586 100.986 90.7766 100.953 90.6133 100.962V100.653C91.0052 99.8455 91.7891 100.08 92.4284 100.019L92.6477 99.2213C93.231 99.287 93.7489 99.3386 94.2622 99.4137C94.5188 99.4513 94.8547 99.4466 95.0087 99.6015C95.3913 99.9863 95.7553 99.9018 96.1752 99.7469C96.6092 99.5874 97.0618 99.4701 97.5424 99.3199C97.6077 99.822 97.7757 100.113 98.2143 99.9581C98.4803 99.8643 98.7183 99.6719 98.9656 99.5264H98.8302L98.9702 98.6206C98.6529 97.6914 97.7897 96.9264 97.8784 95.7203C97.6964 95.7015 97.5097 95.6827 97.3278 95.6686C97.0431 95.6499 96.8798 95.5889 96.7585 95.2369C96.5812 94.7347 96.5719 94.3405 96.8518 93.8852C97.0571 93.552 96.8518 93.0593 96.5392 93.0593C95.7973 93.0593 95.5173 92.4538 95.1114 92.1347C95.2514 91.8719 95.3447 91.6842 95.452 91.5058C95.564 91.3228 95.6573 91.0694 95.8253 90.9896C96.4925 90.6798 96.8425 90.1073 97.2391 89.5347C97.4071 89.2954 97.771 89.1124 98.065 89.0795C98.205 89.0654 98.457 89.4409 98.5363 89.6849C98.7136 90.2011 98.7789 90.2199 99.3108 90.0838C99.9454 89.9243 100.608 89.8586 101.257 89.7553C101.341 89.7412 101.462 89.7741 101.504 89.7271C101.896 89.2766 102.278 88.8167 102.661 88.3568C102.67 88.3427 102.675 88.3239 102.675 88.3051C102.638 87.8123 102.983 87.6199 103.342 87.4322C103.762 87.2069 104.257 87.0427 104.579 86.7142C105.148 86.1322 105.619 85.447 105.801 84.607C105.839 84.4286 105.932 84.2644 105.993 84.1048C106.935 84.2362 107.253 83.9687 107.36 83.0301C107.374 82.908 107.444 82.7719 107.532 82.6875C108.139 82.129 108.755 81.5799 109.394 81.0073C109.04 80.8243 109.002 80.5615 109.217 80.172C109.31 79.9983 109.184 79.7073 109.166 79.468C109.156 79.3554 109.105 79.1723 109.152 79.1442C109.525 78.8954 109.894 78.5528 110.304 78.4777C111.023 78.3463 111.158 78.3088 111.293 77.4922C111.167 77.464 111.027 77.4546 110.906 77.4077C110.491 77.2387 110.061 77.098 109.693 76.8586C109.59 76.7929 109.679 76.4268 109.679 76.1171C109.24 76.3611 108.932 76.3424 108.676 75.9341C108.582 75.7886 108.321 75.751 108.134 75.6619C107.901 75.5539 107.663 75.4554 107.434 75.3427C107.131 75.1926 106.982 75.0283 107.113 74.6153C107.243 74.2023 107.201 73.7283 107.206 73.2825C107.22 72.5269 107.206 71.7713 107.206 71.0438C107.355 70.9547 107.528 70.8608 107.682 70.7482C107.859 70.6215 108.036 70.4948 108.181 70.3352C108.368 70.1381 108.568 69.9269 108.662 69.6828C108.694 69.5984 108.414 69.3825 108.256 69.2511C108.144 69.1572 107.999 69.1103 107.873 69.0446L108.083 68.4016C107.864 68.35 107.668 68.3406 107.504 68.2608C107.253 68.1341 106.861 67.998 106.814 67.8009C106.679 67.2189 106.329 67.2236 105.871 67.233C105.675 67.233 105.367 67.0828 105.307 66.9233C105.209 66.6745 105.199 66.346 105.545 66.163C105.689 66.0879 105.787 65.9143 105.932 65.8251C106.599 65.4168 107.113 64.5016 108.111 65.1493C108.172 65.1868 108.433 65.0789 108.438 65.0226C108.475 64.6377 108.736 64.6941 108.993 64.6612C109.198 64.633 109.399 64.5251 109.6 64.4547H111.457L111.405 64.4453Z" fill="#777100"/>
</svg>
