<svg width="256" height="255" viewBox="0 0 256 255" fill="none" xmlns="http://www.w3.org/2000/svg">
<circle cx="128.186" cy="105.051" r="103" fill="white" stroke="#777100" stroke-width="4"/>
<rect x="0.685547" y="51.8408" width="255" height="104.842" fill="#777100"/>
<path d="M220.877 254.469V242.809H222.901V245.955L222.571 245.119C222.952 244.357 223.539 243.763 224.331 243.337C225.123 242.912 226.047 242.699 227.103 242.699C228.056 242.699 228.892 242.883 229.611 243.249C230.344 243.616 230.916 244.173 231.327 244.921C231.738 245.669 231.943 246.615 231.943 247.759V254.469H229.831V248.001C229.831 246.872 229.552 246.021 228.995 245.449C228.452 244.877 227.682 244.591 226.685 244.591C225.937 244.591 225.284 244.738 224.727 245.031C224.17 245.325 223.737 245.757 223.429 246.329C223.136 246.901 222.989 247.613 222.989 248.463V254.469H220.877Z" fill="black"/>
<path d="M211.906 254.601C210.733 254.601 209.691 254.345 208.782 253.831C207.873 253.318 207.154 252.614 206.626 251.719C206.098 250.81 205.834 249.783 205.834 248.639C205.834 247.481 206.098 246.454 206.626 245.559C207.154 244.665 207.873 243.968 208.782 243.469C209.691 242.956 210.733 242.699 211.906 242.699C213.065 242.699 214.099 242.956 215.008 243.469C215.932 243.968 216.651 244.665 217.164 245.559C217.692 246.439 217.956 247.466 217.956 248.639C217.956 249.798 217.692 250.825 217.164 251.719C216.651 252.614 215.932 253.318 215.008 253.831C214.099 254.345 213.065 254.601 211.906 254.601ZM211.906 252.753C212.654 252.753 213.321 252.585 213.908 252.247C214.509 251.91 214.979 251.433 215.316 250.817C215.653 250.187 215.822 249.461 215.822 248.639C215.822 247.803 215.653 247.085 215.316 246.483C214.979 245.867 214.509 245.391 213.908 245.053C213.321 244.716 212.654 244.547 211.906 244.547C211.158 244.547 210.491 244.716 209.904 245.053C209.317 245.391 208.848 245.867 208.496 246.483C208.144 247.085 207.968 247.803 207.968 248.639C207.968 249.461 208.144 250.187 208.496 250.817C208.848 251.433 209.317 251.91 209.904 252.247C210.491 252.585 211.158 252.753 211.906 252.753Z" fill="black"/>
<path d="M200.769 254.468V242.808H202.881V254.468H200.769ZM201.825 240.564C201.414 240.564 201.069 240.432 200.791 240.168C200.527 239.904 200.395 239.582 200.395 239.2C200.395 238.804 200.527 238.474 200.791 238.21C201.069 237.946 201.414 237.814 201.825 237.814C202.235 237.814 202.573 237.946 202.837 238.21C203.115 238.46 203.255 238.775 203.255 239.156C203.255 239.552 203.123 239.89 202.859 240.168C202.595 240.432 202.25 240.564 201.825 240.564Z" fill="black"/>
<path d="M195.662 254.601C194.489 254.601 193.58 254.286 192.934 253.655C192.289 253.024 191.966 252.122 191.966 250.949V240.257H194.078V250.861C194.078 251.492 194.232 251.976 194.54 252.313C194.863 252.65 195.318 252.819 195.904 252.819C196.564 252.819 197.114 252.636 197.554 252.269L198.214 253.787C197.892 254.066 197.503 254.271 197.048 254.403C196.608 254.535 196.146 254.601 195.662 254.601ZM189.986 244.547V242.809H197.422V244.547H189.986Z" fill="black"/>
<path d="M184.021 254.601C182.833 254.601 181.77 254.345 180.831 253.831C179.907 253.318 179.181 252.614 178.653 251.719C178.125 250.825 177.861 249.798 177.861 248.639C177.861 247.481 178.125 246.454 178.653 245.559C179.181 244.665 179.907 243.968 180.831 243.469C181.77 242.956 182.833 242.699 184.021 242.699C185.077 242.699 186.016 242.912 186.837 243.337C187.673 243.748 188.319 244.364 188.773 245.185L187.167 246.219C186.786 245.647 186.317 245.229 185.759 244.965C185.217 244.687 184.63 244.547 183.999 244.547C183.237 244.547 182.555 244.716 181.953 245.053C181.352 245.391 180.875 245.867 180.523 246.483C180.171 247.085 179.995 247.803 179.995 248.639C179.995 249.475 180.171 250.201 180.523 250.817C180.875 251.433 181.352 251.91 181.953 252.247C182.555 252.585 183.237 252.753 183.999 252.753C184.63 252.753 185.217 252.621 185.759 252.357C186.317 252.079 186.786 251.653 187.167 251.081L188.773 252.093C188.319 252.9 187.673 253.523 186.837 253.963C186.016 254.389 185.077 254.601 184.021 254.601Z" fill="black"/>
<path d="M168.957 254.601C167.96 254.601 167.08 254.417 166.317 254.051C165.569 253.684 164.983 253.127 164.557 252.379C164.147 251.616 163.941 250.663 163.941 249.519V242.809H166.053V249.277C166.053 250.421 166.325 251.279 166.867 251.851C167.425 252.423 168.202 252.709 169.199 252.709C169.933 252.709 170.571 252.562 171.113 252.269C171.656 251.961 172.074 251.521 172.367 250.949C172.661 250.362 172.807 249.658 172.807 248.837V242.809H174.919V254.469H172.917V251.323L173.247 252.159C172.866 252.936 172.294 253.537 171.531 253.963C170.769 254.388 169.911 254.601 168.957 254.601Z" fill="black"/>
<path d="M153.873 254.601C152.743 254.601 151.731 254.351 150.837 253.853C149.957 253.354 149.26 252.657 148.747 251.763C148.233 250.868 147.977 249.827 147.977 248.639C147.977 247.451 148.233 246.417 148.747 245.537C149.26 244.642 149.957 243.945 150.837 243.447C151.731 242.948 152.743 242.699 153.873 242.699C154.855 242.699 155.743 242.919 156.535 243.359C157.327 243.799 157.957 244.459 158.427 245.339C158.911 246.219 159.153 247.319 159.153 248.639C159.153 249.959 158.918 251.059 158.449 251.939C157.994 252.819 157.371 253.486 156.579 253.941C155.787 254.381 154.885 254.601 153.873 254.601ZM154.049 252.753C154.782 252.753 155.442 252.584 156.029 252.247C156.63 251.909 157.099 251.433 157.437 250.817C157.789 250.186 157.965 249.46 157.965 248.639C157.965 247.803 157.789 247.084 157.437 246.483C157.099 245.867 156.63 245.39 156.029 245.053C155.442 244.715 154.782 244.547 154.049 244.547C153.301 244.547 152.633 244.715 152.047 245.053C151.46 245.39 150.991 245.867 150.639 246.483C150.287 247.084 150.111 247.803 150.111 248.639C150.111 249.46 150.287 250.186 150.639 250.817C150.991 251.433 151.46 251.909 152.047 252.247C152.633 252.584 153.301 252.753 154.049 252.753ZM158.031 254.469V251.323L158.163 248.617L157.943 245.911V238.145H160.055V254.469H158.031Z" fill="black"/>
<path d="M140.084 254.601C138.91 254.601 137.869 254.345 136.96 253.831C136.05 253.318 135.332 252.614 134.804 251.719C134.276 250.81 134.012 249.783 134.012 248.639C134.012 247.481 134.276 246.454 134.804 245.559C135.332 244.665 136.05 243.968 136.96 243.469C137.869 242.956 138.91 242.699 140.084 242.699C141.242 242.699 142.276 242.956 143.186 243.469C144.11 243.968 144.828 244.665 145.342 245.559C145.87 246.439 146.134 247.466 146.134 248.639C146.134 249.798 145.87 250.825 145.342 251.719C144.828 252.614 144.11 253.318 143.186 253.831C142.276 254.345 141.242 254.601 140.084 254.601ZM140.084 252.753C140.832 252.753 141.499 252.585 142.086 252.247C142.687 251.91 143.156 251.433 143.494 250.817C143.831 250.187 144 249.461 144 248.639C144 247.803 143.831 247.085 143.494 246.483C143.156 245.867 142.687 245.391 142.086 245.053C141.499 244.716 140.832 244.547 140.084 244.547C139.336 244.547 138.668 244.716 138.082 245.053C137.495 245.391 137.026 245.867 136.674 246.483C136.322 247.085 136.146 247.803 136.146 248.639C136.146 249.461 136.322 250.187 136.674 250.817C137.026 251.433 137.495 251.91 138.082 252.247C138.668 252.585 139.336 252.753 140.084 252.753Z" fill="black"/>
<path d="M126.324 254.469V242.809H128.348V245.977L128.15 245.185C128.473 244.379 129.016 243.763 129.778 243.337C130.541 242.912 131.48 242.699 132.594 242.699V244.745C132.506 244.731 132.418 244.723 132.33 244.723C132.257 244.723 132.184 244.723 132.11 244.723C130.981 244.723 130.086 245.061 129.426 245.735C128.766 246.41 128.436 247.385 128.436 248.661V254.469H126.324Z" fill="black"/>
<path d="M111.164 254.468V239.068H117.17C118.519 239.068 119.671 239.281 120.624 239.706C121.577 240.132 122.311 240.748 122.824 241.554C123.337 242.361 123.594 243.322 123.594 244.436C123.594 245.551 123.337 246.512 122.824 247.318C122.311 248.11 121.577 248.726 120.624 249.166C119.671 249.592 118.519 249.804 117.17 249.804H112.374L113.364 248.77V254.468H111.164ZM113.364 248.99L112.374 247.89H117.104C118.512 247.89 119.575 247.59 120.294 246.988C121.027 246.387 121.394 245.536 121.394 244.436C121.394 243.336 121.027 242.486 120.294 241.884C119.575 241.283 118.512 240.982 117.104 240.982H112.374L113.364 239.882V248.99Z" fill="black"/>
<path d="M96.6684 254.601C95.4218 254.601 94.3218 254.345 93.3684 253.831C92.4298 253.318 91.6964 252.614 91.1684 251.719C90.6551 250.825 90.3984 249.798 90.3984 248.639C90.3984 247.481 90.6478 246.454 91.1464 245.559C91.6598 244.665 92.3564 243.968 93.2364 243.469C94.1311 242.956 95.1358 242.699 96.2504 242.699C97.3798 242.699 98.3771 242.949 99.2424 243.447C100.108 243.946 100.782 244.65 101.266 245.559C101.765 246.454 102.014 247.503 102.014 248.705C102.014 248.793 102.007 248.896 101.992 249.013C101.992 249.131 101.985 249.241 101.97 249.343H92.0484V247.825H100.87L100.012 248.353C100.027 247.605 99.8731 246.938 99.5504 246.351C99.2278 245.765 98.7804 245.31 98.2084 244.987C97.6511 244.65 96.9984 244.481 96.2504 244.481C95.5171 244.481 94.8644 244.65 94.2924 244.987C93.7204 245.31 93.2731 245.772 92.9504 246.373C92.6278 246.96 92.4664 247.635 92.4664 248.397V248.749C92.4664 249.527 92.6424 250.223 92.9944 250.839C93.3611 251.441 93.8671 251.91 94.5124 252.247C95.1578 252.585 95.8984 252.753 96.7344 252.753C97.4238 252.753 98.0471 252.636 98.6044 252.401C99.1764 252.167 99.6751 251.815 100.1 251.345L101.266 252.709C100.738 253.325 100.078 253.795 99.2864 254.117C98.5091 254.44 97.6364 254.601 96.6684 254.601Z" fill="black"/>
<path d="M83.7985 254.601C82.8305 254.601 81.9065 254.469 81.0265 254.205C80.1611 253.941 79.4791 253.619 78.9805 253.237L79.8605 251.565C80.3591 251.903 80.9751 252.189 81.7085 252.423C82.4418 252.658 83.1898 252.775 83.9525 252.775C84.9351 252.775 85.6391 252.636 86.0645 252.357C86.5045 252.079 86.7245 251.69 86.7245 251.191C86.7245 250.825 86.5925 250.539 86.3285 250.333C86.0645 250.128 85.7125 249.974 85.2725 249.871C84.8471 249.769 84.3705 249.681 83.8425 249.607C83.3145 249.519 82.7865 249.417 82.2585 249.299C81.7305 249.167 81.2465 248.991 80.8065 248.771C80.3665 248.537 80.0145 248.221 79.7505 247.825C79.4865 247.415 79.3545 246.872 79.3545 246.197C79.3545 245.493 79.5525 244.877 79.9485 244.349C80.3445 243.821 80.9018 243.418 81.6205 243.139C82.3538 242.846 83.2191 242.699 84.2165 242.699C84.9791 242.699 85.7491 242.795 86.5265 242.985C87.3185 243.161 87.9638 243.418 88.4625 243.755L87.5605 245.427C87.0325 245.075 86.4825 244.833 85.9105 244.701C85.3385 244.569 84.7665 244.503 84.1945 244.503C83.2705 244.503 82.5811 244.657 82.1265 244.965C81.6718 245.259 81.4445 245.64 81.4445 246.109C81.4445 246.505 81.5765 246.813 81.8405 247.033C82.1191 247.239 82.4711 247.4 82.8965 247.517C83.3365 247.635 83.8205 247.737 84.3485 247.825C84.8765 247.899 85.4045 248.001 85.9325 248.133C86.4605 248.251 86.9371 248.419 87.3625 248.639C87.8025 248.859 88.1545 249.167 88.4185 249.563C88.6971 249.959 88.8365 250.487 88.8365 251.147C88.8365 251.851 88.6311 252.46 88.2205 252.973C87.8098 253.487 87.2305 253.89 86.4825 254.183C85.7345 254.462 84.8398 254.601 83.7985 254.601Z" fill="black"/>
<path d="M74.3115 254.468V242.808H76.4235V254.468H74.3115ZM75.3675 240.564C74.9568 240.564 74.6122 240.432 74.3335 240.168C74.0695 239.904 73.9375 239.582 73.9375 239.2C73.9375 238.804 74.0695 238.474 74.3335 238.21C74.6122 237.946 74.9568 237.814 75.3675 237.814C75.7782 237.814 76.1155 237.946 76.3795 238.21C76.6582 238.46 76.7975 238.775 76.7975 239.156C76.7975 239.552 76.6655 239.89 76.4015 240.168C76.1375 240.432 75.7928 240.564 75.3675 240.564Z" fill="black"/>
<path d="M66.9745 254.601C65.7865 254.601 64.7231 254.345 63.7845 253.831C62.8605 253.318 62.1345 252.614 61.6065 251.719C61.0785 250.825 60.8145 249.798 60.8145 248.639C60.8145 247.481 61.0785 246.454 61.6065 245.559C62.1345 244.665 62.8605 243.968 63.7845 243.469C64.7231 242.956 65.7865 242.699 66.9745 242.699C68.0305 242.699 68.9691 242.912 69.7905 243.337C70.6265 243.748 71.2718 244.364 71.7265 245.185L70.1205 246.219C69.7391 245.647 69.2698 245.229 68.7125 244.965C68.1698 244.687 67.5831 244.547 66.9525 244.547C66.1898 244.547 65.5078 244.716 64.9065 245.053C64.3051 245.391 63.8285 245.867 63.4765 246.483C63.1245 247.085 62.9485 247.803 62.9485 248.639C62.9485 249.475 63.1245 250.201 63.4765 250.817C63.8285 251.433 64.3051 251.91 64.9065 252.247C65.5078 252.585 66.1898 252.753 66.9525 252.753C67.5831 252.753 68.1698 252.621 68.7125 252.357C69.2698 252.079 69.7391 251.653 70.1205 251.081L71.7265 252.093C71.2718 252.9 70.6265 253.523 69.7905 253.963C68.9691 254.389 68.0305 254.601 66.9745 254.601Z" fill="black"/>
<path d="M53.6138 254.601C52.3671 254.601 51.2671 254.345 50.3137 253.831C49.3751 253.318 48.6418 252.614 48.1138 251.719C47.6004 250.825 47.3438 249.798 47.3438 248.639C47.3438 247.481 47.5931 246.454 48.0918 245.559C48.6051 244.665 49.3018 243.968 50.1818 243.469C51.0764 242.956 52.0811 242.699 53.1958 242.699C54.3251 242.699 55.3224 242.949 56.1878 243.447C57.0531 243.946 57.7278 244.65 58.2118 245.559C58.7104 246.454 58.9598 247.503 58.9598 248.705C58.9598 248.793 58.9524 248.896 58.9378 249.013C58.9378 249.131 58.9304 249.241 58.9158 249.343H48.9937V247.825H57.8158L56.9578 248.353C56.9724 247.605 56.8184 246.938 56.4958 246.351C56.1731 245.765 55.7258 245.31 55.1538 244.987C54.5964 244.65 53.9438 244.481 53.1958 244.481C52.4624 244.481 51.8098 244.65 51.2378 244.987C50.6658 245.31 50.2184 245.772 49.8958 246.373C49.5731 246.96 49.4118 247.635 49.4118 248.397V248.749C49.4118 249.527 49.5878 250.223 49.9398 250.839C50.3064 251.441 50.8124 251.91 51.4578 252.247C52.1031 252.585 52.8438 252.753 53.6798 252.753C54.3691 252.753 54.9924 252.636 55.5498 252.401C56.1218 252.167 56.6204 251.815 57.0457 251.345L58.2118 252.709C57.6837 253.325 57.0238 253.795 56.2318 254.117C55.4544 254.44 54.5818 254.601 53.6138 254.601Z" fill="black"/>
<path d="M39.6562 254.469V242.809H41.6803V245.977L41.4823 245.185C41.8049 244.379 42.3476 243.763 43.1102 243.337C43.8729 242.912 44.8116 242.699 45.9263 242.699V244.745C45.8383 244.731 45.7503 244.723 45.6623 244.723C45.5889 244.723 45.5156 244.723 45.4422 244.723C44.3129 244.723 43.4182 245.061 42.7582 245.735C42.0982 246.41 41.7682 247.385 41.7682 248.661V254.469H39.6562Z" fill="black"/>
<path d="M24.4961 254.468V239.068H30.5021C31.8514 239.068 33.0028 239.281 33.9561 239.706C34.9094 240.132 35.6428 240.748 36.1561 241.554C36.6694 242.361 36.9261 243.322 36.9261 244.436C36.9261 245.551 36.6694 246.512 36.1561 247.318C35.6428 248.11 34.9094 248.726 33.9561 249.166C33.0028 249.592 31.8514 249.804 30.5021 249.804H25.7061L26.6961 248.77V254.468H24.4961ZM26.6961 248.99L25.7061 247.89H30.4361C31.8441 247.89 32.9074 247.59 33.6261 246.988C34.3594 246.387 34.7261 245.536 34.7261 244.436C34.7261 243.336 34.3594 242.486 33.6261 241.884C32.9074 241.283 31.8441 240.982 30.4361 240.982H25.7061L26.6961 239.882V248.99Z" fill="black"/>
<circle cx="128.186" cy="105.051" r="91.04" fill="white"/>
<path d="M127.783 146.527C126.816 146.11 126.53 145.368 126.53 144.336C126.554 132.036 126.544 119.737 126.544 107.437V106.701H125.859C113.527 106.701 101.194 106.691 88.8574 106.715C87.8391 106.715 87.1258 106.405 86.7129 105.462V104.631C87.1165 103.683 87.8391 103.378 88.8574 103.378C101.18 103.402 113.499 103.392 125.822 103.392H126.544V102.693C126.544 90.2669 126.544 77.8454 126.544 65.4192C126.544 64.2883 127.234 63.5468 128.252 63.575C129.074 63.5985 129.773 64.2507 129.839 65.0673C129.853 65.255 129.843 65.4474 129.843 65.6351C129.843 77.9721 129.843 90.3138 129.843 102.651V103.392H130.524C142.95 103.392 155.371 103.392 167.798 103.392C168.933 103.392 169.679 104.073 169.661 105.082C169.642 105.926 168.971 106.63 168.131 106.687C167.943 106.701 167.751 106.691 167.563 106.691C155.24 106.691 142.922 106.691 130.599 106.691H129.843V107.358C129.843 119.681 129.834 131.999 129.857 144.322C129.857 145.354 129.576 146.1 128.604 146.518H127.774L127.783 146.527Z" fill="#777100"/>
<path d="M101.208 99.9196H93.207C94.2206 93.1669 96.9002 87.2119 101.325 82.0734C107.06 75.4192 114.305 71.4539 123.038 70.0508V78.0752C111.344 80.9378 104.085 88.1927 101.208 99.9243V99.9196Z" fill="#777100"/>
<path d="M163.194 99.9386H162.594C160.28 99.9386 157.962 99.9245 155.648 99.9527C155.203 99.9574 155.071 99.8025 154.977 99.3989C152.659 89.5631 146.751 82.8526 137.328 79.2439C136.047 78.7512 134.691 78.4649 133.33 78.0707V70.0557C140.594 71.1584 146.911 74.1571 152.256 79.136C158.295 84.7672 161.904 91.703 163.194 99.9386Z" fill="#777100"/>
<path d="M133.301 140.047V139.362C133.301 137.1 133.315 134.834 133.287 132.572C133.283 132.102 133.409 131.919 133.869 131.826C138.102 130.948 141.912 129.146 145.268 126.429C150.322 122.342 153.574 117.123 154.953 110.76C155.057 110.277 155.23 110.136 155.728 110.141C157.989 110.169 160.256 110.155 162.518 110.155H163.18C162.072 117.414 159.097 123.717 154.151 129.048C148.52 135.12 141.565 138.747 133.292 140.047H133.301Z" fill="#777100"/>
<path d="M133.302 128.423V127.729C133.302 125.519 133.312 123.308 133.293 121.093C133.293 120.694 133.387 120.502 133.79 120.347C138.497 118.559 141.74 115.298 143.528 110.591C143.626 110.338 143.687 110.141 144.039 110.141C146.442 110.159 148.84 110.15 151.242 110.15C151.327 110.15 151.407 110.173 151.562 110.192C150.524 114.777 148.356 118.709 145.043 121.999C141.773 125.251 137.878 127.382 133.302 128.414V128.423Z" fill="#777100"/>
<path d="M151.501 99.9388C150.346 99.9388 149.225 99.9388 148.103 99.9388C146.775 99.9388 145.442 99.9295 144.114 99.9482C143.781 99.9482 143.645 99.8356 143.528 99.5259C141.74 94.7769 138.469 91.5061 133.725 89.7041C133.495 89.615 133.293 89.568 133.293 89.2349C133.312 86.7806 133.307 84.331 133.307 81.8768C133.307 81.8439 133.326 81.8111 133.359 81.7031C137.338 82.5853 140.862 84.3639 143.922 87.0528C147.784 90.4503 151.35 96.5273 151.496 99.9388H151.501Z" fill="#777100"/>
<path d="M123.052 81.6893C123.066 81.891 123.085 82.0224 123.085 82.1585C123.085 84.472 123.076 86.7902 123.094 89.1037C123.094 89.4697 122.958 89.5964 122.639 89.7184C117.932 91.5016 114.666 94.749 112.883 99.4604C112.738 99.8405 112.564 99.9484 112.184 99.9438C109.922 99.9297 107.655 99.9344 105.394 99.9344H104.84C105.727 95.9081 107.501 92.3979 110.171 89.3477C113.62 85.4106 117.904 82.8671 123.052 81.6846V81.6893Z" fill="#777100"/>
<path d="M123.057 93.2559V99.9054H116.402C117.815 96.8551 119.983 94.6777 123.057 93.2559Z" fill="#777100"/>
<path d="M139.9 99.9238H133.354V93.3682C135.231 93.5324 139.431 97.6995 139.9 99.9238Z" fill="#777100"/>
<path d="M133.334 116.739V110.197H139.857C139.805 111.976 135.432 116.387 133.334 116.739Z" fill="#777100"/>
<path d="M93.2168 110.183H101.237C101.579 111.407 101.847 112.642 102.274 113.815C105.746 123.327 112.424 129.301 122.232 131.778C123.076 131.994 123.086 131.966 123.086 132.853C123.086 135.03 123.086 137.208 123.086 139.385V140.019C119.148 139.46 115.474 138.282 112.006 136.48C105.671 133.191 100.753 128.423 97.2666 122.196C95.1736 118.46 93.8268 114.467 93.2168 110.183Z" fill="#777100"/>
<path d="M104.893 110.154C106.54 110.154 108.145 110.154 109.749 110.154C110.594 110.154 111.444 110.168 112.288 110.15C112.593 110.145 112.739 110.239 112.851 110.53C114.644 115.321 117.943 118.606 122.725 120.412C122.875 120.469 123.072 120.68 123.072 120.816C123.086 123.303 123.072 125.786 123.067 128.273C123.067 128.287 123.053 128.306 123.011 128.395C119.06 127.522 115.564 125.729 112.499 123.078C108.215 119.375 105.601 114.223 104.893 110.15V110.154Z" fill="#777100"/>
<path d="M123.058 110.188V116.734C120.927 116.33 116.938 112.346 116.502 110.188H123.058Z" fill="#777100"/>
</svg>
