<svg width="304" height="500" viewBox="0 0 304 500" fill="none" xmlns="http://www.w3.org/2000/svg">
<path d="M5.78834 7.83398H0.736328V12.4462H5.78834V7.83398Z" fill="#C2B27F"/>
<path d="M35.259 7.83398H30.207V12.4462H35.259V7.83398Z" fill="#C2B27F"/>
<path d="M64.7297 7.83398H59.6777V12.4462H64.7297V7.83398Z" fill="#C2B27F"/>
<path d="M96.7251 5.52734H86.6211V14.7517H96.7251V5.52734Z" fill="#C2B27F"/>
<path d="M125.914 6.04102H116.652V14.4967H125.914V6.04102Z" fill="#C2B27F"/>
<path d="M190.468 0.916016H170.541V19.1085H190.468V0.916016Z" fill="#C2B27F"/>
<path d="M215.727 5.01562H204.5V15.2649H215.727V5.01562Z" fill="#C2B27F"/>
<path d="M249.688 0.916016H229.48V19.3647H249.688V0.916016Z" fill="#C2B27F"/>
<path d="M274.949 5.01562H263.441V15.5211H274.949V5.01562Z" fill="#C2B27F"/>
<path d="M303.575 5.78516H293.752V14.7533H303.575V5.78516Z" fill="#C2B27F"/>
<path d="M5.78834 34.7383H0.736328V39.3505H5.78834V34.7383Z" fill="#C2B27F"/>
<path d="M35.259 34.7383H30.207V39.3505H35.259V34.7383Z" fill="#C2B27F"/>
<path d="M64.7297 34.7383H59.6777V39.3505H64.7297V34.7383Z" fill="#C2B27F"/>
<path d="M96.7251 32.4336H86.6211V41.6579H96.7251V32.4336Z" fill="#C2B27F"/>
<path d="M125.914 32.9453H116.652V41.401H125.914V32.9453Z" fill="#C2B27F"/>
<path d="M190.468 28.0762H170.541V46.2687H190.468V28.0762Z" fill="#C2B27F"/>
<path d="M215.727 32.1758H204.5V42.4251H215.727V32.1758Z" fill="#C2B27F"/>
<path d="M249.688 27.8203H229.48V46.269H249.688V27.8203Z" fill="#C2B27F"/>
<path d="M274.949 31.9219H263.441V42.4274H274.949V31.9219Z" fill="#C2B27F"/>
<path d="M303.575 32.6895H293.752V41.6576H303.575V32.6895Z" fill="#C2B27F"/>
<path d="M9.71871 58.0547H-3.47266V70.0976H9.71871V58.0547Z" fill="#C2B27F"/>
<path d="M39.4687 58.0547H26.2773V70.0976H39.4687V58.0547Z" fill="#C2B27F"/>
<path d="M69.2195 57.7988H55.4668V70.3542H69.2195V57.7988Z" fill="#C2B27F"/>
<path d="M98.9702 57.543H84.6562V70.6108H98.9702V57.543Z" fill="#C2B27F"/>
<path d="M133.772 52.6758H108.793V75.4804H133.772V52.6758Z" fill="#C2B27F"/>
<path d="M157.349 58.3125H144.719V69.8429H157.349V58.3125Z" fill="#C2B27F"/>
<path d="M185.415 59.5938H175.592V68.5619H185.415V59.5938Z" fill="#C2B27F"/>
<path d="M215.727 59.082H204.5V69.3313H215.727V59.082Z" fill="#C2B27F"/>
<path d="M248.286 56.0059H230.604V72.1485H248.286V56.0059Z" fill="#C2B27F"/>
<path d="M271.019 62.4121H267.09V65.9994H271.019V62.4121Z" fill="#C2B27F"/>
<path d="M11.9639 83.166H-5.4375V99.0524H11.9639V83.166Z" fill="#C2B27F"/>
<path d="M36.3813 87.7793H29.084V94.4413H36.3813V87.7793Z" fill="#C2B27F"/>
<path d="M65.5706 88.291H59.1152V94.1844H65.5706V88.291Z" fill="#C2B27F"/>
<path d="M95.3208 87.7793H88.0234V94.4413H95.3208V87.7793Z" fill="#C2B27F"/>
<path d="M125.914 87.0098H116.652V95.4654H125.914V87.0098Z" fill="#C2B27F"/>
<path d="M152.858 89.0605H148.648V92.904H152.858V89.0605Z" fill="#C2B27F"/>
<path d="M182.61 89.0605H178.119V93.1603H182.61V89.0605Z" fill="#C2B27F"/>
<path d="M212.079 89.0605H207.869V92.904H212.079V89.0605Z" fill="#C2B27F"/>
<path d="M242.952 87.7793H235.936V94.1851H242.952V87.7793Z" fill="#C2B27F"/>
<path d="M8.03423 113.658H-1.78906V122.626H8.03423V113.658Z" fill="#C2B27F"/>
<path d="M36.9421 114.426H28.8027V121.857H36.9421V114.426Z" fill="#C2B27F"/>
<path d="M65.852 114.684H58.5547V121.346H65.852V114.684Z" fill="#C2B27F"/>
<path d="M95.3208 114.684H88.0234V121.346H95.3208V114.684Z" fill="#C2B27F"/>
<path d="M125.353 114.426H117.494V121.6H125.353V114.426Z" fill="#C2B27F"/>
<path d="M152.859 116.221H148.93V119.808H152.859V116.221Z" fill="#C2B27F"/>
<path d="M182.328 116.221H178.398V119.808H182.328V116.221Z" fill="#C2B27F"/>
<path d="M212.079 116.221H207.869V120.064H212.079V116.221Z" fill="#C2B27F"/>
<path d="M242.11 115.709H236.777V120.577H242.11V115.709Z" fill="#C2B27F"/>
<path d="M4.94615 143.637H1.57812V146.712H4.94615V143.637Z" fill="#C2B27F"/>
<path d="M34.1368 143.637H31.3301V146.199H34.1368V143.637Z" fill="#C2B27F"/>
<path d="M63.6055 143.637H60.7988V146.199H63.6055V143.637Z" fill="#C2B27F"/>
<path d="M95.3208 141.586H88.0234V148.248H95.3208V141.586Z" fill="#C2B27F"/>
<path d="M125.353 141.586H117.494V148.76H125.353V141.586Z" fill="#C2B27F"/>
<path d="M152.858 143.123H148.648V146.967H152.858V143.123Z" fill="#C2B27F"/>
<path d="M182.608 143.123H178.398V146.967H182.608V143.123Z" fill="#C2B27F"/>
<path d="M212.079 143.123H207.869V146.967H212.079V143.123Z" fill="#C2B27F"/>
<path d="M240.145 144.406H238.742V145.687H240.145V144.406Z" fill="#C2B27F"/>
<path d="M4.38538 170.797H1.85938V173.103H4.38538V170.797Z" fill="#C2B27F"/>
<path d="M33.8561 170.797H31.3301V173.103H33.8561V170.797Z" fill="#C2B27F"/>
<path d="M63.6055 170.797H60.7988V173.359H63.6055V170.797Z" fill="#C2B27F"/>
<path d="M93.0762 170.797H90.2695V173.359H93.0762V170.797Z" fill="#C2B27F"/>
<path d="M4.66605 197.703H1.85938V200.265H4.66605V197.703Z" fill="#C2B27F"/>
<path d="M33.574 197.957H31.6094V199.751H33.574V197.957Z" fill="#C2B27F"/>
<path d="M63.6055 197.703H60.7988V200.265H63.6055V197.703Z" fill="#C2B27F"/>
</svg>
