<svg width="160" height="237" viewBox="0 0 160 237" fill="none" xmlns="http://www.w3.org/2000/svg">
<path d="M48.4434 202.416H43.057V184.961H48.682C50.3752 184.961 51.824 185.311 53.0286 186.01C54.2331 186.703 55.1564 187.7 55.7985 189.001C56.4405 190.297 56.7615 191.848 56.7615 193.655C56.7615 195.473 56.4377 197.038 55.79 198.351C55.1422 199.657 54.199 200.663 52.9604 201.368C51.7218 202.067 50.2161 202.416 48.4434 202.416ZM45.1706 200.541H48.307C49.7502 200.541 50.9462 200.263 51.8951 199.706C52.8439 199.149 53.5513 198.356 54.0172 197.328C54.4831 196.3 54.7161 195.075 54.7161 193.655C54.7161 192.246 54.486 191.032 54.0257 190.015C53.5655 188.993 52.878 188.209 51.9632 187.663C51.0485 187.112 49.9093 186.836 48.5456 186.836H45.1706V200.541ZM65.5229 202.689C64.2615 202.689 63.1735 202.41 62.2587 201.854C61.3496 201.291 60.6479 200.507 60.1536 199.501C59.665 198.49 59.4206 197.314 59.4206 195.973C59.4206 194.632 59.665 193.45 60.1536 192.427C60.6479 191.399 61.3354 190.598 62.2161 190.024C63.1025 189.444 64.1365 189.155 65.3184 189.155C66.0002 189.155 66.6735 189.268 67.3382 189.496C68.003 189.723 68.6081 190.092 69.1536 190.604C69.699 191.109 70.1337 191.78 70.4576 192.615C70.7814 193.45 70.9434 194.479 70.9434 195.7V196.552H60.8525V194.814H68.8979C68.8979 194.075 68.7502 193.416 68.4547 192.836C68.165 192.257 67.7502 191.8 67.2104 191.464C66.6763 191.129 66.0456 190.961 65.3184 190.961C64.5172 190.961 63.824 191.16 63.2388 191.558C62.6593 191.95 62.2132 192.461 61.9007 193.092C61.5882 193.723 61.432 194.399 61.432 195.121V196.28C61.432 197.268 61.6025 198.106 61.9434 198.794C62.29 199.476 62.7701 199.996 63.3837 200.354C63.9973 200.706 64.7104 200.882 65.5229 200.882C66.0513 200.882 66.5286 200.808 66.9547 200.66C67.3865 200.507 67.7587 200.28 68.0712 199.979C68.3837 199.672 68.6252 199.291 68.7956 198.836L70.7388 199.382C70.5343 200.041 70.1905 200.621 69.7076 201.121C69.2246 201.615 68.628 202.001 67.9178 202.28C67.2076 202.552 66.4093 202.689 65.5229 202.689ZM83.2757 192.257L81.4689 192.768C81.3553 192.467 81.1877 192.175 80.9661 191.89C80.7502 191.601 80.4547 191.362 80.0797 191.175C79.7047 190.987 79.2246 190.893 78.6394 190.893C77.8382 190.893 77.1706 191.078 76.6365 191.447C76.1081 191.811 75.8439 192.274 75.8439 192.836C75.8439 193.336 76.0257 193.731 76.3894 194.021C76.753 194.311 77.3212 194.552 78.0939 194.746L80.0371 195.223C81.2076 195.507 82.0797 195.942 82.6536 196.527C83.2275 197.106 83.5144 197.854 83.5144 198.768C83.5144 199.518 83.2985 200.189 82.8667 200.78C82.4405 201.371 81.8439 201.836 81.0769 202.177C80.3098 202.518 79.4178 202.689 78.4007 202.689C77.0655 202.689 75.9604 202.399 75.0854 201.819C74.2104 201.24 73.6564 200.393 73.4235 199.28L75.3326 198.802C75.5144 199.507 75.8581 200.035 76.3638 200.388C76.8752 200.74 77.5428 200.916 78.3667 200.916C79.3042 200.916 80.0485 200.717 80.5996 200.319C81.1564 199.916 81.4348 199.433 81.4348 198.871C81.4348 198.416 81.2757 198.035 80.9576 197.729C80.6394 197.416 80.1507 197.183 79.4917 197.03L77.3098 196.518C76.111 196.234 75.2303 195.794 74.6678 195.197C74.111 194.595 73.8326 193.842 73.8326 192.939C73.8326 192.2 74.04 191.547 74.4547 190.979C74.8752 190.41 75.4462 189.964 76.1678 189.64C76.8951 189.317 77.7189 189.155 78.6394 189.155C79.9348 189.155 80.9519 189.439 81.6905 190.007C82.4348 190.575 82.9632 191.325 83.2757 192.257ZM86.5421 202.416V189.325H88.5534V202.416H86.5421ZM87.5648 187.143C87.1728 187.143 86.8347 187.01 86.5506 186.743C86.2722 186.476 86.133 186.155 86.133 185.78C86.133 185.405 86.2722 185.084 86.5506 184.817C86.8347 184.55 87.1728 184.416 87.5648 184.416C87.9569 184.416 88.2921 184.55 88.5705 184.817C88.8546 185.084 88.9966 185.405 88.9966 185.78C88.9966 186.155 88.8546 186.476 88.5705 186.743C88.2921 187.01 87.9569 187.143 87.5648 187.143ZM97.5215 207.598C96.5499 207.598 95.7147 207.473 95.0158 207.223C94.3169 206.979 93.7346 206.655 93.2686 206.251C92.8084 205.854 92.4419 205.427 92.1692 204.973L93.7715 203.848C93.9533 204.086 94.1834 204.359 94.4618 204.666C94.7402 204.979 95.1209 205.248 95.6039 205.476C96.0925 205.709 96.7317 205.825 97.5215 205.825C98.5783 205.825 99.4505 205.569 100.138 205.058C100.825 204.547 101.169 203.746 101.169 202.655V199.996H100.999C100.851 200.234 100.641 200.53 100.368 200.882C100.101 201.229 99.7147 201.538 99.209 201.811C98.709 202.078 98.0328 202.211 97.1806 202.211C96.1238 202.211 95.1749 201.961 94.334 201.461C93.4988 200.961 92.8368 200.234 92.3482 199.28C91.8652 198.325 91.6238 197.166 91.6238 195.802C91.6238 194.461 91.8596 193.294 92.3311 192.3C92.8027 191.3 93.459 190.527 94.2999 189.981C95.1408 189.43 96.1124 189.155 97.2147 189.155C98.0669 189.155 98.7431 189.297 99.2431 189.581C99.7488 189.859 100.135 190.177 100.402 190.535C100.675 190.888 100.885 191.177 101.033 191.405H101.237V189.325H103.181V202.791C103.181 203.916 102.925 204.831 102.414 205.535C101.908 206.246 101.226 206.765 100.368 207.095C99.5158 207.43 98.5669 207.598 97.5215 207.598ZM97.4533 200.405C98.2601 200.405 98.9419 200.22 99.4988 199.851C100.056 199.481 100.479 198.95 100.769 198.257C101.058 197.564 101.203 196.734 101.203 195.768C101.203 194.825 101.061 193.993 100.777 193.271C100.493 192.55 100.073 191.984 99.5158 191.575C98.959 191.166 98.2715 190.961 97.4533 190.961C96.601 190.961 95.8908 191.177 95.3226 191.609C94.7601 192.041 94.3368 192.621 94.0527 193.348C93.7743 194.075 93.6351 194.882 93.6351 195.768C93.6351 196.677 93.7772 197.481 94.0613 198.18C94.351 198.873 94.7772 199.419 95.3397 199.817C95.9078 200.209 96.6124 200.405 97.4533 200.405ZM108.874 194.541V202.416H106.862V189.325H108.806V191.371H108.976C109.283 190.706 109.749 190.172 110.374 189.768C110.999 189.359 111.806 189.155 112.794 189.155C113.681 189.155 114.456 189.336 115.121 189.7C115.786 190.058 116.303 190.604 116.672 191.336C117.041 192.064 117.226 192.984 117.226 194.098V202.416H115.215V194.234C115.215 193.206 114.948 192.405 114.414 191.831C113.879 191.251 113.146 190.961 112.215 190.961C111.573 190.961 110.999 191.101 110.493 191.379C109.993 191.657 109.598 192.064 109.308 192.598C109.019 193.132 108.874 193.78 108.874 194.541ZM35.964 222.689C35.964 224.53 35.6316 226.121 34.9668 227.461C34.302 228.802 33.3901 229.836 32.231 230.564C31.0719 231.291 29.748 231.655 28.2594 231.655C26.7708 231.655 25.4469 231.291 24.2878 230.564C23.1287 229.836 22.2168 228.802 21.552 227.461C20.8873 226.121 20.5549 224.53 20.5549 222.689C20.5549 220.848 20.8873 219.257 21.552 217.916C22.2168 216.575 23.1287 215.541 24.2878 214.814C25.4469 214.086 26.7708 213.723 28.2594 213.723C29.748 213.723 31.0719 214.086 32.231 214.814C33.3901 215.541 34.302 216.575 34.9668 217.916C35.6316 219.257 35.964 220.848 35.964 222.689ZM33.9185 222.689C33.9185 221.177 33.6657 219.902 33.16 218.862C32.66 217.822 31.981 217.035 31.123 216.501C30.2708 215.967 29.3162 215.7 28.2594 215.7C27.2026 215.7 26.2452 215.967 25.3873 216.501C24.535 217.035 23.856 217.822 23.3503 218.862C22.8503 219.902 22.6003 221.177 22.6003 222.689C22.6003 224.2 22.8503 225.476 23.3503 226.515C23.856 227.555 24.535 228.342 25.3873 228.876C26.2452 229.41 27.2026 229.677 28.2594 229.677C29.3162 229.677 30.2708 229.41 31.123 228.876C31.981 228.342 32.66 227.555 33.16 226.515C33.6657 225.476 33.9185 224.2 33.9185 222.689ZM42.2111 231.416L38.2225 218.325H40.3361L43.1657 228.348H43.302L46.0975 218.325H48.2452L51.0066 228.314H51.1429L53.9725 218.325H56.0861L52.0975 231.416H50.1202L47.2566 221.359H47.052L44.1884 231.416H42.2111ZM60.7566 223.541V231.416H58.7452V218.325H60.6884V220.371H60.8588C61.1657 219.706 61.6316 219.172 62.2566 218.768C62.8816 218.359 63.6884 218.155 64.677 218.155C65.5634 218.155 66.339 218.336 67.0037 218.7C67.6685 219.058 68.1855 219.604 68.5549 220.336C68.9242 221.064 69.1088 221.984 69.1088 223.098V231.416H67.0975V223.234C67.0975 222.206 66.8304 221.405 66.2963 220.831C65.7623 220.251 65.0293 219.961 64.0975 219.961C63.4554 219.961 62.8816 220.101 62.3759 220.379C61.8759 220.657 61.481 221.064 61.1912 221.598C60.9015 222.132 60.7566 222.78 60.7566 223.541ZM78.2729 231.689C77.0115 231.689 75.9235 231.41 75.0087 230.854C74.0996 230.291 73.3979 229.507 72.9036 228.501C72.415 227.49 72.1706 226.314 72.1706 224.973C72.1706 223.632 72.415 222.45 72.9036 221.427C73.3979 220.399 74.0854 219.598 74.9661 219.024C75.8525 218.444 76.8865 218.155 78.0684 218.155C78.7502 218.155 79.4235 218.268 80.0882 218.496C80.753 218.723 81.3581 219.092 81.9036 219.604C82.449 220.109 82.8837 220.78 83.2076 221.615C83.5314 222.45 83.6934 223.479 83.6934 224.7V225.552H73.6025V223.814H81.6479C81.6479 223.075 81.5002 222.416 81.2047 221.836C80.915 221.257 80.5002 220.8 79.9604 220.464C79.4263 220.129 78.7956 219.961 78.0684 219.961C77.2672 219.961 76.574 220.16 75.9888 220.558C75.4093 220.95 74.9632 221.461 74.6507 222.092C74.3382 222.723 74.182 223.399 74.182 224.121V225.28C74.182 226.268 74.3525 227.106 74.6934 227.794C75.04 228.476 75.5201 228.996 76.1337 229.354C76.7473 229.706 77.4604 229.882 78.2729 229.882C78.8013 229.882 79.2786 229.808 79.7047 229.66C80.1365 229.507 80.5087 229.28 80.8212 228.979C81.1337 228.672 81.3752 228.291 81.5456 227.836L83.4888 228.382C83.2843 229.041 82.9405 229.621 82.4576 230.121C81.9746 230.615 81.378 231.001 80.6678 231.28C79.9576 231.552 79.1593 231.689 78.2729 231.689ZM86.753 231.416V218.325H88.6962V220.302H88.8326C89.0712 219.655 89.503 219.129 90.128 218.726C90.753 218.322 91.4576 218.121 92.2417 218.121C92.3894 218.121 92.574 218.123 92.7956 218.129C93.0172 218.135 93.1848 218.143 93.2985 218.155V220.2C93.2303 220.183 93.074 220.157 92.8297 220.123C92.5911 220.084 92.3382 220.064 92.0712 220.064C91.4348 220.064 90.8667 220.197 90.3667 220.464C89.8723 220.726 89.4803 221.089 89.1905 221.555C88.9064 222.015 88.7644 222.541 88.7644 223.132V231.416H86.753ZM104.955 221.257L103.149 221.768C103.035 221.467 102.867 221.175 102.646 220.89C102.43 220.601 102.134 220.362 101.759 220.175C101.384 219.987 100.904 219.893 100.319 219.893C99.5179 219.893 98.8503 220.078 98.3162 220.447C97.7878 220.811 97.5236 221.274 97.5236 221.836C97.5236 222.336 97.7054 222.731 98.0691 223.021C98.4327 223.311 99.0009 223.552 99.7736 223.746L101.717 224.223C102.887 224.507 103.759 224.942 104.333 225.527C104.907 226.106 105.194 226.854 105.194 227.768C105.194 228.518 104.978 229.189 104.546 229.78C104.12 230.371 103.524 230.836 102.757 231.177C101.99 231.518 101.097 231.689 100.08 231.689C98.7452 231.689 97.6401 231.399 96.7651 230.819C95.8901 230.24 95.3361 229.393 95.1032 228.28L97.0123 227.802C97.1941 228.507 97.5378 229.035 98.0435 229.388C98.5549 229.74 99.2225 229.916 100.046 229.916C100.984 229.916 101.728 229.717 102.279 229.319C102.836 228.916 103.115 228.433 103.115 227.871C103.115 227.416 102.955 227.035 102.637 226.729C102.319 226.416 101.83 226.183 101.171 226.03L98.9895 225.518C97.7907 225.234 96.91 224.794 96.3475 224.197C95.7907 223.595 95.5123 222.842 95.5123 221.939C95.5123 221.2 95.7196 220.547 96.1344 219.979C96.5549 219.41 97.1259 218.964 97.8475 218.64C98.5748 218.317 99.3986 218.155 100.319 218.155C101.615 218.155 102.632 218.439 103.37 219.007C104.115 219.575 104.643 220.325 104.955 221.257ZM110.233 223.541V231.416H108.222V213.961H110.233V220.371H110.404C110.71 219.694 111.171 219.157 111.784 218.76C112.404 218.356 113.227 218.155 114.256 218.155C115.148 218.155 115.929 218.334 116.6 218.692C117.27 219.044 117.79 219.586 118.159 220.319C118.534 221.047 118.722 221.973 118.722 223.098V231.416H116.71V223.234C116.71 222.194 116.441 221.39 115.901 220.822C115.367 220.248 114.625 219.961 113.676 219.961C113.017 219.961 112.426 220.101 111.904 220.379C111.387 220.657 110.977 221.064 110.676 221.598C110.381 222.132 110.233 222.78 110.233 223.541ZM122.401 231.416V218.325H124.413V231.416H122.401ZM123.424 216.143C123.032 216.143 122.694 216.01 122.41 215.743C122.132 215.476 121.992 215.155 121.992 214.78C121.992 214.405 122.132 214.084 122.41 213.817C122.694 213.55 123.032 213.416 123.424 213.416C123.816 213.416 124.151 213.55 124.43 213.817C124.714 214.084 124.856 214.405 124.856 214.78C124.856 215.155 124.714 215.476 124.43 215.743C124.151 216.01 123.816 216.143 123.424 216.143ZM128.097 236.325V218.325H130.04V220.405H130.279C130.426 220.177 130.631 219.888 130.892 219.535C131.159 219.177 131.54 218.859 132.034 218.581C132.534 218.297 133.21 218.155 134.063 218.155C135.165 218.155 136.137 218.43 136.977 218.981C137.818 219.532 138.475 220.314 138.946 221.325C139.418 222.336 139.654 223.53 139.654 224.905C139.654 226.291 139.418 227.493 138.946 228.51C138.475 229.521 137.821 230.305 136.986 230.862C136.151 231.413 135.188 231.689 134.097 231.689C133.256 231.689 132.583 231.55 132.077 231.271C131.571 230.987 131.182 230.666 130.909 230.308C130.637 229.944 130.426 229.643 130.279 229.405H130.108V236.325H128.097ZM130.074 224.871C130.074 225.859 130.219 226.731 130.509 227.487C130.798 228.237 131.222 228.825 131.779 229.251C132.335 229.672 133.017 229.882 133.824 229.882C134.665 229.882 135.367 229.66 135.929 229.217C136.497 228.768 136.923 228.166 137.208 227.41C137.497 226.649 137.642 225.802 137.642 224.871C137.642 223.95 137.5 223.121 137.216 222.382C136.938 221.638 136.514 221.05 135.946 220.618C135.384 220.18 134.676 219.961 133.824 219.961C133.006 219.961 132.318 220.169 131.762 220.584C131.205 220.993 130.784 221.567 130.5 222.305C130.216 223.038 130.074 223.893 130.074 224.871Z" fill="black"/>
<circle cx="80.0022" cy="80.0022" r="78.0022" fill="white" stroke="#777100" stroke-width="4"/>
<circle cx="80.0005" cy="80.0024" r="69.3657" fill="white"/>
<path d="M86.2248 119.869L82.0644 117.749C79.8639 119.869 76.8382 119.388 75.3712 116.626C72.3225 117.13 70.9815 116.397 69.9157 113.646C67.6349 113.726 66.122 112.695 65.4573 110.403C63.4286 110.506 61.8814 109.726 61.1593 107.732C60.4373 105.738 61.5376 104.237 62.8556 102.609C62.4086 102.609 62.1106 102.517 61.9043 102.621C60.2654 103.423 58.6952 103.297 57.1594 102.368C56.4488 101.944 55.7268 101.532 55.0277 101.096C53.7211 100.271 53.3429 98.8613 54.1337 97.5203C57.4116 91.9617 60.7009 86.403 64.0017 80.8559C64.804 79.5034 66.2481 79.1481 67.6349 79.9275C68.4257 80.3745 69.2051 80.8329 69.9729 81.3143C71.4858 82.2541 72.2423 83.6294 72.2079 85.4059C72.1964 85.8987 72.3454 86.1509 72.7695 86.3686C73.7895 86.9073 74.8325 87.0219 75.9213 86.6322C76.6777 86.3572 77.4227 86.0707 78.1677 85.7612C80.0931 84.9475 81.9727 85.0735 83.7607 86.128C84.3337 86.4603 84.8266 86.4833 85.434 86.2999C86.3967 86.0019 87.4053 85.8414 88.368 85.5434C89.8351 85.0965 91.2333 85.2455 92.6201 85.83C93.3765 86.1509 94.1444 86.5062 94.9467 86.6896C95.6229 86.85 96.345 86.7812 97.1358 86.8156C96.7232 84.9131 96.8722 83.2398 98.2246 82.0937C99.3936 81.108 100.78 80.3172 102.167 79.6524C103.279 79.1138 104.494 79.7327 105.227 80.9705C107.829 85.3601 110.431 89.7611 113.032 94.1507C113.663 95.2166 114.305 96.2825 114.935 97.3598C115.794 98.8498 115.439 100.26 113.961 101.153C113.204 101.612 112.448 102.07 111.68 102.494C110.694 103.045 109.617 103.343 108.54 102.999C107.52 102.666 106.878 103.194 106.133 103.698C107.199 105.325 107.371 106.976 106.19 108.569C105.067 110.07 103.52 110.426 101.697 109.944C101.033 112.42 99.4624 113.635 96.7805 113.348C96.5398 114.689 95.9209 115.812 94.6487 116.466C93.4109 117.107 92.1502 117.039 90.8207 116.42C90.4769 118.265 89.3193 119.319 87.6231 119.847H86.2248V119.869ZM83.52 115.766C84.3452 116.259 85.1131 116.729 85.9039 117.188C86.8666 117.738 87.795 117.554 88.2763 116.729C88.7462 115.904 88.4597 115.021 87.5085 114.437C86.8208 114.013 86.1102 113.635 85.4454 113.188C84.8724 112.809 84.7463 112.168 85.0558 111.617C85.3652 111.09 86.0071 110.907 86.6145 111.182C86.8208 111.274 87.0156 111.411 87.2219 111.526C88.8036 112.466 90.3852 113.417 91.9783 114.334C92.7233 114.769 93.5141 114.62 94.0298 114.036C94.4883 113.52 94.5685 112.718 94.1559 112.168C93.9496 111.893 93.6402 111.652 93.3422 111.468C91.5886 110.414 89.8121 109.383 88.0586 108.328C87.2105 107.824 87.05 106.895 87.6918 106.334C88.242 105.864 88.7807 106.024 89.3422 106.357C91.772 107.801 94.2017 109.245 96.6315 110.678C97.6401 111.274 98.5799 111.113 99.0727 110.288C99.577 109.44 99.2676 108.569 98.2475 107.961C96.4252 106.873 94.5914 105.795 92.7576 104.706C92.07 104.294 91.3135 103.95 90.7061 103.446C90.3852 103.182 90.1445 102.609 90.1789 102.208C90.2133 101.887 90.6717 101.463 91.027 101.371C91.3594 101.28 91.8407 101.463 92.1731 101.658C95.3708 103.526 98.557 105.428 101.755 107.308C101.995 107.457 102.247 107.606 102.511 107.709C103.623 108.11 104.712 107.262 104.608 106.082C104.551 105.371 104.081 105.004 103.52 104.672C98.6143 101.772 93.7089 98.8613 88.7921 95.9616C88.666 95.8928 88.54 95.8355 88.391 95.7668C87.4855 97.8068 86.03 99.0332 83.818 99.1936C82.1217 99.3197 80.9871 98.2653 80.9527 96.5576C80.9298 95.4458 80.9756 94.3227 80.9527 93.2109C80.9069 91.3772 80.9298 89.5663 82.2593 88.0534C81.3997 87.5491 80.5745 87.4689 79.7264 87.7325C78.9355 87.9732 78.1562 88.2712 77.3883 88.5921C76.1963 89.0964 74.9585 89.3944 73.6749 89.1422C72.8268 88.9703 72.0245 88.6036 71.142 88.3056C68.7237 92.3857 66.2939 96.4888 63.8527 100.603L63.9673 100.821C64.2424 100.787 64.5175 100.787 64.7811 100.729C65.2624 100.626 65.7323 100.431 66.2137 100.409C67.7724 100.305 68.9415 101.039 69.8125 102.265C72.8841 100.305 74.7522 100.901 76.6089 104.42C79.8983 104.512 81.2736 106.196 80.8954 109.658C84.0013 110.689 84.689 113.337 83.5085 115.766H83.52ZM113.124 98.9644C109.709 93.1995 106.339 87.5262 102.947 81.7957C102.076 82.3114 101.296 82.7584 100.528 83.2283C99.1988 84.042 98.9008 85.2455 99.6802 86.6208C100.093 87.3428 100.54 88.042 100.941 88.764C101.262 89.3715 101.078 90.0133 100.563 90.3342C100.013 90.678 99.3363 90.5176 98.9352 89.9331C98.683 89.5778 98.4767 89.1881 98.2131 88.7755C96.2991 89.5434 94.4768 89.2339 92.6889 88.4316C92.2419 88.2253 91.7949 88.0076 91.3135 87.893C90.7749 87.7554 90.1674 87.5835 89.6402 87.6867C88.1732 87.9732 86.7062 88.3514 85.2735 88.7869C84.265 89.0964 83.4856 89.8299 83.4283 90.8843C83.3137 92.8442 83.3939 94.804 83.3939 96.8326C84.3796 96.9014 85.2162 96.5346 85.7091 95.7209C86.0529 95.1479 86.1904 94.4258 86.328 93.7611C86.5113 92.8671 87.2105 92.4316 88.0357 92.7983C88.242 92.89 88.4483 93.0275 88.6431 93.1422C93.5714 96.0647 98.4997 98.9873 103.439 101.887C103.669 102.025 104.035 102.139 104.253 102.047C104.723 101.853 105.124 101.52 105.606 101.222C105.353 100.787 105.124 100.386 104.884 99.9844C103.852 98.2424 102.809 96.5117 101.8 94.7582C101.399 94.0705 101.56 93.4058 102.144 93.0619C102.74 92.7066 103.359 92.89 103.806 93.5548C103.921 93.7267 104.024 93.9101 104.127 94.0934C105.216 95.9272 106.282 97.761 107.382 99.5718C108.012 100.615 109.078 101.096 110.098 100.638C111.13 100.179 112.081 99.5375 113.135 98.9415L113.124 98.9644ZM66.1679 81.8071C65.973 82.1166 65.8126 82.3573 65.675 82.5979C64.208 85.0735 62.741 87.5491 61.274 90.0247C59.635 92.7869 58.0076 95.5605 56.3457 98.3111C56.0592 98.7925 56.0592 99.0676 56.5978 99.3312C57.1365 99.5833 57.6293 99.9386 58.1336 100.237C59.807 101.222 60.9187 100.947 61.9043 99.2968C64.1507 95.5032 66.3971 91.7095 68.6435 87.9274C68.9644 87.3887 69.2968 86.8615 69.5718 86.3113C70.1334 85.1996 69.8354 84.065 68.7925 83.3888C67.9673 82.8501 67.1077 82.3802 66.1564 81.8186L66.1679 81.8071ZM69.5718 111.297C69.7552 111.193 70.248 111.079 70.4772 110.769C71.7036 109.165 72.8841 107.526 74.0187 105.864C74.4886 105.176 74.2021 104.282 73.5144 103.812C72.8611 103.365 71.9786 103.423 71.4858 104.065C70.2824 105.658 69.1019 107.262 68.0131 108.924C67.3484 109.933 68.1392 111.251 69.5718 111.285V111.297ZM78.7292 108.5C78.6605 107.663 78.351 107.113 77.6748 106.873C76.9642 106.62 76.3224 106.792 75.8754 107.4C74.7523 108.924 73.652 110.448 72.5632 111.996C72.036 112.764 72.2079 113.703 72.907 114.196C73.629 114.723 74.5803 114.563 75.1648 113.772C76.2422 112.317 77.2966 110.838 78.3281 109.36C78.5344 109.073 78.6261 108.718 78.7292 108.489V108.5ZM65.1364 108.042C65.2853 107.961 65.7209 107.881 65.9386 107.606C66.6149 106.769 67.2681 105.887 67.8297 104.97C68.2423 104.294 67.9558 103.434 67.3025 102.999C66.6492 102.563 65.7782 102.62 65.2624 103.251C64.6321 104.03 64.0246 104.844 63.4974 105.704C62.8556 106.781 63.6579 108.065 65.1134 108.042H65.1364ZM77.4914 115.285C77.4914 115.789 77.8238 116.294 78.4542 116.557C79.0846 116.832 79.7149 116.729 80.1619 116.213C80.6776 115.606 81.1475 114.953 81.5601 114.265C81.904 113.68 81.7894 113.05 81.3309 112.534C80.8725 112.007 80.2765 111.904 79.6347 112.099C78.9241 112.305 77.5029 114.334 77.5029 115.274L77.4914 115.285Z" fill="#777100"/>
<path d="M99.4623 55.8384C97.0325 55.8384 94.7174 55.8384 92.4137 55.8384C91.0842 55.8384 89.8349 55.5519 88.7346 54.7726C86.9696 53.5233 86.133 51.7927 86.1215 49.6609C86.1101 47.5864 86.1215 45.512 86.1215 43.4375C86.1215 43.1625 86.1215 42.8759 86.1215 42.5092H85.1932C73.8008 42.5092 62.4085 42.5092 51.0162 42.5092C48.4145 42.5092 46.9589 43.9533 46.9589 46.5435C46.9589 66.9328 46.9589 87.3221 46.9589 107.711C46.9589 110.256 48.4259 111.723 50.9588 111.734C54.6952 111.734 58.4315 111.734 62.1678 111.734C62.4543 111.734 62.8096 111.643 63.0045 111.78C63.3712 112.044 63.8526 112.41 63.887 112.777C63.9214 113.144 63.5432 113.637 63.2222 113.923C63.0159 114.107 62.5804 114.061 62.248 114.072C58.5117 114.072 54.7754 114.072 51.0391 114.072C47.1079 114.072 44.6094 111.574 44.6094 107.666C44.6094 87.2992 44.6094 66.9328 44.6094 46.5664C44.6094 42.6352 47.0965 40.1482 51.0162 40.1482C62.4544 40.1482 73.904 40.1482 85.3422 40.1367C86.9696 40.1367 88.3106 40.6639 89.4567 41.8215C92.9982 45.3974 96.5626 48.9503 100.138 52.5033C101.25 53.6035 101.8 54.8986 101.789 56.4688C101.766 62.8756 101.789 69.2823 101.789 75.6891C101.789 75.8954 101.8 76.1131 101.766 76.308C101.628 76.9154 101.239 77.2822 100.62 77.2707C99.9666 77.2707 99.554 76.8925 99.4623 76.2392C99.4279 75.9871 99.4508 75.7235 99.4508 75.4599C99.4508 69.2594 99.4508 63.0589 99.4508 56.8585V55.827L99.4623 55.8384ZM88.5169 44.4232C88.5169 44.4232 88.4711 44.5607 88.4711 44.6639C88.4711 46.3945 88.4252 48.1366 88.4825 49.8672C88.5513 51.999 90.0298 53.4316 92.173 53.4774C93.5254 53.5118 94.8664 53.4774 96.2188 53.4774C96.6658 53.4774 97.1242 53.4774 97.5597 53.4774C94.5111 50.4173 91.5197 47.4145 88.5284 44.4117L88.5169 44.4232Z" fill="black"/>
<path d="M73.2152 71.1612C67.0377 71.1612 60.8716 71.1612 54.6941 71.1612C54.4649 71.1612 54.2242 71.1726 53.9949 71.1497C53.3646 71.0695 53.0093 70.6798 52.9634 70.0724C52.9176 69.4993 53.2271 69.0752 53.7887 68.9033C54.0293 68.8231 54.3044 68.8345 54.5566 68.8345C66.9804 68.8345 79.4157 68.8345 91.8396 68.8345C92.1261 68.8345 92.424 68.8346 92.6762 68.9262C93.2378 69.1211 93.5014 69.5451 93.4441 70.1297C93.3868 70.7256 93.0315 71.0695 92.447 71.1497C92.1948 71.1841 91.9312 71.1612 91.6676 71.1612C85.5245 71.1612 79.3698 71.1612 73.2267 71.1612H73.2152Z" fill="black"/>
<path d="M73.1473 63.9762C67.0271 63.9762 60.9069 63.9762 54.7752 63.9762C54.546 63.9762 54.3053 63.9877 54.076 63.9762C53.4113 63.9075 52.9414 63.4146 52.9414 62.8072C52.9414 62.1654 53.4342 61.6955 54.1563 61.6496C54.3626 61.6382 54.5689 61.6496 54.7752 61.6496C67.073 61.6496 79.3707 61.6496 91.6685 61.6496C92.9292 61.6496 93.4793 62.0164 93.445 62.853C93.422 63.6439 92.8719 63.9991 91.6685 63.9991C85.491 63.9991 79.3249 63.9991 73.1473 63.9991V63.9762Z" fill="black"/>
<path d="M63.6239 55.839C60.644 55.839 57.6641 55.839 54.6842 55.839C54.3747 55.839 53.9736 55.8963 53.7788 55.7358C53.4349 55.4493 53.0567 55.0482 52.988 54.6356C52.8963 54.0969 53.2859 53.6614 53.8705 53.5468C54.1455 53.4895 54.432 53.5009 54.7186 53.5009C60.6783 53.5009 66.6381 53.5009 72.5979 53.5009C73.7899 53.5009 74.3629 53.8792 74.3744 54.6585C74.3858 55.4608 73.7899 55.8505 72.5635 55.8505C69.5836 55.8505 66.6038 55.8505 63.6239 55.8505V55.839Z" fill="black"/>
</svg>
