<svg width="739" height="110" viewBox="0 0 739 110" fill="none" xmlns="http://www.w3.org/2000/svg">
<path d="M366.589 7.24219H362.379V11.0857H366.589V7.24219Z" fill="#C2B27F"/>
<path d="M396.058 7.5H392.129V11.0872H396.058V7.5Z" fill="#C2B27F"/>
<path d="M427.212 6.2168H420.195V12.6226H427.212V6.2168Z" fill="#C2B27F"/>
<path d="M456.963 5.96289H449.666V12.6249H456.963V5.96289Z" fill="#C2B27F"/>
<path d="M486.714 5.70508H478.855V12.8796H486.714V5.70508Z" fill="#C2B27F"/>
<path d="M515.062 6.98633H510.01V11.5985H515.062V6.98633Z" fill="#C2B27F"/>
<path d="M544.531 6.98633H539.479V11.5985H544.531V6.98633Z" fill="#C2B27F"/>
<path d="M574.001 6.98633H568.949V11.5985H574.001V6.98633Z" fill="#C2B27F"/>
<path d="M603.472 6.98633H598.42V11.5985H603.472V6.98633Z" fill="#C2B27F"/>
<path d="M635.467 4.67969H625.363V13.904H635.467V4.67969Z" fill="#C2B27F"/>
<path d="M664.657 5.19336H655.395V13.649H664.657V5.19336Z" fill="#C2B27F"/>
<path d="M729.211 0.0683594H709.283V18.2608H729.211V0.0683594Z" fill="#C2B27F"/>
<path d="M366.589 34.4023H362.379V38.2458H366.589V34.4023Z" fill="#C2B27F"/>
<path d="M396.058 34.4023H392.129V37.9896H396.058V34.4023Z" fill="#C2B27F"/>
<path d="M427.212 33.123H420.195V39.5288H427.212V33.123Z" fill="#C2B27F"/>
<path d="M456.963 32.8652H449.666V39.5273H456.963V32.8652Z" fill="#C2B27F"/>
<path d="M486.714 32.8652H478.855V40.0397H486.714V32.8652Z" fill="#C2B27F"/>
<path d="M515.062 33.8906H510.01V38.5028H515.062V33.8906Z" fill="#C2B27F"/>
<path d="M544.531 33.8906H539.479V38.5028H544.531V33.8906Z" fill="#C2B27F"/>
<path d="M574.001 33.8906H568.949V38.5028H574.001V33.8906Z" fill="#C2B27F"/>
<path d="M603.472 33.8906H598.42V38.5028H603.472V33.8906Z" fill="#C2B27F"/>
<path d="M635.467 31.5859H625.363V40.8103H635.467V31.5859Z" fill="#C2B27F"/>
<path d="M664.657 32.0977H655.395V40.5533H664.657V32.0977Z" fill="#C2B27F"/>
<path d="M729.211 27.2285H709.283V45.421H729.211V27.2285Z" fill="#C2B27F"/>
<path d="M247.867 61.8203H245.061V64.3826H247.867V61.8203Z" fill="#C2B27F"/>
<path d="M277.336 61.8203H274.529V64.3826H277.336V61.8203Z" fill="#C2B27F"/>
<path d="M306.807 61.8203H304V64.3826H306.807V61.8203Z" fill="#C2B27F"/>
<path d="M336.838 61.5645H333.189V64.8955H336.838V61.5645Z" fill="#C2B27F"/>
<path d="M368.833 59.2598H360.133V67.203H368.833V59.2598Z" fill="#C2B27F"/>
<path d="M401.39 56.6973H387.076V69.7651H401.39V56.6973Z" fill="#C2B27F"/>
<path d="M428.054 59.2598H419.354V67.203H428.054V59.2598Z" fill="#C2B27F"/>
<path d="M457.524 59.5137H449.104V67.2006H457.524V59.5137Z" fill="#C2B27F"/>
<path d="M485.591 60.5391H479.697V65.9199H485.591V60.5391Z" fill="#C2B27F"/>
<path d="M520.113 56.4395H504.957V70.276H520.113V56.4395Z" fill="#C2B27F"/>
<path d="M548.461 57.209H535.27V69.2519H548.461V57.209Z" fill="#C2B27F"/>
<path d="M578.211 57.209H565.02V69.2519H578.211V57.209Z" fill="#C2B27F"/>
<path d="M607.962 56.9512H594.209V69.5065H607.962V56.9512Z" fill="#C2B27F"/>
<path d="M637.712 56.6973H623.398V69.7651H637.712V56.6973Z" fill="#C2B27F"/>
<path d="M672.515 51.8281H647.535V74.6328H672.515V51.8281Z" fill="#C2B27F"/>
<path d="M696.091 57.4648H683.461V68.9953H696.091V57.4648Z" fill="#C2B27F"/>
<path d="M724.157 58.7461H714.334V67.7142H724.157V58.7461Z" fill="#C2B27F"/>
<path d="M248.428 88.7246H244.779V92.0556H248.428V88.7246Z" fill="#C2B27F"/>
<path d="M277.336 88.9824H274.529V91.5447H277.336V88.9824Z" fill="#C2B27F"/>
<path d="M306.807 88.9824H304V91.5447H306.807V88.9824Z" fill="#C2B27F"/>
<path d="M336.838 88.7246H333.189V92.0556H336.838V88.7246Z" fill="#C2B27F"/>
<path d="M368.834 86.4199H360.414V94.1069H368.834V86.4199Z" fill="#C2B27F"/>
<path d="M400.55 84.625H387.92V96.1554H400.55V84.625Z" fill="#C2B27F"/>
<path d="M431.422 83.3438H416.266V97.1803H431.422V83.3438Z" fill="#C2B27F"/>
<path d="M462.016 82.0625H444.334V98.2051H462.016V82.0625Z" fill="#C2B27F"/>
<path d="M493.45 80.5254H472.119V99.999H493.45V80.5254Z" fill="#C2B27F"/>
<path d="M521.236 82.0625H503.273V98.4613H521.236V82.0625Z" fill="#C2B27F"/>
<path d="M550.706 82.3184H533.305V98.2047H550.706V82.3184Z" fill="#C2B27F"/>
<path d="M575.124 86.9316H567.826V93.5937H575.124V86.9316Z" fill="#C2B27F"/>
<path d="M604.313 87.4453H597.857V93.3387H604.313V87.4453Z" fill="#C2B27F"/>
<path d="M634.063 86.9316H626.766V93.5937H634.063V86.9316Z" fill="#C2B27F"/>
<path d="M664.657 86.1621H655.395V94.6178H664.657V86.1621Z" fill="#C2B27F"/>
<path d="M691.601 88.2129H687.391V92.0564H691.601V88.2129Z" fill="#C2B27F"/>
<path d="M721.352 88.2129H716.861V92.3126H721.352V88.2129Z" fill="#C2B27F"/>
<path d="M438.159 104.1H409.25V130.492H438.159V104.1Z" fill="#C2B27F"/>
</svg>
