<svg width="46" height="47" viewBox="0 0 46 47" fill="none" xmlns="http://www.w3.org/2000/svg">
<path d="M1.09895e-06 23.04C-0.0038846 10.3735 10.2971 0 22.8829 0C35.5619 0 45.859 10.3304 45.8551 23.0517C45.8512 35.8199 35.5736 46.1699 22.8906 46.1738C10.2621 46.1777 0.00777249 35.8121 1.09895e-06 23.04ZM22.9178 1.66304C11.288 1.61217 1.70971 11.2226 1.64754 23.0047C1.58925 34.7986 11.1248 44.4756 22.8518 44.5147C34.5749 44.5577 44.1609 34.9669 44.2037 23.1534C44.2464 11.34 34.7109 1.71391 22.9178 1.66304Z" fill="black"/>
<path d="M22.9091 42.2678C12.3556 42.256 3.85365 33.6747 3.87308 23.0626C3.89251 12.4504 12.41 3.88087 22.9052 3.90435C33.4976 3.93174 41.9918 12.5013 41.9723 23.1408C41.9529 33.7295 33.4316 42.2795 22.9091 42.2678ZM39.8507 26.9169C40.2665 25.5669 40.3831 23.6691 40.2549 21.5756C40.2277 21.1139 40.0645 20.93 39.6409 20.8165C36.9481 20.1004 34.2281 19.9595 31.4848 20.4291C30.4551 20.6052 29.4487 20.9143 28.3374 21.1882C28.6094 21.5756 28.318 22.0961 28.9436 22.1704C32.7166 22.6243 36.1088 24.0174 39.1202 26.3534C39.3573 26.5373 39.5982 26.7213 39.8469 26.9169H39.8507ZM17.5546 25.0152C17.2166 24.5926 17.5158 24.0721 16.8746 23.9939C12.9384 23.5204 9.42574 22.0217 6.3405 19.5174C6.22781 19.4274 6.10347 19.3452 5.9597 19.2395C5.52451 21.1374 5.39239 22.996 5.6333 24.8704C5.65273 25.023 5.87422 25.2187 6.03742 25.2656C8.52038 26.013 11.0616 26.193 13.6223 25.8447C14.8929 25.6726 16.1402 25.3204 17.5546 25.0152ZM9.42185 34.1091C10.5604 35.5256 11.9009 36.723 13.4125 37.7443C13.7117 37.9438 13.8982 37.9204 14.1702 37.7208C16.9834 35.643 19.0934 33.0056 20.4728 29.7773C20.6399 29.39 20.7797 28.9908 20.9274 28.6073C20.4274 28.2839 19.991 28.3008 19.6179 28.6582C17.7722 30.423 15.6973 31.8512 13.3231 32.7865C12.0602 33.2834 10.7547 33.663 9.42574 34.1091H9.42185ZM23.5231 28.8617C23.0762 28.9439 22.6449 28.67 22.4234 29.296C21.11 33.0095 18.8913 36.0773 15.8294 38.5308C15.705 38.6286 15.5923 38.7421 15.4602 38.8595C16.7309 39.5678 18.7747 40.1704 20.5039 40.4482C20.9935 40.5265 21.1877 40.3934 21.3976 39.9865C22.8081 37.263 23.5619 34.3752 23.6124 31.3034C23.628 30.5052 23.5541 29.703 23.5192 28.8656L23.5231 28.8617ZM30.3191 7.24999C28.7532 6.49086 27.0862 6.00565 25.3416 5.72391C24.852 5.64565 24.6577 5.77869 24.444 6.18565C23.0296 8.90912 22.2796 11.8009 22.2291 14.8687C22.2136 15.6669 22.2874 16.4691 22.3185 17.2595C22.9247 17.3143 23.3223 17.0874 23.5114 16.5787C24.3585 14.3091 25.5358 12.2235 27.1484 10.4235C28.1354 9.31999 29.2389 8.32216 30.3152 7.24608L30.3191 7.24999ZM15.3514 7.42608C15.2815 7.41825 15.2426 7.4026 15.2154 7.41434C13.5252 8.22825 12.0292 9.31999 10.7003 10.6465C10.6187 10.7287 10.6031 10.9674 10.6575 11.0848C11.0072 11.8439 11.3492 12.6148 11.761 13.3387C13.3076 16.0504 15.4097 18.2339 18.0598 19.9204C18.1686 19.7834 18.2618 19.6661 18.3551 19.5487C18.4444 19.4313 18.5299 19.31 18.6193 19.1926C16.3462 15.5808 15.2698 11.66 15.3475 7.42608H15.3514ZM24.918 17.5726C25.4206 17.8882 25.8571 17.8674 26.2275 17.51C28.8115 15.0369 31.819 13.3387 35.2734 12.4426C35.6581 12.3448 36.0389 12.243 36.4741 12.1335C35.2501 10.6035 33.8707 9.36303 32.2853 8.36129C32.1648 8.28695 31.8812 8.31825 31.7646 8.41608C30.8942 9.13216 30.0005 9.82477 29.2078 10.623C27.2494 12.5913 25.8467 14.9195 24.9141 17.5726H24.918ZM25.9477 28.0752C24.9608 28.5408 25.1162 28.306 25.1978 29.2334C25.5242 33.0526 24.8325 36.676 23.1811 40.1195C23.1112 40.2682 23.0451 40.4169 22.9519 40.6204C24.918 40.593 26.7559 40.2799 28.5356 39.646C28.6599 39.603 28.7959 39.3682 28.7921 39.2273C28.7687 38.0104 28.7921 36.7856 28.6483 35.5804C28.3258 32.8882 27.3932 30.3995 25.9477 28.0713V28.0752ZM9.32083 12.1961C8.13958 13.6948 7.28472 15.2639 6.63193 16.9543C6.48816 17.3261 6.5581 17.5335 6.84564 17.7839C8.88563 19.5565 11.1743 20.8752 13.7583 21.6382C14.8735 21.9669 16.0237 22.1743 17.1738 22.4365L17.372 21.4582C13.7738 19.2004 11.1083 16.1365 9.31695 12.1961H9.32083ZM19.9055 18.093C20.7292 17.7604 20.737 17.7565 20.6671 17.0052C20.3601 13.8395 20.8031 10.7795 21.9183 7.81347C22.198 7.06608 22.5439 6.34217 22.878 5.55565C20.9313 5.59086 19.0778 5.88434 17.2904 6.54956C17.1738 6.5926 17.0689 6.8313 17.0573 6.98782C16.9174 8.7839 17.1117 10.5526 17.508 12.3017C17.9782 14.3717 18.7825 16.3048 19.9094 18.0969L19.9055 18.093ZM39.8119 19.0478C39.8002 19.0791 39.8235 19.0478 39.8197 19.0165C39.8119 18.9304 39.7963 18.8482 39.7769 18.7661C39.3534 17.0952 38.6889 15.53 37.8185 14.043C37.6398 13.7339 37.4455 13.6635 37.1191 13.7261C34.5623 14.2113 32.1882 15.1426 30.0199 16.5943C28.9591 17.3026 27.9605 18.093 27.0901 19.0243C27.6108 19.7326 27.6069 19.7287 28.3685 19.49C30.7932 18.7191 33.2761 18.3395 35.8174 18.5508C37.1463 18.6604 38.4674 18.8795 39.8119 19.0517V19.0478ZM27.2261 26.9678C29.4993 30.5678 30.5834 34.5004 30.5018 38.7695C30.5989 38.7578 30.6533 38.7617 30.6961 38.7421C32.3397 37.9165 33.824 36.8599 35.1219 35.553C35.219 35.4552 35.2306 35.1773 35.1685 35.0325C34.4496 33.256 33.4704 31.6399 32.2503 30.1686C30.9758 28.6308 29.4993 27.3278 27.7818 26.2556L27.2261 26.9717V26.9678ZM28.4734 24.71C32.0988 26.9717 34.7566 30.0552 36.5363 33.976C37.7214 32.4617 38.5879 30.8847 39.2329 29.1747C39.3573 28.8421 39.299 28.6543 39.0425 28.4313C36.9986 26.6391 34.6944 25.3087 32.091 24.5417C30.9758 24.213 29.8257 24.0056 28.6794 23.7434L28.4695 24.7139L28.4734 24.71ZM6.0141 27.1282C6.43764 28.9713 7.14872 30.7008 8.16678 32.2973C8.2406 32.4147 8.52037 32.4734 8.68746 32.4421C10.6614 32.086 12.5421 31.4521 14.314 30.4973C15.9615 29.6091 17.4497 28.5095 18.7592 27.1713C18.2735 26.4356 18.2774 26.4434 17.5119 26.6821C15.0639 27.4452 12.5693 27.8521 10.0047 27.6291C8.68746 27.5156 7.38187 27.3043 6.0141 27.1282ZM18.8252 23.0782C18.8252 25.3673 20.6399 27.2143 22.8936 27.2221C25.1939 27.226 27.0279 25.3987 27.0318 23.0939C27.0396 20.793 25.2017 18.95 22.9091 18.9539C20.6476 18.9578 18.8252 20.7969 18.8214 23.0782H18.8252Z" fill="black"/>
<path d="M20.0234 23.1173C20.0234 21.7868 20.8433 20.5621 22.0401 20.116C23.1825 19.6895 24.4259 20.0025 25.2031 20.9103C26.1279 21.9942 25.9958 23.4773 24.9078 24.1934C24.4415 24.5025 23.9713 24.4477 23.6838 24.0564C23.4157 23.6925 23.4778 23.2229 23.8936 22.8825C24.286 22.5616 24.1889 22.276 23.9169 21.9707C23.5439 21.556 22.8755 21.4855 22.3743 21.8025C21.8031 22.1625 21.5311 22.949 21.7642 23.5555C21.9935 24.1503 22.4598 24.4555 23.0465 24.6277C23.4545 24.749 23.7226 25.0738 23.6099 25.4768C23.5322 25.7586 23.233 25.9855 23.0038 26.2047C22.9416 26.2673 22.7745 26.2438 22.6618 26.2242C21.228 25.9934 20.0273 24.5768 20.0234 23.1134V23.1173Z" fill="black"/>
</svg>
