<svg width="41" height="36" viewBox="0 0 41 36" fill="none" xmlns="http://www.w3.org/2000/svg">
<g clip-path="url(#clip0_97_1034)">
<path d="M0 0.888097C0.265864 0.211714 0.772271 -0.00637154 1.48441 -5.02025e-05C4.00695 0.0252351 6.52949 0.0094318 9.05203 0.0094318C9.15964 0.0094318 9.26725 0.00311046 9.3717 0.0094318C9.73252 0.0347171 9.97622 0.293892 9.96356 0.632083C9.9509 0.957632 9.71352 1.19468 9.36537 1.201C8.83048 1.21049 8.29875 1.20416 7.76386 1.20416C5.73506 1.20416 3.70627 1.20416 1.67747 1.20416H1.22487V9.91496H14.8852V1.20732C13.9199 1.20732 12.9767 1.21049 12.0335 1.20732C11.5556 1.20732 11.2486 0.831205 11.3973 0.42664C11.5049 0.129537 11.736 0.00627113 12.0557 0.0094318C13.002 0.0189138 13.9515 0.0094318 14.8979 0.0125925C15.629 0.0157531 16.0974 0.458247 16.1322 1.19468C16.1512 1.60557 16.1354 2.01962 16.1354 2.49056C16.7178 2.49056 17.2717 2.49056 17.8255 2.49056C18.4142 2.49056 18.6168 2.69284 18.6263 3.28072C18.6295 3.53358 18.6263 3.78643 18.6263 4.09934C18.7909 4.09934 18.9333 4.09934 19.0726 4.09934C20.3417 4.09934 21.6078 4.09934 22.8769 4.09934C24.7981 4.1025 26.0831 5.38889 26.0895 7.31057C26.0926 8.9636 26.0895 10.6166 26.0958 12.2697C26.0958 12.2949 26.1053 12.3202 26.1243 12.4119H26.5294C27.729 12.4119 28.9317 12.4119 30.1312 12.4119C30.8782 12.4119 31.0586 12.592 31.0618 13.3222C31.0618 13.8279 31.0618 14.3304 31.0618 14.8993C31.239 14.8993 31.3909 14.8993 31.546 14.8993C33.3881 14.8993 35.2301 14.8899 37.0722 14.8993C39.0915 14.9151 40.5917 16.1668 40.9557 18.1264C40.9968 18.3476 40.9968 18.5752 40.9968 18.8028C40.9968 21.5747 41 24.3466 40.9968 27.1185C40.9968 29.372 39.3415 31.0187 37.0785 31.0251C35.5308 31.0282 33.9831 31.0282 32.4354 31.0314C32.4101 31.0314 32.3847 31.044 32.3278 31.0598V32.302C33.2678 32.302 34.1857 32.302 35.1004 32.302C35.8916 32.302 36.0309 32.441 36.0309 33.228C36.0309 33.8949 36.0309 34.5618 36.0309 35.2287C36.0309 35.7755 35.8252 35.9873 35.2903 35.9873C29.6723 35.9873 24.0543 35.9873 18.4364 35.9873C17.9711 35.9873 17.7021 35.7629 17.7021 35.3868C17.7021 35.0138 17.9711 34.7926 18.4364 34.7926C23.722 34.7926 29.0045 34.7926 34.2901 34.7926H34.7965V33.5315H3.71576V34.7926H4.18736C7.96325 34.7926 11.7392 34.7894 15.5182 34.8021C15.7429 34.8021 16.031 34.9032 16.1765 35.0612C16.4677 35.3805 16.2304 35.902 15.8031 35.9778C15.686 35.9968 15.5625 35.9873 15.4423 35.9873C11.4132 35.9873 7.38089 35.9873 3.35178 35.9873C2.64914 35.9873 2.48773 35.8261 2.48773 35.115C2.48773 34.4228 2.48773 33.7274 2.48773 33.0352C2.48773 32.5106 2.68712 32.3051 3.20619 32.302C3.7759 32.2956 4.34877 32.302 4.9438 32.302V31.0251C4.58615 31.0251 4.21901 31.0251 3.85186 31.0251C2.93083 31.0251 2.48773 30.5762 2.48773 29.647C2.48773 26.9541 2.48773 24.2612 2.48773 21.5715C2.48773 21.4293 2.48773 21.2839 2.48773 21.0942C1.92118 21.0942 1.39262 21.0784 0.864057 21.1006C0.500077 21.1132 0.215223 21.0089 0.00316505 20.715V16.5555C0.180408 16.2426 0.443106 16.1352 0.803922 16.151C1.3578 16.1762 1.91802 16.1573 2.46557 16.1573C2.58268 15.2755 3.00679 14.9025 3.86136 14.8962C4.43106 14.893 4.99761 14.8962 5.60213 14.8962V13.692C5.52301 13.6604 5.50085 13.6414 5.47553 13.6414C5.16852 13.6351 4.86151 13.6319 4.55767 13.6287C3.912 13.6193 3.72842 13.4391 3.72209 12.788C3.71893 12.257 3.72209 11.726 3.72209 11.1476C2.97514 11.1476 2.26934 11.1192 1.5667 11.1571C0.854562 11.195 0.322835 10.9706 0.00316505 10.3164V0.888097H0ZM36.0309 29.8082C36.5246 29.8082 36.9677 29.8461 37.3982 29.8019C38.8351 29.6502 39.791 28.585 39.7973 27.1374C39.8068 24.3655 39.8004 21.5936 39.7973 18.8217C39.7973 18.1295 39.5852 17.5132 39.1231 16.9917C38.2844 16.0435 37.1798 16.0909 36.0277 16.1668C36.0277 16.3343 36.0277 16.4797 36.0277 16.6219C36.0277 17.3678 36.034 18.1137 36.0246 18.8596C36.0182 19.2263 35.7587 19.4728 35.4232 19.4728C35.0814 19.4728 34.8503 19.2358 34.8282 18.8565C34.8187 18.7111 34.825 18.5625 34.825 18.4172C34.825 17.6744 34.825 16.9316 34.825 16.1731H18.6611V29.7924H34.8282V29.3278C34.8282 26.834 34.8282 24.3434 34.8282 21.8496C34.8282 21.7169 34.825 21.581 34.8345 21.4514C34.863 21.1037 35.0782 20.9141 35.4074 20.8983C35.7429 20.8856 35.9549 21.0816 36.0214 21.4103C36.0435 21.5273 36.0309 21.6505 36.0309 21.7706C36.0309 24.0495 36.0309 26.3283 36.0309 28.6071V29.805V29.8082ZM12.407 16.1731H3.70943V29.7987H12.407V16.1731ZM16.1386 7.437C16.1386 7.63612 16.1386 7.78151 16.1386 7.92374C16.1386 8.5622 16.1449 9.20381 16.1386 9.84227C16.1259 10.6956 15.6765 11.1381 14.8219 11.1539C14.4738 11.1603 14.1288 11.1539 13.7806 11.1539C13.3312 11.1539 12.8817 11.1539 12.4101 11.1539C12.4101 11.7576 12.4101 12.3044 12.4101 12.8481C12.4101 13.4138 12.2044 13.6193 11.6442 13.6287C11.2897 13.6351 10.9384 13.6287 10.5871 13.6287V14.8962C10.7643 14.8962 10.9099 14.8962 11.0555 14.8962C12.3089 14.8962 13.5654 14.8867 14.8187 14.8899C15.5752 14.8899 15.9835 15.2312 16.1322 15.9613C16.1449 16.0245 16.1702 16.0846 16.1892 16.1446H17.3571C17.6736 15.0795 17.9237 14.8962 19.0409 14.8962C19.3163 14.8962 19.5885 14.8962 19.8891 14.8962C19.8891 14.3431 19.8891 13.85 19.8891 13.3601C19.8891 12.5857 20.0632 12.4087 20.8228 12.4087C22.0224 12.4087 23.2251 12.4087 24.4247 12.4087C24.5639 12.4087 24.7063 12.4087 24.8678 12.4087C24.8678 10.6261 24.8804 8.90671 24.8646 7.18731C24.8551 6.01786 24.124 5.32883 22.9339 5.32251C21.6394 5.31619 20.3449 5.32251 19.0504 5.32251C18.9238 5.32251 18.794 5.33832 18.6358 5.3478C18.6358 5.80926 18.6421 6.23278 18.6358 6.65631C18.6263 7.20943 18.4047 7.4212 17.8445 7.42436C17.3001 7.42752 16.7558 7.42436 16.1449 7.42436L16.1386 7.437ZM13.6825 16.1162V29.8082H14.8852V16.1383C14.7428 16.1288 14.6257 16.1194 14.5054 16.1194C14.2395 16.1194 13.9768 16.1194 13.6825 16.1194V16.1162ZM17.3508 29.7829C17.0343 29.7829 16.7273 29.7608 16.4234 29.7956C16.3126 29.8082 16.1512 29.9409 16.1227 30.0484C15.9328 30.709 15.5435 31.0345 14.8567 31.0345C13.8028 31.0377 12.7488 31.0345 11.6948 31.0345C11.5271 31.0345 11.3593 31.0345 11.1821 31.0345V32.283H21.4432V31.0345C20.6013 31.0345 19.7752 31.0345 18.9523 31.0345C17.9268 31.0345 17.6483 30.8228 17.3508 29.7829ZM17.3698 28.5503V17.3899H16.1702V28.5534H17.3698V28.5503ZM29.8306 13.6604H21.1457V14.8709H29.8306V13.6604ZM31.0491 32.2925V31.063H22.687V32.2925H31.0491ZM11.1758 11.1887H4.98178V12.3898H11.1758V11.1887ZM9.91609 32.2893V31.063H6.19716V32.2893H9.91609ZM6.81751 14.8804H9.28941V13.6698H6.81751V14.8804ZM1.21538 19.8489H2.45608V17.3931H1.21538V19.8489ZM17.3761 3.72006H16.1417C16.1417 4.50706 16.1386 5.2751 16.1481 6.03998C16.1481 6.10004 16.2493 6.21066 16.3095 6.21066C16.6608 6.22646 17.0153 6.22014 17.3761 6.22014V3.72006Z" fill="black"/>
<path d="M6.80783 8.6705C5.80767 8.6705 4.80752 8.67682 3.8042 8.6705C2.92748 8.66418 2.48754 8.21221 2.48438 7.33038C2.48438 6.14513 2.48438 4.95672 2.48438 3.77147C2.48438 2.97182 2.9528 2.49772 3.74723 2.49456C5.78868 2.4914 7.83014 2.4914 9.87159 2.49456C10.6755 2.49456 11.1408 2.94969 11.1471 3.75566C11.1566 4.96936 11.1566 6.18306 11.1471 7.39359C11.1408 8.22169 10.6913 8.66102 9.84627 8.6705C8.83346 8.67998 7.81748 8.6705 6.80466 8.6705H6.80783ZM9.92223 3.73038H3.70925V7.43152H9.91907V3.73038H9.92223Z" fill="black"/>
<path d="M13.0461 6.17374C12.7075 6.1769 12.4258 5.90824 12.4258 5.57953C12.4258 5.25714 12.7201 4.96952 13.043 4.97268C13.3563 4.97584 13.6222 5.23818 13.6317 5.55741C13.6412 5.90824 13.3943 6.16741 13.0461 6.17374Z" fill="black"/>
<path d="M13.0532 3.68887C12.7146 3.69519 12.4329 3.4297 12.4297 3.10099C12.4265 2.7786 12.7146 2.49414 13.0437 2.49414C13.3634 2.49414 13.6229 2.75015 13.6356 3.06938C13.6483 3.41706 13.4014 3.68255 13.0532 3.68887Z" fill="black"/>
<path d="M26.6937 18.6233C24.7884 18.6233 22.883 18.6233 20.9745 18.6233C20.8954 18.6233 20.8131 18.6233 20.734 18.6233C20.1896 18.617 19.8794 18.3831 19.8889 17.988C19.8984 17.6056 20.1959 17.3906 20.7213 17.3906C24.7187 17.3906 28.7194 17.3906 32.7168 17.3906C33.2422 17.3906 33.5366 17.6119 33.5397 17.9975C33.5429 18.3831 33.2454 18.6201 32.7263 18.6201C30.7133 18.6233 28.7004 18.6201 26.6874 18.6201L26.6937 18.6233Z" fill="black"/>
<path d="M26.6659 21.1032C24.6941 21.1032 22.7191 21.1095 20.7473 21.0969C20.5321 21.0969 20.282 21.0495 20.1143 20.9294C19.7471 20.667 19.8579 20.0823 20.2852 19.9338C20.4435 19.88 20.627 19.8705 20.7979 19.8705C24.7416 19.8674 28.6884 19.8705 32.632 19.8705C32.6858 19.8705 32.7397 19.8705 32.7935 19.8705C33.2556 19.8895 33.5372 20.1139 33.5467 20.4742C33.5562 20.8504 33.2651 21.1032 32.784 21.1032C30.7457 21.1064 28.7042 21.1032 26.6659 21.1032Z" fill="black"/>
<path d="M26.7482 23.588C24.7479 23.588 22.7508 23.588 20.7504 23.588C20.5922 23.588 20.3865 23.607 20.2915 23.5185C20.1238 23.3636 19.9117 23.1266 19.9244 22.937C19.937 22.7473 20.1776 22.545 20.3643 22.4091C20.4751 22.3301 20.6745 22.3617 20.8327 22.3617C24.7511 22.3617 28.6694 22.3617 32.5877 22.3617C32.6415 22.3617 32.6953 22.3617 32.7491 22.3617C33.2619 22.3744 33.5625 22.6146 33.5467 22.997C33.5309 23.3731 33.246 23.588 32.746 23.588C31.04 23.588 29.3341 23.588 27.6281 23.588C27.3337 23.588 27.0426 23.588 26.7482 23.588Z" fill="black"/>
<path d="M26.7069 28.5535C24.7193 28.5535 22.7285 28.5535 20.7408 28.5535C20.5826 28.5535 20.3737 28.5725 20.2819 28.484C20.1141 28.326 19.9369 28.1016 19.9147 27.8898C19.8863 27.6117 20.092 27.3967 20.4053 27.3588C20.5383 27.343 20.6712 27.3398 20.8041 27.3398C24.7414 27.3398 28.6788 27.3398 32.6161 27.3398C33.2491 27.3398 33.5561 27.5453 33.5434 27.9562C33.5339 28.3671 33.2364 28.5535 32.5907 28.5535C30.6284 28.5535 28.6661 28.5535 26.7038 28.5535H26.7069Z" fill="black"/>
<path d="M26.6876 26.0701C24.6999 26.0701 22.7091 26.0701 20.7215 26.0701C20.5664 26.0701 20.3512 26.0827 20.2657 25.9942C20.1043 25.8299 19.9112 25.5833 19.9334 25.3937C19.9555 25.2072 20.2087 25.0239 20.3955 24.888C20.4841 24.8216 20.655 24.8532 20.7879 24.8532C24.7379 24.8532 28.6879 24.8532 32.641 24.8532C32.7075 24.8532 32.774 24.8532 32.8404 24.8532C33.2741 24.8753 33.5431 25.1029 33.5494 25.4538C33.5526 25.8235 33.2709 26.0701 32.8183 26.0732C30.7768 26.0764 28.7354 26.0732 26.6908 26.0732L26.6876 26.0701Z" fill="black"/>
<path d="M5.57108 18.614C5.24508 18.6108 4.96339 18.3169 4.97289 17.9882C4.98238 17.6595 5.27673 17.3813 5.60273 17.3971C5.92557 17.4129 6.16928 17.6721 6.17244 17.9977C6.17244 18.339 5.90658 18.614 5.57425 18.6108L5.57108 18.614Z" fill="black"/>
<path d="M5.58987 28.5497C5.26387 28.5592 4.97585 28.2779 4.97269 27.9492C4.96952 27.63 5.21956 27.3677 5.54239 27.3487C5.89371 27.3297 6.15958 27.5731 6.17224 27.9176C6.18173 28.2558 5.9222 28.5403 5.59303 28.5497H5.58987Z" fill="black"/>
<path d="M11.1441 27.9346C11.1473 28.2728 10.8751 28.5541 10.5491 28.5509C10.2263 28.5509 9.93827 28.257 9.94143 27.9346C9.9446 27.6249 10.2105 27.3594 10.527 27.3499C10.8783 27.3404 11.1378 27.5869 11.1441 27.9346Z" fill="black"/>
<path d="M11.1445 18.0036C11.1445 18.3449 10.8723 18.6199 10.54 18.6104C10.2172 18.6041 9.92915 18.3007 9.94181 17.9846C9.95447 17.678 10.233 17.403 10.54 17.3967C10.8723 17.3872 11.1445 17.6622 11.1445 18.0036Z" fill="black"/>
<path d="M6.17224 6.1758C5.96018 6.1758 5.74496 6.18844 5.5329 6.17264C5.18791 6.14735 4.99485 5.93875 4.97586 5.60688C4.95687 5.26552 5.15626 5.02215 5.48226 4.99371C5.95702 4.95262 6.44444 4.95262 6.91919 4.99371C7.24519 5.02531 7.44143 5.28133 7.41927 5.6132C7.39712 5.93559 7.20088 6.15367 6.84956 6.17264C6.62484 6.18212 6.39696 6.17264 6.16908 6.17264L6.17224 6.1758Z" fill="black"/>
</g>
<defs>
<clipPath id="clip0_97_1034">
<rect width="41" height="36" fill="white"/>
</clipPath>
</defs>
</svg>
