<svg width="183" height="183" viewBox="0 0 183 183" fill="none" xmlns="http://www.w3.org/2000/svg">
<circle cx="91.0458" cy="91.8818" r="91.04" fill="white"/>
<path d="M49.5711 118.379C49.7447 118.365 49.9137 118.337 50.0873 118.337C53.5411 118.337 56.9996 118.337 60.4534 118.337C60.6036 118.337 60.7584 118.356 60.8804 118.36C60.5895 119.247 60.2375 120.097 60.0498 120.979C59.8715 121.8 59.8199 122.654 59.8011 123.494C59.7683 125.343 59.7777 127.192 59.8011 129.041C59.8058 129.477 59.7073 129.637 59.2333 129.637C57.5721 129.637 55.9109 129.651 54.3623 128.914C51.7673 127.675 50.1765 125.662 49.6696 122.814C49.6509 122.715 49.6039 122.626 49.5664 122.527V118.379H49.5711Z" fill="#777100"/>
<path d="M80.5184 72.6352C75.0937 72.6352 69.669 72.6352 64.2443 72.6352C63.118 72.6352 62.8881 72.3631 62.8458 71.2227C62.7426 68.135 63.3057 65.1973 64.8637 62.5131C67.5385 57.8955 71.5085 55.0612 76.8347 54.423C80.0351 54.0382 83.3106 53.888 86.45 54.85C92.8695 56.8162 96.7504 61.157 97.9752 67.7736C98.2051 69.0172 98.1488 70.317 98.191 71.5935C98.2098 72.2363 97.8062 72.6211 97.1586 72.6305C96.3656 72.6446 95.5678 72.6305 94.7748 72.6305C90.0258 72.6305 85.2721 72.6305 80.5231 72.6305L80.5184 72.6352Z" fill="#777100"/>
<path d="M61.7203 129.581C61.7203 129.374 61.7203 129.205 61.7203 129.036C61.7203 127.155 61.7203 125.268 61.7203 123.386C61.7297 118.905 64.7518 115.334 69.1676 114.588C69.6416 114.508 70.1296 114.499 70.6129 114.499C77.2155 114.494 83.8181 114.531 90.416 114.48C94.7051 114.447 98.2715 117.624 99.0364 121.082C99.1772 121.721 99.2899 122.378 99.3039 123.025C99.3368 125.099 99.318 127.173 99.318 129.248C99.318 129.346 99.2992 129.449 99.2852 129.585H61.7109L61.7203 129.581Z" fill="#777100"/>
<path d="M102.26 90.5748C101.594 90.5748 100.885 90.5748 100.182 90.5748C99.06 90.5701 98.2716 89.838 98.2434 88.7165C98.2106 87.4401 98.2106 86.159 98.2434 84.8826C98.2716 83.7657 99.0694 83.043 100.191 83.0336C100.881 83.0336 101.571 83.0336 102.274 83.0336C102.664 82.1092 103.049 81.1941 103.509 80.1054C103.058 79.6972 102.514 79.242 102.021 78.7399C101.101 77.8107 101.125 76.8159 102.049 75.882C102.866 75.0608 103.682 74.2396 104.503 73.4278C105.39 72.5549 106.39 72.5502 107.291 73.409C107.713 73.8126 108.145 74.2161 108.553 74.6385C108.746 74.8402 108.901 74.8872 109.177 74.7558C109.863 74.432 110.566 74.1457 111.27 73.8736C111.514 73.7797 111.622 73.6624 111.613 73.3902C111.594 72.8036 111.603 72.217 111.613 71.6258C111.627 70.4479 112.382 69.6642 113.551 69.6548C114.776 69.6408 116.005 69.6408 117.23 69.6548C118.403 69.6689 119.145 70.4385 119.149 71.6258C119.149 72.3156 119.149 73.0054 119.149 73.6671C120.05 74.0613 120.914 74.4461 121.787 74.798C121.899 74.8449 122.115 74.7558 122.218 74.6572C122.673 74.2349 123.101 73.7797 123.546 73.348C124.349 72.5784 125.386 72.5596 126.184 73.3292C127.089 74.2067 127.981 75.0983 128.858 76.004C129.628 76.8018 129.614 77.8342 128.844 78.646C128.417 79.0965 127.986 79.547 127.54 79.9834C127.357 80.1617 127.305 80.3072 127.422 80.5653C127.751 81.2645 128.056 81.9778 128.328 82.7052C128.427 82.9726 128.563 83.0383 128.816 83.0336C129.436 83.0196 130.06 83.0196 130.684 83.0336C131.73 83.0524 132.509 83.8314 132.519 84.8779C132.528 86.1543 132.528 87.4354 132.519 88.7118C132.509 89.7864 131.73 90.556 130.646 90.5701C130.022 90.5748 129.403 90.5513 128.783 90.5842C128.633 90.5935 128.427 90.7531 128.361 90.8939C128.033 91.6119 127.723 92.3439 127.451 93.0854C127.394 93.2402 127.451 93.5171 127.563 93.6391C127.976 94.1037 128.436 94.5213 128.868 94.9718C129.614 95.7555 129.628 96.7926 128.877 97.5715C127.99 98.4913 127.085 99.397 126.165 100.284C125.386 101.035 124.358 101.016 123.565 100.265C123.115 99.8381 122.697 99.3688 122.232 98.9606C122.11 98.8526 121.829 98.8057 121.669 98.8667C120.928 99.1389 120.196 99.4439 119.473 99.7724C119.332 99.8381 119.173 100.045 119.168 100.195C119.135 100.833 119.159 101.471 119.149 102.114C119.135 103.128 118.417 103.911 117.413 103.935C116.066 103.963 114.719 103.968 113.373 103.935C112.368 103.911 111.65 103.142 111.618 102.114C111.599 101.495 111.599 100.87 111.618 100.246C111.627 99.9648 111.547 99.8193 111.266 99.7161C110.571 99.458 109.886 99.1764 109.22 98.862C108.933 98.7259 108.76 98.7541 108.549 98.9747C108.117 99.4205 107.671 99.8569 107.211 100.279C106.409 101.025 105.404 101.03 104.616 100.275C103.706 99.4017 102.819 98.5054 101.941 97.5997C101.148 96.7785 101.167 95.7602 101.974 94.9296C102.406 94.4838 102.861 94.0567 103.283 93.6015C103.373 93.503 103.434 93.2871 103.387 93.1745C103.039 92.3158 102.659 91.4664 102.274 90.5748H102.26ZM115.405 77.3508C110.135 77.3602 105.935 81.5789 105.944 86.8488C105.954 92.0717 110.219 96.3045 115.428 96.2717C120.637 96.2388 124.865 92.0013 124.851 86.8253C124.842 81.593 120.599 77.3414 115.405 77.3508Z" fill="#777100"/>
<path d="M64.9877 78.126C66.8695 79.698 68.9249 80.1579 71.182 80.1391C77.5031 80.0969 83.8288 80.1063 90.1498 80.1391C92.285 80.1485 94.209 79.6417 95.8796 78.2808C95.903 78.2621 95.9453 78.2668 96.0532 78.248C96.0532 79.149 96.0485 80.0359 96.0532 80.9228C96.0954 87.4315 91.5576 92.7765 85.6542 94.1421C84.7345 94.3532 83.7818 94.4846 82.8386 94.4987C80.9428 94.5316 79.0188 94.6301 77.1464 94.4049C71.412 93.715 67.5827 90.5428 65.6353 85.1134C65.0534 83.4991 64.9642 81.8097 64.9877 80.111C64.9971 79.4962 64.9877 78.8768 64.9877 78.126Z" fill="#777100"/>
<path d="M92.1381 112.598H68.8625C68.8531 112.439 68.8343 112.27 68.8343 112.105C68.8343 107.319 68.839 102.532 68.8203 97.7458C68.8203 97.2672 68.9657 97.1217 69.4303 97.1217C70.1154 97.1217 70.8006 97.056 71.5467 97.0138C71.3965 100.233 72.3867 102.927 74.855 104.973C76.5866 106.404 78.5904 107.019 80.8476 107.004C84.597 106.976 89.9185 103.569 89.5431 97.0185L92.1381 97.164V112.598Z" fill="#777100"/>
<path d="M61.7632 99.3877V116.356H49.8203C50.3694 109.669 55.0949 102.546 61.7632 99.3877Z" fill="#777100"/>
<path d="M111.274 116.372H99.2891V99.3418C102.41 100.928 104.967 103.082 107.023 105.832C109.364 108.957 110.763 112.467 111.274 116.372Z" fill="#777100"/>
<path d="M100.079 118.333C100.304 118.333 100.473 118.333 100.642 118.333C104.044 118.333 107.442 118.342 110.844 118.323C111.327 118.323 111.473 118.469 111.44 118.938C111.341 120.43 111.473 121.969 111.163 123.415C110.37 127.113 107.207 129.543 103.387 129.623C102.834 129.633 102.28 129.604 101.731 129.633C101.341 129.651 101.233 129.511 101.233 129.126C101.247 127.122 101.233 125.123 101.238 123.119C101.238 121.594 100.895 120.149 100.253 118.769C100.196 118.647 100.154 118.525 100.074 118.333H100.079Z" fill="#777100"/>
<path d="M87.4923 95.6426C87.6754 98.247 87.5909 100.706 85.7279 102.747C83.8508 104.803 80.8616 105.596 78.2056 104.671C75.5636 103.756 73.6584 101.25 73.5316 98.4769C73.4894 97.5525 73.527 96.6233 73.527 95.6238C75.8358 96.4732 78.1821 96.4544 80.5331 96.4544C82.8841 96.4544 85.2258 96.4638 87.497 95.6379L87.4923 95.6426Z" fill="#777100"/>
<path d="M64.7656 74.6113H96.2394C96.1831 74.7662 96.1549 74.8976 96.0939 75.0055C95.0146 76.8967 93.4003 78.0135 91.2182 78.1261C89.5101 78.2153 87.7973 78.1637 86.0891 78.1637C80.8709 78.1637 75.6526 78.1637 70.4297 78.1637C68.1209 78.1637 66.3424 77.2017 65.0988 75.2542C64.9815 75.0712 64.9017 74.8694 64.7703 74.6113H64.7656Z" fill="#777100"/>
<path d="M97.3317 114.766C96.2946 114.231 95.2997 113.733 94.3283 113.194C94.1923 113.119 94.1078 112.832 94.1078 112.645C94.0937 110.003 94.0984 107.361 94.0984 104.719C94.0984 102.527 94.0984 100.336 94.0984 98.1396V97.4639C95.1636 97.8017 96.1491 98.0927 97.1111 98.4399C97.2331 98.4822 97.3223 98.8013 97.3223 98.9937C97.3363 102.222 97.3317 105.451 97.3317 108.679C97.3317 110.542 97.3317 112.41 97.3317 114.273V114.766Z" fill="#777100"/>
<path d="M63.734 114.781C63.7246 114.644 63.7106 114.48 63.7106 114.316C63.7106 109.22 63.7106 104.124 63.7012 99.032C63.7012 98.6472 63.795 98.4407 64.1845 98.3281C65.062 98.0794 65.9208 97.7884 66.8828 97.4834V98.1122C66.8828 102.95 66.8828 107.784 66.8922 112.622C66.8922 112.997 66.7936 113.171 66.4323 113.34C65.5219 113.767 64.6491 114.288 63.7387 114.785L63.734 114.781Z" fill="#777100"/>
<path d="M122.884 86.8492C122.884 90.9787 119.539 94.3152 115.409 94.3105C111.218 94.3105 107.854 90.9553 107.863 86.7882C107.873 82.6258 111.247 79.2846 115.437 79.294C119.571 79.2987 122.884 82.6633 122.88 86.8492H122.884Z" fill="#777100"/>
</svg>
