<svg width="47" height="47" viewBox="0 0 47 47" fill="none" xmlns="http://www.w3.org/2000/svg">
<path d="M22.2954 32.8451L20.7495 34.3775C21.0093 34.5388 21.2946 34.7086 21.5672 34.8912C22.6659 35.634 22.9768 37.0518 22.2996 38.1767C21.6353 39.2719 20.2385 39.6667 19.0887 39.0512C18.535 38.7541 18.0027 38.4187 17.4704 38.0791C17.2447 37.9348 17.0871 37.9051 16.8785 38.13C16.4739 38.563 16.0267 38.9621 15.5625 39.412C15.8905 39.62 16.1588 39.7813 16.4185 39.9511C17.5598 40.6982 17.8963 42.116 17.2064 43.2579C16.5292 44.3743 15.1239 44.7564 13.9485 44.1196C13.4247 43.8352 12.9094 43.5296 12.4154 43.1942C12.1173 42.9905 11.9427 43.0457 11.7043 43.2919C10.7674 44.2555 9.80918 45.1936 8.85526 46.1402C8.25905 46.7345 7.90559 46.7345 7.30513 46.1402C5.09918 43.9414 2.88896 41.7382 0.683011 39.5394C0.0953241 38.9536 0.0953241 38.5927 0.704303 37.9985C1.08332 37.6291 1.48363 37.2853 1.91375 36.899C1.57732 36.6868 1.35161 36.5509 1.13016 36.4066C-0.0068822 35.6553 -0.330536 34.2375 0.363616 33.0956C1.06203 31.9537 2.47588 31.5929 3.66403 32.2636C4.14099 32.531 4.60944 32.8154 5.06511 33.1125C5.29081 33.2569 5.44838 33.2866 5.65705 33.0616C6.06588 32.6286 6.50877 32.2338 6.98148 31.7881C6.68337 31.6014 6.45767 31.4655 6.23622 31.3212C5.09066 30.5698 4.75849 29.169 5.4569 28.0186C6.14253 26.881 7.56916 26.5117 8.75731 27.1739C9.23427 27.4413 9.70698 27.7215 10.1584 28.0229C10.4182 28.1969 10.58 28.1545 10.7929 27.938C11.1932 27.5262 11.6319 27.1442 12.1003 26.707C11.7979 26.5159 11.5935 26.3886 11.3849 26.257C10.2052 25.5014 9.85603 24.0878 10.563 22.929C11.2656 21.7701 12.6923 21.4178 13.906 22.1097C14.4681 22.4281 15.0132 22.7719 15.5327 23.0818L17.0701 21.5281C16.8955 21.422 16.6698 21.2904 16.4569 21.1503C15.3155 20.4032 14.9791 18.9854 15.6648 17.8436C16.3461 16.7102 17.7813 16.3324 18.9652 16.9903C19.5443 17.3129 20.1022 17.6695 20.6345 17.9879C22.1506 16.4682 23.6581 14.957 25.2125 13.4034C25.1614 13.3439 25.0464 13.2123 24.9229 13.0892C23.5602 11.7309 22.1974 10.3725 20.8389 9.0141C20.2598 8.4368 20.2598 8.08022 20.8389 7.50291C23.211 5.13849 25.5788 2.77406 27.9551 0.409641C28.5044 -0.137954 28.8792 -0.137954 29.4371 0.418131C35.1564 6.11907 40.8714 11.82 46.5864 17.5252C47.0932 18.0303 47.0975 18.4251 46.5907 18.9303C44.1888 21.3329 41.7827 23.7313 39.3724 26.1296C38.8869 26.6136 38.4823 26.6093 37.9968 26.1296C36.6213 24.7628 35.25 23.3917 33.8745 22.0206C33.7468 21.8932 33.6147 21.7743 33.5168 21.681C32.6608 22.5342 31.8346 23.3577 30.9744 24.2152C31.1916 24.351 31.4429 24.4996 31.6899 24.6609C32.8737 25.425 33.2229 26.8301 32.5245 27.9932C31.8389 29.1435 30.3867 29.5086 29.1815 28.8252C28.5768 28.4813 27.9891 28.112 27.4398 27.7767C26.9202 28.2946 26.422 28.7912 25.8939 29.3176C26.0898 29.4407 26.3368 29.5893 26.5795 29.7463C27.7677 30.5062 28.1212 31.9027 27.4227 33.0743C26.7371 34.2332 25.302 34.5983 24.0883 33.9148C23.4708 33.5668 22.8703 33.189 22.3082 32.8536L22.2954 32.8451ZM34.6325 20.399C36.7107 18.3232 38.806 16.239 40.8033 14.2481C38.0948 11.5483 35.3352 8.79761 32.6395 6.11058L26.4688 12.2572C29.1858 14.9655 31.9369 17.712 34.6325 20.4032V20.399ZM29.386 23.2643L32.2051 20.4584C30.293 18.5482 28.3511 16.6083 26.4731 14.7363L22.2187 18.9345C24.6035 20.3735 27.0097 21.8253 29.386 23.2601V23.2643ZM28.7301 2.08639L22.5594 8.24153L25.2338 10.9286C27.2737 8.89525 29.3561 6.81523 31.413 4.76493L28.7301 2.08214V2.08639ZM42.1703 15.4961C40.1048 17.5549 38.0139 19.6434 35.9783 21.6767L38.6569 24.3468C40.7096 22.3007 42.8005 20.2165 44.8574 18.1662L42.1703 15.4961ZM30.3441 27.5644C30.8083 27.5305 31.0851 27.3522 31.2001 26.9744C31.3449 26.5032 31.1277 26.1848 30.7317 25.9471C26.5923 23.4511 22.453 20.9508 18.3136 18.4591C17.8068 18.1534 17.3086 18.2426 17.0488 18.6628C16.7848 19.0958 16.9253 19.55 17.4534 19.8684C21.5927 22.3686 25.7278 24.8647 29.8714 27.3564C30.0375 27.4541 30.2292 27.5135 30.3441 27.5644ZM26.1324 31.7457C26.1452 31.3594 25.8385 31.1599 25.5191 30.9689C21.9462 28.8167 18.3732 26.6645 14.8003 24.5123C14.2211 24.1642 13.659 23.7695 13.0457 23.4893C12.7987 23.3789 12.3473 23.4129 12.1514 23.5742C11.9513 23.7398 11.8533 24.16 11.9002 24.4402C11.9385 24.6567 12.2323 24.8731 12.4623 25.0132C16.1971 27.28 19.9404 29.5341 23.6794 31.7924C24.0883 32.0386 24.4928 32.306 24.9187 32.5267C25.5191 32.8366 26.1452 32.4503 26.1324 31.7457ZM21.0348 36.9033C21.0519 36.4448 20.7282 36.2453 20.3961 36.0415C16.7933 33.8724 13.1905 31.7032 9.592 29.5341C9.03838 29.203 8.49328 28.8549 7.92688 28.545C7.52232 28.32 7.07516 28.4601 6.84946 28.8379C6.62375 29.2072 6.7217 29.6614 7.08794 29.9331C7.18163 30.001 7.28384 30.0604 7.38178 30.1199C10.5544 32.0343 13.7314 33.953 16.904 35.8675C17.8409 36.4321 18.7693 37.0051 19.7147 37.557C20.3662 37.939 21.0391 37.5952 21.0391 36.9033H21.0348ZM2.50995 33.5116C2.05854 33.5668 1.76469 33.7408 1.65397 34.1483C1.52195 34.6365 1.78599 34.9251 2.16926 35.1586C6.28307 37.6334 10.3969 40.1124 14.5107 42.5872C15.0643 42.9226 15.5455 42.8589 15.8181 42.4302C16.0991 41.9887 15.9501 41.5387 15.3837 41.1991C11.2614 38.7074 7.13478 36.2198 3.00395 33.7323C2.83786 33.6304 2.64622 33.571 2.50569 33.5116H2.50995ZM10.5374 42.0736C8.20795 40.6728 5.86998 39.2634 3.52349 37.8669C3.41703 37.8032 3.19558 37.8074 3.10189 37.8796C2.77824 38.1301 2.48866 38.4229 2.22462 38.6649C4.23042 40.6728 6.16808 42.6127 8.07168 44.5229C8.86377 43.7334 9.68143 42.9226 10.5374 42.0736ZM6.8452 34.1653C9.31093 35.6553 11.7341 37.1155 14.0124 38.4909L15.6137 36.9712C13.2161 35.5237 10.7972 34.0677 8.44643 32.6456L6.8452 34.1653ZM11.9598 29.0799C14.3403 30.5147 16.6996 31.9409 19.0674 33.3588C19.1483 33.4097 19.3399 33.3927 19.4081 33.329C19.885 32.9003 20.345 32.4546 20.856 31.9707C18.3434 30.4552 15.9245 28.995 13.5653 27.5687L11.9598 29.0841V29.0799ZM16.9892 23.9478C19.5018 25.4632 21.9206 26.9192 24.2373 28.3158L25.8598 26.8173C23.4921 25.391 21.1413 23.969 18.782 22.5597C18.6969 22.5087 18.5138 22.5172 18.4456 22.5766C17.9687 23.0054 17.5087 23.4553 16.9849 23.9478H16.9892Z" fill="black"/>
</svg>
