<svg width="183" height="183" viewBox="0 0 183 183" fill="none" xmlns="http://www.w3.org/2000/svg">
<circle cx="91.0458" cy="91.8818" r="91.04" fill="white"/>
<path d="M129.583 89.9364V93.9851C129.552 94.1553 129.509 94.3254 129.487 94.5C129.247 96.2975 129.125 98.1168 128.745 99.8837C126.891 108.588 122.537 115.821 115.731 121.55C110.317 126.105 104.086 128.932 97.0927 130.049C96.2245 130.188 95.3563 130.306 94.4881 130.437H87.5467C87.4246 130.406 87.3068 130.358 87.1846 130.341C86.1506 130.197 85.1122 130.101 84.087 129.913C77.0278 128.591 70.7322 125.633 65.4357 120.786C55.4883 111.681 51.2869 100.342 52.7964 86.9566C53.4858 80.8442 55.7195 75.251 59.1139 70.1246C59.1749 70.0286 59.2535 69.9457 59.3233 69.8541C59.3058 70.1115 59.1968 70.3253 59.1226 70.5478C59.0615 70.7397 59.0397 70.9404 59.0048 71.1411C59.2011 71.1411 59.3975 71.1498 59.5982 71.1455C59.777 71.1455 59.9603 71.128 60.1391 71.1149C60.1391 71.3418 60.1653 71.5774 60.1217 71.7999C59.9952 72.4064 59.7029 73.0128 59.7159 73.6149C59.7421 74.6183 59.4149 75.4255 58.7866 76.1584C58.7125 76.2413 58.6558 76.3417 58.5947 76.4333C57.9533 77.3931 57.9621 78.414 58.5947 79.3957C58.7212 79.592 58.8739 79.8102 58.9001 80.0327C58.9699 80.6871 59.0571 81.3546 58.9917 82.0003C58.9001 82.9122 59.428 83.4663 59.9603 84.0378C60.0344 84.1207 60.2831 84.1687 60.3311 84.1163C60.4184 84.0247 60.4533 83.8415 60.4402 83.7062C60.4271 83.571 60.3267 83.4444 60.2613 83.3179C60.0039 82.8118 60.0519 82.2839 60.1915 81.7124C60.6191 82.1094 61.0161 82.5151 61.3128 82.9863C61.736 83.6582 62.3337 84.2734 62.229 85.1852C62.2071 85.3815 62.3119 85.6564 62.4558 85.7917C63.311 86.5944 64.2708 87.1485 65.5142 87.0351C65.8022 87.0089 66.1337 87.1354 66.3999 87.2794C66.9191 87.563 67.3684 88.008 67.9138 88.2C68.4504 88.3919 68.7166 88.789 69.0438 89.1598C69.4495 89.6179 69.5673 89.6528 70.2305 89.3387C70.0603 89.138 69.9294 88.9067 69.7331 88.7628C69.3056 88.4487 69.1179 88.0822 69.323 87.563C69.4452 87.2445 69.371 86.9827 69.022 86.8737C68.6206 86.7471 68.2061 86.6511 67.7218 86.5203C67.7785 86.3545 67.8353 86.145 67.9138 85.9487C68.0229 85.6826 68.1537 85.4252 68.2628 85.159C68.4155 84.7882 68.1799 84.6878 67.892 84.6966C67.748 84.7009 67.5822 84.7926 67.4731 84.8929C67.0107 85.3117 66.4566 85.4383 65.8676 85.4121C65.68 85.4034 65.392 85.3205 65.331 85.1852C65.1128 84.7097 64.7769 84.1687 64.8467 83.7062C65.091 82.0919 65.6974 81.2281 67.5037 81.0928C68.2366 81.0361 68.974 81.0318 69.7113 81.0056C70.3265 80.9838 70.6973 81.407 70.5926 82.0003C70.5097 82.4759 70.7278 82.7856 71.2688 82.8773C71.2688 82.6155 71.2688 82.3624 71.2688 82.1094C71.2688 80.674 71.8709 79.6051 73.2016 79.0292C73.6946 78.8154 73.8909 78.4969 74.048 77.9952C74.2836 77.2404 74.7417 76.586 75.5794 76.3635C76.0767 76.2326 76.4388 75.9752 76.6701 75.504C76.9144 75.011 77.3158 74.7492 77.8873 74.6925C78.3236 74.6532 78.7468 74.5005 79.2834 74.374C79.1089 74.1079 78.9998 73.9246 78.869 73.7545C78.629 73.436 78.6334 72.9168 78.8951 72.6463C79.1656 72.3671 79.6979 72.2973 79.9902 72.5765C80.2215 72.7947 80.3873 73.0957 80.5312 73.3836C80.6796 73.6847 81.0766 73.8636 81.4692 73.7589C81.8401 73.6585 81.7877 73.4011 81.6961 73.1524C81.5914 72.8732 81.4649 72.5983 81.3253 72.3366C81.1856 72.0704 81.0242 71.8523 81.3863 71.5992C81.5129 71.5076 81.5739 71.2284 81.5609 71.0451C81.4911 70.1857 81.3776 69.3305 81.286 68.4754C81.2249 67.8951 80.9675 67.7599 80.4919 68.0871C80.1429 68.3271 79.8288 68.6194 79.4492 68.9248C79.2311 68.4623 79.0435 68.0042 78.7992 67.5767C78.725 67.4414 78.4545 67.28 78.3541 67.3236C77.7913 67.5548 77.1631 67.7163 76.9231 68.3969C76.8228 68.6848 76.6308 68.9422 76.561 69.2345C76.3647 70.0548 75.5663 70.1726 75.0296 70.5914C74.9904 70.6219 74.8987 70.6132 74.8464 70.5914C74.0262 70.2467 73.1143 70.0984 72.4817 69.3785C71.8927 68.7154 72.028 67.9039 72.8307 67.485C72.9005 67.4501 72.9791 67.424 73.0533 67.3934C73.5157 67.2102 73.9695 67.0008 74.4406 66.8481C74.9947 66.6648 75.5663 66.5252 76.1291 66.3638L76.116 66.3551L75.9546 66.7739C76.0244 66.7957 76.0942 66.8437 76.1596 66.8393C76.465 66.8219 76.7704 66.787 77.1195 66.7564C77.1107 66.691 77.0496 66.5078 77.0627 66.3245C77.0715 66.1893 77.1282 65.9886 77.2285 65.9362C77.6605 65.7093 77.9179 65.3647 78.184 64.9677C78.3498 64.7233 78.8123 64.5401 79.1133 64.575C79.362 64.6012 79.7066 64.9677 79.7503 65.2294C79.7808 65.4258 79.4449 65.7443 79.2093 65.9144C78.869 66.1544 78.4676 66.3114 78.0095 66.5427C78.2582 66.6735 78.437 66.8481 78.6159 66.8481C78.9999 66.8481 79.1787 67.088 79.4405 67.2974C79.7197 67.5199 80.1647 67.5418 80.5356 67.6508C80.5792 67.3498 80.6185 67.0488 80.6621 66.7477C80.6665 66.7172 80.6796 66.6866 80.6927 66.643C81.5827 66.7652 80.9719 65.9493 81.334 65.6613C81.5652 65.6613 81.8532 65.6744 82.1411 65.657C82.272 65.6483 82.4029 65.5872 82.5294 65.5523C82.4727 65.4127 82.4552 65.2294 82.3593 65.1334C82.0669 64.8499 81.7397 64.6055 81.4867 64.3918C81.4038 64.1344 81.3994 63.8202 81.2598 63.7373C80.7625 63.4407 80.3 63.1483 80.2607 62.4983C80.5399 62.4983 80.8584 62.5855 81.094 62.4808C81.526 62.2889 81.9448 62.0314 82.3069 61.726C82.7781 61.3247 83.2144 61.4294 83.7467 61.6606C83.5983 61.7348 83.498 61.7828 83.402 61.8351C83.2973 61.8918 83.1969 61.9529 83.0966 62.0096L83.0661 62.171C83.4893 62.3717 83.9037 62.5943 84.3356 62.7688C84.6934 62.9084 85.0817 62.9651 85.4395 63.1047C85.9586 63.3054 86.107 63.746 85.7187 64.1213C85.2082 64.6186 85.1253 65.2643 84.8854 65.8708C84.6367 66.5034 84.7283 66.9877 85.1122 67.5461C85.4264 68.0042 85.6271 68.4318 86.2815 68.1875C86.3644 68.1569 86.4735 68.1744 86.5694 68.1875C87.0755 68.266 87.4376 68.0566 87.5424 67.5461C87.6209 67.1578 87.8478 66.9877 88.1793 66.8437C89.209 66.3987 90.2255 65.9362 91.2421 65.4737C91.6784 65.2774 92.0885 65.0113 92.5422 64.8629C93.0352 64.7059 93.3363 64.4267 93.4759 63.9337C93.55 63.6719 93.6373 63.4058 93.7725 63.1745C93.9034 62.9476 94.0954 62.7513 94.2743 62.5506C94.571 62.2234 94.9113 61.9267 95.1774 61.5777C95.4173 61.2592 95.6399 60.9844 96.0718 60.9276C96.4121 60.884 96.5866 60.6484 96.5124 60.1772C96.1678 60.1772 95.8362 60.1772 95.5046 60.1772C93.886 60.1772 92.2717 60.1685 90.6531 60.1903C90.2997 60.1947 89.8983 60.2165 89.6104 60.391C89.0737 60.7139 88.5676 60.788 87.9612 60.6353C87.5424 60.5306 87.0799 60.6004 86.6393 60.5655C86.4516 60.5524 86.203 60.5263 86.1026 60.4041C85.867 60.1205 85.6489 60.1598 85.3391 60.247C84.8854 60.3779 84.4098 60.4826 83.9386 60.5132C83.3627 60.5481 82.7825 60.4826 82.2066 60.4739C82.0495 60.4739 81.8401 60.4608 81.7441 60.5481C81.3427 60.9102 80.8759 60.7662 80.4222 60.8098C79.8026 60.8666 79.1918 61.028 78.5767 61.1458V61.3726L79.9815 61.8613C79.6281 61.9355 79.2965 61.87 78.9737 61.8962C78.6683 61.9224 78.3716 62.0489 78.0749 62.1318L78.0836 62.2496L78.9388 62.4416L78.9082 62.5332L77.2503 62.1667L77.2242 62.267L77.5601 62.3979C77.5601 62.5812 77.5819 62.7208 77.5514 62.8517C77.5383 62.9171 77.4118 63.0218 77.3681 63.0087C77.1456 62.9476 76.9362 62.8517 76.7224 62.7688V62.7164L77.198 62.7819C77.1762 62.5114 76.5043 61.9922 76.2643 62.0402C75.8542 62.1274 75.4397 62.219 75.0253 62.3107C75.2347 63.1789 75.8891 62.7862 76.3909 62.8386L75.8106 62.9782L75.7582 63.4581C75.2172 62.9607 74.7417 63.2051 74.2879 63.4799C74.1876 63.541 74.1658 63.733 74.0829 63.9249H74.9555V64.8324C74.0523 65.4345 72.6126 65.2731 72.3596 64.8673C72.5952 64.8673 72.8395 64.9284 73.0227 64.8499C73.1929 64.7757 73.3019 64.5488 73.4765 64.3438C72.9834 63.9511 73.4023 63.5541 73.6161 63.0393C73.3107 63.1353 73.11 63.24 72.9006 63.2574C72.4686 63.2923 72.0149 63.349 71.5961 63.2618C71.1249 63.1658 70.6886 62.9215 70.2392 62.7339C69.7855 62.5463 69.4452 62.7339 69.1005 63.0131C68.8518 63.2138 68.5639 63.3708 68.2803 63.5497C68.4766 63.9729 68.6555 64.0515 69.131 63.8726C69.2968 63.8115 69.4539 63.7242 69.6197 63.6806C69.6895 63.6632 69.8247 63.6981 69.8596 63.7548C69.9076 63.8289 69.9382 63.9773 69.8989 64.0427C69.7287 64.3219 69.5324 64.5837 69.3448 64.8455C68.8169 64.7321 68.2628 64.6317 67.7218 64.4965C67.0761 64.335 66.4435 64.322 65.7803 64.4703C64.7114 64.7059 64.5762 64.6579 63.9305 64.2827C74.048 55.0465 85.7536 51.4864 99.2087 54.2263C106.329 55.6791 112.459 59.0996 117.637 64.2085C117.489 64.2565 117.371 64.2303 117.271 64.178C116.848 63.9511 116.442 63.6893 116.001 63.5061C115.871 63.4537 115.517 63.5977 115.487 63.7111C115.312 64.3307 114.911 64.5881 114.304 64.6448C114.051 64.6666 113.811 64.7844 113.558 64.8324C112.598 65.0113 111.643 65.1858 110.679 65.3341C110.491 65.3647 110.216 65.3167 110.094 65.1945C109.762 64.8542 109.4 64.8542 108.986 64.9415C108.593 65.0244 108.196 65.1029 107.795 65.116C107.524 65.1247 107.188 65.0942 106.983 64.9371C106.359 64.4616 105.744 64.2042 105.003 64.6579C104.942 64.6972 104.846 64.6666 104.767 64.6797C104.248 64.7713 103.716 64.828 103.209 64.9764C102.533 65.1727 102.062 65.657 101.914 66.3376C101.826 66.7346 101.639 66.9222 101.299 67.0357C101.146 67.0837 100.997 67.1404 100.845 67.1927C100.352 67.3629 99.8762 68.0871 100.025 68.4449C100.177 68.8113 100.928 68.9379 101.456 68.6848C101.643 68.5932 101.822 68.4798 102.018 68.4143C102.446 68.266 102.66 68.4492 102.62 68.8855C102.603 69.0731 102.572 69.2782 102.62 69.4571C102.725 69.8323 103.074 69.9719 103.301 69.7319C103.694 69.3174 104.06 68.8812 104.435 68.4492C104.632 68.2267 104.544 68.0828 104.313 67.9606C104.117 67.8602 103.929 67.7424 103.733 67.629C104.021 66.9702 104.536 66.6779 105.151 66.5296C105.304 66.4903 105.487 66.5514 105.653 66.5819C105.666 66.5819 105.679 66.7433 105.666 66.7521C105.513 66.8088 105.352 66.8481 105.195 66.8917C105.168 66.9004 105.147 66.9266 105.055 67.0051C105.168 67.2843 105.312 67.581 105.408 67.8952C105.465 68.074 105.5 68.2965 105.448 68.4667C105.264 69.0382 105.003 69.5836 104.828 70.1595C104.667 70.6918 104.475 70.9273 103.929 70.8706C103.297 70.8052 102.668 70.6612 102.045 70.5303C101.966 70.5129 101.866 70.3427 101.874 70.2511C101.918 69.7843 101.608 69.6534 101.229 69.5094C101.198 69.6577 101.15 69.7755 101.15 69.8977C101.15 70.3733 100.989 70.6874 100.461 70.7485C100.33 70.7616 100.147 70.8837 100.107 70.9972C99.7148 72.0966 98.755 72.4107 97.7908 72.7379C97.625 72.7946 97.4679 72.8645 97.3065 72.9299C97.4068 73.135 97.4941 73.3487 97.6075 73.5451C97.6642 73.6411 97.8257 73.6978 97.8431 73.7938C97.9129 74.1166 97.9391 74.4482 98.0002 74.8932L96.7698 74.5922C96.6869 74.6445 96.5299 74.7579 96.3554 74.8408C95.8667 75.0764 95.5875 75.6043 95.7227 76.1192C95.8624 76.6514 95.8275 77.1314 95.3301 77.6025C95.6442 77.7902 95.954 77.9167 96.1896 78.1261C96.8396 78.6976 97.4941 78.6627 97.9958 77.9996C98.0438 77.9385 98.1005 77.8643 98.166 77.8381C98.707 77.6113 99.0254 77.2317 99.1738 76.6427C99.2218 76.4464 99.5534 76.3068 99.7759 76.1802C99.9155 76.1017 100.142 76.1584 100.247 76.0625C100.518 75.8138 100.731 75.5084 100.984 75.2422C101.172 75.0459 101.416 74.8845 101.604 75.2335C101.892 75.7745 102.298 76.1803 102.843 76.4551C103.305 76.6907 103.51 77.1139 103.685 77.6985L102.516 77.825C102.878 78.4358 103.214 78.4838 103.55 77.9996C103.593 77.9385 103.672 77.8992 103.724 77.8381C103.868 77.668 104.078 77.5109 104.121 77.3146C104.165 77.1314 104.03 76.9045 103.969 76.6776L104.335 76.7125C103.615 76.0275 102.699 75.5433 102.398 74.47C102.594 74.5049 102.804 74.5529 102.921 74.6794C103.323 75.1157 103.672 75.6 104.274 75.7963C104.379 75.8312 104.527 75.9839 104.514 76.0625C104.44 76.5947 104.846 76.8259 105.142 77.127C105.216 77.2012 105.26 77.3233 105.277 77.428C105.426 78.3355 105.893 78.2832 106.425 77.9254C106.333 77.5502 106.106 77.1663 106.508 76.7823C106.66 76.8958 106.922 76.983 106.948 77.1183C107.053 77.6505 107.459 77.6549 107.847 77.7291C108.51 77.8512 109.169 77.9821 109.828 78.1086C110.303 78.2003 110.526 78.5187 110.338 78.8111C110.155 79.1077 109.994 79.4175 109.824 79.7229C109.575 80.1635 109.296 80.5737 108.742 80.6522C108.314 80.7089 107.878 80.7874 107.45 80.77C107.084 80.7525 106.695 80.6696 106.368 80.5126C105.897 80.2813 105.478 80.1897 104.95 80.3686C103.921 80.722 102.485 79.9934 102.101 78.9812C101.822 78.2482 101.054 78.0563 100.426 78.5449C100.217 78.7063 99.9635 78.846 99.7104 78.907C98.8029 79.1252 97.8824 79.2386 96.9444 79.0554C96.7917 79.0248 96.5866 79.0816 96.4557 79.1732C96.0849 79.4262 95.7009 79.6836 95.3999 80.0065C95.0291 80.4079 94.5491 80.8005 94.6015 81.4244C94.6408 81.8912 94.4924 82.1836 94.0779 82.3712C93.9471 82.4279 93.838 82.5326 93.7289 82.6242C92.7996 83.3746 92.3546 84.2908 92.7211 85.4993C92.7516 85.5997 92.7473 85.7306 92.708 85.8222C92.4768 86.3632 92.2194 86.8955 91.9925 87.4365C91.9358 87.5717 91.8965 87.7942 91.9663 87.8902C92.7822 89.0333 93.6678 90.1153 94.9243 90.809C95.4174 91.0838 95.6835 90.5734 96.0456 90.3989C96.1939 90.329 96.3466 90.1633 96.4819 90.1763C97.3021 90.2592 98.1049 90.3509 98.9426 90.1676C99.6319 90.0193 100.116 90.5865 100.635 90.9486C101.128 91.2889 101.325 91.6903 101.085 92.2967C100.679 93.3307 100.915 94.2251 101.709 95.0191C101.979 95.2896 102.132 95.6867 102.306 96.0444C102.463 96.376 102.494 96.8079 102.73 97.0522C103.074 97.4056 102.969 97.6369 102.699 97.8855C102.036 98.492 102.11 99.1682 102.45 99.9012C102.546 100.106 102.538 100.359 102.564 100.591C102.594 100.835 102.599 101.088 102.642 101.328C102.708 101.681 102.812 102.03 102.869 102.388C102.948 102.877 102.939 103.383 103.065 103.854C103.227 104.452 103.506 105.01 103.694 105.603C104.008 106.603 104.217 106.764 105.221 106.48C107.123 105.944 108.619 104.927 109.2 102.907C109.252 102.724 109.322 102.541 109.405 102.366C109.501 102.157 109.553 101.943 109.898 101.943C110.042 101.943 110.264 101.638 110.312 101.441C110.382 101.153 110.395 100.817 110.312 100.538C110.173 100.071 110.26 99.8663 110.727 99.6307C112.193 98.889 112.467 98.2346 112.345 96.616C112.262 95.534 112.297 94.4476 112.289 93.3612C112.289 93.2565 112.341 93.13 112.415 93.0558C113.022 92.4407 113.58 91.7644 114.261 91.2453C115.103 90.6039 115.683 89.4172 115.478 88.2349C115.028 88.3003 114.575 88.3745 114.121 88.4225C113.938 88.4443 113.702 88.4792 113.571 88.3919C112.939 87.9556 112.337 87.4932 112.062 86.7079C111.918 86.3021 111.686 85.8527 111.359 85.5953C110.382 84.8275 109.762 83.872 109.427 82.6853C109.178 81.8084 109.134 81.8214 110.024 81.311C110.605 82.0352 111.202 82.7638 111.774 83.5099C111.883 83.6538 111.909 83.8676 111.953 84.0509C112.097 84.6442 112.132 85.2856 112.389 85.8178C113.1 87.2968 113.458 87.563 115.028 86.7428C116.01 86.2279 116.904 85.5386 117.821 84.9104C118.344 84.5526 118.362 83.9985 117.921 83.571C117.751 83.4052 117.633 83.1827 117.463 83.0169C117.275 82.838 117.075 82.646 116.843 82.5544C116.202 82.3014 115.539 82.1138 114.898 81.8564C114.723 81.7865 114.601 81.5728 114.413 81.3852C115.203 81.4331 115.87 81.4201 116.516 81.5335C117.022 81.6251 117.55 81.7953 117.973 82.0701C118.658 82.5195 119.404 82.5326 120.15 82.5151C120.866 82.4977 121.368 82.7115 121.634 83.3964C121.682 83.5273 121.782 83.6495 121.891 83.7411C122.921 84.5831 123.401 85.7262 123.724 86.9784C123.898 87.6415 124.138 88.2916 124.4 88.9286C124.644 89.5219 125.024 89.7401 125.499 89.6659C126.389 89.5306 126.455 89.4565 126.538 88.549C126.555 88.3745 126.594 88.2 126.616 88.0254C126.656 87.7157 126.651 87.4452 126.368 87.2052C126.097 86.974 126.088 86.6861 126.411 86.433C127.005 85.9705 127.585 85.4863 128.187 85.0282C128.379 84.8842 128.614 84.8013 128.898 84.6529C129.042 85.5648 129.19 86.3676 129.295 87.1791C129.417 88.0996 129.5 89.0245 129.596 89.9495L129.583 89.9364ZM79.2747 108.256C79.4667 107.833 79.5976 107.549 79.7284 107.261C79.9117 106.856 80.1516 106.515 80.6272 106.415C80.6796 106.402 80.745 106.345 80.7712 106.293C81.0679 105.603 81.4954 104.932 81.6219 104.212C81.8008 103.208 82.1978 102.506 83.1926 102.205C83.2406 102.192 83.2886 102.183 83.3322 102.166C83.6856 102.008 83.9648 101.777 84.0172 101.363C84.1306 100.495 84.2309 99.622 84.3531 98.7538C84.3924 98.4745 84.4447 98.1866 84.5407 97.9248C84.7807 97.2617 85.0992 96.6247 85.2868 95.9484C85.374 95.6256 85.3435 95.1806 85.1777 94.9013C84.9334 94.4956 84.5974 94.1248 84.0957 93.9328C83.7336 93.7932 83.4282 93.5052 83.0922 93.2958C82.9875 93.2304 82.8566 93.1693 82.7432 93.178C81.5565 93.2871 80.7537 92.5367 80.1822 91.7339C79.5888 90.9006 78.8646 90.3683 78.0226 89.8928C77.595 89.6528 77.1805 89.3561 76.849 88.9984C76.2033 88.3047 75.2958 87.8946 74.5017 87.8989C73.7077 87.8989 72.6475 87.7506 72.0367 88.645C71.4434 88.7322 71.4477 89.3779 71.0856 89.6833C71.0027 89.7532 70.9853 89.9146 70.9678 90.0367C70.9198 90.4076 70.8762 90.7828 70.8631 91.1536C70.8544 91.4416 70.898 91.7295 70.9067 92.0175C70.9067 92.1047 70.8936 92.2313 70.8369 92.2749C70.2567 92.7024 70.0996 93.3787 69.8116 93.9764C69.5804 94.452 69.672 94.8839 70.1476 95.1282C70.4748 95.294 70.4573 95.486 70.3657 95.7477C70.3003 95.931 70.2261 96.1055 70.1607 96.2887C69.9294 96.9388 70.0298 97.2835 70.5751 97.711C71.2165 98.2128 71.8404 98.7363 72.4992 99.2119C73.1405 99.6743 73.7426 100.124 73.699 101.049C73.6728 101.581 73.7644 102.122 73.7862 102.659C73.808 103.165 73.7949 103.675 73.8124 104.181C73.8255 104.561 73.9651 104.962 73.8778 105.316C73.6946 106.062 74.0087 106.655 74.2618 107.296C74.4145 107.685 74.493 108.112 74.5279 108.531C74.589 109.194 74.4014 109.94 74.6457 110.516C75.1867 111.794 75.9022 113.007 76.9537 113.976C77.5819 114.552 78.3105 114.495 79.2093 114.39C78.8515 113.893 78.533 113.5 78.28 113.073C78.1011 112.767 77.9135 112.41 77.9048 112.069C77.8742 111.236 77.9397 110.403 77.9789 109.565C77.9833 109.43 77.9964 109.238 78.0836 109.164C78.5112 108.81 78.9649 108.487 79.2922 108.243L79.2747 108.256ZM96.7044 69.4527C96.748 69.5094 96.7917 69.553 96.8178 69.6054C96.9007 69.7625 97.0709 69.9588 97.0273 70.0809C96.9836 70.2075 96.7262 70.2511 96.5822 70.3558C96.303 70.5652 96.0412 70.7921 95.7795 71.019C95.7533 71.0451 95.7969 71.1411 95.7795 71.1978C95.7489 71.3156 95.7009 71.4291 95.6617 71.5469C95.6311 71.6385 95.5613 71.7781 95.5962 71.8217C95.653 71.8872 95.8144 71.9483 95.8798 71.9134C96.2987 71.7083 96.9705 71.7956 96.9269 71.0321C96.9225 70.9317 96.9967 70.8139 97.0622 70.731C97.1712 70.5958 97.2934 70.4518 97.4461 70.3733C97.4941 70.3471 97.7297 70.5216 97.7297 70.6045C97.7297 70.7965 97.6599 70.9972 97.5857 71.1804C97.5115 71.368 97.3981 71.5425 97.3021 71.717L97.7079 71.9221L97.2061 72.6027C97.5333 72.4325 97.7384 72.2362 97.9391 72.2406C98.4277 72.2493 98.7768 72.0486 99.1301 71.7345C99.4006 71.4945 99.3701 71.3854 99.1127 71.1847C98.8248 70.9622 98.5193 70.7354 98.3143 70.4431C98.1136 70.1551 97.8606 69.8061 98.1529 69.4832L97.8649 68.9597L96.7 69.4527H96.7044ZM70.7627 62.5419C71.1685 62.699 71.5393 62.9127 71.932 62.9782C72.8264 63.1265 73.6946 62.9433 74.5148 62.5681C74.5759 62.5419 74.6021 62.315 74.5585 62.2234C74.4319 61.9616 74.2443 62.0489 74.0436 62.171C73.7295 62.3587 73.2888 62.5114 73.1012 62.1492C72.8395 61.6301 72.4774 61.7653 72.1458 61.8831C71.679 62.0489 71.2427 62.3063 70.7584 62.5419H70.7627ZM77.294 61.8264L77.3201 61.9529L77.9789 61.8569L77.8262 61.3203L77.2896 61.8264H77.294ZM76.2774 61.3552C76.3429 61.8831 76.6177 61.8526 76.8882 61.7915C76.9319 61.7828 76.9449 61.617 76.9711 61.521L76.2774 61.3552Z" fill="#777100"/>
<path d="M76.1255 66.3462C75.506 65.8358 75.4231 65.3079 75.951 64.6447C76.1691 64.3742 76.108 63.8681 76.6665 63.9467C76.8963 64.5284 76.7363 65.0345 76.1866 65.4649C76.553 65.7834 76.4527 66.0757 76.108 66.3375L76.1211 66.3462H76.1255Z" fill="#777100"/>
</svg>
