<svg width="52" height="40" viewBox="0 0 52 40" fill="none" xmlns="http://www.w3.org/2000/svg">
<g clip-path="url(#clip0_97_7874)">
<path d="M5.37315 31.6506C4.41425 32.2292 3.53573 32.759 2.65434 33.2917C2.49356 33.3891 2.33279 33.4865 2.16914 33.5839C1.25617 34.1195 0.613075 33.7615 0.610204 32.7018C0.607333 29.557 0.618817 26.4123 0.601591 23.2675C0.59872 22.709 0.811172 22.3653 1.28201 22.0789C12.6798 15.1794 24.0718 8.2684 35.4667 1.36313C36.127 0.96216 36.7644 0.515366 37.4592 0.18027C37.7549 0.0370664 38.1626 0.108668 38.5157 0.11726C38.7511 0.122988 38.9865 0.231823 39.222 0.231823C42.3169 0.240415 45.4118 0.237551 48.5096 0.237551C49.5173 0.237551 49.7843 0.503909 49.7871 1.50347C49.79 2.21949 49.7929 2.9355 49.8015 3.64865C49.8015 3.68302 49.8216 3.71739 49.856 3.81763C50.1058 3.82909 50.3786 3.83482 50.6513 3.85487C51.2657 3.89783 51.5901 4.21001 51.5959 4.82579C51.6073 6.87932 51.6073 8.93286 51.5959 10.9835C51.593 11.6824 51.2714 11.9659 50.5135 11.9659C46.4367 11.9688 42.3599 11.9659 38.2831 11.9774C38.0161 11.9774 37.7176 12.049 37.4908 12.1836C28.3008 17.7427 19.1165 23.3133 9.92939 28.8811C9.849 28.9298 9.77436 28.9842 9.59636 29.1045H25.3379C24.5111 27.7269 23.6986 26.3693 22.8516 24.9573C22.3464 25.2609 21.8841 25.5444 21.419 25.8165C20.8535 26.1459 20.3137 26.0485 20.041 25.5817C19.7711 25.1177 19.9261 24.6365 20.4745 24.3014C22.1454 23.279 23.822 22.2622 25.5016 21.2512C26.0614 20.9161 26.5983 21.025 26.871 21.5004C27.1351 21.9615 26.983 22.4312 26.426 22.7778C25.7743 23.1873 25.1111 23.5826 24.4048 24.0093C24.5025 24.1897 24.5828 24.353 24.6747 24.5077C25.5073 25.8967 26.36 27.2743 27.1667 28.6749C27.3878 29.0587 27.6347 29.1847 28.0653 29.1704C28.9467 29.1389 29.8281 29.1618 30.7755 29.1618C30.7755 27.9388 30.7755 26.7789 30.7755 25.6161C30.7755 25.3898 30.7755 25.1635 30.7755 24.9373C30.7842 24.058 31.0913 23.7401 31.967 23.7372C34.2896 23.7315 36.6094 23.7372 38.932 23.7372C39.8765 23.7372 40.8182 23.7286 41.7628 23.7372C43.3016 23.7573 44.3294 24.4962 44.8376 25.9397C45.0931 26.6672 45.3343 27.3975 45.5668 28.1336C45.7706 28.778 46.164 29.1217 46.8702 29.1732C48.656 29.3021 49.7584 30.5021 49.7785 32.2893C49.79 33.3061 49.7871 34.3228 49.7785 35.3396C49.7728 36.067 49.4713 36.3649 48.7421 36.3678C47.4014 36.3764 46.0606 36.3792 44.7227 36.3649C44.3983 36.362 44.2289 36.4508 44.0997 36.7745C43.5141 38.2409 42.2594 39.0829 40.735 39.08C39.2392 39.08 37.9702 38.238 37.396 36.8145C37.2611 36.4795 37.1003 36.362 36.7414 36.362C30.0406 36.3706 23.3426 36.3735 16.6417 36.362C16.2742 36.362 16.1278 36.4938 15.9958 36.8203C15.4302 38.2323 14.1526 39.08 12.6511 39.08C11.1524 39.08 9.87771 38.2437 9.30926 36.8203C9.16284 36.4508 8.97048 36.3477 8.60013 36.362C7.88525 36.3878 7.16464 36.3764 6.44977 36.3678C5.73489 36.3592 5.41335 36.0441 5.40473 35.331C5.39325 34.3142 5.40473 33.2975 5.39899 32.2807C5.39899 32.1003 5.37889 31.9227 5.36167 31.6449L5.37315 31.6506ZM2.40169 31.3241C2.63998 31.1953 2.7864 31.1208 2.92708 31.0377C14.187 24.2127 25.4441 17.3847 36.707 10.5654C36.9969 10.3907 37.1175 10.1988 37.1147 9.85222C37.1032 7.57529 37.1147 5.29836 37.1204 3.01856C37.1204 2.8639 37.0917 2.7121 37.0716 2.50303C36.8563 2.62618 36.7098 2.70638 36.5692 2.7923C33.8303 4.45059 31.0913 6.11175 28.3553 7.77005C19.8831 12.9053 11.4137 18.0463 2.93282 23.1701C2.52514 23.4164 2.38734 23.6828 2.39308 24.1554C2.42179 26.3206 2.40456 28.4858 2.40456 30.6482V31.327L2.40169 31.3241ZM47.944 34.5691C47.9669 34.4546 47.9899 34.403 47.9899 34.3486C47.9928 33.6899 47.9985 33.0311 47.9957 32.3724C47.9899 31.4473 47.6023 31.0177 46.6865 30.9489C45.2625 30.8458 44.3581 30.0897 43.9016 28.7665C43.6576 28.0562 43.4308 27.3402 43.1896 26.6299C42.9025 25.7822 42.5523 25.5301 41.6422 25.5301C38.8143 25.5273 35.9835 25.5387 33.1556 25.5187C32.6675 25.5158 32.5613 25.6791 32.5642 26.1344C32.5957 28.7694 32.5957 31.4015 32.6101 34.0364C32.6101 34.2025 32.6302 34.3686 32.6445 34.592C33.9738 34.592 35.2686 34.5748 36.5663 34.6006C37.0113 34.6092 37.2525 34.5061 37.4448 34.0507C38.1224 32.4354 39.8048 31.5991 41.5044 31.9657C42.9456 32.275 43.8126 33.2116 44.2835 34.5691H47.944ZM30.7296 34.5634V30.9547H26.182C20.1041 30.9547 14.0291 30.9547 7.95129 30.9547C7.79913 30.9547 7.63835 30.9232 7.50054 30.969C7.38571 31.0062 7.21919 31.1322 7.21919 31.2239C7.19909 32.3294 7.20771 33.4321 7.20771 34.5634H30.7296ZM38.9923 10.1444H49.7584V5.67069H38.9923V10.1444ZM47.9727 2.02759C45.0184 2.02759 42.1245 2.02759 39.2277 2.03905C39.1243 2.03905 38.9377 2.18798 38.932 2.2739C38.9033 2.78657 38.9176 3.30497 38.9176 3.80331H47.9698V2.02759H47.9727ZM42.5408 35.5458C42.5437 34.4947 41.7743 33.7128 40.7378 33.7185C39.6813 33.7242 38.932 34.5176 38.9435 35.6174C38.955 36.531 39.7617 37.2957 40.7206 37.3014C41.7398 37.31 42.5351 36.5425 42.5379 35.5458H42.5408ZM11.1668 36.4594C11.7754 37.6079 13.6559 37.5191 14.1153 36.4594H11.1668Z" fill="black"/>
<path d="M40.1377 26.3262C41.266 26.3262 41.4957 26.5524 41.4957 27.6723C41.4957 28.7864 41.266 29.0127 40.132 29.0127C39.0267 29.0127 38.8027 28.7807 38.8027 27.6379C38.8027 26.561 39.041 26.3262 40.1377 26.3262Z" fill="black"/>
</g>
<defs>
<clipPath id="clip0_97_7874">
<rect width="51" height="39" fill="white" transform="translate(0.601562 0.0917969)"/>
</clipPath>
</defs>
</svg>
