<svg width="46" height="47" viewBox="0 0 46 47" fill="none" xmlns="http://www.w3.org/2000/svg">
<path d="M3.39479 0.974714C3.51519 1.02287 3.63559 1.07906 3.75599 1.12321C4.73523 1.49645 5.2971 2.50378 5.10044 3.52717C4.90781 4.53451 4.0329 5.26493 3.01352 5.28099C1.97408 5.29704 1.06708 4.5305 0.878453 3.475C0.697855 2.48372 1.27978 1.4844 2.23896 1.11919C2.35936 1.07103 2.47976 1.02288 2.60016 0.970703H3.39479V0.974714ZM3.69579 3.13788C3.6998 2.75662 3.39077 2.43154 3.01352 2.41549C2.62825 2.39943 2.27508 2.74859 2.2791 3.13788C2.28712 3.51914 2.60417 3.82817 2.98945 3.82817C3.37874 3.82817 3.69178 3.52316 3.69579 3.13788Z" fill="black"/>
<path d="M33.3864 36.2441C34.0446 37.127 34.0446 38.0741 33.3262 39.0333C33.7596 39.6152 33.9804 40.2453 33.7998 40.9757C33.571 41.8827 32.8165 42.569 31.8814 42.5931C30.3524 42.6292 28.8193 42.6132 27.2902 42.6172C27.1136 42.6172 26.9411 42.6172 26.7324 42.6172C26.7043 42.9824 26.6842 43.3115 26.6521 43.6446C26.4916 45.1255 25.2434 46.2412 23.7746 46.2091C22.2776 46.181 21.0696 45.0211 20.9693 43.5121C20.9291 42.9155 20.6067 42.6172 20.0021 42.6172C19.1352 42.6172 18.2643 42.6332 17.3974 42.6051C17.2008 42.6011 16.968 42.5048 16.8275 42.3684C16.2496 41.8266 15.6998 41.2486 15.1339 40.6908C15.0376 40.5945 14.8971 40.4781 14.7768 40.4781C13.027 40.466 11.2771 40.4701 9.47919 40.4701V42.5851H4.47461V28.2656H4.92811C6.05986 28.2656 7.19563 28.2576 8.32738 28.2696C8.59226 28.2696 8.7287 28.1854 8.88924 27.9646C9.51932 27.1018 9.70795 26.259 9.09793 25.2757C8.88523 24.9306 8.72469 24.6737 8.31935 24.5573C7.54478 24.3326 6.78226 24.0517 6.01973 23.7948C5.9796 23.7828 5.93947 23.7587 5.87525 23.7226V23.3413C5.87525 20.8812 5.88328 18.425 5.86722 15.9649C5.86722 15.6197 5.98361 15.4793 6.29665 15.3829C7.05516 15.1542 7.80967 14.9053 8.55614 14.6324C8.73272 14.5682 8.88522 14.3796 8.98957 14.2111C9.11799 14.0024 9.14208 13.7254 9.27853 13.5248C9.65979 12.9549 9.61163 12.4412 9.25044 11.8673C8.91332 11.3375 8.68456 10.7395 8.38356 10.1817C8.25915 9.95294 8.27119 9.80445 8.46785 9.61582C10.2578 7.84194 12.0357 6.06405 13.8095 4.27412C13.9861 4.09754 14.1146 4.06944 14.3353 4.18583C15.0777 4.57512 15.8242 4.95639 16.5867 5.30554C16.7553 5.3818 16.9961 5.36173 17.1887 5.31357C17.4295 5.25337 17.6422 5.08481 17.879 5.03264C18.5372 4.88414 18.8783 4.49084 19.0268 3.82865C19.1673 3.20257 19.4282 2.60058 19.6208 1.98253C19.689 1.76582 19.7894 1.68555 20.0261 1.68555C22.5585 1.69357 25.0909 1.69357 27.6233 1.68555C27.8842 1.68555 27.9805 1.78588 28.0527 2.01062C28.3056 2.80927 28.5664 3.60391 28.8554 4.39051C28.9156 4.55506 29.0882 4.70354 29.2447 4.79986C29.4293 4.91625 29.6741 4.9323 29.8507 5.0527C30.5049 5.49417 31.1028 5.4139 31.745 4.99652C32.2346 4.67947 32.7965 4.47078 33.3142 4.19386C33.5229 4.08149 33.6593 4.06945 33.8439 4.25807C35.6258 6.05603 37.4158 7.84596 39.2137 9.63188C39.4023 9.81649 39.3863 9.96097 39.2779 10.1697C38.9007 10.9001 38.5194 11.6305 38.1783 12.381C38.094 12.5616 38.1301 12.8184 38.1662 13.0271C38.1984 13.2077 38.3549 13.3683 38.387 13.5529C38.5355 14.3957 39.0973 14.7448 39.8719 14.9214C40.4137 15.0458 40.9314 15.2746 41.4652 15.4351C41.6779 15.4993 41.7742 15.5916 41.7742 15.8324C41.7662 18.3809 41.7662 20.9253 41.7742 23.4737C41.7742 23.7145 41.6739 23.8028 41.4652 23.867C40.6665 24.1239 39.8679 24.3807 39.0853 24.6657C38.9208 24.7259 38.7723 24.8944 38.6719 25.051C38.5555 25.2356 38.5435 25.4844 38.4191 25.657C37.9455 26.3312 38.082 26.9493 38.4913 27.5954C38.7562 28.0168 38.9248 28.4984 39.1816 28.9238C39.3983 29.285 39.3662 29.5178 39.0532 29.8188C37.9937 30.8422 36.9502 31.8816 35.9429 32.9532C35.0078 33.9444 33.7998 34.727 33.3985 36.24L33.3864 36.2441ZM37.6686 29.1566C37.2833 28.382 36.898 27.6556 36.5569 26.9091C36.4807 26.7406 36.4767 26.4837 36.5409 26.3071C36.8499 25.4964 37.183 24.6978 37.5362 23.9072C37.6084 23.7466 37.781 23.5861 37.9455 23.5219C38.6197 23.2691 39.306 23.0443 39.9923 22.8356C40.2451 22.7594 40.3334 22.647 40.3334 22.3741C40.3214 20.548 40.3214 18.722 40.3334 16.8959C40.3334 16.6471 40.2572 16.5347 40.0204 16.4585C39.3181 16.2418 38.6198 16.013 37.9295 15.7562C37.7689 15.696 37.6004 15.5274 37.5281 15.3669C37.179 14.5883 36.8499 13.8057 36.5489 13.0071C36.4767 12.8184 36.4766 12.5455 36.5569 12.3649C36.8579 11.6947 37.2151 11.0486 37.5241 10.3824C37.5763 10.266 37.5442 10.0332 37.4559 9.9409C36.1556 8.61651 34.8392 7.31219 33.5349 5.99181C33.3663 5.82326 33.2379 5.81523 33.0373 5.91958C32.3871 6.26071 31.7209 6.57374 31.0667 6.91487C30.854 7.02725 30.6895 7.03126 30.4607 6.92691C29.6701 6.56973 28.8634 6.26071 28.0688 5.91155C27.9203 5.84332 27.7558 5.69483 27.6996 5.54233C27.4387 4.84 27.2059 4.12563 26.9852 3.41127C26.917 3.19455 26.8126 3.11027 26.5839 3.11027C24.7418 3.1183 22.9037 3.1183 21.0616 3.11027C20.8047 3.11027 20.7004 3.20257 20.6281 3.43534C20.4074 4.13767 20.1827 4.83598 19.9258 5.52226C19.8656 5.68279 19.693 5.84332 19.5325 5.91556C18.7539 6.26472 17.9593 6.56973 17.1807 6.91487C16.964 7.01119 16.7995 7.0433 16.5747 6.92691C15.9125 6.57374 15.2423 6.24064 14.56 5.9276C14.4436 5.87543 14.2069 5.90753 14.1186 5.99181C12.7942 7.29212 11.4818 8.60447 10.1855 9.92886C10.0932 10.0252 10.0571 10.278 10.1133 10.4064C10.4223 11.0887 10.7835 11.7469 11.0966 12.4291C11.1648 12.5736 11.1648 12.7944 11.1046 12.9428C10.7835 13.7616 10.4464 14.5763 10.0892 15.3829C10.025 15.5314 9.86849 15.692 9.71598 15.7481C9.02569 16.001 8.32738 16.2337 7.62505 16.4505C7.37623 16.5267 7.2799 16.6431 7.28392 16.916C7.29596 18.726 7.29596 20.536 7.28392 22.35C7.28392 22.643 7.38827 22.7554 7.65315 22.8356C8.34343 23.0443 9.02569 23.2691 9.69992 23.5259C9.86046 23.5861 10.021 23.7627 10.0932 23.9232C10.3019 24.3928 10.3902 24.9306 10.6671 25.348C11.2531 26.2349 11.2049 27.0054 10.5828 27.8522C10.1815 28.3981 9.91263 29.0442 9.57551 29.6663H15.6035C8.99359 24.1078 10.0491 15.09 14.6042 10.567C19.1833 6.01991 26.5317 5.31357 31.8573 9.5476C34.3255 11.5101 35.9268 14.0545 36.4767 17.1528C37.3676 22.1453 35.7944 26.3272 31.9577 29.7104C32.8526 29.903 33.4426 30.3525 33.7436 31.1512C34.0446 31.9538 33.7596 32.6642 33.3824 33.3344C34.8031 31.9498 36.2198 30.5652 37.6686 29.1526V29.1566ZM26.6962 26.8289C27.3143 26.8289 27.8721 26.8329 28.43 26.8248C28.5223 26.8248 28.6226 26.7606 28.7029 26.7044C31.7971 24.6617 33.2098 20.4758 31.9978 16.9602C30.1477 11.5904 24.0314 9.40312 19.1994 12.385C14.2911 15.411 13.8376 22.647 18.3325 26.255C18.5974 26.4677 18.8623 26.7687 19.1633 26.8168C19.7332 26.9091 20.3271 26.8449 20.9492 26.8449C20.9492 25.8095 20.9653 24.8543 20.9372 23.9032C20.9331 23.6945 20.8288 23.4457 20.6843 23.2972C19.9017 22.4784 19.083 21.6918 18.2964 20.8771C18.172 20.7487 18.0757 20.528 18.0757 20.3474C18.0556 19.1996 18.0396 18.0478 18.0757 16.904C18.0917 16.4465 18.176 15.9488 18.3767 15.5435C19.1111 14.0465 20.4636 13.7214 22.3779 13.9743C22.3779 14.1308 22.3779 14.2913 22.3779 14.4478C22.3779 15.5073 22.3819 16.5669 22.3779 17.6304C22.3779 18.0317 22.5505 18.2243 22.9599 18.2203C23.5338 18.2123 24.1077 18.2123 24.6816 18.2203C25.0709 18.2243 25.2434 18.0317 25.2394 17.6545C25.2394 16.7555 25.2394 15.8565 25.2394 14.9615C25.2394 14.6284 25.2394 14.2913 25.2394 13.906C25.7009 13.906 26.1103 13.898 26.5156 13.906C28.3537 13.9381 29.5377 15.1341 29.5497 16.9762C29.5537 18.0799 29.5658 19.1835 29.5377 20.2912C29.5336 20.5119 29.4253 20.7768 29.2728 20.9373C28.5103 21.736 27.7156 22.5065 26.9411 23.2931C26.8327 23.4015 26.7003 23.554 26.7003 23.6864C26.6802 24.7138 26.6882 25.7453 26.6882 26.8409L26.6962 26.8289ZM20.9251 41.1844V32.2749L20.8248 32.1946L19.4001 33.7237L18.3084 32.7605C19.2917 31.7732 20.2549 30.802 21.2341 29.8469C21.3385 29.7425 21.5472 29.7024 21.7077 29.7024C23.1926 29.6903 24.6816 29.6943 26.1665 29.6943C27.0334 29.6943 27.9042 29.7024 28.7711 29.6903C29.329 29.6823 29.6821 29.2168 29.5096 28.7512C29.3731 28.382 29.0761 28.2656 28.7029 28.2656C25.8334 28.2656 22.9639 28.2656 20.0944 28.2777C19.9178 28.2777 19.7011 28.382 19.5686 28.5104C18.774 29.277 18.0115 30.0756 17.2128 30.8381C17.0443 30.9987 16.7633 31.1151 16.5306 31.1191C14.3513 31.1391 12.1761 31.1311 9.99691 31.1311H9.49525V39.0413H10.0049C11.7106 39.0413 13.4203 39.0333 15.1259 39.0534C15.3426 39.0534 15.6075 39.1738 15.768 39.3223C16.3419 39.852 16.8757 40.4219 17.4336 40.9637C17.5379 41.068 17.6984 41.1724 17.8389 41.1724C18.8543 41.1884 19.8696 41.1804 20.9251 41.1804V41.1844ZM18.0837 27.9165C12.7099 24.0115 12.73 17.1006 16.1332 13.1796C19.8094 8.94159 26.022 8.38374 30.2279 11.9195C32.2747 13.6412 33.5028 15.8404 33.7837 18.5093C34.157 22.057 32.9088 24.9908 30.3162 27.3185L31.0186 28.5586C34.6907 25.8496 36.2559 20.3594 34.6707 15.8926C32.9811 11.1248 28.2494 7.68543 22.6669 8.22722C17.9312 8.68474 13.7172 12.1241 12.5935 17.213C11.534 22.0209 13.7654 26.6563 17.1004 28.9077L18.0797 27.9205L18.0837 27.9165ZM20.9492 15.403C20.1225 15.3588 19.5325 15.9368 19.5084 16.8237C19.4803 17.823 19.4924 18.8223 19.5084 19.8257C19.5084 19.9661 19.5887 20.1387 19.689 20.243C20.3753 20.9494 21.0696 21.6477 21.78 22.334C21.8923 22.4423 22.081 22.5186 22.2375 22.5226C23.2809 22.5386 24.3244 22.5386 25.3719 22.5226C25.5404 22.5226 25.7451 22.4343 25.8655 22.3179C26.5638 21.6437 27.2461 20.9534 27.9283 20.2631C28.0166 20.1748 28.1169 20.0464 28.1169 19.938C28.125 18.8223 28.1571 17.6986 28.0929 16.5869C28.0487 15.8405 27.3705 15.3308 26.6962 15.4391C26.6962 16.0652 26.636 16.7033 26.7123 17.3214C26.8207 18.2003 26.5518 18.8705 25.8374 19.3601C25.6367 19.4966 25.3839 19.621 25.1511 19.633C24.4769 19.6691 23.7946 19.5929 23.1244 19.6611C22.3659 19.7374 21.8161 19.5006 21.3305 18.9186C21.0776 18.6136 20.9372 18.3488 20.9492 17.9474C20.9773 17.1006 20.9572 16.2498 20.9572 15.407L20.9492 15.403ZM5.89131 29.7184V41.1603H7.98223V29.7184H5.89131ZM22.3819 31.1592V31.689C22.3819 34.6026 22.3819 37.5163 22.3819 40.4299C22.3819 41.4011 22.3739 42.3724 22.386 43.3436C22.394 44.0218 22.8074 44.5516 23.4214 44.7201C24.0033 44.8767 24.501 44.7201 24.8983 44.2747C25.3478 43.769 25.2515 43.1509 25.2153 42.553C25.2153 42.4968 25.0949 42.4406 25.0227 42.3964C23.7746 41.646 23.4776 40.4701 24.216 39.238C24.2762 39.1376 24.2722 38.933 24.208 38.8326C23.6903 38.0139 23.6903 37.2072 24.204 36.3845C24.2682 36.2802 24.2802 36.0755 24.22 35.9792C23.6863 35.1444 23.6823 34.3257 24.22 33.4949C24.2722 33.4107 24.3244 33.2501 24.2842 33.1939C23.8388 32.5839 23.7184 31.9177 23.9231 31.1632H22.386L22.3819 31.1592ZM28.8474 32.5799C29.7744 32.5799 30.7015 32.592 31.6286 32.5719C32.1182 32.5639 32.4232 32.2629 32.4232 31.8575C32.4232 31.4562 32.1182 31.1712 31.6326 31.1311C31.5443 31.1231 31.456 31.1311 31.3677 31.1311C29.6781 31.1311 27.9845 31.1311 26.2949 31.1311C26.1183 31.1311 25.9377 31.1391 25.7732 31.1873C25.3397 31.3077 25.1351 31.7773 25.3357 32.1706C25.5043 32.5037 25.8173 32.5759 26.1544 32.5759C27.0534 32.5759 27.9484 32.5759 28.8474 32.5759V32.5799ZM28.8273 38.3229C29.6661 38.3229 30.5049 38.3229 31.3436 38.3229C31.4761 38.3229 31.6085 38.3229 31.741 38.3069C32.1463 38.2587 32.3871 38.03 32.4192 37.6206C32.4473 37.2434 32.1744 36.9584 31.745 36.8902C31.6567 36.8782 31.5684 36.8741 31.4801 36.8741C29.7142 36.8741 27.9484 36.8741 26.1866 36.8741C26.0421 36.8741 25.8896 36.8942 25.7531 36.9343C25.428 37.0307 25.2675 37.2795 25.2715 37.5965C25.2715 37.9296 25.4441 38.1905 25.7933 38.2708C25.9618 38.3069 26.1424 38.3189 26.319 38.3189C27.1578 38.3229 27.9966 38.3189 28.8353 38.3189L28.8273 38.3229ZM28.8474 34.0167C27.9364 34.0167 27.0253 34.0127 26.1103 34.0167C25.5886 34.0167 25.2715 34.2856 25.2635 34.711C25.2515 35.1524 25.5805 35.4374 26.1223 35.4414C27.9323 35.4454 29.7383 35.4414 31.5483 35.4414C32.0981 35.4414 32.4232 35.1645 32.4192 34.723C32.4192 34.2856 32.0941 34.0207 31.5363 34.0167C30.6373 34.0127 29.7423 34.0167 28.8434 34.0167H28.8474ZM28.8193 41.1884C29.7303 41.1884 30.6413 41.1884 31.5563 41.1884C32.1022 41.1884 32.4312 40.9035 32.4232 40.466C32.4152 40.0406 32.0981 39.7677 31.5804 39.7677C29.7584 39.7637 27.9323 39.7637 26.1103 39.7677C25.5926 39.7677 25.2755 40.0446 25.2675 40.4701C25.2595 40.9075 25.5886 41.1884 26.1344 41.1924C27.0293 41.1965 27.9283 41.1924 28.8273 41.1924L28.8193 41.1884ZM22.406 26.8088H25.2113V23.9794H22.406V26.8088Z" fill="black"/>
<path d="M45.3572 44.0656C45.3532 45.2495 44.3538 46.2248 43.1739 46.2087C42.0061 46.1927 41.0429 45.2094 41.0469 44.0496C41.0549 42.8897 42.0221 41.9145 43.186 41.9025C44.3579 41.8904 45.3572 42.8857 45.3532 44.0656H45.3572ZM43.19 43.3593C42.8007 43.3673 42.4997 43.6763 42.5037 44.0656C42.5037 44.4469 42.8248 44.772 43.202 44.776C43.5873 44.776 43.9324 44.4228 43.9164 44.0375C43.9003 43.6523 43.5793 43.3553 43.194 43.3633L43.19 43.3593Z" fill="black"/>
<path d="M3.67518 16.037H2.30664V14.6484H3.67518V16.037Z" fill="black"/>
<path d="M42.4841 31.1505H43.8927V32.5752C43.4954 32.5752 43.0901 32.5873 42.6847 32.5632C42.6125 32.5632 42.4961 32.4227 42.4921 32.3424C42.472 31.9652 42.4841 31.5839 42.4841 31.1465V31.1505Z" fill="black"/>
<path d="M3.67528 12.4488H2.30273V11.0723H3.67528V12.4488Z" fill="black"/>
<path d="M42.5098 34.7422H43.9024V36.1228H42.5098V34.7422Z" fill="black"/>
<path d="M2.29492 7.45312H3.68353V8.84173H2.29492V7.45312Z" fill="black"/>
<path d="M42.5098 38.3477H43.9024V39.7322H42.5098V38.3477Z" fill="black"/>
</svg>
