<svg width="57" height="31" viewBox="0 0 57 31" fill="none" xmlns="http://www.w3.org/2000/svg">
<g clip-path="url(#clip0_97_7857)">
<path d="M56.1021 30.3328C55.8346 30.7566 55.4445 30.8712 54.9447 30.8712C37.0438 30.8626 19.1443 30.864 1.24334 30.8626C1.07967 30.8626 0.907238 30.8798 0.753801 30.8382C0.316872 30.7208 0.0626055 30.4359 0.106445 29.9763C0.147361 29.5511 0.403089 29.2977 0.847325 29.259C1.02853 29.2433 1.21119 29.2504 1.39385 29.2504C4.56488 29.2504 7.7359 29.2504 10.98 29.2504C10.8426 28.9254 10.7111 28.6448 10.6074 28.3556C10.4013 27.7785 10.5737 27.3061 11.0341 27.1443C11.5251 26.9725 11.9181 27.1958 12.1593 27.7871C12.5874 28.8352 13.489 29.3778 14.5032 29.1946C15.3931 29.0342 16.0142 28.4529 16.2027 27.5981C16.3839 26.782 16.0653 25.9645 15.3522 25.4949C14.5982 24.998 13.8193 25.0081 13.0375 25.4476C12.9586 25.492 12.8885 25.5521 12.8095 25.5965C12.3697 25.8442 11.905 25.7669 11.6434 25.4032C11.3731 25.0281 11.4315 24.5599 11.8655 24.2807C12.3302 23.98 12.8461 23.7538 13.4408 23.4417C13.8807 20.2546 14.3395 16.9386 14.8071 13.5524C14.6055 13.4923 14.4228 13.4364 14.2402 13.3863C10.3005 12.3125 6.36082 11.2415 2.42115 10.1677C1.58382 9.94005 1.40116 9.62076 1.63204 8.79033C1.79425 8.20617 1.9623 7.62344 2.12742 7.0407C2.28817 6.47515 2.44891 5.9096 2.61988 5.30539C2.4416 5.22664 2.26479 5.15219 2.09089 5.07201C1.03145 4.57948 0.537529 3.40399 0.935003 2.3273C1.32663 1.26921 2.45183 0.654983 3.56388 0.941338C5.23269 1.37087 6.89565 1.82761 8.55715 2.28434C9.15044 2.44757 9.41348 2.86708 9.26442 3.35818C9.12998 3.80346 8.68721 4.00534 8.10561 3.85071C6.61508 3.4541 5.12894 3.04319 3.63987 2.63942C3.51712 2.60649 3.39291 2.57786 3.27162 2.5435C2.89461 2.43754 2.60673 2.55209 2.50298 2.92435C2.40069 3.28945 2.57166 3.54717 2.95306 3.65312C4.23024 4.00534 5.50595 4.35899 6.78459 4.70691C19.1794 8.08447 31.5727 11.4606 43.9674 14.8367C46.8564 15.6242 49.7439 16.4145 52.6315 17.202C52.7542 17.2349 52.877 17.2693 53.0026 17.2894C53.3563 17.3452 53.6266 17.2349 53.7041 16.8698C53.7771 16.5248 53.631 16.2757 53.2715 16.1769C52.1171 15.8576 50.9627 15.5369 49.8068 15.2219C37.0613 11.7484 24.3144 8.27633 11.5674 4.80427C11.0984 4.67684 10.7038 4.4721 10.717 3.9137C10.7272 3.50422 10.9756 3.23075 11.3658 3.16059C11.601 3.11907 11.8685 3.18923 12.1096 3.25509C17.8876 4.82575 23.6626 6.40213 29.4392 7.97852C32.993 8.94783 36.5455 9.91857 40.0993 10.8893C40.1666 10.9079 40.2353 10.9165 40.3565 10.9409C40.5363 10.3324 40.7058 9.73817 40.8885 9.14685C41.2275 8.04151 42.1613 7.48455 43.285 7.748C44.0259 7.92268 44.758 8.13888 45.4872 8.35937C46.0176 8.5183 46.2529 8.91776 46.1258 9.37593C46.0045 9.81262 45.55 10.0446 45.0356 9.91285C44.3678 9.7396 43.7015 9.5592 43.041 9.36448C42.7385 9.27571 42.5426 9.33727 42.4564 9.6451C42.2986 10.2092 42.1437 10.7733 41.9713 11.3976C44.7741 12.1622 47.5505 12.9181 50.3796 13.6899C50.5564 13.0656 50.7216 12.4686 50.8955 11.8744C50.9934 11.5422 50.7595 11.4749 50.5243 11.4105C49.8068 11.2115 49.0893 11.0196 48.3718 10.8206C47.777 10.6559 47.4731 10.2407 47.609 9.78399C47.7507 9.30577 48.1993 9.09387 48.8014 9.24993C49.5744 9.44895 50.3445 9.65942 51.1117 9.88135C52.2442 10.2092 52.7893 11.1656 52.497 12.2939C52.3451 12.8795 52.177 13.4622 51.9973 14.118C52.5847 14.2826 53.1532 14.4344 53.7172 14.6019C54.765 14.9126 55.4737 15.8547 55.4079 16.8369C55.3349 17.9136 54.5809 18.7326 53.4761 18.9302C53.3694 18.9488 53.2584 18.9559 53.1502 18.9574C52.8741 18.9617 52.5058 18.8529 52.3451 18.9874C52.1595 19.1406 52.1536 19.5043 52.0747 19.7792C51.8146 20.6884 51.5662 21.599 51.2958 22.5053C51.1059 23.1453 50.7654 23.3243 50.1078 23.1625C49.8082 23.0895 49.5101 23.0122 49.2106 22.9406C49.1813 22.9334 49.1433 22.9563 49.0732 22.9749V26.4914C49.554 26.4914 50.0201 26.4885 50.4863 26.4914C51.6582 26.4985 52.3568 27.1772 52.3684 28.3183C52.3714 28.6032 52.3684 28.8867 52.3684 29.2504C53.2131 29.2504 54.027 29.2733 54.8395 29.2418C55.3378 29.2232 55.763 29.312 56.0991 29.69V30.3328H56.1021ZM43.9586 26.4441C43.9586 24.8606 43.9689 23.31 43.9411 21.7594C43.9382 21.6305 43.7044 21.4329 43.5436 21.3885C37.9834 19.858 32.4202 18.3403 26.8526 16.8383C26.6641 16.7882 26.3529 16.8741 26.2097 17.0102C23.3733 19.6819 20.5559 22.3722 17.7268 25.051C17.5135 25.2529 17.455 25.4047 17.5865 25.691C18.079 26.7634 18.0352 27.8344 17.4901 28.8853C17.4375 28.987 17.4083 29.1001 17.3659 29.2146H40.6006C40.643 28.3498 40.4647 27.4421 41.2976 26.8321C42.0955 26.2494 43.0293 26.6059 43.9601 26.4427L43.9586 26.4441ZM16.4248 13.9834C15.9762 17.2407 15.5407 20.3977 15.1038 23.5634C15.5173 23.7524 15.909 23.9299 16.3298 24.1218C19.0785 21.5059 21.8316 18.8858 24.6329 16.2212C21.8623 15.4653 19.172 14.7322 16.4248 13.9834ZM42.3278 29.2118H50.6719V28.1594H42.3278V29.2118ZM49.6183 18.0697C47.6528 17.5356 45.8233 17.0388 43.8666 16.5076C44.6206 17.7375 45.2987 18.84 45.9884 19.9639C47.194 19.3354 48.3513 18.7297 49.6183 18.0682V18.0697ZM38.3399 18.1556L38.3765 18.2816C40.1812 18.7727 41.9874 19.2623 43.9411 19.7935C43.1885 18.5665 42.5163 17.4683 41.8266 16.3415C40.6298 16.9643 39.4856 17.56 38.3414 18.1541L38.3399 18.1556ZM36.3599 17.3366C37.5771 16.7052 38.7272 16.1081 39.9956 15.4495C38.0448 14.9169 36.2094 14.4158 34.2425 13.8789C34.9877 15.0944 35.657 16.1883 36.3599 17.3366ZM5.37005 6.00553C6.12847 7.24402 6.79775 8.33789 7.48894 9.4647C8.6799 8.84474 9.8431 8.2391 11.1261 7.57046C9.14752 7.03211 7.3355 6.53958 5.37005 6.0041V6.00553ZM20.7459 10.2006C18.7921 9.66658 16.9567 9.16546 14.9927 8.62997C15.7424 9.85271 16.4175 10.9552 17.1116 12.0863C18.3245 11.4563 19.476 10.8593 20.7459 10.2006ZM28.5668 15.6056C30.5205 16.1368 32.3559 16.6365 34.3199 17.1705C33.5644 15.9406 32.8878 14.8367 32.201 13.7171C30.9998 14.3413 29.8483 14.9384 28.5668 15.6042V15.6056ZM12.9586 8.46675C11.7632 9.08671 10.5971 9.69235 9.32288 10.3553C11.2737 10.8879 13.1076 11.3876 15.0716 11.9231C14.3351 10.7175 13.6659 9.62363 12.9586 8.46675ZM18.9543 12.9826C20.93 13.5195 22.7391 14.012 24.6958 14.5432C23.9344 13.3033 23.2637 12.2108 22.5769 11.0912C21.3859 11.7126 20.2446 12.3096 18.9543 12.9826ZM26.7357 14.715C27.9282 14.0951 29.0884 13.4909 30.3773 12.8222C28.4089 12.2896 26.5852 11.7942 24.6227 11.263C25.3709 12.4843 26.0314 13.5653 26.7357 14.715ZM45.6304 21.9512V26.4584H47.343V22.418C46.7746 22.2633 46.2193 22.1116 45.6304 21.9512ZM3.9219 6.80446C3.7144 7.54182 3.55073 8.12742 3.3783 8.73736C4.06073 8.91919 4.68032 9.08528 5.4402 9.28859L3.92044 6.80446H3.9219ZM50.4351 19.4929C49.5277 19.9653 48.721 20.3863 47.8209 20.8559C48.5881 21.0592 49.2266 21.2296 49.893 21.4071C50.0771 20.7585 50.2408 20.1801 50.4351 19.4929Z" fill="black"/>
</g>
<defs>
<clipPath id="clip0_97_7857">
<rect width="56" height="30" fill="white" transform="translate(0.101562 0.871094)"/>
</clipPath>
</defs>
</svg>
