<svg width="160" height="235" viewBox="0 0 160 235" fill="none" xmlns="http://www.w3.org/2000/svg">
<path d="M46.9157 184.961V202.416H44.8021V184.961H46.9157ZM50.8809 202.416V189.325H52.8241V191.371H52.9946C53.2673 190.672 53.7077 190.129 54.3156 189.743C54.9236 189.351 55.6537 189.155 56.5059 189.155C57.3696 189.155 58.0883 189.351 58.6622 189.743C59.2417 190.129 59.6934 190.672 60.0173 191.371H60.1537C60.4889 190.694 60.9917 190.157 61.6622 189.76C62.3327 189.356 63.1366 189.155 64.0741 189.155C65.2446 189.155 66.202 189.521 66.9463 190.254C67.6906 190.981 68.0628 192.115 68.0628 193.655V202.416H66.0514V193.655C66.0514 192.689 65.7872 191.998 65.2588 191.584C64.7304 191.169 64.1082 190.961 63.3923 190.961C62.4719 190.961 61.7588 191.24 61.2531 191.797C60.7474 192.348 60.4946 193.047 60.4946 193.893V202.416H58.4491V193.45C58.4491 192.706 58.2077 192.106 57.7247 191.652C57.2417 191.192 56.6196 190.961 55.8582 190.961C55.3355 190.961 54.8469 191.101 54.3923 191.379C53.9434 191.657 53.5798 192.044 53.3014 192.538C53.0287 193.027 52.8923 193.592 52.8923 194.234V202.416H50.8809ZM71.7403 207.325V189.325H73.6835V191.405H73.9221C74.0699 191.177 74.2744 190.888 74.5358 190.535C74.8028 190.177 75.1835 189.859 75.6778 189.581C76.1778 189.297 76.854 189.155 77.7062 189.155C78.8085 189.155 79.7801 189.43 80.621 189.981C81.4619 190.532 82.1182 191.314 82.5898 192.325C83.0613 193.336 83.2971 194.53 83.2971 195.905C83.2971 197.291 83.0613 198.493 82.5898 199.51C82.1182 200.521 81.4648 201.305 80.6295 201.862C79.7943 202.413 78.8312 202.689 77.7403 202.689C76.8994 202.689 76.2261 202.55 75.7204 202.271C75.2148 201.987 74.8256 201.666 74.5528 201.308C74.2801 200.944 74.0699 200.643 73.9221 200.405H73.7517V207.325H71.7403ZM73.7176 195.871C73.7176 196.859 73.8625 197.731 74.1523 198.487C74.442 199.237 74.8653 199.825 75.4221 200.251C75.979 200.672 76.6608 200.882 77.4676 200.882C78.3085 200.882 79.0102 200.66 79.5727 200.217C80.1409 199.768 80.567 199.166 80.8511 198.41C81.1409 197.649 81.2858 196.802 81.2858 195.871C81.2858 194.95 81.1437 194.121 80.8596 193.382C80.5812 192.638 80.1579 192.05 79.5898 191.618C79.0273 191.18 78.3199 190.961 77.4676 190.961C76.6494 190.961 75.9619 191.169 75.4051 191.584C74.8483 191.993 74.4278 192.567 74.1437 193.305C73.8596 194.038 73.7176 194.893 73.7176 195.871ZM91.6835 202.689C90.5017 202.689 89.4648 202.407 88.5727 201.845C87.6863 201.282 86.9932 200.496 86.4932 199.484C85.9988 198.473 85.7517 197.291 85.7517 195.939C85.7517 194.575 85.9988 193.385 86.4932 192.368C86.9932 191.351 87.6863 190.561 88.5727 189.998C89.4648 189.436 90.5017 189.155 91.6835 189.155C92.8653 189.155 93.8994 189.436 94.7858 189.998C95.6778 190.561 96.371 191.351 96.8653 192.368C97.3653 193.385 97.6153 194.575 97.6153 195.939C97.6153 197.291 97.3653 198.473 96.8653 199.484C96.371 200.496 95.6778 201.282 94.7858 201.845C93.8994 202.407 92.8653 202.689 91.6835 202.689ZM91.6835 200.882C92.5812 200.882 93.3199 200.652 93.8994 200.192C94.479 199.731 94.9079 199.126 95.1863 198.376C95.4648 197.626 95.604 196.814 95.604 195.939C95.604 195.064 95.4648 194.248 95.1863 193.493C94.9079 192.737 94.479 192.126 93.8994 191.66C93.3199 191.194 92.5812 190.961 91.6835 190.961C90.7858 190.961 90.0471 191.194 89.4676 191.66C88.8881 192.126 88.4591 192.737 88.1807 193.493C87.9023 194.248 87.7631 195.064 87.7631 195.939C87.7631 196.814 87.9023 197.626 88.1807 198.376C88.4591 199.126 88.8881 199.731 89.4676 200.192C90.0471 200.652 90.7858 200.882 91.6835 200.882ZM100.686 202.416V189.325H102.629V191.302H102.765C103.004 190.655 103.436 190.129 104.061 189.726C104.686 189.322 105.39 189.121 106.174 189.121C106.322 189.121 106.507 189.123 106.728 189.129C106.95 189.135 107.117 189.143 107.231 189.155V191.2C107.163 191.183 107.007 191.157 106.762 191.123C106.524 191.084 106.271 191.064 106.004 191.064C105.367 191.064 104.799 191.197 104.299 191.464C103.805 191.726 103.413 192.089 103.123 192.555C102.839 193.015 102.697 193.541 102.697 194.132V202.416H100.686ZM116.129 189.325V191.03H109.345V189.325H116.129ZM111.322 186.189H113.333V198.666C113.333 199.234 113.416 199.66 113.581 199.944C113.751 200.223 113.967 200.41 114.228 200.507C114.495 200.598 114.777 200.643 115.072 200.643C115.294 200.643 115.475 200.632 115.617 200.609C115.759 200.581 115.873 200.558 115.958 200.541L116.367 202.348C116.231 202.399 116.041 202.45 115.796 202.501C115.552 202.558 115.242 202.586 114.867 202.586C114.299 202.586 113.742 202.464 113.197 202.22C112.657 201.976 112.208 201.604 111.85 201.104C111.498 200.604 111.322 199.973 111.322 199.211V186.189ZM23.3866 218.325C23.2844 217.461 22.8696 216.791 22.1423 216.314C21.415 215.836 20.523 215.598 19.4662 215.598C18.6934 215.598 18.0173 215.723 17.4378 215.973C16.8639 216.223 16.415 216.567 16.0912 217.004C15.773 217.442 15.6139 217.939 15.6139 218.496C15.6139 218.961 15.7247 219.362 15.9463 219.697C16.1736 220.027 16.4633 220.302 16.8156 220.524C17.1679 220.74 17.5372 220.919 17.9236 221.061C18.3099 221.197 18.665 221.308 18.9889 221.393L20.7616 221.871C21.2162 221.99 21.7219 222.155 22.2787 222.365C22.8412 222.575 23.3781 222.862 23.8895 223.226C24.4065 223.584 24.8327 224.044 25.1679 224.606C25.5031 225.169 25.6707 225.859 25.6707 226.677C25.6707 227.621 25.4236 228.473 24.9292 229.234C24.4406 229.996 23.7247 230.601 22.7815 231.05C21.844 231.498 20.7048 231.723 19.3639 231.723C18.1139 231.723 17.0315 231.521 16.1167 231.118C15.2077 230.714 14.4917 230.152 13.969 229.43C13.452 228.709 13.1594 227.871 13.0912 226.916H15.273C15.3298 227.575 15.5514 228.121 15.9378 228.552C16.3298 228.979 16.8241 229.297 17.4207 229.507C18.023 229.711 18.6707 229.814 19.3639 229.814C20.1707 229.814 20.8952 229.683 21.5372 229.422C22.1792 229.155 22.6878 228.785 23.0628 228.314C23.4378 227.836 23.6253 227.28 23.6253 226.643C23.6253 226.064 23.4633 225.592 23.1395 225.229C22.8156 224.865 22.3895 224.569 21.8611 224.342C21.3327 224.115 20.7616 223.916 20.148 223.746L18.0003 223.132C16.6366 222.74 15.5571 222.18 14.7616 221.453C13.9662 220.726 13.5684 219.774 13.5684 218.598C13.5684 217.621 13.8327 216.768 14.3611 216.041C14.8952 215.308 15.6111 214.74 16.5088 214.336C17.4122 213.927 18.4207 213.723 19.5344 213.723C20.6594 213.723 21.6594 213.925 22.5344 214.328C23.4094 214.726 24.1025 215.271 24.6139 215.964C25.1309 216.657 25.4037 217.444 25.4321 218.325H23.3866ZM37.1231 226.064V218.325H39.1345V231.416H37.1231V229.2H36.9868C36.68 229.865 36.2027 230.43 35.555 230.896C34.9072 231.356 34.089 231.586 33.1004 231.586C32.2822 231.586 31.555 231.407 30.9186 231.05C30.2822 230.686 29.7822 230.14 29.4186 229.413C29.055 228.68 28.8731 227.757 28.8731 226.643V218.325H30.8845V226.507C30.8845 227.461 31.1515 228.223 31.6856 228.791C32.2254 229.359 32.9129 229.643 33.7481 229.643C34.2481 229.643 34.7567 229.515 35.2737 229.26C35.7964 229.004 36.2339 228.612 36.5862 228.084C36.9442 227.555 37.1231 226.882 37.1231 226.064ZM43.0912 231.416V213.961H45.1025V220.405H45.273C45.4207 220.177 45.6253 219.888 45.8866 219.535C46.1537 219.177 46.5344 218.859 47.0287 218.581C47.5287 218.297 48.2048 218.155 49.0571 218.155C50.1594 218.155 51.1309 218.43 51.9719 218.981C52.8128 219.532 53.469 220.314 53.9406 221.325C54.4122 222.336 54.648 223.53 54.648 224.905C54.648 226.291 54.4122 227.493 53.9406 228.51C53.469 229.521 52.8156 230.305 51.9804 230.862C51.1452 231.413 50.1821 231.689 49.0912 231.689C48.2503 231.689 47.577 231.55 47.0713 231.271C46.5656 230.987 46.1764 230.666 45.9037 230.308C45.6309 229.944 45.4207 229.643 45.273 229.405H45.0344V231.416H43.0912ZM45.0684 224.871C45.0684 225.859 45.2133 226.731 45.5031 227.487C45.7929 228.237 46.2162 228.825 46.773 229.251C47.3298 229.672 48.0116 229.882 48.8184 229.882C49.6594 229.882 50.3611 229.66 50.9236 229.217C51.4917 228.768 51.9179 228.166 52.202 227.41C52.4917 226.649 52.6366 225.802 52.6366 224.871C52.6366 223.95 52.4946 223.121 52.2105 222.382C51.9321 221.638 51.5088 221.05 50.9406 220.618C50.3781 220.18 49.6707 219.961 48.8184 219.961C48.0003 219.961 47.3128 220.169 46.7559 220.584C46.1991 220.993 45.7787 221.567 45.4946 222.305C45.2105 223.038 45.0684 223.893 45.0684 224.871ZM66.9974 221.257L65.1906 221.768C65.077 221.467 64.9094 221.175 64.6878 220.89C64.4719 220.601 64.1764 220.362 63.8014 220.175C63.4264 219.987 62.9463 219.893 62.3611 219.893C61.5599 219.893 60.8923 220.078 60.3582 220.447C59.8298 220.811 59.5656 221.274 59.5656 221.836C59.5656 222.336 59.7474 222.731 60.1111 223.021C60.4747 223.311 61.0429 223.552 61.8156 223.746L63.7588 224.223C64.9292 224.507 65.8014 224.942 66.3753 225.527C66.9491 226.106 67.2361 226.854 67.2361 227.768C67.2361 228.518 67.0202 229.189 66.5883 229.78C66.1622 230.371 65.5656 230.836 64.7986 231.177C64.0315 231.518 63.1395 231.689 62.1224 231.689C60.7872 231.689 59.6821 231.399 58.8071 230.819C57.9321 230.24 57.3781 229.393 57.1452 228.28L59.0542 227.802C59.2361 228.507 59.5798 229.035 60.0855 229.388C60.5969 229.74 61.2645 229.916 62.0883 229.916C63.0258 229.916 63.7702 229.717 64.3213 229.319C64.8781 228.916 65.1565 228.433 65.1565 227.871C65.1565 227.416 64.9974 227.035 64.6792 226.729C64.3611 226.416 63.8724 226.183 63.2133 226.03L61.0315 225.518C59.8327 225.234 58.952 224.794 58.3895 224.197C57.8327 223.595 57.5542 222.842 57.5542 221.939C57.5542 221.2 57.7616 220.547 58.1764 219.979C58.5969 219.41 59.1679 218.964 59.8895 218.64C60.6167 218.317 61.4406 218.155 62.3611 218.155C63.6565 218.155 64.6736 218.439 65.4122 219.007C66.1565 219.575 66.6849 220.325 66.9974 221.257ZM75.9569 218.325V220.03H69.1729V218.325H75.9569ZM71.1501 215.189H73.1615V227.666C73.1615 228.234 73.2439 228.66 73.4086 228.944C73.5791 229.223 73.795 229.41 74.0564 229.507C74.3234 229.598 74.6047 229.643 74.9001 229.643C75.1217 229.643 75.3035 229.632 75.4456 229.609C75.5876 229.581 75.7013 229.558 75.7865 229.541L76.1956 231.348C76.0592 231.399 75.8689 231.45 75.6246 231.501C75.3802 231.558 75.0706 231.586 74.6956 231.586C74.1274 231.586 73.5706 231.464 73.0251 231.22C72.4854 230.976 72.0365 230.604 71.6785 230.104C71.3263 229.604 71.1501 228.973 71.1501 228.211V215.189ZM78.9825 231.416V218.325H80.9939V231.416H78.9825ZM80.0052 216.143C79.6132 216.143 79.2751 216.01 78.991 215.743C78.7126 215.476 78.5734 215.155 78.5734 214.78C78.5734 214.405 78.7126 214.084 78.991 213.817C79.2751 213.55 79.6132 213.416 80.0052 213.416C80.3973 213.416 80.7325 213.55 81.0109 213.817C81.295 214.084 81.4371 214.405 81.4371 214.78C81.4371 215.155 81.295 215.476 81.0109 215.743C80.7325 216.01 80.3973 216.143 80.0052 216.143ZM90.371 218.325V220.03H83.5869V218.325H90.371ZM85.5642 215.189H87.5756V227.666C87.5756 228.234 87.6579 228.66 87.8227 228.944C87.9932 229.223 88.2091 229.41 88.4704 229.507C88.7375 229.598 89.0187 229.643 89.3142 229.643C89.5358 229.643 89.7176 229.632 89.8596 229.609C90.0017 229.581 90.1153 229.558 90.2006 229.541L90.6096 231.348C90.4733 231.399 90.2829 231.45 90.0386 231.501C89.7943 231.558 89.4846 231.586 89.1096 231.586C88.5415 231.586 87.9846 231.464 87.4392 231.22C86.8994 230.976 86.4506 230.604 86.0926 230.104C85.7403 229.604 85.5642 228.973 85.5642 228.211V215.189ZM101.647 226.064V218.325H103.658V231.416H101.647V229.2H101.51C101.203 229.865 100.726 230.43 100.078 230.896C99.4307 231.356 98.6125 231.586 97.6238 231.586C96.8057 231.586 96.0784 231.407 95.442 231.05C94.8057 230.686 94.3057 230.14 93.942 229.413C93.5784 228.68 93.3966 227.757 93.3966 226.643V218.325H95.4079V226.507C95.4079 227.461 95.675 228.223 96.2091 228.791C96.7488 229.359 97.4363 229.643 98.2716 229.643C98.7716 229.643 99.2801 229.515 99.7971 229.26C100.32 229.004 100.757 228.612 101.11 228.084C101.468 227.555 101.647 226.882 101.647 226.064ZM113.035 218.325V220.03H106.251V218.325H113.035ZM108.228 215.189H110.24V227.666C110.24 228.234 110.322 228.66 110.487 228.944C110.657 229.223 110.873 229.41 111.134 229.507C111.402 229.598 111.683 229.643 111.978 229.643C112.2 229.643 112.382 229.632 112.524 229.609C112.666 229.581 112.779 229.558 112.865 229.541L113.274 231.348C113.137 231.399 112.947 231.45 112.703 231.501C112.458 231.558 112.149 231.586 111.774 231.586C111.206 231.586 110.649 231.464 110.103 231.22C109.563 230.976 109.115 230.604 108.757 230.104C108.404 229.604 108.228 228.973 108.228 228.211V215.189ZM116.061 231.416V218.325H118.072V231.416H116.061ZM117.083 216.143C116.691 216.143 116.353 216.01 116.069 215.743C115.791 215.476 115.652 215.155 115.652 214.78C115.652 214.405 115.791 214.084 116.069 213.817C116.353 213.55 116.691 213.416 117.083 213.416C117.475 213.416 117.811 213.55 118.089 213.817C118.373 214.084 118.515 214.405 118.515 214.78C118.515 215.155 118.373 215.476 118.089 215.743C117.811 216.01 117.475 216.143 117.083 216.143ZM127.074 231.689C125.892 231.689 124.855 231.407 123.963 230.845C123.077 230.282 122.384 229.496 121.884 228.484C121.389 227.473 121.142 226.291 121.142 224.939C121.142 223.575 121.389 222.385 121.884 221.368C122.384 220.351 123.077 219.561 123.963 218.998C124.855 218.436 125.892 218.155 127.074 218.155C128.256 218.155 129.29 218.436 130.176 218.998C131.068 219.561 131.762 220.351 132.256 221.368C132.756 222.385 133.006 223.575 133.006 224.939C133.006 226.291 132.756 227.473 132.256 228.484C131.762 229.496 131.068 230.282 130.176 230.845C129.29 231.407 128.256 231.689 127.074 231.689ZM127.074 229.882C127.972 229.882 128.71 229.652 129.29 229.192C129.87 228.731 130.299 228.126 130.577 227.376C130.855 226.626 130.995 225.814 130.995 224.939C130.995 224.064 130.855 223.248 130.577 222.493C130.299 221.737 129.87 221.126 129.29 220.66C128.71 220.194 127.972 219.961 127.074 219.961C126.176 219.961 125.438 220.194 124.858 220.66C124.279 221.126 123.85 221.737 123.571 222.493C123.293 223.248 123.154 224.064 123.154 224.939C123.154 225.814 123.293 226.626 123.571 227.376C123.85 228.126 124.279 228.731 124.858 229.192C125.438 229.652 126.176 229.882 127.074 229.882ZM138.088 223.541V231.416H136.076V218.325H138.019V220.371H138.19C138.497 219.706 138.963 219.172 139.588 218.768C140.213 218.359 141.019 218.155 142.008 218.155C142.894 218.155 143.67 218.336 144.335 218.7C145 219.058 145.517 219.604 145.886 220.336C146.255 221.064 146.44 221.984 146.44 223.098V231.416H144.429V223.234C144.429 222.206 144.161 221.405 143.627 220.831C143.093 220.251 142.36 219.961 141.429 219.961C140.786 219.961 140.213 220.101 139.707 220.379C139.207 220.657 138.812 221.064 138.522 221.598C138.233 222.132 138.088 222.78 138.088 223.541Z" fill="black"/>
<circle cx="80.0022" cy="80.0022" r="78.0022" fill="white" stroke="#777100" stroke-width="4"/>
<circle cx="80.0005" cy="80.0024" r="69.3657" fill="white"/>
<path d="M39.7643 98.3798C40.208 97.7358 40.8233 97.5784 41.5818 97.5784C58.0253 97.5927 74.4831 97.5784 90.9265 97.5784H91.9426C91.9426 96.7913 91.9426 96.0614 91.9426 95.3458C91.914 92.8843 91.9999 90.4228 91.7995 87.9756C91.6278 85.8433 90.5115 85.0132 88.3935 85.0132C87.4776 85.0132 86.5616 85.0132 85.6457 85.0132C84.7728 84.9989 84.2432 84.5123 84.2576 83.7538C84.2576 82.9954 84.7871 82.5231 85.66 82.5088C86.7334 82.4945 87.8067 82.4945 88.88 82.5088C91.1698 82.5517 92.8013 83.6394 93.7888 85.6858C93.8746 85.8433 93.9462 86.015 94.0177 86.1867C94.0177 86.2154 94.0464 86.2297 94.1036 86.2726C98.1537 86.2726 102.247 86.3012 106.325 86.2583C108.2 86.2297 109.645 86.888 110.819 88.3477C113.438 91.582 116.128 94.7591 118.79 97.9648C119.763 99.1383 120.25 100.469 120.25 102.001C120.25 105.793 120.25 109.6 120.25 113.392C120.25 115.381 119.191 116.44 117.187 116.44C116.272 116.44 115.37 116.44 114.44 116.44L114.64 113.922H117.688C117.703 113.593 117.731 113.335 117.731 113.077C117.731 109.414 117.731 105.75 117.731 102.072C117.731 101.085 117.431 100.24 116.787 99.4818C114.096 96.2618 111.42 93.0418 108.758 89.8074C108.157 89.0919 107.456 88.7484 106.511 88.7627C102.533 88.7914 98.5544 88.7627 94.5043 88.7627V113.879H98.168L98.3683 116.383H74.1825L74.3686 113.922H91.8854V100.083H90.9122C74.4687 100.083 58.011 100.083 41.5675 100.083C40.7947 100.083 40.1936 99.9254 39.75 99.2814V98.3369L39.7643 98.3798Z" fill="#777100"/>
<path d="M39.7637 59.7254C40.2216 59.0957 40.8227 58.881 41.5955 58.9383C42.3969 58.9955 43.2126 58.9383 44.1572 58.9383V58.008C44.1572 52.5555 44.1572 47.1173 44.1572 41.6648C44.1572 41.4358 44.1572 41.1925 44.1572 40.9635C44.2144 40.2623 44.7153 39.7614 45.3736 39.7757C46.0749 39.7757 46.4899 40.1764 46.633 40.849C46.6902 41.1066 46.6616 41.3642 46.6616 41.6361C46.6616 47.6039 46.6616 53.5716 46.6616 59.5536C46.6616 61.1422 46.3325 61.4713 44.7153 61.4713C44.3432 61.4713 43.9854 61.4713 43.413 61.4713L48.565 68.9847L53.717 61.4713C52.9871 61.4713 52.429 61.4713 51.8709 61.4713C50.8977 61.4427 50.4398 60.9991 50.4398 60.0116C50.4398 55.8184 50.4398 51.6253 50.4398 47.4464C50.4398 46.416 50.8691 45.8865 51.6848 45.8865C52.5006 45.8865 52.9585 46.4304 52.9585 47.4321C52.9585 50.967 52.9585 54.5018 52.9585 58.0367C52.9585 58.3229 52.9585 58.5948 52.9585 58.9669C53.9603 58.9669 54.8905 58.9669 55.835 58.9669C56.4218 58.9669 56.9227 59.11 57.2232 59.6538C57.5238 60.2263 57.3091 60.7128 56.9799 61.1851C54.5757 64.677 52.1857 68.1832 49.7815 71.6752C49.023 72.7771 48.107 72.7628 47.3486 71.6608C44.9014 68.1117 42.4542 64.5482 40.0213 60.9848C39.9497 60.8846 39.8638 60.7987 39.778 60.6985V59.754L39.7637 59.7254Z" fill="#777100"/>
<path d="M65.2237 120.232C64.9804 120.146 64.7514 120.046 64.5081 119.974C61.8606 119.144 60.1576 116.511 60.5583 113.849C60.9733 110.987 63.349 108.912 66.1682 108.926C69.0162 108.926 71.3489 110.987 71.7782 113.849C72.1789 116.496 70.4759 119.144 67.8283 119.974C67.585 120.046 67.3418 120.146 67.1128 120.232H65.2237ZM66.1825 111.43C64.4652 111.43 63.0341 112.833 63.0341 114.564C63.0341 116.282 64.4366 117.699 66.1682 117.713C67.8856 117.713 69.3167 116.296 69.3167 114.579C69.3167 112.847 67.9142 111.43 66.1825 111.43Z" fill="#777100"/>
<path d="M105.466 120.232C105.223 120.146 104.994 120.046 104.75 119.974C102.103 119.144 100.4 116.511 100.8 113.849C101.215 110.987 103.591 108.912 106.41 108.926C109.258 108.926 111.591 110.987 112.02 113.849C112.421 116.496 110.718 119.144 108.071 119.974C107.827 120.046 107.584 120.146 107.355 120.232H105.466ZM109.545 114.564C109.545 112.833 108.113 111.43 106.382 111.445C104.664 111.445 103.248 112.876 103.262 114.593C103.262 116.31 104.693 117.727 106.425 117.713C108.142 117.713 109.559 116.282 109.545 114.55V114.564Z" fill="#777100"/>
<path d="M78.2053 64.6483C79.1928 64.6483 80.1946 64.6197 81.182 64.6483C83.4289 64.7199 85.69 64.6483 87.9082 64.9632C90.3984 65.3209 91.901 66.9524 92.2874 69.1706C92.7597 71.8468 91.4145 73.7073 88.6667 73.8217C86.2338 73.9219 83.801 73.7788 81.4253 73.1205C80.0944 72.7484 78.7491 72.3763 77.3753 72.2046C75.2429 71.947 73.1964 71.8611 70.4487 74.1223L68.5596 72.5337C70.3342 70.7592 72.4809 69.8146 74.971 69.6286C77.3896 69.4425 79.6794 70.1295 82.0121 70.6304C84.1158 71.074 86.3054 71.2171 88.4664 71.3173C89.7114 71.3745 90.0692 70.7449 89.7973 69.5284C89.5826 68.5696 89.0388 67.8683 88.1086 67.6393C87.0782 67.3817 86.0049 67.1814 84.9458 67.1385C82.7705 67.0669 80.5953 67.1385 78.4343 67.1241C78.0479 67.1241 77.6472 67.024 77.2751 66.9095C75.9012 66.4801 75.2715 65.3639 75.615 63.9757C75.9155 62.8165 76.5166 61.829 77.6615 61.3425C78.4057 61.0276 78.7634 60.4838 78.8636 59.7396C79.0067 58.5947 79.021 57.4212 80.0228 56.5912C81.2107 55.618 82.6417 55.3175 84.1158 55.203C85.0174 55.1314 85.9476 55.203 86.9637 55.203C86.9637 54.6735 87.0639 54.1869 86.9494 53.7576C86.377 51.8113 86.6345 50.0367 87.9655 48.3337C84.7884 47.5179 81.6686 47.2031 78.42 47.3748C78.42 47.9616 78.42 48.4768 78.42 48.992C78.3913 51.5393 77.5756 52.6556 75.2 53.6288C74.098 54.0867 73.0247 54.6592 71.9943 55.2459C71.4218 55.5751 70.9209 55.9758 70.8351 56.7915C70.7921 57.1207 70.1625 57.6216 69.8047 57.6216C69.3897 57.6216 68.8172 57.2638 68.5882 56.8917C68.0874 56.0903 68.4022 54.9311 69.4183 54.1153C70.4773 53.271 71.6508 52.5841 72.81 51.8828C73.3252 51.5823 73.912 51.3962 74.4844 51.1959C75.5148 50.8524 76.0014 50.1655 75.9298 49.0635C75.9012 48.6056 75.9298 48.1333 75.9298 47.5752C70.9496 48.2049 66.4559 49.8649 62.4058 52.4696C62.6921 53.8148 62.9926 55.1028 63.2216 56.4051C63.7797 59.6824 62.6634 61.8577 59.701 63.3603C59.2145 63.6036 58.7136 63.8326 58.1125 63.9757C58.3701 63.6036 58.6706 63.2601 58.8567 62.8594C59.2288 62.1009 59.5436 61.2995 59.8728 60.5124C59.93 60.3693 59.9586 60.1976 60.0588 60.0974C60.9032 59.1385 60.9318 58.008 60.7458 56.8345C60.6026 55.9329 60.4309 55.0456 60.2449 53.9722C59.4434 54.6449 58.7422 55.1744 58.1125 55.7754C57.583 56.2906 57.0821 56.7057 56.2807 56.4337C56.066 56.3622 55.8227 56.4337 55.5651 56.4337C55.3505 55.4463 55.465 54.7021 56.295 53.9865C63.8942 47.3033 72.7098 44.1262 82.7992 44.9419C98.0977 46.1727 110.434 56.6913 114.183 71.5177C115.572 76.9988 115.586 82.4943 114.284 88.0041C114.255 88.1042 114.226 88.1901 114.155 88.4477C113.468 87.6177 112.824 86.9164 112.28 86.1436C112.137 85.9433 112.223 85.5425 112.28 85.242C112.838 81.9361 112.838 78.6303 112.38 75.3101C112.137 73.5785 111.049 72.7913 109.346 73.1634C108.402 73.3781 107.486 73.6929 106.556 73.9649C105.554 74.2511 104.738 74.1223 103.908 73.3495C103.321 72.8057 102.42 72.5051 101.604 72.3477C100.731 72.176 100.259 72.9345 100.602 73.7645C100.774 74.1938 101.003 74.6089 101.175 75.0525C101.833 76.7555 100.946 78.3011 99.1282 78.6017C97.6112 78.8449 96.2087 78.616 95.0352 77.5283C94.6774 78.5015 95.1354 80.09 96.1658 80.7626C97.0531 81.3351 98.0691 81.7215 99.0423 82.1508C99.7578 82.4657 100.259 82.9093 100.445 83.7823C99.0566 83.7823 97.7257 83.7823 96.3947 83.7823C96.1944 83.7823 95.994 83.6678 95.808 83.5819C93.4323 82.437 91.901 79.3029 92.4449 76.7269C92.8313 74.8808 95.0352 74.294 96.6523 75.5963C97.4681 76.2546 97.8831 76.3405 98.8419 76.0257C98.6845 75.6679 98.5271 75.3101 98.3554 74.9666C97.7114 73.65 97.7829 72.3763 98.6702 71.2028C99.5718 70.0293 100.831 69.557 102.219 69.9148C103.307 70.1867 104.352 70.7305 105.339 71.2601C105.726 71.4747 105.997 71.5606 106.398 71.4175C107.929 70.888 109.489 70.4157 111.25 70.6733C111.178 70.3585 111.135 70.1152 111.049 69.8862C107.629 60.0974 101.089 53.2853 91.4574 49.4213C90.8993 49.1923 90.5415 49.3068 90.1551 49.7075C89.3107 50.5805 88.9959 51.5537 89.2678 52.7844C89.4538 53.6288 89.554 54.559 89.4395 55.4033C89.2392 56.8774 88.1229 57.6788 86.6346 57.7217C85.3322 57.7647 84.0299 57.8649 82.7419 58.008C81.869 58.1081 81.4825 58.6377 81.411 59.5536C81.2965 61.3138 80.6239 62.7879 78.8636 63.575C78.5345 63.7181 78.3055 64.1188 78.0336 64.3907L78.191 64.6769L78.2053 64.6483Z" fill="black"/>
<path d="M67.4285 95.0576H64.9526C64.9383 94.8 64.9097 94.5711 64.9097 94.3421C64.9097 91.7232 64.9097 89.1042 64.9097 86.4853C64.9097 85.14 65.3677 84.0524 66.441 83.208C66.627 83.0649 66.7702 82.7501 66.7845 82.5068C66.8131 81.1186 66.8131 79.7304 66.7845 78.3423C66.7845 77.3548 66.2693 76.8539 65.2675 76.8539C60.416 76.8539 55.5789 76.8539 50.7274 76.8539C49.6827 76.8539 49.1961 77.3405 49.1818 78.3995C49.1818 78.9004 49.1818 79.387 49.1818 80.0024H50.0548C52.8311 80.0024 55.6075 80.0024 58.3838 80.0024C60.7881 80.0024 62.3766 81.5766 62.391 83.9808C62.391 87.6445 62.391 91.3081 62.391 95.029H59.8722V94.199C59.8722 90.8931 59.8722 87.6016 59.8722 84.2957C59.8722 82.8932 59.5001 82.5068 58.1262 82.5068C54.2479 82.5068 50.3696 82.5068 46.5056 82.5068C45.1747 82.5068 44.7883 82.9075 44.7883 84.2528C44.7883 87.5586 44.7883 90.8502 44.7883 94.156V95.0433H42.2695V94.2276C42.2695 90.9217 42.2695 87.6302 42.2695 84.3243C42.2695 81.5336 43.5861 80.1312 46.3911 79.988C46.4627 79.988 46.5342 79.9594 46.6773 79.9165C46.6773 79.344 46.6773 78.7716 46.6773 78.2135C46.7203 76.0239 48.3231 74.3638 50.4984 74.3495C55.5073 74.3208 60.5019 74.3208 65.5108 74.3495C67.6431 74.3495 69.2746 76.0096 69.3032 78.1562C69.3318 79.573 69.3032 80.9755 69.3032 82.5211H70.1619C72.9669 82.5211 75.7718 82.5211 78.5625 82.5211C80.9525 82.5211 82.4981 84.0667 82.5124 86.4567C82.5124 89.047 82.4981 91.6373 82.5267 94.2276C82.5267 94.9145 82.312 95.1435 81.6251 95.1006C79.8362 95.0147 80.0079 95.4297 79.9936 93.4691C79.9936 91.165 79.9936 88.8609 79.9936 86.5568C79.9936 85.4406 79.5929 85.0399 78.491 85.0256C75.2996 85.0256 72.0939 85.0256 68.9025 85.0256C67.8435 85.0256 67.4285 85.4406 67.4285 86.4996C67.4285 89.3189 67.4285 92.1525 67.4285 95.0576Z" fill="black"/>
<path d="M81.1949 39.7754C99.3986 40.1761 115.584 53.5856 119.277 71.4316C119.835 74.1077 119.964 76.8698 120.221 79.6032C120.321 80.6479 119.792 81.249 118.991 81.249C118.189 81.249 117.745 80.6765 117.717 79.6175C117.488 63.7036 107.384 49.6214 92.5293 44.4408C88.5651 43.0526 84.4864 42.3371 80.2933 42.2941C79.3631 42.2941 78.8335 41.8934 78.7477 41.1922C78.6475 40.4337 79.22 39.8183 80.0786 39.7897C80.4507 39.7754 80.8085 39.7897 81.1806 39.7897L81.1949 39.7754Z" fill="black"/>
<path d="M106.655 104.517C104.952 104.517 103.249 104.517 101.546 104.517C99.9002 104.517 98.8698 103.458 98.8555 101.798C98.8555 99.837 98.8555 97.8764 98.8555 95.9157C98.8555 94.27 99.9002 93.2252 101.546 93.2109C102.49 93.2109 103.435 93.2109 104.38 93.2109C105.553 93.2109 106.526 93.6403 107.299 94.5132C109.274 96.7172 111.235 98.9354 113.21 101.125C113.839 101.826 114.168 102.57 113.768 103.486C113.367 104.374 112.566 104.545 111.678 104.545C110.004 104.517 108.329 104.545 106.655 104.545V104.517ZM101.417 101.955H110.619C108.744 99.8942 106.984 97.9336 105.21 96.0016C105.066 95.8442 104.795 95.744 104.58 95.744C103.535 95.7154 102.505 95.744 101.417 95.744V101.969V101.955Z" fill="#777100"/>
<path d="M112.709 43.525C112.709 41.4356 114.441 39.7612 116.53 39.7755C118.577 39.7898 120.251 41.5214 120.237 43.5536C120.222 45.643 118.491 47.3317 116.416 47.3031C114.369 47.2745 112.695 45.5715 112.709 43.5107V43.525ZM116.487 42.2942C115.815 42.2942 115.242 42.8381 115.228 43.5107C115.214 44.1833 115.757 44.7701 116.43 44.7987C117.131 44.8273 117.732 44.2405 117.732 43.5393C117.732 42.8667 117.174 42.3085 116.487 42.2942Z" fill="#777100"/>
<path d="M57.9534 113.949L58.1537 116.454C55.5348 116.454 52.9445 116.468 50.3542 116.454C49.6672 116.454 49.195 115.838 49.2093 115.194C49.2093 114.536 49.7102 113.992 50.4114 113.978C52.9159 113.949 55.4346 113.978 57.9677 113.978L57.9534 113.949Z" fill="#777100"/>
<path d="M52.2876 106.392C51.5005 106.392 50.7134 106.406 49.9262 106.392C49.1105 106.378 48.581 105.877 48.5667 105.161C48.5524 104.417 49.0962 103.888 49.9549 103.888C51.5577 103.873 53.1462 103.873 54.7491 103.888C55.5648 103.888 56.0943 104.403 56.1086 105.118C56.123 105.863 55.5791 106.378 54.7205 106.392C53.9047 106.406 53.1033 106.392 52.2876 106.392Z" fill="#777100"/>
<path d="M74.4272 103.888C75.2143 103.888 76.0014 103.873 76.7885 103.888C77.5899 103.916 78.1195 104.417 78.1195 105.133C78.1195 105.848 77.5899 106.378 76.7885 106.392C75.1714 106.406 73.5399 106.406 71.9227 106.392C71.1213 106.392 70.5918 105.863 70.5918 105.147C70.5918 104.432 71.1213 103.916 71.9227 103.888C72.7671 103.859 73.5971 103.888 74.4415 103.888H74.4272Z" fill="#777100"/>
</svg>
