<svg width="183" height="183" viewBox="0 0 183 183" fill="none" xmlns="http://www.w3.org/2000/svg">
<circle cx="91.0458" cy="91.8818" r="91.04" fill="white"/>
<path d="M74.2657 50.4053L75.0869 50.7291L75.1756 51.0576C75.2082 51.0764 75.2502 51.1046 75.2969 51.1139C75.7028 51.1984 76.0434 51.3439 76.1228 51.8226C76.1414 51.9212 76.2301 52.0338 76.3187 52.0948C76.7993 52.4233 77.2846 52.7331 77.7699 53.0522C77.7839 53.0616 77.8026 53.071 77.8072 53.0851C78.1572 53.8688 78.9784 54.0988 79.6223 54.5728L79.2444 54.8919L79.277 55.0515C79.8416 54.9623 80.4436 54.9623 80.9708 54.7605C81.7454 54.4601 82.492 54.1457 83.3505 54.2396C83.5092 54.2583 83.6771 54.1222 83.8405 54.1175C84.0411 54.1081 84.2464 54.1598 84.447 54.1926C84.5917 54.2161 84.7457 54.3146 84.8763 54.2818C85.4409 54.1504 85.7675 54.5258 86.0802 54.8684C86.2248 55.028 86.3321 55.319 86.2995 55.5255C86.2248 55.9901 86.0942 56.4547 85.9122 56.8865C85.8189 57.107 85.5529 57.2525 85.3756 57.4403C85.2309 57.5951 85.105 57.7641 84.909 58.0034C84.3677 58.0644 84.4377 58.6417 84.2744 59.1626H82.9632L83.2245 60.1247C82.7533 60.5143 82.8046 61.0633 83.3645 61.3027C83.7191 61.4529 84.1158 61.5233 83.9104 62.0771C83.8871 62.1428 84.0691 62.2742 84.1204 62.3915C84.2044 62.5792 84.3584 62.8233 84.3024 62.9734C84.2137 63.2081 84.0084 63.4475 83.7938 63.5648C83.4905 63.729 83.1265 63.776 82.7066 63.898L82.3753 63.2034L81.4701 63.4193C81.6194 63.6305 81.7781 63.7572 81.7687 63.8604C81.7081 64.5175 82.1093 65.0103 82.3007 65.5781C82.352 65.733 82.436 65.9442 82.3753 66.0662C82.1653 66.4933 82.3753 66.7749 82.6553 67.0799L83.0192 66.6528C83.3085 67.0611 83.5885 67.4929 83.9104 67.8918C84.0131 68.0186 84.2184 68.1124 84.3817 68.1218C84.8203 68.1453 85.6182 68.6615 85.7862 69.0557C85.8375 69.1824 85.9309 69.3185 86.0475 69.3842C86.5981 69.7081 87.158 70.0037 87.7693 70.3416C87.2467 70.811 86.8267 71.1817 86.4208 71.5619C86.3601 71.6182 86.3508 71.7355 86.3135 71.8247C86.2388 72.0124 86.1595 72.1954 86.0802 72.3832C86.0662 72.4113 86.0242 72.4489 86.0288 72.4676C86.3368 73.2842 85.4829 73.6878 85.3569 74.4387C85.5436 74.5842 85.7909 74.9315 86.0009 74.9127C86.7988 74.833 87.158 75.6589 87.8626 75.7247C87.9186 75.7293 88.0026 75.7997 88.0119 75.8467C88.1426 76.6867 88.9078 76.9965 89.4771 77.095C90.0137 77.1889 90.3916 77.508 90.8769 77.6254C90.9749 77.6488 91.0869 77.6911 91.1709 77.6629C91.6655 77.508 91.7355 77.7943 91.7261 78.1228L93.1819 78.7095C93.3872 78.2777 93.8119 78.442 94.2645 78.5264C94.5538 78.5828 94.8804 78.4561 95.1884 78.4138C95.305 78.3997 95.4357 78.3669 95.5383 78.4044C95.8323 78.5171 96.1076 78.6766 96.4062 78.7846C96.9008 78.9629 96.5508 79.3337 96.6115 79.6106C97.0221 79.7936 97.5307 79.8781 97.82 80.1784C98.352 80.7416 98.7859 80.2066 99.2478 80.1409C99.3785 80.8871 99.3738 80.8354 100.088 80.8214C100.531 80.812 101.044 80.8636 101.408 81.0889C101.894 81.3845 102.243 81.3142 102.659 80.9763C102.971 81.8163 103.592 81.3282 104.096 81.3376C104.409 81.347 104.721 81.2766 105.127 81.2344C105.146 81.2156 105.281 81.103 105.384 80.9622C105.561 80.7134 105.71 80.4788 105.528 80.1221C105.262 79.5871 104.973 79.0333 105.118 78.3903C105.141 78.2777 105.169 78.1604 105.202 78.0477C105.314 77.6817 105.426 77.3156 105.57 76.851C105.729 76.7853 106.032 76.607 106.359 76.5506C106.62 76.5037 106.942 76.5366 107.171 76.6586C107.292 76.7243 107.325 77.0622 107.306 77.264C107.259 77.7286 107.017 78.1885 107.348 78.6532C107.39 78.7142 107.297 78.8737 107.269 78.9911C107.134 79.634 107.749 80.2347 108.384 80.0986C108.505 80.0705 108.678 80.1174 108.785 80.1925C109.373 80.6196 110.386 80.3521 111.09 79.9297C111.258 79.8264 111.604 79.8264 111.767 79.9344C112.43 80.3661 113.134 80.1596 113.815 80.1174C114.459 80.0799 115.094 79.9391 115.831 79.8264L115.467 78.8737C115.467 78.8737 115.57 78.794 115.593 78.7048C115.63 78.5734 115.682 78.3575 115.621 78.3012C115.504 78.1979 115.299 78.1228 115.145 78.1463C114.464 78.2542 114.291 78.0853 114.445 77.4611C115.108 77.2921 115.756 77.1467 116.386 76.9542C116.699 76.8557 117.012 76.6586 116.951 76.2597C116.9 75.9311 117.082 75.842 117.301 75.72C117.506 75.6073 117.837 75.4665 117.851 75.3117C117.921 74.5936 118.514 74.5608 118.967 74.312C119.377 74.0867 119.811 73.8521 120.129 73.5189C120.502 73.12 120.828 72.6882 121.351 72.4817C121.426 72.4535 121.514 72.3925 121.58 72.4113C122.056 72.5615 122.522 72.7539 123.003 72.8712C123.185 72.9135 123.549 72.8384 123.586 72.7257C123.819 72.0734 124.445 71.9326 124.921 71.5384L125.467 72.1391L125.135 72.6037L125.392 73.1669C125.807 72.3691 126.087 72.9651 126.395 73.2232C126.227 73.5799 126.054 73.9272 125.91 74.2886C125.872 74.3871 125.942 74.5279 125.961 74.6452C126.064 74.5983 126.162 74.5514 126.264 74.4997C126.278 74.495 126.278 74.4575 126.288 74.4575C126.862 74.4293 127.45 74.3308 128.01 74.4153C128.234 74.4481 128.439 74.8658 128.569 75.1474C128.663 75.3492 128.644 75.5745 128.35 75.7387C128.066 75.8983 127.795 76.1799 127.66 76.4709C127.576 76.6539 127.72 76.9777 127.828 77.203C127.944 77.4423 128.14 77.6441 128.299 77.86L128.154 78.029C127.958 77.9163 127.632 77.8412 127.59 77.6817C127.431 77.1326 127.072 77.3532 126.815 77.4564C126.227 77.6864 125.662 77.8929 125.233 78.4748C124.832 79.0145 124.104 79.2961 123.595 79.7795C123.395 79.9719 123.273 80.4225 123.343 80.6947C123.595 81.699 123.124 82.3936 122.541 83.0975C122.336 83.3416 122.182 83.6607 122.494 83.9986C122.602 84.1159 122.681 84.3694 122.63 84.4961C122.457 84.895 122.186 85.2517 122.009 85.6506C121.804 86.1152 121.664 86.6127 121.486 87.0914C121.416 87.2838 121.323 87.4715 121.225 87.7015C120.805 87.2463 120.045 87.1289 119.681 87.4152L119.331 87.1102C119.284 87.1524 119.219 87.1899 119.223 87.2134C119.251 87.4246 119.233 87.6733 119.34 87.8376C119.737 88.4571 119.653 89.1282 119.611 89.7946C119.583 90.1888 119.471 90.5596 118.971 90.5221C119.074 91.2636 119.167 91.9816 119.265 92.6997L119.093 92.6246L118.397 93.3567L118.001 92.8123L117.679 93.3285C117.25 91.639 116.853 90.0856 116.466 88.5556L115.658 88.8138C115.542 89.0859 115.388 89.3957 115.28 89.7195C115.234 89.8697 115.318 90.0574 115.28 90.2123C115.238 90.3907 115.122 90.5455 115.043 90.7145C114.903 90.583 114.735 90.4657 114.627 90.3109C114.553 90.2029 114.557 90.034 114.525 89.8932H114.38L114.259 90.3766C114.077 89.8369 113.881 89.2971 113.717 88.7481C113.629 88.4477 114.114 87.8141 114.431 87.7109C114.753 87.6029 115.066 87.4621 115.416 87.3871C115.514 87.1524 115.542 86.8896 115.957 86.7957C116.293 86.7206 116.517 85.7726 116.391 85.3268L117.044 85.4769C116.802 84.8903 116.316 84.5853 115.719 84.5806C114.399 84.5806 113.073 84.6087 111.758 84.5524C111.207 84.5289 110.652 84.3459 110.12 84.177C110.012 84.1441 109.947 83.8484 109.928 83.6654C109.872 83.1492 109.858 82.6282 109.803 82.112C109.793 82.0134 109.686 81.8726 109.607 81.8539C109.527 81.8351 109.359 81.9383 109.336 82.0181C109.243 82.3607 109.009 82.5062 108.729 82.3466C108.459 82.1965 108.253 81.9243 108.034 81.6896C107.889 81.5347 107.782 81.3517 107.656 81.1781L107.511 81.2813L107.693 81.6896L107.166 81.7741L106.196 80.7838L106.042 80.8777L106.401 81.4596C106.023 81.9196 105.388 82.3044 105.556 83.1445C105.976 83.1539 106.289 83.2665 106.438 83.7452C106.485 83.9001 106.905 83.9329 107.176 83.9282L107.759 84.4351C107.633 84.9983 106.989 84.6791 106.541 84.8715C106.438 85.2564 106.28 85.6647 105.701 85.4066L105.43 86.256C105.72 86.7019 106.098 87.082 106.718 87.1852C107.362 87.2932 107.521 87.7625 107.134 88.2975C106.606 89.0203 106.77 89.1 107.32 89.4614C107.297 89.6961 107.273 89.926 107.25 90.1888H107.899C107.409 90.8036 107.866 91.3386 107.917 91.8971C107.945 92.2257 108.09 92.5401 108.165 92.8076C107.633 93.23 106.933 93.3145 106.826 94.0513L106.098 94.1968V93.1267C105.71 93.6383 105.37 94.178 104.936 94.6191C104.679 94.882 104.283 95.0931 103.919 95.1542C102.593 95.3841 102.22 96.0365 102.827 97.2567L102.407 97.5054L102.439 97.5993L103.032 97.5242C102.822 97.7072 102.705 97.8339 102.561 97.9325C102.346 98.078 102.164 98.1859 102.215 98.5285C102.239 98.674 101.977 98.9415 101.791 99.0166C101.506 99.1292 101.306 99.2184 101.194 99.5516C101.128 99.7393 100.834 99.9036 100.61 99.9693C99.6211 100.265 98.6273 100.556 97.82 101.236C97.4374 101.56 97.1154 101.964 96.7888 102.353C96.2942 102.94 96.0282 103.733 95.2443 104.057C94.6937 105.151 93.3219 105.324 92.706 106.366C92.5847 106.568 92.2674 106.652 92.0434 106.793C91.4368 107.173 90.8302 107.553 90.247 107.919L90.331 108.464L90.2423 108.492L90.0463 108.224C90.0137 108.361 89.9903 108.436 89.981 108.506C89.9484 108.811 90.009 109.332 89.883 109.384C89.3791 109.576 88.9591 110.191 88.2919 109.815C88.0166 109.661 87.4147 109.933 87.228 110.196C86.9014 110.66 86.5421 111.101 86.1315 111.636L85.8329 110.97C85.3756 111.13 84.8297 111.073 84.6244 111.702C84.5357 111.974 84.3397 112.209 84.1904 112.462C83.9058 112.955 83.9384 113.457 84.0504 114.006C84.1391 114.452 84.0458 114.931 84.0318 115.396C84.0318 115.565 84.0084 115.733 84.0318 115.902C84.1064 116.527 84.1997 117.146 84.1904 117.798L83.8731 116.865L83.6911 116.94C83.8405 117.287 83.9898 117.639 84.1344 117.986C84.1951 118.127 84.3304 118.287 84.3024 118.404C84.0971 119.169 84.3584 120.032 83.7565 120.718C83.4485 121.07 83.1312 121.464 82.9866 121.9C82.8139 122.421 82.7486 122.998 82.7533 123.552C82.7673 124.707 82.8606 125.857 82.9166 126.992C82.422 127.049 81.9927 127.077 81.5681 127.147C81.4421 127.166 81.2415 127.279 81.2275 127.372C81.1155 127.968 80.6022 128.297 80.3502 128.79C80.2196 129.048 80.0329 129.437 80.1356 129.611C80.2662 129.832 80.6582 129.907 80.9475 130.029C81.1295 130.108 81.3254 130.155 81.4841 130.315C81.1155 130.254 80.7235 130.08 80.3782 130.151C79.5757 130.32 78.7964 130.601 78.0172 130.855C77.9519 130.873 77.9145 131.019 77.8912 131.113C77.7886 131.526 77.7046 131.944 77.5926 132.357C77.5646 132.464 77.4806 132.586 77.3873 132.647C77.084 132.845 76.7807 133.051 76.4494 133.197C75.7075 133.534 74.9936 133.333 74.4896 132.69C74.2657 132.408 74.0277 132.131 73.7757 131.878C73.4771 131.573 73.4164 131.16 73.2391 130.827C73.1038 130.578 72.9032 130.31 72.8052 130.029C72.6232 129.508 72.4972 128.963 72.3479 128.428L72.5019 128.386L72.6512 129.038L72.8705 128.977C72.7165 128.569 72.5532 128.161 72.4086 127.748C72.3386 127.555 72.3012 127.358 72.2126 127.039C72.1753 126.964 72.0679 126.772 71.97 126.575C71.8813 126.401 71.8066 126.218 71.7227 126.044C71.6993 125.997 71.6387 125.955 71.648 125.913C71.7507 125.195 71.354 124.585 71.1581 123.956C70.9761 123.374 70.7754 122.717 70.2435 122.257C69.8096 121.881 69.4829 121.412 69.3476 120.793C69.1843 120.042 68.8017 119.342 68.6524 118.592C68.5544 118.085 68.3631 117.587 68.4004 117.024C68.4331 116.545 68.1578 116.048 68.0225 115.56C67.9198 115.18 67.8311 114.79 67.7238 114.41C67.5885 113.917 67.4345 113.429 66.9446 113.363C66.8933 113.096 66.8886 112.894 66.8186 112.72C66.5013 111.913 66.2167 111.092 65.8247 110.318C65.2695 109.215 65.3395 108.027 65.2041 106.863C65.0828 105.836 64.9289 104.817 64.8169 103.79C64.7469 103.17 64.7095 102.551 64.6256 101.931C64.6116 101.828 64.7562 101.701 64.8495 101.551V100.922C64.6815 100.8 64.3176 100.669 64.7002 100.298C64.7095 100.288 64.6489 100.218 64.6442 100.176C64.6256 100.002 64.6162 99.8285 64.5509 99.6549C64.5322 99.3967 64.4576 99.1339 64.5042 98.8899C64.6069 98.322 64.6769 97.7542 65.0968 97.2755C65.3301 97.0126 65.4701 96.5902 65.4934 96.2336C65.5121 95.9473 65.3348 95.6094 65.1482 95.3654C64.7609 94.8444 64.9848 94.4502 65.3581 94.0137H64.9708C64.9475 93.7697 64.8402 93.4928 64.9335 93.3285C65.0408 93.1408 65.3208 93.0563 65.6381 92.8545L64.9335 92.9249L64.9802 92.1881L65.8621 92.2444C65.3488 92.0708 64.8169 91.7141 64.3129 92.2444C64.2429 92.8076 64.2896 93.5022 64.0516 94.0747C63.8043 94.6661 63.3097 95.1682 62.6005 95.3466C62.1292 95.4639 61.6673 95.6328 61.2053 95.7877C60.2674 96.1068 59.4275 96.0177 58.6996 95.2762C58.373 94.943 57.9764 94.6802 57.6871 94.3188C56.8892 93.3332 56.124 92.3148 55.3541 91.3058C55.1254 91.0054 55.2934 90.7708 55.508 90.5221L55.97 91.1322C56.4973 91.0805 57.1132 91.0336 57.7244 90.9585C57.8271 90.9444 57.9157 90.8318 58.0044 90.7614C58.079 90.7051 58.1397 90.6159 58.219 90.5925C58.4057 90.5408 58.6856 90.5831 58.7836 90.4657C59.1289 90.0621 59.4135 89.6069 59.7215 89.1751L59.6002 88.9921C59.4509 89.0249 59.2922 89.039 59.1616 89.1C58.695 89.3253 58.2564 89.6679 57.7711 89.7758C57.1832 89.9072 56.5719 89.7712 56.0633 89.3769C55.984 89.3159 55.9093 89.2314 55.816 89.1939C55.1581 88.9076 54.7055 88.4524 54.5422 87.7343C54.5235 87.6592 54.4722 87.5795 54.4162 87.5325C54.0616 87.2509 54.2295 87.0491 54.5095 86.8567C54.6588 86.7535 54.8128 86.6549 54.9621 86.5517L54.8875 86.4062C54.5795 86.5704 54.2809 86.7535 53.9636 86.8849C53.8189 86.9459 53.6369 86.913 53.4736 86.9224V86.6127C53.8656 85.8055 54.6495 86.0401 55.2887 85.9791L55.508 85.1813C56.0913 85.247 56.6092 85.2986 57.1225 85.3737C57.3791 85.4112 57.7151 85.4066 57.8691 85.5614C58.2517 85.9463 58.6156 85.8618 59.0356 85.7069C59.4695 85.5473 59.9222 85.43 60.4028 85.2798C60.4681 85.782 60.6361 86.073 61.0747 85.9181C61.3406 85.8242 61.5786 85.6318 61.8259 85.4863H61.6906L61.8306 84.5806C61.5133 83.6513 60.6501 82.8863 60.7387 81.6802C60.5567 81.6614 60.3701 81.6427 60.1881 81.6286C59.9035 81.6098 59.7402 81.5488 59.6189 81.1968C59.4415 80.6947 59.4322 80.3004 59.7122 79.8452C59.9175 79.512 59.7122 79.0192 59.3995 79.0192C58.6576 79.0192 58.3777 78.4138 57.9717 78.0947C58.1117 77.8319 58.205 77.6441 58.3124 77.4658C58.4243 77.2828 58.5177 77.0293 58.6856 76.9495C59.3529 76.6398 59.7028 76.0673 60.0995 75.4947C60.2674 75.2553 60.6314 75.0723 60.9254 75.0395C61.0653 75.0254 61.3173 75.4008 61.3966 75.6449C61.5739 76.1611 61.6393 76.1799 62.1712 76.0438C62.8058 75.8842 63.4684 75.8185 64.117 75.7153C64.2009 75.7012 64.3223 75.734 64.3643 75.6871C64.7562 75.2366 65.1388 74.7766 65.5214 74.3167C65.5308 74.3026 65.5354 74.2839 65.5354 74.2651C65.4981 73.7723 65.8434 73.5799 66.2027 73.3922C66.6226 73.1669 67.1172 73.0026 67.4392 72.6741C68.0085 72.0922 68.4797 71.407 68.6617 70.5669C68.699 70.3886 68.7924 70.2243 68.853 70.0648C69.7956 70.1962 70.1129 69.9286 70.2202 68.99C70.2342 68.868 70.3042 68.7319 70.3928 68.6474C70.9994 68.0889 71.6153 67.5399 72.2546 66.9673C71.9 66.7843 71.8626 66.5214 72.0773 66.1319C72.1706 65.9583 72.0446 65.6673 72.0259 65.4279C72.0166 65.3153 71.9653 65.1323 72.012 65.1041C72.3852 64.8554 72.7539 64.5128 73.1645 64.4377C73.883 64.3063 74.0184 64.2688 74.1537 63.4522C74.0277 63.424 73.8877 63.4146 73.7664 63.3677C73.3511 63.1987 72.9218 63.0579 72.5532 62.8186C72.4506 62.7529 72.5392 62.3868 72.5392 62.0771C72.1006 62.3211 71.7926 62.3023 71.536 61.894C71.4427 61.7485 71.1814 61.711 70.9947 61.6218C70.7614 61.5139 70.5235 61.4153 70.2948 61.3027C69.9915 61.1525 69.8422 60.9883 69.9729 60.5753C70.1035 60.1623 70.0615 59.6883 70.0662 59.2424C70.0802 58.4868 70.0662 57.7312 70.0662 57.0038C70.2155 56.9146 70.3882 56.8208 70.5421 56.7081C70.7194 56.5814 70.8968 56.4547 71.0414 56.2951C71.2281 56.098 71.4287 55.8868 71.522 55.6428C71.5547 55.5583 71.2747 55.3424 71.1161 55.211C71.0041 55.1172 70.8594 55.0702 70.7334 55.0045L70.9434 54.3616C70.7241 54.31 70.5281 54.3006 70.3648 54.2208C70.1129 54.0941 69.7209 53.958 69.6742 53.7608C69.5389 53.1789 69.189 53.1836 68.7317 53.193C68.5357 53.193 68.2278 53.0428 68.1671 52.8832C68.0691 52.6345 68.0598 52.306 68.4051 52.123C68.5497 52.0479 68.6477 51.8742 68.7924 51.7851C69.4596 51.3767 69.9729 50.4616 70.9714 51.1092C71.0321 51.1468 71.2934 51.0388 71.298 50.9825C71.3354 50.5977 71.5967 50.654 71.8533 50.6212C72.0586 50.593 72.2593 50.4851 72.4599 50.4147H74.317L74.2657 50.4053Z" fill="#777100"/>
</svg>
