<svg width="161" height="235" viewBox="0 0 161 235" fill="none" xmlns="http://www.w3.org/2000/svg">
<path d="M48.3304 202.979V185.524H50.4441V201.104H58.5577V202.979H48.3304ZM65.41 203.285C64.5804 203.285 63.8276 203.129 63.1515 202.817C62.4753 202.498 61.9384 202.041 61.5407 201.444C61.1429 200.842 60.9441 200.115 60.9441 199.263C60.9441 198.513 61.0918 197.905 61.3873 197.439C61.6827 196.967 62.0776 196.598 62.5719 196.331C63.0662 196.064 63.6117 195.865 64.2083 195.734C64.8105 195.598 65.4157 195.49 66.0236 195.41C66.8191 195.308 67.464 195.231 67.9583 195.18C68.4583 195.123 68.8219 195.03 69.0492 194.899C69.2821 194.768 69.3986 194.541 69.3986 194.217V194.149C69.3986 193.308 69.1685 192.655 68.7083 192.189C68.2537 191.723 67.5634 191.49 66.6373 191.49C65.677 191.49 64.9242 191.7 64.3787 192.121C63.8333 192.541 63.4498 192.99 63.2282 193.467L61.3191 192.785C61.66 191.99 62.1145 191.371 62.6827 190.927C63.2566 190.479 63.8816 190.166 64.5577 189.99C65.2395 189.808 65.91 189.717 66.5691 189.717C66.9895 189.717 67.4725 189.768 68.0179 189.871C68.5691 189.967 69.1003 190.169 69.6117 190.476C70.1287 190.782 70.5577 191.246 70.8986 191.865C71.2395 192.484 71.41 193.314 71.41 194.354V202.979H69.3986V201.206H69.2963C69.16 201.49 68.9327 201.794 68.6145 202.118C68.2963 202.442 67.873 202.717 67.3446 202.944C66.8162 203.172 66.1713 203.285 65.41 203.285ZM65.7168 201.479C66.5123 201.479 67.1827 201.322 67.7282 201.01C68.2793 200.697 68.6941 200.294 68.9725 199.8C69.2566 199.305 69.3986 198.785 69.3986 198.24V196.399C69.3134 196.501 69.1259 196.595 68.8361 196.68C68.552 196.76 68.2225 196.831 67.8475 196.893C67.4782 196.95 67.1174 197.001 66.7651 197.047C66.4185 197.086 66.1373 197.121 65.9213 197.149C65.3986 197.217 64.91 197.328 64.4554 197.481C64.0066 197.629 63.6429 197.854 63.3645 198.155C63.0918 198.45 62.9554 198.854 62.9554 199.365C62.9554 200.064 63.214 200.592 63.731 200.95C64.2537 201.302 64.9157 201.479 65.7168 201.479ZM84.3539 192.819L82.5471 193.331C82.4334 193.03 82.2658 192.737 82.0442 192.453C81.8283 192.163 81.5328 191.925 81.1578 191.737C80.7828 191.55 80.3027 191.456 79.7175 191.456C78.9164 191.456 78.2488 191.64 77.7147 192.01C77.1863 192.373 76.9221 192.836 76.9221 193.399C76.9221 193.899 77.1039 194.294 77.4675 194.584C77.8311 194.873 78.3993 195.115 79.1721 195.308L81.1152 195.785C82.2857 196.069 83.1578 196.504 83.7317 197.089C84.3056 197.669 84.5925 198.416 84.5925 199.331C84.5925 200.081 84.3766 200.751 83.9448 201.342C83.5186 201.933 82.9221 202.399 82.155 202.74C81.388 203.081 80.4959 203.251 79.4789 203.251C78.1436 203.251 77.0385 202.961 76.1635 202.382C75.2885 201.802 74.7346 200.956 74.5016 199.842L76.4107 199.365C76.5925 200.069 76.9363 200.598 77.4419 200.95C77.9533 201.302 78.6209 201.479 79.4448 201.479C80.3823 201.479 81.1266 201.28 81.6777 200.882C82.2346 200.479 82.513 199.996 82.513 199.433C82.513 198.979 82.3539 198.598 82.0357 198.291C81.7175 197.979 81.2289 197.746 80.5698 197.592L78.388 197.081C77.1891 196.797 76.3084 196.356 75.7459 195.76C75.1891 195.157 74.9107 194.405 74.9107 193.501C74.9107 192.763 75.1181 192.109 75.5328 191.541C75.9533 190.973 76.5243 190.527 77.2459 190.203C77.9732 189.879 78.7971 189.717 79.7175 189.717C81.013 189.717 82.03 190.001 82.7686 190.569C83.513 191.138 84.0414 191.888 84.3539 192.819ZM93.1088 203.251C91.8475 203.251 90.7594 202.973 89.8446 202.416C88.9355 201.854 88.2338 201.069 87.7395 200.064C87.2509 199.052 87.0066 197.876 87.0066 196.535C87.0066 195.194 87.2509 194.013 87.7395 192.99C88.2338 191.961 88.9213 191.16 89.802 190.586C90.6884 190.007 91.7225 189.717 92.9043 189.717C93.5861 189.717 94.2594 189.831 94.9242 190.058C95.589 190.285 96.1941 190.655 96.7395 191.166C97.285 191.672 97.7196 192.342 98.0435 193.177C98.3674 194.013 98.5293 195.041 98.5293 196.263V197.115H88.4384V195.376H96.4838C96.4838 194.638 96.3361 193.979 96.0407 193.399C95.7509 192.819 95.3361 192.362 94.7963 192.027C94.2623 191.692 93.6316 191.524 92.9043 191.524C92.1032 191.524 91.41 191.723 90.8248 192.121C90.2452 192.513 89.7992 193.024 89.4867 193.655C89.1742 194.285 89.0179 194.961 89.0179 195.683V196.842C89.0179 197.831 89.1884 198.669 89.5293 199.356C89.8759 200.038 90.356 200.558 90.9696 200.916C91.5833 201.268 92.2963 201.444 93.1088 201.444C93.6373 201.444 94.1145 201.371 94.5407 201.223C94.9725 201.069 95.3446 200.842 95.6571 200.541C95.9696 200.234 96.2111 199.854 96.3816 199.399L98.3248 199.944C98.1202 200.604 97.7765 201.183 97.2935 201.683C96.8105 202.177 96.214 202.564 95.5037 202.842C94.7935 203.115 93.9952 203.251 93.1088 203.251ZM101.589 202.979V189.888H103.532V191.865H103.669C103.907 191.217 104.339 190.692 104.964 190.288C105.589 189.885 106.294 189.683 107.078 189.683C107.225 189.683 107.41 189.686 107.632 189.692C107.853 189.697 108.021 189.706 108.134 189.717V191.763C108.066 191.746 107.91 191.72 107.666 191.686C107.427 191.646 107.174 191.626 106.907 191.626C106.271 191.626 105.703 191.76 105.203 192.027C104.708 192.288 104.316 192.652 104.026 193.118C103.742 193.578 103.6 194.104 103.6 194.694V202.979H101.589ZM30.9632 231.979V214.524H36.861C38.2303 214.524 39.3496 214.771 40.2189 215.265C41.0939 215.754 41.7417 216.416 42.1621 217.251C42.5826 218.086 42.7928 219.018 42.7928 220.047C42.7928 221.075 42.5826 222.01 42.1621 222.851C41.7473 223.692 41.1053 224.362 40.236 224.862C39.3667 225.356 38.253 225.604 36.8951 225.604H32.6678V223.729H36.8269C37.7644 223.729 38.5172 223.567 39.0854 223.243C39.6536 222.919 40.0655 222.481 40.3212 221.93C40.5826 221.373 40.7132 220.746 40.7132 220.047C40.7132 219.348 40.5826 218.723 40.3212 218.172C40.0655 217.621 39.6507 217.189 39.0769 216.876C38.503 216.558 37.7417 216.399 36.7928 216.399H33.0769V231.979H30.9632ZM45.9249 231.979V218.888H47.8681V220.865H48.0044C48.2431 220.217 48.6749 219.692 49.2999 219.288C49.9249 218.885 50.6294 218.683 51.4135 218.683C51.5613 218.683 51.7459 218.686 51.9675 218.692C52.1891 218.697 52.3567 218.706 52.4703 218.717V220.763C52.4022 220.746 52.2459 220.72 52.0016 220.686C51.763 220.646 51.5101 220.626 51.2431 220.626C50.6067 220.626 50.0385 220.76 49.5385 221.027C49.0442 221.288 48.6522 221.652 48.3624 222.118C48.0783 222.578 47.9363 223.104 47.9363 223.694V231.979H45.9249ZM59.9448 232.251C58.6834 232.251 57.5953 231.973 56.6806 231.416C55.7715 230.854 55.0698 230.069 54.5755 229.064C54.0868 228.052 53.8425 226.876 53.8425 225.535C53.8425 224.194 54.0868 223.013 54.5755 221.99C55.0698 220.961 55.7573 220.16 56.638 219.586C57.5243 219.007 58.5584 218.717 59.7402 218.717C60.4221 218.717 61.0953 218.831 61.7601 219.058C62.4249 219.285 63.03 219.655 63.5755 220.166C64.1209 220.672 64.5556 221.342 64.8794 222.177C65.2033 223.013 65.3652 224.041 65.3652 225.263V226.115H55.2743V224.376H63.3198C63.3198 223.638 63.1721 222.979 62.8766 222.399C62.5868 221.819 62.1721 221.362 61.6323 221.027C61.0982 220.692 60.4675 220.524 59.7402 220.524C58.9391 220.524 58.2459 220.723 57.6607 221.121C57.0811 221.513 56.6351 222.024 56.3226 222.655C56.0101 223.285 55.8539 223.961 55.8539 224.683V225.842C55.8539 226.831 56.0243 227.669 56.3652 228.356C56.7118 229.038 57.1919 229.558 57.8056 229.916C58.4192 230.268 59.1323 230.444 59.9448 230.444C60.4732 230.444 60.9505 230.371 61.3766 230.223C61.8084 230.069 62.1806 229.842 62.4931 229.541C62.8056 229.234 63.0471 228.854 63.2175 228.399L65.1607 228.944C64.9561 229.604 64.6124 230.183 64.1294 230.683C63.6465 231.177 63.0499 231.564 62.3397 231.842C61.6294 232.115 60.8311 232.251 59.9448 232.251ZM73.7431 232.251C72.5158 232.251 71.459 231.961 70.5726 231.382C69.6863 230.802 69.0044 230.004 68.5272 228.987C68.0499 227.97 67.8113 226.808 67.8113 225.501C67.8113 224.172 68.0556 222.998 68.5442 221.981C69.0385 220.959 69.726 220.16 70.6067 219.586C71.4931 219.007 72.5272 218.717 73.709 218.717C74.6294 218.717 75.459 218.888 76.1976 219.229C76.9363 219.569 77.5414 220.047 78.013 220.66C78.4846 221.274 78.7772 221.99 78.8908 222.808H76.8794C76.726 222.211 76.3851 221.683 75.8567 221.223C75.334 220.757 74.6294 220.524 73.7431 220.524C72.959 220.524 72.2715 220.729 71.6806 221.138C71.0953 221.541 70.638 222.112 70.3084 222.851C69.9846 223.584 69.8226 224.444 69.8226 225.433C69.8226 226.444 69.9817 227.325 70.2999 228.075C70.6238 228.825 71.0783 229.407 71.6635 229.822C72.2544 230.237 72.9476 230.444 73.7431 230.444C74.2658 230.444 74.7402 230.354 75.1664 230.172C75.5925 229.99 75.9533 229.729 76.2488 229.388C76.5442 229.047 76.7544 228.638 76.8794 228.16H78.8908C78.7772 228.933 78.4959 229.629 78.0471 230.248C77.6039 230.862 77.0158 231.351 76.2828 231.714C75.5556 232.072 74.709 232.251 73.7431 232.251ZM81.8311 231.979V218.888H83.8425V231.979H81.8311ZM82.8539 216.706C82.4618 216.706 82.1238 216.572 81.8397 216.305C81.5613 216.038 81.4221 215.717 81.4221 215.342C81.4221 214.967 81.5613 214.646 81.8397 214.379C82.1238 214.112 82.4618 213.979 82.8539 213.979C83.2459 213.979 83.5811 214.112 83.8596 214.379C84.1436 214.646 84.2857 214.967 84.2857 215.342C84.2857 215.717 84.1436 216.038 83.8596 216.305C83.5811 216.572 83.2459 216.706 82.8539 216.706ZM96.7992 221.819L94.9924 222.331C94.8787 222.03 94.7111 221.737 94.4895 221.453C94.2736 221.163 93.9782 220.925 93.6032 220.737C93.2282 220.55 92.748 220.456 92.1628 220.456C91.3617 220.456 90.6941 220.64 90.16 221.01C89.6316 221.373 89.3674 221.836 89.3674 222.399C89.3674 222.899 89.5492 223.294 89.9128 223.584C90.2765 223.873 90.8446 224.115 91.6174 224.308L93.5605 224.785C94.731 225.069 95.6032 225.504 96.177 226.089C96.7509 226.669 97.0378 227.416 97.0378 228.331C97.0378 229.081 96.8219 229.751 96.3901 230.342C95.964 230.933 95.3674 231.399 94.6003 231.74C93.8333 232.081 92.9412 232.251 91.9242 232.251C90.589 232.251 89.4838 231.961 88.6088 231.382C87.7338 230.802 87.1799 229.956 86.9469 228.842L88.856 228.365C89.0378 229.069 89.3816 229.598 89.8873 229.95C90.3986 230.302 91.0662 230.479 91.8901 230.479C92.8276 230.479 93.5719 230.28 94.123 229.882C94.6799 229.479 94.9583 228.996 94.9583 228.433C94.9583 227.979 94.7992 227.598 94.481 227.291C94.1628 226.979 93.6742 226.746 93.0151 226.592L90.8333 226.081C89.6344 225.797 88.7537 225.356 88.1912 224.76C87.6344 224.157 87.356 223.405 87.356 222.501C87.356 221.763 87.5634 221.109 87.9782 220.541C88.3986 219.973 88.9696 219.527 89.6912 219.203C90.4185 218.879 91.2424 218.717 92.1628 218.717C93.4583 218.717 94.4753 219.001 95.214 219.569C95.9583 220.138 96.4867 220.888 96.7992 221.819ZM100.066 231.979V218.888H102.077V231.979H100.066ZM101.088 216.706C100.696 216.706 100.358 216.572 100.074 216.305C99.7956 216.038 99.6564 215.717 99.6564 215.342C99.6564 214.967 99.7956 214.646 100.074 214.379C100.358 214.112 100.696 213.979 101.088 213.979C101.48 213.979 101.816 214.112 102.094 214.379C102.378 214.646 102.52 214.967 102.52 215.342C102.52 215.717 102.378 216.038 102.094 216.305C101.816 216.572 101.48 216.706 101.088 216.706ZM111.079 232.251C109.897 232.251 108.86 231.97 107.968 231.407C107.082 230.845 106.389 230.058 105.889 229.047C105.394 228.035 105.147 226.854 105.147 225.501C105.147 224.138 105.394 222.947 105.889 221.93C106.389 220.913 107.082 220.123 107.968 219.561C108.86 218.998 109.897 218.717 111.079 218.717C112.261 218.717 113.295 218.998 114.181 219.561C115.073 220.123 115.767 220.913 116.261 221.93C116.761 222.947 117.011 224.138 117.011 225.501C117.011 226.854 116.761 228.035 116.261 229.047C115.767 230.058 115.073 230.845 114.181 231.407C113.295 231.97 112.261 232.251 111.079 232.251ZM111.079 230.444C111.977 230.444 112.715 230.214 113.295 229.754C113.874 229.294 114.303 228.689 114.582 227.939C114.86 227.189 114.999 226.376 114.999 225.501C114.999 224.626 114.86 223.811 114.582 223.055C114.303 222.3 113.874 221.689 113.295 221.223C112.715 220.757 111.977 220.524 111.079 220.524C110.181 220.524 109.443 220.757 108.863 221.223C108.284 221.689 107.855 222.3 107.576 223.055C107.298 223.811 107.159 224.626 107.159 225.501C107.159 226.376 107.298 227.189 107.576 227.939C107.855 228.689 108.284 229.294 108.863 229.754C109.443 230.214 110.181 230.444 111.079 230.444ZM122.093 224.104V231.979H120.081V218.888H122.024V220.933H122.195C122.502 220.268 122.968 219.734 123.593 219.331C124.218 218.922 125.024 218.717 126.013 218.717C126.899 218.717 127.675 218.899 128.34 219.263C129.004 219.621 129.521 220.166 129.891 220.899C130.26 221.626 130.445 222.547 130.445 223.66V231.979H128.433V223.797C128.433 222.768 128.166 221.967 127.632 221.393C127.098 220.814 126.365 220.524 125.433 220.524C124.791 220.524 124.218 220.663 123.712 220.942C123.212 221.22 122.817 221.626 122.527 222.16C122.237 222.694 122.093 223.342 122.093 224.104Z" fill="black"/>
<circle cx="80.5647" cy="80.5647" r="78.0022" fill="white" stroke="#777100" stroke-width="4"/>
<circle cx="80.563" cy="80.5649" r="69.3657" fill="white"/>
<path d="M79.6174 121.185C77.4225 120.297 75.2275 119.404 73.0325 118.516C65.6892 115.547 58.346 112.579 51.0027 109.611C49.985 109.197 49.4413 108.504 49.4762 107.616C49.5211 106.593 50.1197 106.004 51.0426 105.64C60.1369 102.073 69.2262 98.4914 78.3304 94.9444C78.9989 94.685 79.2633 94.3757 79.2333 93.6374C79.1685 92.0311 79.2134 90.4198 79.2134 88.7037C77.2628 88.9282 76.4197 87.666 75.6315 86.2792C74.7835 84.7876 73.8157 83.3609 73.0025 81.8493C72.6783 81.2507 72.4189 80.4824 72.4937 79.8339C72.8429 76.8158 71.9499 74.2566 70.2538 71.7673C68.3232 68.9338 66.6869 65.8957 64.906 62.9574C64.4969 62.2789 64.2924 61.5955 64.3124 60.7923C64.3573 58.8418 64.3273 56.8862 64.3273 54.8259C63.0802 54.8259 61.9029 54.8259 60.7206 54.8259C58.5854 54.8259 57.5478 53.7933 57.5478 51.6731C57.5478 48.7648 57.5478 45.8514 57.5478 42.943C57.5478 40.9725 58.6153 39.9199 60.6008 39.9199C73.9055 39.9199 87.2101 39.9199 100.52 39.9199C102.55 39.9199 103.598 40.9675 103.598 42.9979C103.598 45.9362 103.598 48.8695 103.598 51.8078C103.598 53.7234 102.51 54.816 100.61 54.8309C99.4223 54.8409 98.23 54.8459 97.0427 54.8559C96.9978 54.8559 96.9529 54.9008 96.8232 54.9656C96.8232 56.7416 96.7733 58.5624 96.8432 60.3783C96.8831 61.4857 96.5937 62.4236 96.02 63.3615C93.6904 67.1728 91.4006 71.009 89.1308 74.8553C88.8763 75.2843 88.7416 75.828 88.7117 76.3269C88.6518 77.4094 88.6518 78.4969 88.7067 79.5795C88.7516 80.4974 88.4922 81.2856 88.0283 82.0538C87.0904 83.5853 86.1376 85.1119 85.2596 86.6783C84.5462 87.9504 83.6433 88.8334 81.9372 88.6688C81.9372 89.4619 81.9372 90.1903 81.9372 90.9186C81.9372 91.8714 81.9671 92.8243 81.9272 93.7771C81.9072 94.3259 82.0619 94.6152 82.6056 94.8297C90.8169 98.0474 99.0182 101.285 107.224 104.523C108.157 104.892 109.08 105.281 110.028 105.62C110.991 105.964 111.644 106.573 111.654 107.626C111.669 108.723 110.971 109.317 110.003 109.706C104.466 111.931 98.9384 114.181 93.401 116.406C89.48 117.982 85.5539 119.528 81.6279 121.095C81.588 121.11 81.558 121.17 81.5281 121.21H79.6224L79.6174 121.185ZM68.1286 62.9275C68.2384 63.1619 68.2783 63.2767 68.3432 63.3864C70.3237 66.6939 72.2991 70.0113 74.3146 73.2988C74.4692 73.5532 74.9481 73.7328 75.2774 73.7378C78.7943 73.7677 82.3113 73.7478 85.8333 73.7677C86.3671 73.7677 86.6813 73.6231 86.9657 73.1442C88.8414 69.9564 90.757 66.7936 92.6577 63.6209C92.7725 63.4313 92.8623 63.2218 93.0069 62.9324H92.0391C88.4174 62.9324 84.7907 62.9324 81.1689 62.9324C80.4805 62.9324 79.7921 62.9574 79.1086 62.9125C78.3902 62.8676 77.8864 62.2939 77.8714 61.6005C77.8615 60.9121 78.3553 60.3384 79.0637 60.2436C79.2982 60.2136 79.5376 60.2286 79.7771 60.2286C84.2469 60.2286 88.7167 60.2286 93.1865 60.2286H94.0446V54.8608H67.086V60.2286C68.8221 60.2286 70.5082 60.2236 72.1994 60.2286C73.2121 60.2336 73.7857 60.7474 73.7758 61.6055C73.7608 62.4286 73.2021 62.9225 72.2343 62.9275C70.9123 62.9374 69.5903 62.9275 68.1336 62.9275H68.1286ZM69.5654 114.215C69.9196 114.365 70.1091 114.445 70.2937 114.525C73.2071 115.702 76.1304 116.849 79.0238 118.077C80.0714 118.521 81.0193 118.531 82.0719 118.102C90.3131 114.739 98.5642 111.412 106.81 108.07C107.105 107.95 107.394 107.805 107.813 107.616C99.118 104.198 90.5824 100.841 81.9272 97.4388V98.4614C81.9272 101.29 81.8923 104.124 81.9471 106.952C81.9671 108.03 81.573 108.643 80.5852 109.087C76.9535 110.728 73.3567 112.445 69.5604 114.215H69.5654ZM65.6643 42.6487C65.6643 43.4868 65.6643 44.25 65.6643 45.0133C65.6593 46.0609 65.1205 46.7045 64.2824 46.6795C63.4743 46.6546 62.9704 46.036 62.9604 45.0283C62.9555 44.2451 62.9604 43.4618 62.9604 42.6736H60.3065V52.0523H100.844V42.6687H98.1901C98.1901 43.5167 98.2001 44.3099 98.1901 45.0981C98.1751 46.0709 97.6064 46.7045 96.7933 46.6745C96.0051 46.6446 95.5012 46.041 95.4912 45.0931C95.4813 44.285 95.4912 43.4768 95.4912 42.6736H92.7824C92.7824 43.4768 92.7874 44.2151 92.7824 44.9584C92.7725 46.026 92.2736 46.6645 91.4405 46.6795C90.6024 46.6945 90.0836 46.0609 90.0786 44.9983C90.0736 44.2151 90.0786 43.4319 90.0786 42.6537H87.4795C87.4346 42.7185 87.4097 42.7385 87.4097 42.7634C87.3947 43.5566 87.3947 44.3498 87.3648 45.138C87.3299 46.0759 86.7861 46.6745 85.9979 46.6745C85.2097 46.6745 84.6809 46.0759 84.661 45.128C84.646 44.3149 84.661 43.5018 84.661 42.6637H81.9421C81.9421 43.4818 81.9521 44.25 81.9421 45.0133C81.9222 46.0659 81.3834 46.7045 80.5453 46.6745C79.7372 46.6496 79.2433 46.041 79.2283 45.0133C79.2134 44.2301 79.2283 43.4519 79.2283 42.6437H76.4996C76.4996 43.5766 76.5145 44.4695 76.4996 45.3575C76.4846 45.9811 76.1653 46.5049 75.5617 46.5548C75.1028 46.5947 74.5241 46.4201 74.1649 46.1357C73.9055 45.9262 73.8456 45.3825 73.8207 44.9784C73.7708 44.2051 73.8057 43.4219 73.8057 42.6587H71.0969C71.0969 43.4968 71.1069 44.285 71.0969 45.0732C71.0869 46.0659 70.5531 46.6895 69.735 46.6745C68.9268 46.6596 68.403 46.036 68.393 45.0333C68.3831 44.25 68.393 43.4618 68.393 42.6437H65.6842L65.6643 42.6487ZM53.3673 107.611C53.6018 107.735 53.7315 107.815 53.8712 107.875C57.7822 109.461 61.6933 111.053 65.6144 112.609C65.9237 112.734 66.3926 112.674 66.7119 112.529C70.6778 110.728 74.6189 108.888 78.5848 107.087C79.0737 106.867 79.2333 106.603 79.2283 106.074C79.2034 103.46 79.2184 100.841 79.2134 98.227C79.2134 98.0075 79.1735 97.788 79.1435 97.4837C70.5232 100.876 61.9926 104.228 53.3673 107.616V107.611ZM75.2424 76.5115C74.8982 79.0956 75.0928 80.0634 76.3649 82.1786C76.5694 82.5178 76.769 82.862 76.9785 83.1962C77.5522 84.1091 77.9313 85.3663 78.7594 85.8252C79.5925 86.2842 80.8696 85.9799 81.9471 85.935C82.2415 85.92 82.6356 85.7005 82.8002 85.4511C83.5884 84.2339 84.202 82.8869 85.085 81.7495C86.3571 80.1182 85.9081 78.3223 85.973 76.5065H75.2474L75.2424 76.5115Z" fill="black"/>
<path d="M94.813 86.3598C94.4189 85.1376 94.1146 83.9952 93.6905 82.9027C92.5332 79.9095 92.5631 77.066 94.6184 74.447C95.7458 73.0102 97.2724 72.1273 98.9835 71.5635C99.7018 71.3291 100.43 71.6932 100.675 72.3517C100.929 73.0352 100.64 73.7136 99.9413 74.0678C99.7767 74.1526 99.6021 74.2125 99.4324 74.2823C96.0053 75.6492 94.823 78.4977 96.2048 81.9199C96.6538 83.0374 97.1127 84.1897 97.2973 85.3671C97.881 89.1135 95.0674 93.1543 91.3958 94.0223C90.5178 94.2318 89.8343 93.9076 89.5999 93.1693C89.3604 92.421 89.6847 91.7874 90.5577 91.4332C91.8048 90.9294 92.9971 90.3008 93.6955 89.1285C94.1894 88.2954 94.4388 87.3126 94.818 86.3548L94.813 86.3598Z" fill="#777100"/>
<path d="M110.935 59.7745C110.805 59.9591 110.556 60.3282 110.277 60.6824C110.202 60.7772 110.047 60.8121 109.923 60.8521C106.57 61.9595 104.674 64.9128 106.58 69.1132C107.952 72.1413 107.942 75.1195 105.802 77.8533C104.674 79.295 103.148 80.178 101.427 80.7267C100.684 80.9662 100.02 80.627 99.7507 79.9385C99.4813 79.2551 99.7657 78.5766 100.469 78.2224C100.589 78.1626 100.714 78.1227 100.833 78.0728C104.59 76.5413 105.747 73.5381 103.966 69.8615C103.293 68.4697 102.998 67.028 103.088 65.4865C103.283 62.1142 105.922 58.9763 109.219 58.238C110.127 58.0335 110.905 58.6072 110.93 59.7745H110.935Z" fill="#777100"/>
</svg>
