<svg width="160" height="237" viewBox="0 0 160 237" fill="none" xmlns="http://www.w3.org/2000/svg">
<path d="M51.8929 202.416V184.961H54.0066V200.541H62.1202V202.416H51.8929ZM70.4384 202.689C69.2566 202.689 68.2196 202.407 67.3276 201.845C66.4412 201.282 65.748 200.496 65.248 199.484C64.7537 198.473 64.5066 197.291 64.5066 195.939C64.5066 194.575 64.7537 193.385 65.248 192.368C65.748 191.351 66.4412 190.561 67.3276 189.998C68.2196 189.436 69.2566 189.155 70.4384 189.155C71.6202 189.155 72.6543 189.436 73.5407 189.998C74.4327 190.561 75.1259 191.351 75.6202 192.368C76.1202 193.385 76.3702 194.575 76.3702 195.939C76.3702 197.291 76.1202 198.473 75.6202 199.484C75.1259 200.496 74.4327 201.282 73.5407 201.845C72.6543 202.407 71.6202 202.689 70.4384 202.689ZM70.4384 200.882C71.3361 200.882 72.0748 200.652 72.6543 200.192C73.2338 199.731 73.6628 199.126 73.9412 198.376C74.2196 197.626 74.3588 196.814 74.3588 195.939C74.3588 195.064 74.2196 194.248 73.9412 193.493C73.6628 192.737 73.2338 192.126 72.6543 191.66C72.0748 191.194 71.3361 190.961 70.4384 190.961C69.5407 190.961 68.802 191.194 68.2225 191.66C67.6429 192.126 67.214 192.737 66.9355 193.493C66.6571 194.248 66.5179 195.064 66.5179 195.939C66.5179 196.814 66.6571 197.626 66.9355 198.376C67.214 199.126 67.6429 199.731 68.2225 200.192C68.802 200.652 69.5407 200.882 70.4384 200.882ZM84.7587 202.689C83.5314 202.689 82.4746 202.399 81.5882 201.819C80.7019 201.24 80.0201 200.442 79.5428 199.425C79.0655 198.407 78.8269 197.246 78.8269 195.939C78.8269 194.609 79.0712 193.436 79.5598 192.419C80.0542 191.396 80.7417 190.598 81.6223 190.024C82.5087 189.444 83.5428 189.155 84.7246 189.155C85.6451 189.155 86.4746 189.325 87.2132 189.666C87.9519 190.007 88.557 190.484 89.0286 191.098C89.5002 191.711 89.7928 192.427 89.9064 193.246H87.8951C87.7417 192.649 87.4007 192.121 86.8723 191.66C86.3496 191.194 85.6451 190.961 84.7587 190.961C83.9746 190.961 83.2871 191.166 82.6962 191.575C82.111 191.979 81.6536 192.55 81.324 193.288C81.0002 194.021 80.8382 194.882 80.8382 195.871C80.8382 196.882 80.9973 197.763 81.3155 198.513C81.6394 199.263 82.0939 199.845 82.6792 200.26C83.2701 200.675 83.9632 200.882 84.7587 200.882C85.2814 200.882 85.7559 200.791 86.182 200.609C86.6081 200.427 86.9689 200.166 87.2644 199.825C87.5598 199.484 87.7701 199.075 87.8951 198.598H89.9064C89.7928 199.371 89.5115 200.067 89.0627 200.686C88.6195 201.3 88.0314 201.788 87.2985 202.152C86.5712 202.51 85.7246 202.689 84.7587 202.689ZM96.699 202.723C95.8695 202.723 95.1167 202.567 94.4405 202.254C93.7644 201.936 93.2275 201.479 92.8297 200.882C92.432 200.28 92.2331 199.552 92.2331 198.7C92.2331 197.95 92.3809 197.342 92.6763 196.876C92.9718 196.405 93.3667 196.035 93.861 195.768C94.3553 195.501 94.9007 195.302 95.4973 195.172C96.0996 195.035 96.7047 194.927 97.3127 194.848C98.1081 194.746 98.753 194.669 99.2473 194.618C99.7473 194.561 100.111 194.467 100.338 194.336C100.571 194.206 100.688 193.979 100.688 193.655V193.586C100.688 192.746 100.458 192.092 99.9973 191.626C99.5428 191.16 98.8525 190.927 97.9263 190.927C96.9661 190.927 96.2132 191.138 95.6678 191.558C95.1223 191.979 94.7388 192.427 94.5172 192.905L92.6081 192.223C92.949 191.427 93.4036 190.808 93.9718 190.365C94.5456 189.916 95.1706 189.604 95.8468 189.427C96.5286 189.246 97.199 189.155 97.8581 189.155C98.2786 189.155 98.7615 189.206 99.307 189.308C99.8581 189.405 100.389 189.606 100.901 189.913C101.418 190.22 101.847 190.683 102.188 191.302C102.529 191.922 102.699 192.751 102.699 193.791V202.416H100.688V200.643H100.585C100.449 200.927 100.222 201.231 99.9036 201.555C99.5854 201.879 99.1621 202.155 98.6337 202.382C98.1053 202.609 97.4604 202.723 96.699 202.723ZM97.0059 200.916C97.8013 200.916 98.4718 200.76 99.0172 200.447C99.5684 200.135 99.9831 199.731 100.262 199.237C100.546 198.743 100.688 198.223 100.688 197.677V195.836C100.602 195.939 100.415 196.032 100.125 196.118C99.8411 196.197 99.5115 196.268 99.1365 196.331C98.7672 196.388 98.4064 196.439 98.0542 196.484C97.7076 196.524 97.4263 196.558 97.2104 196.586C96.6877 196.655 96.199 196.765 95.7445 196.919C95.2956 197.067 94.932 197.291 94.6536 197.592C94.3809 197.888 94.2445 198.291 94.2445 198.802C94.2445 199.501 94.503 200.03 95.0201 200.388C95.5428 200.74 96.2047 200.916 97.0059 200.916ZM108.382 184.961V202.416H106.37V184.961H108.382ZM41.7275 218.325C41.6252 217.461 41.2104 216.791 40.4831 216.314C39.7559 215.836 38.8638 215.598 37.807 215.598C37.0343 215.598 36.3581 215.723 35.7786 215.973C35.2047 216.223 34.7559 216.567 34.432 217.004C34.1138 217.442 33.9547 217.939 33.9547 218.496C33.9547 218.961 34.0655 219.362 34.2871 219.697C34.5144 220.027 34.8042 220.302 35.1564 220.524C35.5087 220.74 35.878 220.919 36.2644 221.061C36.6507 221.197 37.0059 221.308 37.3297 221.393L39.1025 221.871C39.557 221.99 40.0627 222.155 40.6195 222.365C41.182 222.575 41.7189 222.862 42.2303 223.226C42.7473 223.584 43.1735 224.044 43.5087 224.606C43.8439 225.169 44.0115 225.859 44.0115 226.677C44.0115 227.621 43.7644 228.473 43.2701 229.234C42.7814 229.996 42.0655 230.601 41.1223 231.05C40.1848 231.498 39.0456 231.723 37.7047 231.723C36.4547 231.723 35.3723 231.521 34.4576 231.118C33.5485 230.714 32.8326 230.152 32.3098 229.43C31.7928 228.709 31.5002 227.871 31.432 226.916H33.6138C33.6706 227.575 33.8922 228.121 34.2786 228.552C34.6706 228.979 35.165 229.297 35.7615 229.507C36.3638 229.711 37.0115 229.814 37.7047 229.814C38.5115 229.814 39.236 229.683 39.878 229.422C40.5201 229.155 41.0286 228.785 41.4036 228.314C41.7786 227.836 41.9661 227.28 41.9661 226.643C41.9661 226.064 41.8042 225.592 41.4803 225.229C41.1564 224.865 40.7303 224.569 40.2019 224.342C39.6735 224.115 39.1025 223.916 38.4888 223.746L36.3411 223.132C34.9775 222.74 33.8979 222.18 33.1025 221.453C32.307 220.726 31.9093 219.774 31.9093 218.598C31.9093 217.621 32.1735 216.768 32.7019 216.041C33.236 215.308 33.9519 214.74 34.8496 214.336C35.753 213.927 36.7615 213.723 37.8752 213.723C39.0002 213.723 40.0002 213.925 40.8752 214.328C41.7502 214.726 42.4434 215.271 42.9547 215.964C43.4718 216.657 43.7445 217.444 43.7729 218.325H41.7275ZM52.5321 231.689C51.3503 231.689 50.3134 231.407 49.4213 230.845C48.535 230.282 47.8418 229.496 47.3418 228.484C46.8475 227.473 46.6003 226.291 46.6003 224.939C46.6003 223.575 46.8475 222.385 47.3418 221.368C47.8418 220.351 48.535 219.561 49.4213 218.998C50.3134 218.436 51.3503 218.155 52.5321 218.155C53.714 218.155 54.748 218.436 55.6344 218.998C56.5265 219.561 57.2196 220.351 57.714 221.368C58.214 222.385 58.464 223.575 58.464 224.939C58.464 226.291 58.214 227.473 57.714 228.484C57.2196 229.496 56.5265 230.282 55.6344 230.845C54.748 231.407 53.714 231.689 52.5321 231.689ZM52.5321 229.882C53.4299 229.882 54.1685 229.652 54.748 229.192C55.3276 228.731 55.7566 228.126 56.035 227.376C56.3134 226.626 56.4526 225.814 56.4526 224.939C56.4526 224.064 56.3134 223.248 56.035 222.493C55.7566 221.737 55.3276 221.126 54.748 220.66C54.1685 220.194 53.4299 219.961 52.5321 219.961C51.6344 219.961 50.8958 220.194 50.3162 220.66C49.7367 221.126 49.3077 221.737 49.0293 222.493C48.7509 223.248 48.6117 224.064 48.6117 224.939C48.6117 225.814 48.7509 226.626 49.0293 227.376C49.3077 228.126 49.7367 228.731 50.3162 229.192C50.8958 229.652 51.6344 229.882 52.5321 229.882ZM69.7843 226.064V218.325H71.7956V231.416H69.7843V229.2H69.6479C69.3411 229.865 68.8638 230.43 68.2161 230.896C67.5684 231.356 66.7502 231.586 65.7615 231.586C64.9434 231.586 64.2161 231.407 63.5797 231.05C62.9434 230.686 62.4434 230.14 62.0797 229.413C61.7161 228.68 61.5343 227.757 61.5343 226.643V218.325H63.5456V226.507C63.5456 227.461 63.8127 228.223 64.3468 228.791C64.8865 229.359 65.574 229.643 66.4093 229.643C66.9093 229.643 67.4178 229.515 67.9348 229.26C68.4576 229.004 68.8951 228.612 69.2473 228.084C69.6053 227.555 69.7843 226.882 69.7843 226.064ZM75.4796 231.416V218.325H77.4228V220.302H77.5591C77.7978 219.655 78.2296 219.129 78.8546 218.726C79.4796 218.322 80.1841 218.121 80.9682 218.121C81.1159 218.121 81.3006 218.123 81.5222 218.129C81.7438 218.135 81.9114 218.143 82.025 218.155V220.2C81.9569 220.183 81.8006 220.157 81.5563 220.123C81.3176 220.084 81.0648 220.064 80.7978 220.064C80.1614 220.064 79.5932 220.197 79.0932 220.464C78.5989 220.726 78.2069 221.089 77.9171 221.555C77.633 222.015 77.4909 222.541 77.4909 223.132V231.416H75.4796ZM89.329 231.689C88.1017 231.689 87.0449 231.399 86.1586 230.819C85.2722 230.24 84.5904 229.442 84.1131 228.425C83.6358 227.407 83.3972 226.246 83.3972 224.939C83.3972 223.609 83.6415 222.436 84.1301 221.419C84.6245 220.396 85.312 219.598 86.1926 219.024C87.079 218.444 88.1131 218.155 89.2949 218.155C90.2154 218.155 91.0449 218.325 91.7836 218.666C92.5222 219.007 93.1273 219.484 93.5989 220.098C94.0705 220.711 94.3631 221.427 94.4767 222.246H92.4654C92.312 221.649 91.9711 221.121 91.4426 220.66C90.9199 220.194 90.2154 219.961 89.329 219.961C88.5449 219.961 87.8574 220.166 87.2665 220.575C86.6813 220.979 86.2239 221.55 85.8944 222.288C85.5705 223.021 85.4086 223.882 85.4086 224.871C85.4086 225.882 85.5676 226.763 85.8858 227.513C86.2097 228.263 86.6642 228.845 87.2495 229.26C87.8404 229.675 88.5336 229.882 89.329 229.882C89.8517 229.882 90.3262 229.791 90.7523 229.609C91.1784 229.427 91.5392 229.166 91.8347 228.825C92.1301 228.484 92.3404 228.075 92.4654 227.598H94.4767C94.3631 228.371 94.0819 229.067 93.633 229.686C93.1898 230.3 92.6017 230.788 91.8688 231.152C91.1415 231.51 90.2949 231.689 89.329 231.689ZM97.4171 231.416V218.325H99.4284V231.416H97.4171ZM98.4398 216.143C98.0478 216.143 97.7097 216.01 97.4256 215.743C97.1472 215.476 97.008 215.155 97.008 214.78C97.008 214.405 97.1472 214.084 97.4256 213.817C97.7097 213.55 98.0478 213.416 98.4398 213.416C98.8319 213.416 99.1671 213.55 99.4455 213.817C99.7296 214.084 99.8716 214.405 99.8716 214.78C99.8716 215.155 99.7296 215.476 99.4455 215.743C99.1671 216.01 98.8319 216.143 98.4398 216.143ZM105.124 223.541V231.416H103.112V218.325H105.056V220.371H105.226C105.533 219.706 105.999 219.172 106.624 218.768C107.249 218.359 108.056 218.155 109.044 218.155C109.931 218.155 110.706 218.336 111.371 218.7C112.036 219.058 112.553 219.604 112.922 220.336C113.291 221.064 113.476 221.984 113.476 223.098V231.416H111.465V223.234C111.465 222.206 111.198 221.405 110.664 220.831C110.129 220.251 109.396 219.961 108.465 219.961C107.823 219.961 107.249 220.101 106.743 220.379C106.243 220.657 105.848 221.064 105.558 221.598C105.269 222.132 105.124 222.78 105.124 223.541ZM122.436 236.598C121.464 236.598 120.629 236.473 119.93 236.223C119.231 235.979 118.649 235.655 118.183 235.251C117.722 234.854 117.356 234.427 117.083 233.973L118.686 232.848C118.867 233.086 119.097 233.359 119.376 233.666C119.654 233.979 120.035 234.248 120.518 234.476C121.007 234.709 121.646 234.825 122.436 234.825C123.492 234.825 124.365 234.569 125.052 234.058C125.74 233.547 126.083 232.746 126.083 231.655V228.996H125.913C125.765 229.234 125.555 229.53 125.282 229.882C125.015 230.229 124.629 230.538 124.123 230.811C123.623 231.078 122.947 231.211 122.095 231.211C121.038 231.211 120.089 230.961 119.248 230.461C118.413 229.961 117.751 229.234 117.262 228.28C116.779 227.325 116.538 226.166 116.538 224.802C116.538 223.461 116.774 222.294 117.245 221.3C117.717 220.3 118.373 219.527 119.214 218.981C120.055 218.43 121.026 218.155 122.129 218.155C122.981 218.155 123.657 218.297 124.157 218.581C124.663 218.859 125.049 219.177 125.316 219.535C125.589 219.888 125.799 220.177 125.947 220.405H126.151V218.325H128.095V231.791C128.095 232.916 127.839 233.831 127.328 234.535C126.822 235.246 126.14 235.765 125.282 236.095C124.43 236.43 123.481 236.598 122.436 236.598ZM122.367 229.405C123.174 229.405 123.856 229.22 124.413 228.851C124.97 228.481 125.393 227.95 125.683 227.257C125.972 226.564 126.117 225.734 126.117 224.768C126.117 223.825 125.975 222.993 125.691 222.271C125.407 221.55 124.987 220.984 124.43 220.575C123.873 220.166 123.186 219.961 122.367 219.961C121.515 219.961 120.805 220.177 120.237 220.609C119.674 221.041 119.251 221.621 118.967 222.348C118.688 223.075 118.549 223.882 118.549 224.768C118.549 225.677 118.691 226.481 118.975 227.18C119.265 227.873 119.691 228.419 120.254 228.817C120.822 229.209 121.526 229.405 122.367 229.405Z" fill="black"/>
<circle cx="80.0022" cy="80.0022" r="78.0022" fill="white" stroke="#777100" stroke-width="4"/>
<circle cx="80.0005" cy="80.0024" r="69.3657" fill="white"/>
<path d="M75.5774 123.405C74.1414 123.293 72.7179 123.181 71.2819 123.068C64.564 122.519 57.9459 121.457 51.5776 119.16C48.0563 117.886 44.6724 116.338 41.9627 113.641C40.252 111.942 39.1407 109.97 39.4529 107.447C39.6527 105.836 40.4144 104.513 41.4758 103.339C43.8732 100.692 46.9575 99.1185 50.2041 97.8198C55.461 95.722 60.9553 94.6232 66.5369 93.8989C68.0728 93.6992 69.6087 93.5493 71.2445 93.3745C71.0447 93.0249 70.9073 92.7626 70.745 92.5004C66.7492 85.8449 62.7784 79.1769 59.5567 72.0969C58.2331 69.1874 56.9969 66.2405 56.4475 63.0689C55.6608 58.5486 56.5599 54.2406 58.4954 50.1449C62.9032 40.8297 72.7304 35.5103 83.082 36.7715C93.0216 37.9827 101.3 45.7371 103.373 55.6641C104.335 60.2593 103.498 64.5673 101.787 68.8128C99.215 75.1936 95.8811 81.1873 92.4597 87.1311C91.2734 89.1789 90.0622 91.2143 88.801 93.3745C90.3993 93.5493 91.9352 93.6992 93.4461 93.8989C100.251 94.798 106.919 96.1716 113.1 99.3183C115.123 100.355 116.996 101.603 118.52 103.327C121.304 106.448 121.304 110.044 118.495 113.154C116.022 115.888 112.801 117.474 109.442 118.785C103.848 120.946 98.0163 122.107 92.0726 122.744C89.7125 122.993 87.34 123.118 84.98 123.293C84.7927 123.306 84.6054 123.38 84.4056 123.418H75.5899L75.5774 123.405ZM79.5857 121.383C86.8281 121.345 93.6584 120.821 100.389 119.335C104.834 118.348 109.18 117.05 113.163 114.765C114.861 113.791 116.447 112.654 117.583 111.018C118.832 109.233 118.882 107.372 117.658 105.562C117.184 104.862 116.647 104.163 115.972 103.676C114.511 102.627 113.026 101.541 111.415 100.779C104.035 97.3328 96.1308 96.0966 88.1017 95.4473C87.827 95.4223 87.4025 95.747 87.2277 96.0217C85.1673 99.3932 83.1444 102.777 81.1091 106.174C80.3474 107.435 79.5732 107.422 78.8115 106.149C76.8011 102.79 74.7658 99.4306 72.7679 96.0467C72.4557 95.5222 72.131 95.3724 71.5566 95.4223C66.8741 95.8219 62.2414 96.4588 57.6837 97.5826C53.8627 98.5316 50.1416 99.7303 46.6953 101.691C45.0969 102.602 43.5985 103.676 42.4872 105.187C41.0262 107.172 41.0013 109.245 42.4997 111.193C43.0616 111.93 43.7359 112.592 44.4601 113.166C47.5694 115.626 51.203 117.012 54.9616 118.123C63.103 120.546 71.4567 121.295 79.5482 121.37L79.5857 121.383ZM79.9478 103.926C80.1101 103.701 80.1975 103.601 80.26 103.476C83.9311 97.3578 87.6397 91.2517 91.2484 85.0957C94.4576 79.614 97.4919 74.0323 99.8769 68.1385C101.488 64.1802 102.249 60.1719 101.313 55.9014C99.3399 46.9109 91.8353 39.8932 82.8947 38.8069C73.4546 37.6581 64.6389 42.3157 60.4683 50.7193C58.5953 54.4904 57.6962 58.4862 58.4454 62.7067C59.0698 66.2405 60.5432 69.4871 62.0666 72.7087C65.7502 80.4381 70.1706 87.7679 74.5909 95.0852C76.3516 98.0071 78.1122 100.929 79.9228 103.938L79.9478 103.926Z" fill="black"/>
<path d="M79.9726 77.8788C70.5076 77.8788 62.8406 70.2243 62.8281 60.7468C62.8281 51.2818 70.4826 43.5898 79.9351 43.5898C89.3752 43.5898 97.0921 51.2818 97.0921 60.7218C97.0921 70.1744 89.4002 77.8788 79.9601 77.8788H79.9726ZM79.9351 75.8434C88.2514 75.8809 95.0567 69.1255 95.1067 60.8217C95.1442 52.468 88.4137 45.6752 80.0226 45.6252C71.7188 45.5628 64.9134 52.3307 64.876 60.6469C64.8385 69.0381 71.544 75.806 79.9351 75.8434Z" fill="#777100"/>
<path d="M74.6277 58.5976C74.815 57.4488 74.9149 56.1752 75.252 54.9639C75.8639 52.7912 77.2375 51.1305 79.148 49.9192C79.7224 49.5571 80.2093 49.5446 80.7837 49.9317C83.6682 51.8797 85.1666 54.5519 85.1417 58.0482C85.1417 58.248 85.1417 58.4478 85.1417 58.6351C85.1417 58.6601 85.1666 58.685 85.1042 58.5851C86.4653 58.5851 87.7514 58.5851 89.0251 58.5851C89.7493 58.5851 90.1239 58.9972 90.3487 59.6715C92.2467 65.5653 87.8138 71.7588 81.6204 71.8212C80.022 71.8337 78.3863 71.8961 76.8129 71.6464C71.3187 70.7349 67.9098 64.916 69.6579 59.6465C69.8827 58.9722 70.2573 58.5726 70.9815 58.5726C72.2177 58.5726 73.4415 58.5726 74.6402 58.5726L74.6277 58.5976ZM81.0834 69.7609C85.0543 70.3103 89.6744 66.2521 88.5756 60.9951C88.4757 60.4956 88.1385 60.4831 87.7514 60.5081C84.792 60.6455 82.5943 61.994 81.2208 64.6163C81.0085 65.0159 81.0335 65.5278 80.9211 66.1772C82.1323 65.5278 83.1188 64.9909 84.1053 64.454C84.7171 64.1168 85.2915 64.0044 85.7161 64.7037C86.0657 65.2656 85.8534 65.8025 85.1167 66.2146C84.1052 66.7765 83.1188 67.3884 82.0574 67.8504C81.1708 68.2375 80.7463 68.7494 81.0834 69.7734V69.7609ZM78.8483 69.7609C79.1105 68.8119 78.8483 68.25 77.9367 67.8629C76.8754 67.4133 75.8889 66.789 74.8899 66.2271C74.1033 65.7901 73.8785 65.2406 74.2406 64.6662C74.6901 63.9795 75.2645 64.1293 75.8639 64.454C76.8504 64.9909 77.8368 65.5153 79.0231 66.1522C78.9107 65.5278 78.8982 65.0658 78.7359 64.6787C77.712 62.2563 74.7151 60.4082 72.0804 60.4831C71.6184 60.4956 71.3811 60.6704 71.3561 61.095C71.3187 61.9691 71.2188 62.8432 71.3312 63.7047C71.7932 67.276 75.4019 70.1729 78.8358 69.7609H78.8483ZM80.9835 61.4446C81.7203 60.7454 82.5694 60.2958 82.8316 59.634C83.8555 56.9369 82.482 53.4281 79.9221 51.8797C78.0616 53.1783 77.0876 54.9889 76.8379 57.2366C76.6381 59.0097 77.1001 60.4457 78.9606 61.2323C78.9606 59.9337 78.9606 58.6476 78.9606 57.3614C78.9606 56.7496 79.1729 56.3125 79.8347 56.2251C80.5215 56.1377 80.971 56.5498 80.9835 57.3489C81.0085 58.6351 80.9835 59.9212 80.9835 61.4446Z" fill="#777100"/>
</svg>
