<svg width="50" height="32" viewBox="0 0 50 32" fill="none" xmlns="http://www.w3.org/2000/svg">
<path d="M3.88363 5.51991L4.34179 7.05244C3.78943 7.30073 3.26276 7.49765 2.77463 7.76734C1.31453 8.58497 1.31024 9.45398 2.75322 10.293C3.80227 10.9052 4.96265 11.1963 6.15729 11.3547C8.4652 11.6586 10.7346 11.5345 12.9226 10.6783C13.3465 10.5113 13.7576 10.2802 14.1258 10.0105C15.0164 9.3598 15.0164 8.69628 14.1044 8.05843C13.6505 7.74165 13.1153 7.53189 12.61 7.2836C12.4602 7.21083 12.3017 7.15946 12.1176 7.08669C12.169 6.88121 12.2032 6.70141 12.2546 6.5259C12.3531 6.20056 12.4602 5.87949 12.5758 5.51562C13.8817 5.92658 15.1149 6.40604 15.9028 7.54045C16.2068 7.9771 16.4166 8.57641 16.4209 9.09867C16.4551 15.1603 16.438 21.2177 16.4465 27.2793C16.4465 28.2768 15.9284 28.9531 15.1834 29.5011C14.0273 30.353 12.6785 30.7511 11.2912 30.978C8.6065 31.4232 5.94319 31.3547 3.33127 30.5156C2.36358 30.2031 1.45154 29.7793 0.732195 29.0302C0.248347 28.5379 0 27.9557 0 27.2408C0.0128455 21.2305 0.0128455 15.2202 0 9.21425C0 8.40518 0.269756 7.74165 0.817832 7.18515C1.65707 6.33326 2.7104 5.87521 3.88363 5.52419V5.51991ZM1.64851 11.6201V12.2322C1.64851 15.6226 1.67848 19.0088 1.6271 22.3992C1.61425 23.2853 1.96965 23.8247 2.67615 24.2271C2.9716 24.394 3.27989 24.5524 3.59675 24.6766C5.99886 25.5884 8.4652 25.6697 10.9658 25.2245C12.1005 25.0233 13.1924 24.6894 14.1386 23.9959C14.5968 23.662 14.8194 23.2382 14.8152 22.6432C14.798 19.1329 14.8066 15.6269 14.8066 12.1167V11.6586C9.83967 13.6834 5.74623 13.6749 1.64851 11.6244V11.6201ZM7.37761 29.591V27.1595L4.96265 26.8512V29.2913L7.37761 29.591ZM9.0775 27.1423V29.591L11.4882 29.2913V26.847C11.0686 26.9112 10.6789 26.9754 10.2893 27.0225C9.89962 27.0696 9.50569 27.1038 9.0775 27.1466V27.1423ZM1.67848 25.6184C1.52434 27.6346 1.94396 28.4223 3.29702 28.6535C3.29702 27.9643 3.30986 27.2836 3.28417 26.603C3.28417 26.4916 3.16 26.3375 3.04867 26.2819C2.61192 26.0507 2.16233 25.8538 1.6742 25.6226L1.67848 25.6184ZM13.1624 28.692C14.6867 28.2083 15.1363 27.2879 14.7338 25.644C14.2885 25.8538 13.8389 26.055 13.4064 26.2819C13.2994 26.3375 13.1795 26.4916 13.1752 26.603C13.1538 27.2836 13.1667 27.9643 13.1667 28.692H13.1624Z" fill="black"/>
<path d="M41.9489 21.3889V19.7322H47.6566V16.4617H41.9789V14.8093H47.6652V11.5302H38.6819V9.87776H47.6566V6.58153H37.8555V4.95053H40.2961C40.2961 3.68341 40.2961 2.47622 40.2961 1.26474C40.2961 0.190259 40.4802 0.00190259 41.5336 0.00190259C42.4584 0.00190259 43.3833 -0.00237823 44.3082 0.00190259C44.9205 0.00618341 45.2202 0.30156 45.2245 0.917999C45.2331 2.23221 45.2245 3.5507 45.2245 4.93341C46.2093 4.93341 47.1599 4.93341 48.1105 4.93341C49.1381 4.93341 49.3351 5.13033 49.3351 6.15772C49.3351 12.4933 49.3351 18.829 49.3351 25.1646C49.3351 26.0764 49.1081 26.3033 48.179 26.3033C47.2198 26.3033 46.265 26.3033 45.2245 26.3033C45.2245 26.4873 45.2245 26.65 45.2245 26.8127C45.2245 27.9599 45.2245 29.1072 45.2245 30.2545C45.2245 30.9437 44.9419 31.2305 44.2739 31.2348C43.2634 31.2391 42.2529 31.2391 41.2424 31.2348C40.5916 31.2348 40.3047 30.9437 40.3004 30.2973C40.2918 28.9959 40.2876 27.6945 40.2833 26.3932C40.2833 26.3803 40.2619 26.3675 40.219 26.3161H39.5125V24.6851H47.6566V21.3889H41.9575H41.9489ZM43.5546 4.912V1.67142H41.966V4.912H43.5546ZM41.9618 26.3118V29.5567H43.576V26.3118H41.9618Z" fill="black"/>
<path d="M34.241 26.7099L35.7568 25.1816C35.5598 24.8563 35.3372 24.4967 35.1231 24.1285C33.8043 21.8469 34.9561 19.2013 37.5295 18.6063C38.2745 18.435 38.647 17.9756 38.647 17.2278C38.647 16.5286 38.3016 16.0977 37.6108 15.935C34.8747 15.2929 33.7615 12.6516 35.213 10.2501C35.3971 9.94189 35.5855 9.63795 35.7568 9.35542C35.243 8.85028 34.7463 8.35799 34.211 7.83573C33.9028 8.0198 33.5431 8.2424 33.1748 8.45645C30.9312 9.74925 28.315 8.65336 27.6684 6.14908C27.4572 5.33858 26.9405 4.93333 26.1184 4.93333C25.5389 4.93333 25.1806 5.21301 25.0436 5.77237C24.5683 7.72442 23.5236 8.78607 21.7252 8.96586C21.1386 9.02579 20.4792 8.91021 19.9354 8.68333C19.1861 8.37511 18.5138 7.88282 17.7773 7.45045L18.6508 6.02494C19.1904 6.35456 19.6956 6.67134 20.2094 6.97528C21.5625 7.78008 22.9669 7.1936 23.348 5.66963C23.485 5.12169 23.6178 4.57802 23.7505 4.02579C23.8704 3.52066 24.1744 3.28093 24.7011 3.28521C25.7801 3.29806 26.8591 3.29806 27.9382 3.28521C28.4691 3.28093 28.7645 3.53778 28.8802 4.03864C29.0129 4.62083 29.1456 5.20302 29.2998 5.78093C29.6552 7.14651 31.0639 7.74155 32.2971 7.04377C32.8323 6.73984 33.3504 6.40593 33.8728 6.08059C34.3138 5.80662 34.7077 5.85799 35.076 6.23042C35.821 6.98384 36.5789 7.72871 37.3239 8.48641C37.7564 8.92306 37.7864 9.22271 37.461 9.76638C37.1612 10.2672 36.8444 10.7552 36.5532 11.2561C35.8167 12.5318 36.429 13.9402 37.8635 14.2912C38.4287 14.4282 38.9896 14.5652 39.5548 14.7022C40.06 14.822 40.2955 15.1302 40.2913 15.6568C40.2784 16.7356 40.2784 17.8143 40.2913 18.8931C40.2955 19.3982 40.0558 19.6979 39.5805 19.8177C39.0024 19.9633 38.4201 20.096 37.8378 20.2373C36.4376 20.5797 35.821 21.9924 36.5318 23.2424C36.8187 23.7475 37.1398 24.2356 37.4396 24.7321C37.7864 25.3058 37.7564 25.5926 37.3025 26.0549C36.5661 26.7998 35.8296 27.5361 35.0845 28.2724C34.6606 28.6919 34.3523 28.7261 33.8471 28.4265C33.3333 28.1225 32.8323 27.7929 32.3142 27.4933C31.0596 26.7698 29.6509 27.3648 29.2912 28.7604C29.1456 29.3212 29.0215 29.8905 28.8802 30.4513C28.7303 31.0421 28.5034 31.2261 27.9125 31.2261C26.8334 31.2304 25.7544 31.2219 24.6754 31.2304C24.1658 31.2347 23.8704 30.995 23.7548 30.5155C23.6092 29.9376 23.4808 29.3511 23.3352 28.7732C22.9755 27.3434 21.5625 26.757 20.2822 27.5061C19.7513 27.8143 19.2332 28.1397 18.6594 28.4907L17.7902 27.0866C18.805 26.5258 19.6571 25.7381 20.8389 25.5583C22.6115 25.2886 24.3328 26.346 24.8638 28.0755C24.9837 28.465 25.0436 28.876 25.1849 29.2612C25.2363 29.3982 25.4418 29.4838 25.5831 29.5823C25.6174 29.608 25.6816 29.5866 25.733 29.5823C26.2639 29.5737 26.9191 29.7535 27.2873 29.501C27.6127 29.2784 27.6084 28.5849 27.7583 28.0969C28.4263 25.9051 30.8926 24.8606 32.9308 25.9179C33.3847 26.1534 33.8128 26.4359 34.2453 26.6885L34.241 26.7099Z" fill="black"/>
<path d="M32.0659 17.2628C32.0659 20.4477 29.5096 23.0162 26.341 23.0205C23.1082 23.0205 20.5563 20.4606 20.5606 17.2157C20.5606 14.0779 23.1382 11.518 26.2854 11.5137C29.5053 11.5137 32.0659 14.0565 32.0659 17.2628ZM30.4216 17.2543C30.4173 15.0282 28.559 13.1618 26.341 13.1532C24.0674 13.1447 22.1877 15.0282 22.2005 17.3013C22.2133 19.5231 24.0845 21.381 26.3068 21.3767C28.5633 21.3724 30.4259 19.506 30.4216 17.2585V17.2543Z" fill="black"/>
<path d="M7.40357 9.01738H5.79359C5.78503 8.86755 5.76362 8.722 5.76362 8.57217C5.76362 6.55162 5.75934 4.53536 5.76362 2.51481C5.76362 1.07217 6.83408 -0.00231495 8.23853 0.00196587C9.61728 0.00196587 10.6835 1.08073 10.6877 2.48912C10.692 4.64238 10.6877 6.79991 10.6877 8.99597H9.04779C9.04779 8.82902 9.04779 8.64923 9.04779 8.46515C9.04779 6.5131 9.04779 4.56532 9.04779 2.61327C9.04779 2.02251 8.69668 1.63296 8.21283 1.6458C7.73327 1.65436 7.41641 2.04392 7.40357 2.63895C7.40357 2.74169 7.40357 2.84443 7.40357 2.94717C7.40357 4.77936 7.40357 6.60727 7.40357 8.43947V9.0131V9.01738Z" fill="black"/>
<path d="M3.33203 14.0039H4.91203V22.9765H3.33203V14.0039Z" fill="black"/>
<path d="M13.1327 14.0137V22.9906H11.5527V14.0137H13.1327Z" fill="black"/>
<path d="M9.02531 14.8398V23.8124H7.44531V14.8398H9.02531Z" fill="black"/>
</svg>
