<svg width="59" height="59" viewBox="0 0 59 59" fill="none" xmlns="http://www.w3.org/2000/svg">
<circle cx="29.9648" cy="29.625" r="29" fill="white"/>
<path fill-rule="evenodd" clip-rule="evenodd" d="M31.1695 25.896C31.1695 24.3904 31.7849 23.3081 32.5585 22.5391C35.4936 19.6214 40.6613 21.5659 40.6613 25.896C40.6613 27.1618 40.2484 28.0338 39.5393 28.927C38.1904 30.6264 36.0301 31.0145 33.9967 30.1877C32.3078 29.5009 31.1695 27.7761 31.1695 25.896ZM20.417 30.6419C20.417 31.1013 20.6245 31.1156 20.9926 31.4754L29.6308 40.1151C29.8714 40.3557 30.0578 40.5421 30.2982 40.7826C31.0508 41.5353 30.9219 41.7348 32.742 40.594L34.936 39.1543C35.2022 38.977 35.3811 38.848 35.6296 38.6616L38.3082 36.5201C39.0148 35.834 39.754 35.2568 40.4277 34.413C40.5414 34.2706 40.6251 34.2071 40.7553 34.0732C40.9029 33.9213 40.9033 33.8922 41.0211 33.7458L41.8649 32.7359C44.1155 30.0012 45.7643 26.4369 46.6238 23.0343C47.2699 20.4766 47.2469 18.6286 47.1107 16.1101C47.0355 14.718 46.9243 14.625 44.0725 14.625C40.66 14.625 38.2088 15.0929 35.1627 16.3193C33.0014 17.1893 30.7555 18.5728 29.0699 19.9409L25.6897 23.0122C25.6748 23.0279 25.6341 23.0744 25.6194 23.0903C24.5007 24.3131 20.4172 29.6658 20.4172 30.6425L20.417 30.6419Z" fill="#777100"/>
<path fill-rule="evenodd" clip-rule="evenodd" d="M13.9649 46.9559C13.9649 47.4048 13.9416 47.8458 14.6325 47.8458C16.812 47.8458 19.6272 46.5793 21.1406 45.2331C21.3481 45.0485 21.4302 45.0496 21.6151 44.8175C22.4195 43.8075 22.7152 43.5066 22.7152 42.1358C22.7152 39.6744 18.1648 36.2838 15.0276 43.0501C14.6133 43.9437 13.9649 45.72 13.9649 46.9559Z" fill="#777100"/>
<path fill-rule="evenodd" clip-rule="evenodd" d="M14.4846 31.458C14.4846 32.2317 15.6729 31.9273 16.0834 31.8705L19.4529 31.458C18.8415 30.3027 19.7558 29.2758 20.5141 27.9959C20.8933 27.3559 22.0015 25.7135 22.5105 25.0978C22.6682 24.9068 22.7773 24.7401 22.928 24.5514L25.6818 21.373C21.907 21.373 18.9889 22.9476 16.8468 25.8114C16.4738 26.3101 16.0898 26.8435 15.7934 27.4278C15.2747 28.4508 14.4844 30.2647 14.4844 31.458H14.4846Z" fill="#777100"/>
<path fill-rule="evenodd" clip-rule="evenodd" d="M29.834 46.8072C29.834 48.1819 34.0054 46.2076 34.7512 45.7918C38.3332 43.7958 40.4381 40.1845 40.4381 36.0547L37.5784 38.6083C35.8941 39.9243 34.5925 40.8444 32.73 41.9168C32.179 42.234 31.5681 42.705 30.7396 42.4853C30.1597 42.3316 30.3445 42.3332 30.2572 43.0774C30.2147 43.4391 30.1593 43.8907 30.0985 44.328L29.834 46.8072Z" fill="#777100"/>
<path fill-rule="evenodd" clip-rule="evenodd" d="M32.3555 25.7482C32.3555 30.703 39.4743 30.7016 39.4743 25.7482C39.4743 24.5683 38.8849 23.5402 37.9485 22.8989C36.9106 22.1881 35.6985 22.1201 34.5151 22.5686C33.241 23.0514 32.3557 24.3567 32.3557 25.7482H32.3555Z" fill="#777100"/>
<path fill-rule="evenodd" clip-rule="evenodd" d="M21.1582 35.3873C21.1582 36.313 21.406 36.5643 22.0665 37.2228L24.5878 39.7441C25.8458 41.0062 26.4803 40.8138 27.9063 40.0593C27.68 39.7214 23.271 35.3867 22.5117 34.6274C22.2814 34.3972 21.9946 33.989 21.6773 33.9043C21.6323 34.446 21.1584 34.7382 21.1584 35.3873H21.1582Z" fill="#777100"/>
</svg>
