<svg width="161" height="237" viewBox="0 0 161 237" fill="none" xmlns="http://www.w3.org/2000/svg">
<path d="M36.0121 185.524H38.5348L44.4666 200.013H44.6712L50.603 185.524H53.1257V202.979H51.1484V189.717H50.978L45.5234 202.979H43.6143L38.1598 189.717H37.9893V202.979H36.0121V185.524ZM62.4091 203.251C61.2273 203.251 60.1903 202.97 59.2983 202.407C58.4119 201.845 57.7188 201.058 57.2188 200.047C56.7244 199.035 56.4773 197.854 56.4773 196.501C56.4773 195.138 56.7244 193.947 57.2188 192.93C57.7188 191.913 58.4119 191.123 59.2983 190.561C60.1903 189.998 61.2273 189.717 62.4091 189.717C63.5909 189.717 64.625 189.998 65.5114 190.561C66.4034 191.123 67.0966 191.913 67.5909 192.93C68.0909 193.947 68.3409 195.138 68.3409 196.501C68.3409 197.854 68.0909 199.035 67.5909 200.047C67.0966 201.058 66.4034 201.845 65.5114 202.407C64.625 202.97 63.5909 203.251 62.4091 203.251ZM62.4091 201.444C63.3068 201.444 64.0455 201.214 64.625 200.754C65.2045 200.294 65.6335 199.689 65.9119 198.939C66.1903 198.189 66.3295 197.376 66.3295 196.501C66.3295 195.626 66.1903 194.811 65.9119 194.055C65.6335 193.3 65.2045 192.689 64.625 192.223C64.0455 191.757 63.3068 191.524 62.4091 191.524C61.5114 191.524 60.7727 191.757 60.1932 192.223C59.6136 192.689 59.1847 193.3 58.9062 194.055C58.6278 194.811 58.4886 195.626 58.4886 196.501C58.4886 197.376 58.6278 198.189 58.9062 198.939C59.1847 199.689 59.6136 200.294 60.1932 200.754C60.7727 201.214 61.5114 201.444 62.4091 201.444ZM76.3544 203.251C75.2635 203.251 74.3004 202.976 73.4652 202.425C72.63 201.868 71.9766 201.084 71.505 200.072C71.0334 199.055 70.7976 197.854 70.7976 196.467C70.7976 195.092 71.0334 193.899 71.505 192.888C71.9766 191.876 72.6328 191.095 73.4737 190.544C74.3146 189.993 75.2862 189.717 76.3885 189.717C77.2408 189.717 77.9141 189.859 78.4084 190.143C78.9084 190.422 79.2891 190.74 79.5504 191.098C79.8175 191.45 80.0249 191.74 80.1726 191.967H80.343V185.524H82.3544V202.979H80.4112V200.967H80.1726C80.0249 201.206 79.8146 201.507 79.5419 201.871C79.2692 202.229 78.88 202.55 78.3743 202.834C77.8686 203.112 77.1953 203.251 76.3544 203.251ZM76.6271 201.444C77.4339 201.444 78.1158 201.234 78.6726 200.814C79.2294 200.388 79.6527 199.8 79.9425 199.05C80.2322 198.294 80.3771 197.422 80.3771 196.433C80.3771 195.456 80.2351 194.601 79.951 193.868C79.6669 193.129 79.2464 192.555 78.6896 192.146C78.1328 191.731 77.4453 191.524 76.6271 191.524C75.7749 191.524 75.0646 191.743 74.4964 192.18C73.9339 192.612 73.5107 193.2 73.2266 193.944C72.9482 194.683 72.8089 195.513 72.8089 196.433C72.8089 197.365 72.951 198.211 73.2351 198.973C73.5249 199.729 73.951 200.331 74.5135 200.78C75.0817 201.223 75.7862 201.444 76.6271 201.444ZM94.5675 197.626V189.888H96.5788V202.979H94.5675V200.763H94.4311C94.1243 201.427 93.647 201.993 92.9993 202.459C92.3516 202.919 91.5334 203.149 90.5447 203.149C89.7266 203.149 88.9993 202.97 88.3629 202.612C87.7266 202.248 87.2266 201.703 86.8629 200.976C86.4993 200.243 86.3175 199.319 86.3175 198.206V189.888H88.3288V198.069C88.3288 199.024 88.5959 199.785 89.13 200.354C89.6697 200.922 90.3572 201.206 91.1925 201.206C91.6925 201.206 92.201 201.078 92.718 200.822C93.2408 200.567 93.6783 200.175 94.0305 199.646C94.3885 199.118 94.5675 198.444 94.5675 197.626ZM102.274 185.524V202.979H100.263V185.524H102.274ZM109.81 203.285C108.981 203.285 108.228 203.129 107.552 202.817C106.876 202.498 106.339 202.041 105.941 201.444C105.543 200.842 105.344 200.115 105.344 199.263C105.344 198.513 105.492 197.905 105.788 197.439C106.083 196.967 106.478 196.598 106.972 196.331C107.467 196.064 108.012 195.865 108.609 195.734C109.211 195.598 109.816 195.49 110.424 195.41C111.219 195.308 111.864 195.231 112.359 195.18C112.859 195.123 113.222 195.03 113.45 194.899C113.683 194.768 113.799 194.541 113.799 194.217V194.149C113.799 193.308 113.569 192.655 113.109 192.189C112.654 191.723 111.964 191.49 111.038 191.49C110.077 191.49 109.325 191.7 108.779 192.121C108.234 192.541 107.85 192.99 107.629 193.467L105.719 192.785C106.06 191.99 106.515 191.371 107.083 190.927C107.657 190.479 108.282 190.166 108.958 189.99C109.64 189.808 110.31 189.717 110.969 189.717C111.39 189.717 111.873 189.768 112.418 189.871C112.969 189.967 113.501 190.169 114.012 190.476C114.529 190.782 114.958 191.246 115.299 191.865C115.64 192.484 115.81 193.314 115.81 194.354V202.979H113.799V201.206H113.697C113.56 201.49 113.333 201.794 113.015 202.118C112.697 202.442 112.273 202.717 111.745 202.944C111.217 203.172 110.572 203.285 109.81 203.285ZM110.117 201.479C110.913 201.479 111.583 201.322 112.129 201.01C112.68 200.697 113.094 200.294 113.373 199.8C113.657 199.305 113.799 198.785 113.799 198.24V196.399C113.714 196.501 113.526 196.595 113.237 196.68C112.952 196.76 112.623 196.831 112.248 196.893C111.879 196.95 111.518 197.001 111.165 197.047C110.819 197.086 110.538 197.121 110.322 197.149C109.799 197.217 109.31 197.328 108.856 197.481C108.407 197.629 108.043 197.854 107.765 198.155C107.492 198.45 107.356 198.854 107.356 199.365C107.356 200.064 107.614 200.592 108.131 200.95C108.654 201.302 109.316 201.479 110.117 201.479ZM119.482 202.979V189.888H121.425V191.865H121.561C121.8 191.217 122.232 190.692 122.857 190.288C123.482 189.885 124.186 189.683 124.97 189.683C125.118 189.683 125.303 189.686 125.524 189.692C125.746 189.697 125.913 189.706 126.027 189.717V191.763C125.959 191.746 125.803 191.72 125.558 191.686C125.32 191.646 125.067 191.626 124.8 191.626C124.163 191.626 123.595 191.76 123.095 192.027C122.601 192.288 122.209 192.652 121.919 193.118C121.635 193.578 121.493 194.104 121.493 194.694V202.979H119.482ZM29.2855 231.979V214.524H39.7514V216.399H31.3991V222.297H38.9673V224.172H31.3991V231.979H29.2855ZM45.1101 214.524V231.979H43.0987V214.524H45.1101ZM54.2827 232.251C53.0213 232.251 51.9332 231.973 51.0185 231.416C50.1094 230.854 49.4077 230.069 48.9134 229.064C48.4247 228.052 48.1804 226.876 48.1804 225.535C48.1804 224.194 48.4247 223.013 48.9134 221.99C49.4077 220.961 50.0952 220.16 50.9759 219.586C51.8622 219.007 52.8963 218.717 54.0781 218.717C54.7599 218.717 55.4332 218.831 56.098 219.058C56.7628 219.285 57.3679 219.655 57.9134 220.166C58.4588 220.672 58.8935 221.342 59.2173 222.177C59.5412 223.013 59.7031 224.041 59.7031 225.263V226.115H49.6122V224.376H57.6577C57.6577 223.638 57.5099 222.979 57.2145 222.399C56.9247 221.819 56.5099 221.362 55.9702 221.027C55.4361 220.692 54.8054 220.524 54.0781 220.524C53.277 220.524 52.5838 220.723 51.9986 221.121C51.419 221.513 50.973 222.024 50.6605 222.655C50.348 223.285 50.1918 223.961 50.1918 224.683V225.842C50.1918 226.831 50.3622 227.669 50.7031 228.356C51.0497 229.038 51.5298 229.558 52.1435 229.916C52.7571 230.268 53.4702 230.444 54.2827 230.444C54.8111 230.444 55.2884 230.371 55.7145 230.223C56.1463 230.069 56.5185 229.842 56.831 229.541C57.1435 229.234 57.3849 228.854 57.5554 228.399L59.4986 228.944C59.294 229.604 58.9503 230.183 58.4673 230.683C57.9844 231.177 57.3878 231.564 56.6776 231.842C55.9673 232.115 55.169 232.251 54.2827 232.251ZM63.9112 218.888L67.0476 224.24L70.1839 218.888H72.5021L68.2749 225.433L72.5021 231.979H70.1839L67.0476 226.899L63.9112 231.979H61.593L65.7521 225.433L61.593 218.888H63.9112ZM75.3722 231.979V218.888H77.3835V231.979H75.3722ZM76.3949 216.706C76.0028 216.706 75.6648 216.572 75.3807 216.305C75.1023 216.038 74.9631 215.717 74.9631 215.342C74.9631 214.967 75.1023 214.646 75.3807 214.379C75.6648 214.112 76.0028 213.979 76.3949 213.979C76.7869 213.979 77.1222 214.112 77.4006 214.379C77.6847 214.646 77.8267 214.967 77.8267 215.342C77.8267 215.717 77.6847 216.038 77.4006 216.305C77.1222 216.572 76.7869 216.706 76.3949 216.706ZM81.3402 231.979V214.524H83.3516V220.967H83.522C83.6697 220.74 83.8743 220.45 84.1357 220.098C84.4027 219.74 84.7834 219.422 85.2777 219.143C85.7777 218.859 86.4538 218.717 87.3061 218.717C88.4084 218.717 89.38 218.993 90.2209 219.544C91.0618 220.095 91.718 220.876 92.1896 221.888C92.6612 222.899 92.897 224.092 92.897 225.467C92.897 226.854 92.6612 228.055 92.1896 229.072C91.718 230.084 91.0646 230.868 90.2294 231.425C89.3942 231.976 88.4311 232.251 87.3402 232.251C86.4993 232.251 85.826 232.112 85.3203 231.834C84.8146 231.55 84.4254 231.229 84.1527 230.871C83.88 230.507 83.6697 230.206 83.522 229.967H83.2834V231.979H81.3402ZM83.3175 225.433C83.3175 226.422 83.4624 227.294 83.7521 228.05C84.0419 228.8 84.4652 229.388 85.022 229.814C85.5788 230.234 86.2607 230.444 87.0675 230.444C87.9084 230.444 88.6101 230.223 89.1726 229.78C89.7408 229.331 90.1669 228.729 90.451 227.973C90.7408 227.211 90.8857 226.365 90.8857 225.433C90.8857 224.513 90.7436 223.683 90.4595 222.944C90.1811 222.2 89.7578 221.612 89.1896 221.18C88.6271 220.743 87.9197 220.524 87.0675 220.524C86.2493 220.524 85.5618 220.731 85.005 221.146C84.4482 221.555 84.0277 222.129 83.7436 222.868C83.4595 223.601 83.3175 224.456 83.3175 225.433ZM95.9737 231.979V218.888H97.9851V231.979H95.9737ZM96.9964 216.706C96.6044 216.706 96.2663 216.572 95.9822 216.305C95.7038 216.038 95.5646 215.717 95.5646 215.342C95.5646 214.967 95.7038 214.646 95.9822 214.379C96.2663 214.112 96.6044 213.979 96.9964 213.979C97.3885 213.979 97.7237 214.112 98.0021 214.379C98.2862 214.646 98.4283 214.967 98.4283 215.342C98.4283 215.717 98.2862 216.038 98.0021 216.305C97.7237 216.572 97.3885 216.706 96.9964 216.706ZM103.68 214.524V231.979H101.669V214.524H103.68ZM107.364 231.979V218.888H109.376V231.979H107.364ZM108.387 216.706C107.995 216.706 107.657 216.572 107.373 216.305C107.094 216.038 106.955 215.717 106.955 215.342C106.955 214.967 107.094 214.646 107.373 214.379C107.657 214.112 107.995 213.979 108.387 213.979C108.779 213.979 109.114 214.112 109.393 214.379C109.677 214.646 109.819 214.967 109.819 215.342C109.819 215.717 109.677 216.038 109.393 216.305C109.114 216.572 108.779 216.706 108.387 216.706ZM118.753 218.888V220.592H111.969V218.888H118.753ZM113.946 215.751H115.957V228.229C115.957 228.797 116.04 229.223 116.205 229.507C116.375 229.785 116.591 229.973 116.852 230.069C117.119 230.16 117.401 230.206 117.696 230.206C117.918 230.206 118.099 230.194 118.241 230.172C118.384 230.143 118.497 230.121 118.582 230.104L118.991 231.91C118.855 231.961 118.665 232.013 118.42 232.064C118.176 232.121 117.866 232.149 117.491 232.149C116.923 232.149 116.366 232.027 115.821 231.782C115.281 231.538 114.832 231.166 114.474 230.666C114.122 230.166 113.946 229.535 113.946 228.774V215.751ZM123.074 236.888C122.733 236.888 122.429 236.859 122.162 236.802C121.895 236.751 121.71 236.7 121.608 236.649L122.119 234.876C122.608 235.001 123.04 235.047 123.415 235.013C123.79 234.979 124.122 234.811 124.412 234.51C124.707 234.214 124.977 233.734 125.222 233.069L125.597 232.047L120.756 218.888H122.938L126.551 229.319H126.688L130.301 218.888H132.483L126.926 233.888C126.676 234.564 126.366 235.123 125.997 235.567C125.628 236.015 125.199 236.348 124.71 236.564C124.227 236.78 123.682 236.888 123.074 236.888Z" fill="black"/>
<circle cx="80.2347" cy="80.5647" r="78.0022" fill="white" stroke="#777100" stroke-width="4"/>
<circle cx="80.2349" cy="80.5649" r="69.3657" fill="white"/>
<path d="M83.9768 38.9758C86.4367 40.3866 88.8814 41.8279 91.3618 43.1929C92.253 43.6818 92.6554 44.2828 92.6096 45.3218C92.5332 46.9974 92.6198 48.6782 92.5739 50.3589C92.5586 50.9344 92.7725 51.2196 93.2513 51.4743C94.5399 52.1466 95.8029 52.8698 97.1883 53.6388C96.3377 54.1227 95.6094 54.5709 94.8505 54.9478C94.657 55.0445 94.331 54.9885 94.1171 54.8917C93.5773 54.6473 93.0629 54.3468 92.6707 54.138C89.7676 55.7779 86.9613 57.3925 84.1092 58.9255C83.7425 59.1241 83.06 59.0681 82.6729 58.8542C80.1518 57.4892 77.6664 56.0581 75.1759 54.6371C74.9212 54.4945 74.7073 54.2806 74.4272 54.0565C69.7925 56.6081 65.1323 59.175 60.3804 61.7929C61.2972 62.3226 62.1273 62.8115 62.9677 63.2801C63.6756 63.6723 63.9965 64.2529 63.9965 65.0678C63.9812 68.4547 63.9761 71.8365 63.9965 75.2234C64.0016 76.1096 63.6349 76.7004 62.8811 77.1282C60.2174 78.6307 57.5741 80.1637 54.9053 81.6509C54.4266 81.9208 54.2177 82.1959 54.2228 82.7714C54.2483 87.1566 54.2432 91.5468 54.233 95.932C54.233 96.8029 54.5692 97.4395 55.328 97.8623C60.9152 100.949 66.5023 104.035 72.0894 107.122C72.1557 107.157 72.2321 107.178 72.4409 107.254C72.4409 106.403 72.4663 105.614 72.4358 104.825C72.4001 103.943 72.7617 103.342 73.5257 102.91C76.495 101.234 79.4541 99.5481 82.403 97.8368C83.167 97.3937 83.8596 97.4192 84.6134 97.8521C87.5419 99.5379 90.4806 101.214 93.4296 102.869C94.2241 103.317 94.5959 103.938 94.55 104.855C94.5144 105.629 94.5399 106.403 94.5399 107.315C95.7418 106.648 96.8216 106.052 97.9013 105.451C102.399 102.966 106.886 100.465 111.398 97.9998C112.335 97.4905 112.799 96.808 112.753 95.7232C112.707 94.6434 112.727 93.5586 112.753 92.4738C112.758 92.2446 112.865 91.9135 113.038 91.8015C113.736 91.3533 114.479 90.9713 115.264 90.5333C115.264 92.7386 115.381 94.8675 115.223 96.971C115.116 98.4582 114.108 99.4972 112.794 100.22C106.962 103.424 101.146 106.648 95.3089 109.841C94.7436 110.152 94.494 110.483 94.5246 111.15C94.5857 112.418 94.5246 113.697 94.5449 114.965C94.5551 115.749 94.2394 116.309 93.562 116.697C90.5265 118.418 87.4961 120.145 84.4708 121.881C83.7934 122.268 83.1517 122.243 82.4794 121.856C79.4795 120.129 76.4695 118.413 73.4595 116.712C72.7516 116.309 72.4256 115.739 72.4358 114.924C72.4561 113.625 72.4103 112.322 72.4562 111.028C72.4765 110.452 72.2677 110.167 71.7788 109.902C65.9472 106.704 60.1308 103.47 54.2992 100.271C52.5116 99.2934 51.6254 97.847 51.6355 95.8047C51.6559 91.5264 51.6203 87.2482 51.6661 82.97C51.6763 82.2264 51.4114 81.8801 50.8003 81.5389C48.2232 80.1128 45.6817 78.6154 43.0995 77.1843C42.2439 76.7106 41.867 76.0791 41.8772 75.0961C41.9128 71.7907 41.9077 68.4903 41.8772 65.1849C41.8721 64.2631 42.2388 63.6672 43.0282 63.219C45.972 61.5586 48.9107 59.883 51.8342 58.1921C52.5981 57.749 53.2959 57.7439 54.0446 58.1921C55.1141 58.8287 56.1888 59.4552 57.294 60.0307C57.5232 60.1529 57.9306 60.1631 58.1547 60.0409C63.421 57.1633 68.6822 54.2653 73.923 51.3419C74.1572 51.2145 74.3559 50.8122 74.3661 50.5321C74.4068 48.7444 74.4221 46.9567 74.3712 45.169C74.3457 44.2624 74.7073 43.7226 75.4815 43.2897C78.0025 41.8789 80.4931 40.4171 82.9989 38.9707C83.3248 38.9707 83.6508 38.9707 83.9717 38.9707L83.9768 38.9758ZM61.3888 70.1456C61.3888 68.7399 61.4143 67.3291 61.3685 65.9234C61.3583 65.6484 61.1393 65.2664 60.8999 65.1289C58.4297 63.6824 55.9392 62.2615 53.4334 60.866C53.1889 60.7284 52.7458 60.7081 52.5065 60.8405C49.9752 62.2462 47.4643 63.6774 44.9687 65.1391C44.7344 65.2766 44.5154 65.6637 44.5103 65.9387C44.4746 68.7552 44.5001 71.5666 44.4797 74.3831C44.4797 74.8262 44.6274 75.0452 45.0043 75.2591C47.4796 76.6444 49.9497 78.0501 52.3995 79.4813C52.807 79.7155 53.0973 79.7053 53.4945 79.4813C55.929 78.0705 58.3686 76.675 60.8235 75.3049C61.2666 75.0604 61.4092 74.7803 61.399 74.2863C61.3634 72.9061 61.3888 71.5258 61.3888 70.1456ZM91.9373 109.841C91.9373 108.436 91.922 107.025 91.9475 105.619C91.9576 105.181 91.815 104.947 91.4331 104.733C88.9578 103.348 86.4877 101.942 84.0379 100.511C83.6304 100.271 83.335 100.292 82.9429 100.521C80.488 101.947 78.0229 103.353 75.5426 104.738C75.1555 104.957 75.0282 105.191 75.0333 105.624C75.0536 108.441 75.0333 111.252 75.0638 114.069C75.0638 114.338 75.2981 114.72 75.5324 114.858C78.028 116.32 80.544 117.751 83.0702 119.162C83.2943 119.284 83.7068 119.289 83.9258 119.162C86.452 117.756 88.968 116.32 91.4636 114.858C91.6979 114.72 91.9118 114.333 91.922 114.053C91.9678 112.648 91.9424 111.237 91.9424 109.831L91.9373 109.841ZM89.9866 49.1314C89.9866 48.0772 90.0172 47.0178 89.9662 45.9686C89.951 45.6885 89.732 45.3065 89.4977 45.169C87.6591 44.0893 85.8001 43.0401 83.9207 42.0215C83.6966 41.8992 83.2892 41.9043 83.06 42.0266C81.1857 43.0452 79.3267 44.0944 77.483 45.1741C77.2437 45.3167 77.0094 45.6936 77.0043 45.9686C76.9635 48.0211 76.9635 50.0788 77.0043 52.1364C77.0094 52.4114 77.2386 52.7883 77.478 52.9309C79.3166 54.0106 81.1806 55.0598 83.0549 56.0784C83.2841 56.2007 83.6915 56.2058 83.9156 56.0835C85.7899 55.0649 87.6489 54.0157 89.4926 52.936C89.732 52.7934 89.951 52.4165 89.9662 52.1364C90.0223 51.1381 89.9866 50.1348 89.9866 49.1365V49.1314Z" fill="black"/>
<path d="M82.1887 75.3308C82.1887 72.5143 82.1989 69.6978 82.1887 66.8814C82.1836 65.6794 82.6828 64.8237 83.7269 64.2329C88.7741 61.3961 93.8112 58.5541 98.8483 55.6969C99.8873 55.1061 100.886 55.0908 101.919 55.6816C106.977 58.549 112.045 61.4063 117.107 64.2635C118.126 64.839 118.599 65.6947 118.594 66.861C118.584 72.5449 118.584 78.2339 118.594 83.9178C118.594 85.0841 118.105 85.9347 117.092 86.5051C112.029 89.3623 106.962 92.2196 101.904 95.087C100.865 95.6727 99.8669 95.6472 98.8279 95.0564C93.7959 92.1992 88.7537 89.3521 83.7116 86.5153C82.6624 85.9245 82.1785 85.0587 82.1836 83.8618C82.1989 81.0198 82.1887 78.1779 82.1887 75.3308ZM115.992 75.4174C115.992 72.7079 115.981 70.0034 116.002 67.2939C116.002 66.805 115.869 66.5198 115.426 66.2753C110.588 63.5708 105.76 60.846 100.942 58.1059C100.529 57.8717 100.244 57.8869 99.8414 58.111C95.0234 60.8511 90.1951 63.581 85.3617 66.2906C84.9288 66.535 84.776 66.805 84.776 67.3041C84.7964 72.6926 84.7964 78.0811 84.776 83.4645C84.776 83.9534 84.9034 84.2387 85.3515 84.4831C90.19 87.1876 95.0183 89.9124 99.8414 92.6474C100.239 92.8715 100.529 92.8867 100.942 92.6525C105.76 89.9073 110.583 87.1825 115.421 84.4678C115.854 84.2234 116.012 83.9534 116.007 83.4543C115.981 80.7753 115.997 78.0964 115.997 75.4123L115.992 75.4174Z" fill="#777100"/>
<path d="M76.9882 89.101C76.9882 90.1858 76.9678 91.2656 76.9984 92.3504C77.0187 93.0176 76.7743 93.4709 76.1784 93.7968C74.1106 94.9173 72.0529 96.0633 70.0004 97.2143C69.4504 97.525 68.9563 97.525 68.3961 97.2143C66.3232 96.048 64.235 94.902 62.1469 93.7612C61.6121 93.4709 61.3778 93.0532 61.3829 92.4472C61.3982 90.1705 61.3982 87.899 61.3829 85.6224C61.3829 84.9756 61.6426 84.5681 62.208 84.2625C64.2758 83.1421 66.3385 82.0063 68.3859 80.8502C68.9411 80.5395 69.4351 80.5242 69.9902 80.8349C72.0682 81.9961 74.1513 83.1472 76.2395 84.288C76.7743 84.5783 77.0085 84.996 76.9984 85.6071C76.978 86.7734 76.9933 87.9347 76.9933 89.101H76.9882ZM63.9906 88.5917C63.9906 89.702 63.9396 90.4659 64.016 91.2146C64.0466 91.5202 64.2707 91.9175 64.5253 92.0703C65.8954 92.8801 67.2909 93.6491 68.7068 94.3774C68.9614 94.5099 69.3994 94.5251 69.649 94.3978C71.0904 93.6542 72.5062 92.875 73.9017 92.055C74.1411 91.9175 74.3601 91.5304 74.3703 91.2503C74.4161 89.7937 74.3703 88.3319 74.406 86.8753C74.4162 86.4016 74.2583 86.147 73.8457 85.928C72.4859 85.2099 71.1413 84.4612 69.8069 83.6972C69.3842 83.4578 69.0429 83.4273 68.6202 83.687C67.8868 84.1403 67.1483 84.6242 66.3538 84.9348C64.4744 85.6632 63.3539 86.7734 64.0007 88.5968L63.9906 88.5917Z" fill="#777100"/>
<path d="M47.0867 68.9554C46.5315 66.8774 47.6011 65.7519 49.3786 65.0286C49.7504 64.8758 50.0814 64.6212 50.4481 64.4582C51.1102 64.1628 51.7876 64.392 52.1136 65.0032C52.4497 65.65 52.3071 66.2255 51.7468 66.6533C51.3852 66.9284 50.9829 67.1728 50.5652 67.3511C49.8573 67.6516 49.6281 68.1609 49.679 68.8943C49.7198 69.5106 49.7045 70.137 49.679 70.7584C49.6485 71.5784 49.1086 72.1233 48.3752 72.1182C47.6418 72.1131 47.1223 71.5631 47.0917 70.738C47.0714 70.1421 47.0917 69.5513 47.0917 68.9554H47.0867Z" fill="black"/>
<path d="M77.6412 108.613C77.0911 106.54 78.1352 105.404 79.928 104.686C80.2743 104.549 80.5799 104.304 80.9211 104.146C81.6189 103.815 82.3166 104.024 82.6681 104.65C83.0195 105.272 82.8361 105.97 82.1791 106.402C81.7971 106.652 81.3948 106.881 80.9822 107.08C80.422 107.35 80.2081 107.772 80.2336 108.379C80.259 109.051 80.259 109.728 80.2336 110.406C80.203 111.231 79.6682 111.776 78.9348 111.776C78.2014 111.776 77.6717 111.226 77.6463 110.401C77.6259 109.805 77.6463 109.214 77.6463 108.618L77.6412 108.613Z" fill="black"/>
<path d="M79.5842 48.7175C79.5842 48.3661 79.5995 48.0146 79.5842 47.6632C79.5536 46.9604 79.849 46.4765 80.4806 46.1709C81.2343 45.8042 81.9728 45.4172 82.7317 45.0555C83.5517 44.6634 84.2596 44.8467 84.6213 45.519C84.9981 46.2168 84.718 46.9196 83.8828 47.3831C83.8369 47.4086 83.786 47.434 83.7351 47.4493C82.5229 47.8109 81.9728 48.5392 82.1613 49.8787C82.2784 50.7395 81.6418 51.3252 80.8778 51.3201C80.119 51.315 79.6147 50.7445 79.5893 49.8533C79.5791 49.4764 79.5893 49.0944 79.5893 48.7175H79.5842Z" fill="black"/>
<path d="M90.6366 73.3481C90.6366 72.3447 90.657 71.3414 90.6315 70.3431C90.6162 69.6505 90.8709 69.1564 91.4821 68.8101C93.4786 67.6692 95.4547 66.4978 97.4512 65.3519C98.3119 64.8579 99.1166 65.0056 99.5088 65.6931C99.9111 66.396 99.6463 67.1039 98.755 67.6234C97.1201 68.5809 95.4954 69.5486 93.8351 70.4654C93.3614 70.7302 93.2086 71.0256 93.2239 71.5502C93.2595 73.1494 93.2392 74.7436 93.2341 76.3428C93.2341 77.3665 92.7451 77.9624 91.9404 77.9675C91.1306 77.9675 90.6417 77.3767 90.6366 76.353C90.6315 75.3496 90.6366 74.3514 90.6366 73.3481Z" fill="#777100"/>
<path d="M92.0464 83.1745C91.3385 83.1846 90.768 82.6142 90.7578 81.891C90.7528 81.1678 91.313 80.5923 92.0209 80.5821C92.7187 80.577 93.3146 81.1627 93.3248 81.8655C93.3299 82.5684 92.7493 83.1643 92.0464 83.1745Z" fill="#777100"/>
</svg>
