<svg width="160" height="238" viewBox="0 0 160 238" fill="none" xmlns="http://www.w3.org/2000/svg">
<path d="M34.3754 184.961H36.8981L42.8299 199.45H43.0344L48.9663 184.961H51.489V202.416H49.5117V189.155H49.3413L43.8867 202.416H41.9776L36.5231 189.155H36.3526V202.416H34.3754V184.961ZM63.7042 197.064V189.325H65.7156V202.416H63.7042V200.2H63.5678C63.261 200.865 62.7837 201.43 62.136 201.896C61.4883 202.356 60.6701 202.586 59.6815 202.586C58.8633 202.586 58.136 202.407 57.4996 202.05C56.8633 201.686 56.3633 201.14 55.9996 200.413C55.636 199.68 55.4542 198.757 55.4542 197.643V189.325H57.4656V197.507C57.4656 198.461 57.7326 199.223 58.2667 199.791C58.8065 200.359 59.494 200.643 60.3292 200.643C60.8292 200.643 61.3377 200.515 61.8548 200.26C62.3775 200.004 62.815 199.612 63.1673 199.084C63.5252 198.555 63.7042 197.882 63.7042 197.064ZM71.4109 184.961V202.416H69.3995V184.961H71.4109ZM80.788 189.325V191.03H74.0039V189.325H80.788ZM75.9812 186.189H77.9925V198.666C77.9925 199.234 78.0749 199.66 78.2397 199.944C78.4102 200.223 78.6261 200.41 78.8874 200.507C79.1545 200.598 79.4357 200.643 79.7312 200.643C79.9528 200.643 80.1346 200.632 80.2766 200.609C80.4187 200.581 80.5323 200.558 80.6175 200.541L81.0266 202.348C80.8903 202.399 80.6999 202.45 80.4556 202.501C80.2113 202.558 79.9016 202.586 79.5266 202.586C78.9585 202.586 78.4016 202.464 77.8562 202.22C77.3164 201.976 76.8675 201.604 76.5096 201.104C76.1573 200.604 75.9812 199.973 75.9812 199.211V186.189ZM83.8136 202.416V189.325H85.8249V202.416H83.8136ZM84.8363 187.143C84.4442 187.143 84.1062 187.01 83.8221 186.743C83.5437 186.476 83.4045 186.155 83.4045 185.78C83.4045 185.405 83.5437 185.084 83.8221 184.817C84.1062 184.55 84.4442 184.416 84.8363 184.416C85.2283 184.416 85.5636 184.55 85.842 184.817C86.1261 185.084 86.2681 185.405 86.2681 185.78C86.2681 186.155 86.1261 186.476 85.842 186.743C85.5636 187.01 85.2283 187.143 84.8363 187.143ZM89.5089 207.325V189.325H91.4521V191.405H91.6907C91.8384 191.177 92.043 190.888 92.3043 190.535C92.5714 190.177 92.9521 189.859 93.4464 189.581C93.9464 189.297 94.6225 189.155 95.4748 189.155C96.5771 189.155 97.5487 189.43 98.3896 189.981C99.2305 190.532 99.8867 191.314 100.358 192.325C100.83 193.336 101.066 194.53 101.066 195.905C101.066 197.291 100.83 198.493 100.358 199.51C99.8867 200.521 99.2333 201.305 98.3981 201.862C97.5629 202.413 96.5998 202.689 95.5089 202.689C94.668 202.689 93.9947 202.55 93.489 202.271C92.9833 201.987 92.5941 201.666 92.3214 201.308C92.0487 200.944 91.8384 200.643 91.6907 200.405H91.5202V207.325H89.5089ZM91.4862 195.871C91.4862 196.859 91.631 197.731 91.9208 198.487C92.2106 199.237 92.6339 199.825 93.1907 200.251C93.7475 200.672 94.4293 200.882 95.2362 200.882C96.0771 200.882 96.7788 200.66 97.3413 200.217C97.9094 199.768 98.3356 199.166 98.6197 198.41C98.9094 197.649 99.0543 196.802 99.0543 195.871C99.0543 194.95 98.9123 194.121 98.6282 193.382C98.3498 192.638 97.9265 192.05 97.3583 191.618C96.7958 191.18 96.0884 190.961 95.2362 190.961C94.418 190.961 93.7305 191.169 93.1737 191.584C92.6168 191.993 92.1964 192.567 91.9123 193.305C91.6282 194.038 91.4862 194.893 91.4862 195.871ZM106.145 184.961V202.416H104.134V184.961H106.145ZM115.318 202.689C114.056 202.689 112.968 202.41 112.054 201.854C111.145 201.291 110.443 200.507 109.949 199.501C109.46 198.49 109.216 197.314 109.216 195.973C109.216 194.632 109.46 193.45 109.949 192.427C110.443 191.399 111.13 190.598 112.011 190.024C112.897 189.444 113.931 189.155 115.113 189.155C115.795 189.155 116.468 189.268 117.133 189.496C117.798 189.723 118.403 190.092 118.949 190.604C119.494 191.109 119.929 191.78 120.252 192.615C120.576 193.45 120.738 194.479 120.738 195.7V196.552H110.647V194.814H118.693C118.693 194.075 118.545 193.416 118.25 192.836C117.96 192.257 117.545 191.8 117.005 191.464C116.471 191.129 115.841 190.961 115.113 190.961C114.312 190.961 113.619 191.16 113.034 191.558C112.454 191.95 112.008 192.461 111.696 193.092C111.383 193.723 111.227 194.399 111.227 195.121V196.28C111.227 197.268 111.397 198.106 111.738 198.794C112.085 199.476 112.565 199.996 113.179 200.354C113.792 200.706 114.505 200.882 115.318 200.882C115.846 200.882 116.324 200.808 116.75 200.66C117.181 200.507 117.554 200.28 117.866 199.979C118.179 199.672 118.42 199.291 118.591 198.836L120.534 199.382C120.329 200.041 119.985 200.621 119.502 201.121C119.02 201.615 118.423 202.001 117.713 202.28C117.002 202.552 116.204 202.689 115.318 202.689ZM20.0327 231.416H17.8168L24.2259 213.961H26.4077L32.8168 231.416H30.6009L25.3849 216.723H25.2486L20.0327 231.416ZM20.8509 224.598H29.7827V226.473H20.8509V224.598ZM35.2628 236.325V218.325H37.206V220.405H37.4446C37.5923 220.177 37.7969 219.888 38.0582 219.535C38.3253 219.177 38.706 218.859 39.2003 218.581C39.7003 218.297 40.3764 218.155 41.2287 218.155C42.331 218.155 43.3026 218.43 44.1435 218.981C44.9844 219.532 45.6406 220.314 46.1122 221.325C46.5838 222.336 46.8196 223.53 46.8196 224.905C46.8196 226.291 46.5838 227.493 46.1122 228.51C45.6406 229.521 44.9872 230.305 44.152 230.862C43.3168 231.413 42.3537 231.689 41.2628 231.689C40.4219 231.689 39.7486 231.55 39.2429 231.271C38.7372 230.987 38.348 230.666 38.0753 230.308C37.8026 229.944 37.5923 229.643 37.4446 229.405H37.2741V236.325H35.2628ZM37.2401 224.871C37.2401 225.859 37.3849 226.731 37.6747 227.487C37.9645 228.237 38.3878 228.825 38.9446 229.251C39.5014 229.672 40.1832 229.882 40.9901 229.882C41.831 229.882 42.5327 229.66 43.0952 229.217C43.6634 228.768 44.0895 228.166 44.3736 227.41C44.6634 226.649 44.8082 225.802 44.8082 224.871C44.8082 223.95 44.6662 223.121 44.3821 222.382C44.1037 221.638 43.6804 221.05 43.1122 220.618C42.5497 220.18 41.8423 219.961 40.9901 219.961C40.1719 219.961 39.4844 220.169 38.9276 220.584C38.3707 220.993 37.9503 221.567 37.6662 222.305C37.3821 223.038 37.2401 223.893 37.2401 224.871ZM49.8878 236.325V218.325H51.831V220.405H52.0696C52.2173 220.177 52.4219 219.888 52.6832 219.535C52.9503 219.177 53.331 218.859 53.8253 218.581C54.3253 218.297 55.0014 218.155 55.8537 218.155C56.956 218.155 57.9276 218.43 58.7685 218.981C59.6094 219.532 60.2656 220.314 60.7372 221.325C61.2088 222.336 61.4446 223.53 61.4446 224.905C61.4446 226.291 61.2088 227.493 60.7372 228.51C60.2656 229.521 59.6122 230.305 58.777 230.862C57.9418 231.413 56.9787 231.689 55.8878 231.689C55.0469 231.689 54.3736 231.55 53.8679 231.271C53.3622 230.987 52.973 230.666 52.7003 230.308C52.4276 229.944 52.2173 229.643 52.0696 229.405H51.8991V236.325H49.8878ZM51.8651 224.871C51.8651 225.859 52.0099 226.731 52.2997 227.487C52.5895 228.237 53.0128 228.825 53.5696 229.251C54.1264 229.672 54.8082 229.882 55.6151 229.882C56.456 229.882 57.1577 229.66 57.7202 229.217C58.2884 228.768 58.7145 228.166 58.9986 227.41C59.2884 226.649 59.4332 225.802 59.4332 224.871C59.4332 223.95 59.2912 223.121 59.0071 222.382C58.7287 221.638 58.3054 221.05 57.7372 220.618C57.1747 220.18 56.4673 219.961 55.6151 219.961C54.7969 219.961 54.1094 220.169 53.5526 220.584C52.9957 220.993 52.5753 221.567 52.2912 222.305C52.0071 223.038 51.8651 223.893 51.8651 224.871ZM66.5241 213.961V231.416H64.5128V213.961H66.5241ZM70.2081 231.416V218.325H72.2195V231.416H70.2081ZM71.2308 216.143C70.8388 216.143 70.5007 216.01 70.2166 215.743C69.9382 215.476 69.799 215.155 69.799 214.78C69.799 214.405 69.9382 214.084 70.2166 213.817C70.5007 213.55 70.8388 213.416 71.2308 213.416C71.6229 213.416 71.9581 213.55 72.2365 213.817C72.5206 214.084 72.6626 214.405 72.6626 214.78C72.6626 215.155 72.5206 215.476 72.2365 215.743C71.9581 216.01 71.6229 216.143 71.2308 216.143ZM81.2216 231.689C79.9943 231.689 78.9375 231.399 78.0511 230.819C77.1648 230.24 76.483 229.442 76.0057 228.425C75.5284 227.407 75.2898 226.246 75.2898 224.939C75.2898 223.609 75.5341 222.436 76.0227 221.419C76.517 220.396 77.2045 219.598 78.0852 219.024C78.9716 218.444 80.0057 218.155 81.1875 218.155C82.108 218.155 82.9375 218.325 83.6761 218.666C84.4148 219.007 85.0199 219.484 85.4915 220.098C85.9631 220.711 86.2557 221.427 86.3693 222.246H84.358C84.2045 221.649 83.8636 221.121 83.3352 220.66C82.8125 220.194 82.108 219.961 81.2216 219.961C80.4375 219.961 79.75 220.166 79.1591 220.575C78.5739 220.979 78.1165 221.55 77.7869 222.288C77.4631 223.021 77.3011 223.882 77.3011 224.871C77.3011 225.882 77.4602 226.763 77.7784 227.513C78.1023 228.263 78.5568 228.845 79.142 229.26C79.733 229.675 80.4261 229.882 81.2216 229.882C81.7443 229.882 82.2188 229.791 82.6449 229.609C83.071 229.427 83.4318 229.166 83.7273 228.825C84.0227 228.484 84.233 228.075 84.358 227.598H86.3693C86.2557 228.371 85.9744 229.067 85.5256 229.686C85.0824 230.3 84.4943 230.788 83.7614 231.152C83.0341 231.51 82.1875 231.689 81.2216 231.689ZM93.1619 231.723C92.3324 231.723 91.5795 231.567 90.9034 231.254C90.2273 230.936 89.6903 230.479 89.2926 229.882C88.8949 229.28 88.696 228.552 88.696 227.7C88.696 226.95 88.8438 226.342 89.1392 225.876C89.4347 225.405 89.8295 225.035 90.3239 224.768C90.8182 224.501 91.3636 224.302 91.9602 224.172C92.5625 224.035 93.1676 223.927 93.7756 223.848C94.571 223.746 95.2159 223.669 95.7102 223.618C96.2102 223.561 96.5739 223.467 96.8011 223.336C97.0341 223.206 97.1506 222.979 97.1506 222.655V222.586C97.1506 221.746 96.9205 221.092 96.4602 220.626C96.0057 220.16 95.3153 219.927 94.3892 219.927C93.429 219.927 92.6761 220.138 92.1307 220.558C91.5852 220.979 91.2017 221.427 90.9801 221.905L89.071 221.223C89.4119 220.427 89.8665 219.808 90.4347 219.365C91.0085 218.916 91.6335 218.604 92.3097 218.427C92.9915 218.246 93.6619 218.155 94.321 218.155C94.7415 218.155 95.2244 218.206 95.7699 218.308C96.321 218.405 96.8523 218.606 97.3636 218.913C97.8807 219.22 98.3097 219.683 98.6506 220.302C98.9915 220.922 99.1619 221.751 99.1619 222.791V231.416H97.1506V229.643H97.0483C96.9119 229.927 96.6847 230.231 96.3665 230.555C96.0483 230.879 95.625 231.155 95.0966 231.382C94.5682 231.609 93.9233 231.723 93.1619 231.723ZM93.4688 229.916C94.2642 229.916 94.9347 229.76 95.4801 229.447C96.0313 229.135 96.446 228.731 96.7244 228.237C97.0085 227.743 97.1506 227.223 97.1506 226.677V224.836C97.0653 224.939 96.8778 225.032 96.5881 225.118C96.304 225.197 95.9744 225.268 95.5994 225.331C95.2301 225.388 94.8693 225.439 94.517 225.484C94.1705 225.524 93.8892 225.558 93.6733 225.586C93.1506 225.655 92.6619 225.765 92.2074 225.919C91.7585 226.067 91.3949 226.291 91.1165 226.592C90.8438 226.888 90.7074 227.291 90.7074 227.802C90.7074 228.501 90.9659 229.03 91.483 229.388C92.0057 229.74 92.6676 229.916 93.4688 229.916ZM108.526 218.325V220.03H101.742V218.325H108.526ZM103.719 215.189H105.731V227.666C105.731 228.234 105.813 228.66 105.978 228.944C106.148 229.223 106.364 229.41 106.626 229.507C106.893 229.598 107.174 229.643 107.469 229.643C107.691 229.643 107.873 229.632 108.015 229.609C108.157 229.581 108.271 229.558 108.356 229.541L108.765 231.348C108.629 231.399 108.438 231.45 108.194 231.501C107.95 231.558 107.64 231.586 107.265 231.586C106.697 231.586 106.14 231.464 105.594 231.22C105.055 230.976 104.606 230.604 104.248 230.104C103.896 229.604 103.719 228.973 103.719 228.211V215.189ZM111.552 231.416V218.325H113.563V231.416H111.552ZM112.575 216.143C112.183 216.143 111.844 216.01 111.56 215.743C111.282 215.476 111.143 215.155 111.143 214.78C111.143 214.405 111.282 214.084 111.56 213.817C111.844 213.55 112.183 213.416 112.575 213.416C112.967 213.416 113.302 213.55 113.58 213.817C113.864 214.084 114.006 214.405 114.006 214.78C114.006 215.155 113.864 215.476 113.58 215.743C113.302 216.01 112.967 216.143 112.575 216.143ZM122.565 231.689C121.384 231.689 120.347 231.407 119.455 230.845C118.568 230.282 117.875 229.496 117.375 228.484C116.881 227.473 116.634 226.291 116.634 224.939C116.634 223.575 116.881 222.385 117.375 221.368C117.875 220.351 118.568 219.561 119.455 218.998C120.347 218.436 121.384 218.155 122.565 218.155C123.747 218.155 124.781 218.436 125.668 218.998C126.56 219.561 127.253 220.351 127.747 221.368C128.247 222.385 128.497 223.575 128.497 224.939C128.497 226.291 128.247 227.473 127.747 228.484C127.253 229.496 126.56 230.282 125.668 230.845C124.781 231.407 123.747 231.689 122.565 231.689ZM122.565 229.882C123.463 229.882 124.202 229.652 124.781 229.192C125.361 228.731 125.79 228.126 126.068 227.376C126.347 226.626 126.486 225.814 126.486 224.939C126.486 224.064 126.347 223.248 126.068 222.493C125.79 221.737 125.361 221.126 124.781 220.66C124.202 220.194 123.463 219.961 122.565 219.961C121.668 219.961 120.929 220.194 120.349 220.66C119.77 221.126 119.341 221.737 119.062 222.493C118.784 223.248 118.645 224.064 118.645 224.939C118.645 225.814 118.784 226.626 119.062 227.376C119.341 228.126 119.77 228.731 120.349 229.192C120.929 229.652 121.668 229.882 122.565 229.882ZM133.579 223.541V231.416H131.567V218.325H133.511V220.371H133.681C133.988 219.706 134.454 219.172 135.079 218.768C135.704 218.359 136.511 218.155 137.499 218.155C138.386 218.155 139.161 218.336 139.826 218.7C140.491 219.058 141.008 219.604 141.377 220.336C141.746 221.064 141.931 221.984 141.931 223.098V231.416H139.92V223.234C139.92 222.206 139.653 221.405 139.119 220.831C138.585 220.251 137.852 219.961 136.92 219.961C136.278 219.961 135.704 220.101 135.198 220.379C134.698 220.657 134.303 221.064 134.013 221.598C133.724 222.132 133.579 222.78 133.579 223.541Z" fill="black"/>
<circle cx="80.0022" cy="80.0022" r="78.0022" fill="white" stroke="#777100" stroke-width="4"/>
<circle cx="80.0024" cy="80.0024" r="69.3657" fill="white"/>
<path d="M100.724 58.7514C93.9354 51.7659 87.4324 45.0764 80.743 38.1896L60.7406 58.7514C63.1422 58.7514 65.1819 58.7843 67.2106 58.7404C68.6582 58.7075 69.2284 59.3764 69.2175 60.7801C69.1846 66.0001 69.1846 71.22 69.1736 76.4399C69.1736 76.7251 69.1736 76.9992 69.1736 77.2843C69.1517 78.3371 68.8556 79.2802 67.6054 79.2254C66.454 79.1815 66.2346 78.2823 66.2346 77.2843C66.2346 72.7991 66.2346 68.303 66.2346 63.8178C66.2346 63.2037 66.2346 62.5896 66.2346 61.6794C64.6555 61.6794 63.1751 61.6794 61.6946 61.6794C60.9599 61.6794 60.1703 61.8658 59.5233 61.6245C58.646 61.3065 57.4836 60.835 57.2094 60.1221C56.9353 59.4422 57.352 58.1263 57.9222 57.5122C61.6288 53.5314 65.456 49.6603 69.2504 45.7673C72.2222 42.7077 75.1831 39.6372 78.1659 36.5995C79.9754 34.7572 81.5326 34.7682 83.342 36.6215C90.0753 43.5302 96.8195 50.4389 103.465 57.4244C104.068 58.0605 104.54 59.4751 104.233 60.166C103.926 60.8898 102.643 61.5149 101.732 61.6136C99.6817 61.8219 97.5981 61.6794 95.2404 61.6794C95.2404 62.3702 95.2404 62.9624 95.2404 63.5436C95.2404 68.0288 95.2404 72.525 95.2404 77.0102C95.2404 78.0849 95.1856 79.2034 93.8038 79.2254C92.444 79.2473 92.3014 78.1287 92.2905 77.054C92.2795 71.6148 92.2685 66.1645 92.2356 60.7253C92.2356 59.2997 92.8936 58.7185 94.3083 58.7514C96.3041 58.8062 98.3 58.7623 100.702 58.7623L100.724 58.7514Z" fill="black"/>
<path d="M80.479 124.781C79.5249 124.781 78.5709 124.781 77.6168 124.781C75.3907 124.781 74.4914 123.958 74.3269 121.721C74.1734 119.594 74.0089 117.466 73.9431 115.339C73.9102 114.275 73.5045 113.683 72.5723 113.102C66.8151 109.581 64.0516 104.372 64.7753 97.683C65.532 90.6865 69.5676 86.0588 76.2899 84.0519C83.9005 81.7819 92.0265 85.7736 95.1738 93.0881C98.3321 100.446 95.5576 108.945 88.5611 113.08C87.5413 113.683 87.1574 114.297 87.1465 115.437C87.1136 117.455 86.9381 119.473 86.7956 121.48C86.6091 124.002 85.7538 124.77 83.1877 124.77C82.2884 124.77 81.3892 124.77 80.49 124.77L80.479 124.781ZM84.065 115.24C84.1527 114.9 84.3391 114.56 84.3062 114.253C84.1308 112.433 84.9642 111.522 86.6201 110.722C91.7304 108.254 94.3623 102.442 93.2218 96.7509C92.0813 91.0594 86.982 86.64 81.2905 86.3987C75.1713 86.1465 69.7321 89.9847 68.0542 95.7529C66.4093 101.401 68.8109 107.794 73.987 110.47C76.0267 111.522 77.0466 112.652 76.8272 114.889C76.8272 114.977 76.9369 115.075 77.0356 115.229H84.054L84.065 115.24ZM76.8163 118.332C77.1453 119.791 77.222 121.929 77.7265 122.028C79.5798 122.423 81.6305 122.368 83.4728 121.94C83.9224 121.842 83.9005 119.67 84.1088 118.332H76.8163Z" fill="#777100"/>
<path d="M42.6554 90.202C41.9426 91.1341 41.504 92.0005 40.8131 92.5049C40.2648 92.9107 39.2669 93.1848 38.6966 92.9545C38.1593 92.7352 37.6219 91.7921 37.6 91.1451C37.4355 86.0458 37.3807 80.9465 37.3149 75.8472C37.2929 74.268 38.1483 73.3798 39.6836 73.3907C44.8925 73.4127 50.1125 73.4675 55.3215 73.632C57.0761 73.6868 57.7231 75.4195 56.5935 76.8012C56.0343 77.4921 55.2995 78.0295 54.4442 78.819C56.0123 80.3872 57.4599 81.8347 58.8965 83.2823C59.2912 83.6771 59.8615 84.028 60.015 84.5105C60.1905 85.0588 60.2343 85.9581 59.9053 86.298C59.5764 86.638 58.4578 86.7805 58.1617 86.5064C55.804 84.346 53.4572 82.1637 51.3846 79.7512C50.9569 79.2467 51.6587 77.7772 51.8781 76.549H40.4402V88.6338C40.9337 88.2171 41.2408 88.0087 41.482 87.7456C42.3922 86.7696 43.2695 86.7586 44.2126 87.7346C46.0879 89.6646 47.996 91.5618 49.9041 93.4699C50.6279 94.1937 51.242 95.0162 50.3647 95.9373C49.4106 96.9462 48.5553 96.2992 47.7986 95.5097C46.2085 93.8538 44.6184 92.2198 42.6554 90.191V90.202Z" fill="black"/>
<path d="M105.788 78.8542C104.812 78.0208 104.034 77.5712 103.584 76.9022C103.2 76.321 102.904 75.356 103.124 74.7857C103.343 74.2374 104.275 73.6453 104.9 73.6343C110 73.4698 115.099 73.393 120.198 73.3711C121.931 73.3711 122.687 74.1497 122.687 75.8604C122.666 80.9597 122.611 86.059 122.457 91.1584C122.435 91.7944 121.865 92.7265 121.317 92.9459C120.746 93.1761 119.77 92.902 119.2 92.5072C118.487 92.0247 118.016 91.2022 117.193 90.2482C115.362 92.2002 113.794 93.867 112.226 95.5229C111.524 96.2577 110.723 96.9156 109.78 96.0164C108.793 95.0733 109.374 94.2179 110.164 93.4393C111.962 91.6738 113.739 89.8863 115.516 88.0878C116.974 86.6183 117.303 86.6074 118.794 88.033C118.948 88.1755 119.134 88.2962 119.562 88.6142V76.4745H107.368C107.916 77.0667 108.212 77.3738 108.497 77.6918C109.21 78.4704 109.309 79.2709 108.519 80.0605C106.457 82.1222 104.44 84.2387 102.279 86.1797C101.841 86.5745 100.832 86.3222 100.075 86.3661C100.13 85.6204 99.8996 84.6005 100.305 84.1619C101.928 82.3963 103.738 80.8062 105.788 78.8542Z" fill="black"/>
<path d="M65.6183 83.8758C65.2674 84.128 64.3791 84.9944 64.2037 84.8628C63.1728 84.1281 62.2626 83.1959 61.4621 82.209C61.3853 82.1103 62.1968 80.9369 62.7561 80.7285C63.5896 80.4434 65.5525 82.4502 65.6183 83.8649V83.8758Z" fill="black"/>
<path d="M58.0086 100.852C58.7981 101.224 59.6425 101.389 60.0592 101.904C60.3334 102.233 60.0263 103.593 59.8838 103.604C58.6227 103.747 57.3287 103.747 56.0566 103.604C55.8921 103.582 55.574 102.2 55.8263 101.937C56.3307 101.411 57.1861 101.224 58.0086 100.852Z" fill="black"/>
<path d="M100.897 101.171C101.96 101.116 103.024 101.149 103.2 102.487C103.254 102.893 102.871 103.704 102.629 103.726C101.445 103.869 100.239 103.869 99.0543 103.748C98.813 103.726 98.4402 102.925 98.484 102.52C98.6485 101.039 99.8219 101.149 100.897 101.171Z" fill="black"/>
<path d="M98.0363 81.6061C98.1021 82.9111 96.2268 85.0605 95.3715 84.885C94.8122 84.7753 94.1104 84.1722 93.9239 83.6349C93.6059 82.7247 95.6456 80.5533 96.6326 80.7178C97.2138 80.8165 97.7183 81.3868 98.0363 81.6061Z" fill="black"/>
<path d="M78.9738 77.1451C78.9519 75.7633 78.897 74.6119 80.3227 74.5899C81.8141 74.579 81.836 75.7633 81.836 76.8599C81.836 77.2438 81.9566 77.7482 81.7592 78.0004C81.3754 78.5049 80.8161 79.2177 80.3227 79.2177C79.873 79.2177 79.3467 78.45 78.9957 77.9237C78.8203 77.6495 78.9628 77.167 78.9628 77.1341L78.9738 77.1451Z" fill="black"/>
<path d="M79.216 100.49C80.6745 99.141 82.0014 97.9347 83.2845 96.6956C84.0082 95.9937 84.7759 95.566 85.6312 96.3337C86.4976 97.1123 86.1576 97.9347 85.4558 98.6695C84.0302 100.172 82.6265 101.696 81.1899 103.188C80.1152 104.295 78.9857 104.416 77.8233 103.308C77.0556 102.573 76.1454 101.937 75.5752 101.071C75.2462 100.567 75.4765 99.7113 75.4546 99.0094C76.1564 99.0094 76.935 98.834 77.5381 99.0862C78.218 99.3713 78.7225 100.062 79.216 100.501V100.49Z" fill="#777100"/>
</svg>
