<svg width="46" height="46" viewBox="0 0 46 46" fill="none" xmlns="http://www.w3.org/2000/svg">
<g clip-path="url(#clip0_97_8365)">
<path d="M5.05646 46.0009C3.92689 45.6304 2.8024 45.2474 1.66776 44.8969C1.34031 44.7968 0.979868 44.7943 0.63719 44.7417C0.241208 44.6816 -0.0126275 44.3987 0.00260259 44.0483C0.0178327 43.6753 0.324973 43.3473 0.731109 43.4149C1.57638 43.5576 2.46226 43.6527 3.23138 43.9907C5.11484 44.8243 6.91961 44.8318 8.79799 43.9907C10.717 43.132 12.6918 43.1445 14.6134 44.0082C16.441 44.8293 18.2229 44.8368 20.0505 44.0157C22.0025 43.1395 23.9976 43.1395 25.9496 44.0157C27.7772 44.8368 29.5592 44.8243 31.3868 44.0057C33.3235 43.137 35.306 43.1395 37.2428 44.0057C39.0881 44.8343 40.8751 44.8143 42.7281 44.0057C43.4871 43.6753 44.3501 43.5576 45.1776 43.4124C45.6472 43.3298 45.9798 43.6452 45.9975 44.0458C46.0128 44.4263 45.7462 44.7041 45.2716 44.7442C44.4288 44.8143 43.6521 45.0721 42.8754 45.3901C42.2535 45.6454 41.5884 45.8006 40.9437 46.0009H39.0297C38.0169 45.663 37.0194 45.2674 35.9863 45.0096C35.2806 44.8318 34.5242 44.7767 33.7906 44.7918C32.3082 44.8218 31.0847 45.7781 29.648 46.0034H27.7341C26.7365 45.6705 25.744 45.3225 24.7388 45.0121C23.5813 44.6516 22.4112 44.6516 21.2562 45.0121C20.251 45.325 19.2585 45.673 18.261 46.0034H16.347C15.3241 45.6529 14.3113 45.2674 13.2731 44.967C12.1918 44.6516 11.085 44.6541 10.0037 44.9945C8.98583 45.315 7.9781 45.6655 6.9653 46.0034H5.05138L5.05646 46.0009Z" fill="black"/>
<path d="M9.04583 20.606C10.8328 19.8825 12.5538 19.1866 14.2748 18.4906C17.0061 17.3841 19.7374 16.2801 22.4636 15.1611C22.8443 15.0059 23.1743 15.0134 23.55 15.1686C27.8296 16.916 32.1144 18.6533 36.3991 20.3907C36.5616 20.4558 36.7291 20.5134 36.9448 20.591C36.8332 19.6397 36.7265 18.7384 36.6225 17.8347C36.5717 17.3891 36.5057 16.9435 36.4829 16.4979C36.46 16.0523 36.6961 15.7744 37.0768 15.7394C37.483 15.7018 37.78 15.9446 37.8383 16.3978C38.0236 17.8823 38.2115 19.3643 38.3689 20.8513C38.3993 21.1392 38.5135 21.2544 38.7648 21.3545C40.2802 21.9578 41.7906 22.5762 43.3009 23.192C44.5218 23.6902 44.9229 24.6314 44.4076 25.8381C42.2678 30.8474 40.1229 35.8517 37.978 40.8585C37.9196 40.9962 37.8663 41.1339 37.7825 41.3416C38.1556 41.4418 38.4932 41.5644 38.8435 41.622C40.0492 41.8198 41.2296 41.7522 42.3566 41.234C43.2146 40.8385 44.0928 40.5381 45.0523 40.5055C45.6006 40.4855 45.9179 40.6732 45.9534 41.0938C45.9915 41.5444 45.7022 41.7747 45.1539 41.8749C44.4888 41.9975 43.8035 42.1127 43.1917 42.3781C41.024 43.3243 38.8918 43.3344 36.7342 42.358C35.1299 41.632 33.4952 41.6371 31.8935 42.358C29.7359 43.3293 27.5986 43.3369 25.441 42.368C23.819 41.6421 22.1793 41.6371 20.5598 42.368C18.4022 43.3394 16.2649 43.3319 14.1048 42.3605C12.4878 41.6345 10.843 41.6396 9.22097 42.3731C7.09637 43.3344 4.987 43.3143 2.84464 42.4006C2.20497 42.1277 1.48916 42.0076 0.798724 41.8699C0.283439 41.7672 0.00675884 41.5319 0.0397574 41.0963C0.072756 40.6707 0.384973 40.483 0.933257 40.503C1.84453 40.5356 2.69233 40.7934 3.50714 41.1739C4.85755 41.8048 6.24856 41.8599 7.67512 41.5094C7.84773 41.4668 8.00764 41.3817 8.20563 41.3066C7.62181 39.9397 7.05576 38.6054 6.48463 37.2736C4.86262 33.491 3.24062 29.7108 1.62115 25.9282C1.05764 24.6164 1.44093 23.7027 2.77356 23.1594C4.24327 22.5611 5.71297 21.9628 7.18522 21.3745C7.45936 21.2644 7.59643 21.1442 7.6345 20.8113C7.99749 17.6019 8.39347 14.3975 8.77676 11.1932C8.83261 10.7326 8.85799 10.2694 8.93668 9.81131C9.20321 8.23417 10.1475 7.4456 11.7771 7.42807C12.4904 7.42056 13.2036 7.42807 13.9905 7.42807C13.9905 7.02252 13.9905 6.6395 13.9905 6.25648C13.9905 5.88347 13.9804 5.50796 13.9956 5.13496C14.0362 4.18617 14.6759 3.46769 15.6379 3.42263C16.8639 3.36505 18.095 3.39509 19.3236 3.38508C19.5343 3.38508 19.7424 3.38508 20.0191 3.38508C20.0191 2.8118 20.042 2.27858 20.014 1.74535C19.9607 0.661379 20.6232 -0.0570967 21.7554 0.00799174C22.6336 0.0605632 23.5144 0.0155019 24.3952 0.0180053C25.3801 0.0180053 25.9462 0.561243 25.9741 1.53507C25.9893 2.10334 25.9842 2.67161 25.9893 3.23988C25.9893 3.26742 26.0096 3.29245 26.0502 3.38258C26.2 3.38258 26.3752 3.38258 26.5528 3.38258C27.7078 3.38258 28.8602 3.37256 30.0151 3.38508C31.3122 3.4001 32.0027 4.09605 32.0078 5.37028C32.0078 6.03869 32.0078 6.7096 32.0078 7.42307C32.7997 7.42307 33.5409 7.41305 34.2821 7.42307C35.8559 7.4506 36.8078 8.24418 37.0565 9.77626C37.2038 10.675 37.2774 11.5862 37.384 12.4925C37.4144 12.7453 37.4601 12.9956 37.4677 13.2485C37.4804 13.659 37.2114 13.962 36.8382 13.997C36.493 14.0295 36.1706 13.7892 36.1173 13.3937C35.9574 12.2546 35.8356 11.1081 35.6782 9.96903C35.5665 9.16794 35.1452 8.80494 34.338 8.80494C26.7787 8.80244 19.2195 8.80244 11.6578 8.80494C10.8506 8.80494 10.4191 9.16794 10.3201 9.96903C10.0383 12.2096 9.77941 14.4501 9.51035 16.6932C9.35804 17.9674 9.20828 19.2441 9.04583 20.606ZM42.1738 27.5529C42.0038 27.4803 41.8692 27.4177 41.7322 27.3652C35.6021 24.9919 29.4745 22.6162 23.3393 20.258C23.1311 20.1779 22.8316 20.1929 22.6184 20.273C18.7373 21.76 14.8663 23.2646 10.9902 24.7641C10.4546 24.9719 9.92156 25.1872 9.38089 25.3775C8.97983 25.5177 8.60669 25.3574 8.46454 25.0195C8.31986 24.6765 8.4747 24.3185 8.85545 24.1258C8.94937 24.0782 9.0509 24.0431 9.1499 24.0056C13.5616 22.3008 17.9732 20.5985 22.3798 18.8836C22.8012 18.7184 23.1718 18.7109 23.5982 18.8761C28.9643 20.964 34.3354 23.0343 39.704 25.1096C40.7016 25.4951 41.6966 25.8806 42.712 26.2737C42.849 25.9608 42.9709 25.6904 43.0902 25.4175C43.3567 24.7967 43.3034 24.669 42.6612 24.4086C36.2493 21.8076 29.8349 19.2066 23.4281 16.5955C23.1235 16.4704 22.8798 16.4679 22.5727 16.593C18.0265 18.448 13.4727 20.288 8.92145 22.1331C7.03038 22.8991 5.14438 23.6726 3.25077 24.4337C2.92332 24.5664 2.65426 24.7266 2.78625 25.1196C2.91825 25.5076 3.10609 25.8781 3.27362 26.2712C3.52238 26.1786 3.72037 26.1085 3.91582 26.0308C4.53772 25.793 5.15453 25.5452 5.77897 25.3174C6.24095 25.1497 6.63186 25.2999 6.76385 25.6704C6.90346 26.0609 6.72577 26.3938 6.26379 26.5891C6.02773 26.6892 5.78405 26.7744 5.54544 26.867C4.97685 27.0898 4.40826 27.3126 3.81429 27.5454C5.72059 31.9939 7.60151 36.3874 9.48496 40.7834C11.4319 40.2427 13.2544 40.4154 15.0236 41.2515C16.1177 41.7697 17.2828 41.8448 18.4428 41.6045C19.1459 41.4593 19.8084 41.1339 20.4938 40.9011C22.4306 40.2452 24.3267 40.3428 26.1924 41.1889C27.8271 41.9274 29.4719 41.8974 31.1219 41.1965C31.6625 40.9661 32.221 40.7533 32.7921 40.6307C34.0232 40.3678 35.2568 40.4079 36.5057 40.7834C38.3968 36.3674 40.2777 31.9714 42.1713 27.5529H42.1738ZM22.9535 7.42056C25.3649 7.42056 27.7789 7.41556 30.1903 7.42807C30.5228 7.42807 30.6497 7.34546 30.632 6.99999C30.604 6.43172 30.6244 5.86345 30.6244 5.29518C30.6244 4.93218 30.4746 4.75444 30.0761 4.75444C25.3573 4.76195 20.6385 4.76195 15.9197 4.75444C15.5237 4.75444 15.3689 4.92968 15.3714 5.29518C15.3714 5.84843 15.3942 6.40418 15.3638 6.95493C15.3435 7.33545 15.4805 7.43308 15.8511 7.43058C18.2169 7.41556 20.5852 7.42307 22.9509 7.42307L22.9535 7.42056ZM24.545 1.38987H21.4533V3.34503H24.545V1.39237V1.38987Z" fill="black"/>
<path d="M22.9826 14.3067C22.2693 14.3067 21.5586 14.3167 20.8453 14.3042C20.1295 14.2892 19.6624 13.8261 19.6472 13.1151C19.632 12.4868 19.6345 11.8609 19.6472 11.2325C19.6599 10.4815 20.1473 9.99837 20.9037 9.99587C22.2972 9.98836 23.6933 9.98836 25.0869 9.99587C25.8484 10.0009 26.3383 10.4765 26.3535 11.225C26.3662 11.8534 26.3662 12.4817 26.3535 13.1076C26.3383 13.8411 25.8687 14.2967 25.1199 14.3092C24.4066 14.3217 23.6959 14.3092 22.9826 14.3092V14.3067ZM24.9346 11.3602C23.701 11.3602 22.4952 11.3552 21.2895 11.3677C21.2083 11.3677 21.0636 11.4904 21.0611 11.5605C21.0408 12.0136 21.0509 12.4667 21.0509 12.9273H24.9371V11.3577L24.9346 11.3602Z" fill="black"/>
<path d="M14.9185 14.3086C14.2205 14.3086 13.5225 14.3161 12.8244 14.3086C12.0553 14.2961 11.6136 13.8655 11.5984 13.1095C11.5857 12.4661 11.5832 11.8227 11.5984 11.1794C11.6162 10.4684 12.0883 10.0028 12.8066 9.99774C14.218 9.98773 15.6293 9.98773 17.0431 9.99774C17.7869 10.0028 18.2565 10.4759 18.2666 11.2094C18.2742 11.8678 18.2768 12.5262 18.2641 13.1846C18.2514 13.8279 17.8021 14.2861 17.1498 14.3036C16.406 14.3211 15.6623 14.3086 14.9185 14.3086ZM16.868 12.9367V11.3896H13.0046V12.9367H16.868Z" fill="black"/>
<path d="M31.0803 14.3092C30.3696 14.3092 29.6563 14.3192 28.9456 14.3092C28.1891 14.2966 27.7424 13.851 27.7322 13.1025C27.7221 12.4616 27.7221 11.8183 27.7322 11.1749C27.7449 10.4739 28.2221 10.0008 28.9405 9.99579C30.3645 9.98578 31.7885 9.98578 33.2125 9.99579C33.903 10.0008 34.3827 10.4689 34.4005 11.1474C34.4182 11.8183 34.4182 12.4917 34.4005 13.1626C34.3827 13.8585 33.9309 14.2916 33.2176 14.3041C32.5069 14.3167 31.7936 14.3066 31.0828 14.3066L31.0803 14.3092ZM33.012 11.3927H29.1309V12.9223H33.012V11.3927Z" fill="black"/>
</g>
<defs>
<clipPath id="clip0_97_8365">
<rect width="46" height="46" fill="white"/>
</clipPath>
</defs>
</svg>
