<svg width="41" height="41" viewBox="0 0 41 41" fill="none" xmlns="http://www.w3.org/2000/svg">
<path d="M29.3001 16.8394C30.0095 16.8947 30.0463 16.9242 30.2815 17.632C30.2852 17.6468 30.2962 17.6578 30.2999 17.6726C30.616 18.6433 31.2458 19.2897 32.1893 19.6116C32.2958 19.6485 32.4502 19.6153 32.5605 19.5637C32.9943 19.3572 33.4243 19.1397 33.8434 18.9075C34.1815 18.7195 34.4719 18.7527 34.7439 19.0218C35.3284 19.6079 35.9128 20.1977 36.4973 20.7839C36.7509 21.0382 36.8061 21.3258 36.6296 21.6465C36.5929 21.7128 36.5745 21.7903 36.5267 21.8456C35.7952 22.7377 35.8577 23.6593 36.4311 24.5919C36.5083 24.7173 36.6443 24.8352 36.7767 24.8868C37.2104 25.049 37.6589 25.1781 38.1036 25.3181C38.4786 25.4361 38.6697 25.6757 38.666 26.0849C38.655 26.8849 38.655 27.6848 38.666 28.4848C38.6697 28.8903 38.4933 29.1409 38.111 29.2552C38.0522 29.2736 37.997 29.2994 37.9382 29.3068C36.784 29.4137 36.2032 30.1363 35.9312 31.1869C35.8981 31.3159 35.8981 31.4818 35.9533 31.5961C36.1481 32.02 36.3539 32.4403 36.5855 32.8458C36.8061 33.2328 36.762 33.5499 36.4422 33.8595C35.8798 34.4051 35.3284 34.9617 34.7807 35.5221C34.5013 35.8096 34.1962 35.8686 33.847 35.6769C33.7956 35.6474 33.7331 35.629 33.689 35.5921C32.7994 34.8659 31.8805 34.9101 30.9468 35.4963C30.8329 35.5663 30.7153 35.6806 30.6711 35.7986C30.5094 36.2335 30.3624 36.6796 30.2337 37.1257C30.1124 37.5459 29.8551 37.7487 29.414 37.745C28.6311 37.7376 27.8481 37.7376 27.0689 37.745C26.6719 37.745 26.4109 37.568 26.3006 37.1846C26.2822 37.1257 26.2602 37.0704 26.2528 37.0114C26.1315 35.8723 25.4405 35.253 24.3782 34.9986C24.2385 34.9654 24.0584 34.9839 23.926 35.0428C23.5033 35.2345 23.088 35.452 22.6799 35.6732C22.3271 35.8612 22.0256 35.828 21.7426 35.5368C21.1729 34.9544 20.5958 34.383 20.0223 33.8079C19.7687 33.5535 19.7062 33.2697 19.8827 32.949C19.9194 32.8826 19.9415 32.8052 19.9856 32.7499C20.7097 31.8578 20.6656 30.9399 20.0885 30.0035C20.0187 29.8893 19.9047 29.7713 19.7834 29.7234C19.4342 29.5833 19.0777 29.4653 18.7174 29.3658C18.1881 29.2183 17.7139 29.0377 17.7691 28.2967C17.5301 28.5327 17.2875 28.7649 17.0486 29.0008C16.5781 29.469 16.1297 29.9593 15.6408 30.4054C15.1592 30.844 14.9975 31.3601 15.0857 31.9905C15.2291 33.0485 15.3614 34.1102 15.4974 35.1719C15.604 36.0124 15.3982 36.7681 14.81 37.38C13.9867 38.2389 13.1412 39.0758 12.2921 39.9126C11.7848 40.4139 11.1563 40.6535 10.4505 40.6314C8.84053 40.5798 7.2342 40.5024 5.62787 40.4434C5.32278 40.4323 5.05812 40.3623 4.93314 40.049C4.80082 39.7209 4.94785 39.4776 5.17942 39.2453C6.50271 37.9256 7.826 36.6059 9.13092 35.2714C9.27427 35.1239 9.36617 34.8622 9.37352 34.6521C9.40293 33.8263 9.38455 33.0006 9.38455 32.0642C8.56484 32.0642 7.85909 32.1195 7.16436 32.0458C6.59093 31.9868 6.21968 32.1711 5.83372 32.573C4.65746 33.8005 3.43709 34.9912 2.23878 36.2004C1.99985 36.44 1.75357 36.6206 1.40437 36.499C1.04414 36.3699 1.00003 36.064 0.989004 35.7285C0.937543 34.206 0.882406 32.6836 0.805214 31.1611C0.761104 30.2726 1.05517 29.5427 1.68373 28.9271C2.31965 28.3041 2.97762 27.7032 3.55839 27.0323C4.45529 26.0038 5.53965 25.72 6.84824 25.9596C7.77822 26.1291 8.7229 26.2029 9.66391 26.3135C10.1271 26.3688 10.5204 26.2324 10.8181 25.8932C10.5608 25.1191 10.3256 24.3597 10.0499 23.615C9.98738 23.4491 9.81462 23.2833 9.64921 23.2058C9.13459 22.9589 8.60895 22.7414 8.07596 22.5423C7.9326 22.487 7.72676 22.487 7.59075 22.5497C7.0063 22.8225 6.42552 23.11 5.86312 23.4233C5.47349 23.6408 5.16472 23.5966 4.85595 23.2759C4.1502 22.5533 3.43709 21.8382 2.71663 21.1304C2.41154 20.8318 2.37478 20.5221 2.5696 20.1535C2.87102 19.5821 3.17243 19.007 3.44077 18.4209C3.51061 18.2698 3.49958 18.0449 3.44077 17.8864C3.29006 17.4624 3.0254 17.0717 2.92615 16.6404C2.80485 16.1169 2.49976 15.9105 2.02926 15.7888C1.522 15.6561 1.02576 15.4755 0.529528 15.3133C0.176651 15.199 -0.00713939 14.9704 0.000212223 14.576C0.0149154 13.5364 0.0112396 12.4932 0.000212223 11.4536C-0.00346358 11.0407 0.180327 10.8159 0.562611 10.6979C1.18015 10.5099 1.79768 10.3145 2.39684 10.086C2.56225 10.0233 2.72031 9.84635 2.7975 9.68047C3.02908 9.19386 3.24227 8.69251 3.41504 8.1801C3.4812 7.98104 3.48855 7.71193 3.40401 7.52393C3.15038 6.94516 2.84161 6.3922 2.55122 5.83187C2.36743 5.47798 2.41522 5.17938 2.70561 4.89553C3.43709 4.17668 4.15755 3.45046 4.87433 2.72056C5.15737 2.42933 5.45879 2.39247 5.81166 2.57679C6.38509 2.87539 6.95484 3.18136 7.54297 3.45046C7.7047 3.52419 7.94363 3.51682 8.11639 3.45784C8.63836 3.27352 9.15297 3.05971 9.65288 2.82378C9.81462 2.74636 9.98738 2.58047 10.0499 2.41459C10.2778 1.81002 10.4726 1.19439 10.6601 0.575077C10.7777 0.18432 11.0203 0 11.4173 0C12.4538 0 13.4941 0 14.5307 0C14.9056 0 15.1482 0.17326 15.2622 0.545586C15.457 1.17596 15.6555 1.81002 15.887 2.42933C15.9459 2.58416 16.1039 2.73899 16.2546 2.80903C16.6737 3.00441 17.1479 3.10394 17.5375 3.34356C17.9602 3.60529 18.2947 3.55368 18.688 3.31775C19.1254 3.05602 19.5959 2.85327 20.0481 2.60997C20.445 2.39615 20.7722 2.42565 21.0993 2.76479C21.7757 3.47258 22.4667 4.16562 23.1725 4.84392C23.5254 5.18307 23.5585 5.51853 23.3269 5.93509C23.0365 6.46224 22.7571 6.99677 22.5145 7.54973C22.4373 7.72668 22.4373 7.98104 22.4998 8.16536C22.6799 8.68883 22.8931 9.20492 23.1321 9.70627C23.2093 9.86847 23.382 10.038 23.5474 10.097C24.2899 10.3698 25.0472 10.6057 25.7786 10.8491C26.8814 10.2371 26.7895 9.24179 26.6204 8.20222C26.4881 7.38384 26.3925 6.56178 26.2969 5.73971C26.1977 4.88078 26.444 4.12507 27.0505 3.50576C27.8518 2.68738 28.6605 1.87637 29.4765 1.07274C30.0058 0.556645 30.6491 0.298598 31.3953 0.324402C33.0053 0.383385 34.6116 0.431308 36.2179 0.527154C36.4422 0.5419 36.7178 0.729906 36.8539 0.921598C37.045 1.1907 36.8759 1.4635 36.659 1.68099C35.3615 2.98229 34.0713 4.29096 32.759 5.5812C32.5017 5.83556 32.3951 6.08255 32.4098 6.4475C32.4429 7.22533 32.4208 8.01053 32.4208 8.82891C33.439 8.86577 34.3359 8.90632 35.2328 8.9137C35.3799 8.9137 35.5563 8.78099 35.6739 8.66302C36.9788 7.3691 38.2727 6.06412 39.5703 4.76282C39.7982 4.53426 40.0224 4.30939 40.3937 4.46053C40.7686 4.61536 40.8017 4.92502 40.8127 5.27523C40.8642 6.81245 40.923 8.34968 40.9928 9.8869C41.0296 10.7237 40.7355 11.4131 40.1437 11.9955C39.4049 12.7254 38.6623 13.4553 37.9419 14.2037C37.2361 14.9373 36.3797 15.1769 35.3946 15.0479C34.3359 14.9078 33.281 14.7382 32.2187 14.6497C31.8731 14.6202 31.4137 14.6976 31.1711 14.9115C30.5021 15.505 29.9213 16.2017 29.3037 16.8542L29.3001 16.8394ZM7.0063 39.1126L7.09084 39.2343C8.20094 39.2748 9.31471 39.3522 10.4248 39.3375C10.7667 39.3375 11.182 39.179 11.432 38.9504C12.2774 38.18 13.0934 37.369 13.8507 36.5174C14.0933 36.2446 14.2476 35.7801 14.2256 35.4152C14.1704 34.4088 14.0344 33.4061 13.8654 32.4108C13.6632 31.2311 13.9573 30.28 14.8211 29.4211C19.3055 24.9606 23.7643 20.4668 28.2341 15.9879C28.8516 15.3686 29.4655 14.7456 30.0867 14.1336C30.7447 13.4848 31.535 13.2526 32.4429 13.3742C33.4978 13.518 34.5565 13.647 35.6151 13.7871C36.1922 13.8645 36.6701 13.7023 37.0781 13.271C37.6368 12.6812 38.1882 12.0729 38.8057 11.5495C39.5409 10.9265 39.8349 10.2039 39.732 9.24547C39.6364 8.3718 39.6401 7.48706 39.596 6.52491C39.4232 6.68343 39.3166 6.77927 39.2137 6.88249C38.2543 7.84096 37.2913 8.79573 36.3466 9.76525C36.0636 10.0565 35.7732 10.1966 35.3578 10.1744C34.2624 10.1191 33.1633 10.1007 32.0643 10.0712C31.4982 10.0565 31.274 9.84267 31.2556 9.27496C31.2188 8.19116 31.2005 7.10368 31.149 6.01988C31.1269 5.59226 31.2519 5.27891 31.5607 4.98032C32.3951 4.17668 33.2001 3.33987 34.0272 2.52518C34.2698 2.28188 34.5418 2.06807 34.8542 1.7879C34.6704 1.72523 34.619 1.69574 34.5638 1.69205C33.4501 1.64782 32.34 1.57778 31.2262 1.58515C30.9321 1.58515 30.5756 1.76578 30.3513 1.97591C29.528 2.74636 28.745 3.56474 27.9474 4.36469C27.6165 4.69646 27.4842 5.09828 27.5394 5.56277C27.6386 6.37009 27.6937 7.18846 27.8591 7.98104C28.1863 9.52932 27.8077 10.7458 26.6278 11.8776C23.779 14.6055 21.0332 17.4477 18.2469 20.242C16.1186 22.3764 13.9867 24.5034 11.8657 26.6452C11.1857 27.3309 10.4064 27.6811 9.43233 27.5558C8.52441 27.4378 7.60546 27.3715 6.70856 27.2056C5.78961 27.036 5.04709 27.1871 4.41486 27.9429C3.84511 28.6211 3.17979 29.2183 2.54019 29.8377C2.19467 30.1768 2.03661 30.5639 2.05866 31.0505C2.10645 32.1048 2.13218 33.1591 2.17261 34.2171C2.17261 34.265 2.2057 34.3129 2.24245 34.4051C3.37093 33.2697 4.45529 32.1638 5.56538 31.0837C5.74917 30.903 6.05794 30.7556 6.30422 30.7556C7.43269 30.7556 8.56117 30.8109 9.68596 30.8625C10.3403 30.892 10.5167 31.0763 10.5387 31.714C10.5792 32.8126 10.6012 33.9148 10.649 35.017C10.6674 35.382 10.5424 35.6474 10.2888 35.8981C9.39925 36.7754 8.52073 37.6676 7.63486 38.5523C7.43637 38.7514 7.2195 38.9283 7.00998 39.1163L7.0063 39.1126ZM5.50289 3.82279C5.00299 4.3352 4.49205 4.84392 4.00317 5.37845C3.92597 5.46323 3.90759 5.68442 3.96273 5.79869C4.21269 6.34428 4.48837 6.88249 4.77509 7.41333C4.94785 7.73774 4.91477 8.02159 4.76406 8.35336C4.44426 9.04641 4.14652 9.75419 3.88554 10.473C3.75321 10.838 3.55472 11.0555 3.19081 11.1624C2.63209 11.3283 2.07337 11.5089 1.522 11.7117C1.41172 11.7522 1.26469 11.8997 1.26101 11.9992C1.23896 12.7365 1.24999 13.4738 1.24999 14.2074C1.94471 14.4359 2.59533 14.6645 3.2533 14.8635C3.59515 14.9668 3.75689 15.1842 3.87819 15.505C4.15387 16.2349 4.45161 16.9574 4.77141 17.6652C4.91477 17.9785 4.94785 18.2513 4.77876 18.5647C4.49572 19.0955 4.24209 19.6411 3.95538 20.1719C3.84143 20.3821 3.86349 20.5185 4.03625 20.6807C4.46264 21.0862 4.88168 21.499 5.27867 21.9303C5.45511 22.1184 5.59847 22.1405 5.82269 22.0188C6.3373 21.735 6.87029 21.4917 7.38123 21.2078C7.7047 21.0272 7.98406 21.053 8.31489 21.2152C8.93242 21.5175 9.56098 21.8198 10.2153 22.0225C10.7483 22.1884 11.057 22.4538 11.1967 22.9994C11.3511 23.6003 11.5753 24.1827 11.7959 24.861C12.0017 24.6804 12.1414 24.5772 12.2627 24.4555C14.2954 22.4206 16.3281 20.3821 18.3609 18.3435C20.3826 16.316 22.4043 14.2885 24.4259 12.2609C24.7862 11.8997 24.7715 11.8296 24.2973 11.6748C23.757 11.4942 23.2129 11.3172 22.6689 11.1476C22.3381 11.0444 22.1617 10.8306 22.0403 10.5062C21.7683 9.77631 21.4743 9.05378 21.1508 8.34231C21.0001 8.01053 20.9817 7.72299 21.1508 7.40228C21.4265 6.88618 21.6764 6.35165 21.9558 5.83924C22.0698 5.63281 22.0514 5.49641 21.8786 5.33052C21.4412 4.91396 21.0148 4.49003 20.6031 4.04766C20.434 3.86703 20.3054 3.8744 20.1032 3.98499C19.5776 4.27253 19.0519 4.57481 18.4932 4.796C18.2469 4.89184 17.9051 4.88078 17.6514 4.78862C16.9052 4.5232 16.1885 4.17668 15.446 3.89283C15.1225 3.77118 14.913 3.59423 14.81 3.25877C14.641 2.69844 14.4388 2.14548 14.277 1.58146C14.2035 1.33079 14.0786 1.24969 13.8286 1.25706C13.2405 1.27181 12.656 1.27181 12.0679 1.25706C11.8326 1.24969 11.715 1.33447 11.6488 1.55934C11.4798 2.11968 11.2739 2.67263 11.1159 3.23665C11.0129 3.59792 10.7924 3.77487 10.4542 3.90389C9.7264 4.18037 9.02432 4.51952 8.28916 4.77756C8.02082 4.86972 7.66059 4.88447 7.40696 4.78125C6.77105 4.51952 6.17189 4.16931 5.50657 3.83016L5.50289 3.82279ZM35.3174 21.4364C35.2585 21.3626 35.2144 21.2852 35.152 21.2226C34.8763 20.9424 34.6153 20.6512 34.3139 20.4005C34.2109 20.3157 33.9904 20.2788 33.8654 20.3305C33.4648 20.5 33.1009 20.7581 32.6928 20.9018C32.4539 20.9829 32.1378 20.9719 31.8915 20.8908C31.3107 20.6954 30.7594 20.4226 30.1859 20.2051C29.8808 20.0908 29.6787 19.9176 29.5905 19.5932C29.4765 19.1877 29.3368 18.7895 29.1971 18.3914C29.1641 18.2992 29.1163 18.185 29.0391 18.1444C28.734 17.9859 27.8297 18.1739 27.5761 18.4283C24.9479 21.064 22.3344 23.7109 19.6842 26.3208C19.2467 26.7521 19.0372 27.1724 19.0924 27.777C19.1181 28.0571 19.1695 28.212 19.4563 28.2857C19.8202 28.3778 20.1657 28.5364 20.5259 28.6285C20.9119 28.7244 21.0846 28.9714 21.2023 29.3289C21.3566 29.7971 21.5147 30.28 21.7573 30.704C22.0183 31.1611 22.0477 31.5481 21.7683 32.0053C21.5441 32.3739 21.2023 32.8163 21.2611 33.1702C21.3199 33.5241 21.8161 33.8005 22.1028 34.1286C22.2903 34.3461 22.4594 34.3904 22.7167 34.2392C23.0659 34.0328 23.4225 33.819 23.8011 33.6936C24.04 33.6125 24.3524 33.6199 24.595 33.7047C25.1758 33.9001 25.7272 34.1802 26.3043 34.3904C26.6131 34.5046 26.8152 34.6742 26.9034 34.9986C27.0174 35.4041 27.1424 35.8096 27.3041 36.1967C27.3556 36.322 27.5394 36.4658 27.668 36.4732C29.0832 36.5727 29.0832 36.5653 29.5096 35.2382C29.528 35.1792 29.5537 35.1239 29.5647 35.065C29.6419 34.6595 29.9176 34.4788 30.2925 34.3572C30.763 34.206 31.2372 34.0401 31.6636 33.8005C32.1047 33.5499 32.476 33.5241 32.9171 33.7895C33.2957 34.018 33.7588 34.3645 34.119 34.3019C34.4866 34.2355 34.766 33.7157 35.1042 33.4208C35.31 33.2402 35.2916 33.0891 35.174 32.8752C34.9682 32.5066 34.7476 32.1417 34.6079 31.7472C34.5271 31.5187 34.5381 31.2201 34.6153 30.9878C34.7623 30.5491 35.0711 30.1547 35.163 29.7086C35.3137 28.9861 35.7107 28.6064 36.4054 28.4884C36.4789 28.4774 36.5488 28.4442 36.6186 28.4184C37.1283 28.2513 37.3832 27.8986 37.3832 27.3604C37.3832 26.4425 37.3942 26.3909 36.4973 26.1697C35.7438 25.9817 35.2585 25.6278 35.1446 24.8315C35.1225 24.673 35.0601 24.4998 34.9608 24.3744C34.3286 23.556 34.4719 22.7708 35.027 21.9856C35.1372 21.8271 35.2071 21.6391 35.299 21.4548L35.3174 21.4364Z" fill="black"/>
<path d="M19.7563 13.0204C19.749 16.7547 16.6429 19.8512 12.9303 19.8218C9.18468 19.7923 6.13744 16.7141 6.14847 12.9724C6.15949 9.20864 9.23247 6.17842 13.0222 6.18948C16.7238 6.20054 19.7637 9.28237 19.7563 13.0241V13.0204ZM12.9597 18.55C16.007 18.5426 18.5065 16.0395 18.5029 12.9946C18.5029 9.9496 15.996 7.44654 12.9524 7.45023C9.90882 7.45023 7.40559 9.96066 7.40927 13.0056C7.40927 16.0506 9.92352 18.561 12.9597 18.5536V18.55Z" fill="black"/>
<path d="M28.2376 32.8116C25.1683 32.8042 22.7312 30.3343 22.7422 27.2451C22.7533 24.2038 25.2307 21.7561 28.2817 21.7598C31.3289 21.7671 33.766 24.2591 33.7549 27.3594C33.7439 30.3712 31.2664 32.8189 28.2376 32.8116ZM28.2376 31.5508C30.5901 31.5545 32.4905 29.6708 32.5015 27.3225C32.5088 24.9448 30.6158 23.0242 28.2596 23.0205C25.9181 23.0205 24.0067 24.919 23.9993 27.2562C23.992 29.645 25.8667 31.5471 28.2376 31.5508Z" fill="black"/>
</svg>
