<svg width="183" height="183" viewBox="0 0 183 183" fill="none" xmlns="http://www.w3.org/2000/svg">
<circle cx="91.0458" cy="91.8818" r="91.04" fill="white"/>
<path d="M90.6424 133.358C89.6757 132.941 89.3895 132.199 89.3895 131.167C89.4129 118.867 89.4035 106.568 89.4035 94.2684V93.5317H88.7184C76.3861 93.5317 64.0537 93.5223 51.7167 93.5458C50.6984 93.5458 49.9851 93.2361 49.5721 92.2928V91.4622C49.9757 90.5143 50.6984 90.2093 51.7167 90.2093C64.0396 90.2327 76.3579 90.2234 88.6809 90.2234H89.4035V89.5242C89.4035 77.098 89.4035 64.6765 89.4035 52.2503C89.4035 51.1193 90.0934 50.3779 91.1117 50.406C91.9329 50.4295 92.6321 51.0818 92.6978 51.8983C92.7119 52.086 92.7025 52.2784 92.7025 52.4661C92.7025 64.8032 92.7025 77.1449 92.7025 89.4819V90.2234H93.3829C105.809 90.2234 118.231 90.2234 130.657 90.2234C131.792 90.2234 132.539 90.9038 132.52 91.9127C132.501 92.7574 131.83 93.4613 130.99 93.5176C130.802 93.5317 130.61 93.5223 130.422 93.5223C118.099 93.5223 105.781 93.5223 93.458 93.5223H92.7025V94.1887C92.7025 106.512 92.6931 118.83 92.7166 131.153C92.7166 132.185 92.435 132.931 91.4636 133.349H90.633L90.6424 133.358Z" fill="#777100"/>
<path d="M64.0684 86.7507H56.0674C57.081 79.9979 59.7605 74.0429 64.1857 68.9045C69.9201 62.2503 77.1656 58.2849 85.8987 56.8818V64.9063C74.2046 67.7688 66.945 75.0237 64.0684 86.7554V86.7507Z" fill="#777100"/>
<path d="M126.054 86.7696H125.453C123.139 86.7696 120.821 86.7556 118.508 86.7837C118.062 86.7884 117.931 86.6336 117.837 86.23C115.519 76.3942 109.61 69.6836 100.188 66.075C98.9065 65.5822 97.5503 65.296 96.1895 64.9018V56.8867C103.454 57.9895 109.77 60.9881 115.115 65.967C121.154 71.5982 124.763 78.534 126.054 86.7696Z" fill="#777100"/>
<path d="M96.1607 126.878V126.193C96.1607 123.931 96.1748 121.665 96.1466 119.403C96.1419 118.933 96.2686 118.75 96.7285 118.657C100.961 117.779 104.772 115.977 108.127 113.26C113.181 109.173 116.433 103.954 117.813 97.5912C117.916 97.1079 118.09 96.9671 118.587 96.9718C120.849 96.9999 123.115 96.9859 125.377 96.9859H126.039C124.931 104.245 121.956 110.548 117.01 115.879C111.379 121.951 104.424 125.578 96.1513 126.878H96.1607Z" fill="#777100"/>
<path d="M96.1608 115.254V114.56C96.1608 112.35 96.1701 110.139 96.1514 107.924C96.1514 107.525 96.2452 107.333 96.6488 107.178C101.356 105.39 104.598 102.129 106.386 97.4222C106.485 97.1688 106.546 96.9717 106.898 96.9717C109.3 96.9905 111.698 96.9811 114.101 96.9811C114.185 96.9811 114.265 97.0045 114.42 97.0233C113.383 101.608 111.215 105.54 107.902 108.83C104.631 112.082 100.736 114.213 96.1608 115.245V115.254Z" fill="#777100"/>
<path d="M114.359 86.7699C113.205 86.7699 112.083 86.7699 110.961 86.7699C109.633 86.7699 108.301 86.7605 106.973 86.7793C106.639 86.7793 106.503 86.6667 106.386 86.3569C104.598 81.608 101.327 78.3372 96.5831 76.5352C96.3532 76.446 96.1514 76.3991 96.1514 76.0659C96.1701 73.6116 96.1654 71.1621 96.1654 68.7078C96.1654 68.675 96.1842 68.6421 96.2171 68.5342C100.196 69.4164 103.721 71.1949 106.78 73.8838C110.642 77.2813 114.209 83.3583 114.354 86.7699H114.359Z" fill="#777100"/>
<path d="M85.9115 68.5203C85.9256 68.7221 85.9443 68.8535 85.9443 68.9896C85.9443 71.3031 85.9349 73.6213 85.9537 75.9347C85.9537 76.3008 85.8176 76.4275 85.4985 76.5495C80.7918 78.3327 77.5257 81.58 75.7425 86.2915C75.597 86.6716 75.4234 86.7795 75.0432 86.7748C72.7814 86.7607 70.5148 86.7654 68.253 86.7654H67.6992C68.5861 82.7391 70.36 79.229 73.0301 76.1788C76.4792 72.2416 80.7636 69.6982 85.9115 68.5156V68.5203Z" fill="#777100"/>
<path d="M85.9169 80.0869V86.7364H79.2627C80.6752 83.6862 82.8432 81.5088 85.9169 80.0869Z" fill="#777100"/>
<path d="M102.759 86.7549H96.2129V80.1992C98.09 80.3635 102.29 84.5306 102.759 86.7549Z" fill="#777100"/>
<path d="M96.1934 103.57V97.0283H102.716C102.665 98.8068 98.291 103.218 96.1934 103.57Z" fill="#777100"/>
<path d="M56.0762 97.0134H64.0959C64.4385 98.2382 64.706 99.4724 65.133 100.646C68.6056 110.158 75.2833 116.131 85.091 118.609C85.9356 118.825 85.945 118.797 85.945 119.684C85.945 121.861 85.945 124.039 85.945 126.216V126.849C82.0079 126.291 78.3335 125.113 74.8656 123.311C68.5305 120.022 63.6126 115.254 60.1259 109.027C58.033 105.291 56.6862 101.298 56.0762 97.0134Z" fill="#777100"/>
<path d="M67.752 96.9853C69.3991 96.9853 71.004 96.9853 72.6089 96.9853C73.4535 96.9853 74.3029 96.9994 75.1476 96.9806C75.4526 96.9759 75.5981 97.0698 75.7107 97.3607C77.5033 102.152 80.8023 105.437 85.5841 107.244C85.7343 107.3 85.9314 107.511 85.9314 107.647C85.9454 110.134 85.9314 112.617 85.9267 115.104C85.9267 115.118 85.9126 115.137 85.8704 115.226C81.9191 114.353 78.4231 112.56 75.3588 109.909C71.0744 106.206 68.4605 101.054 67.752 96.9806V96.9853Z" fill="#777100"/>
<path d="M85.9169 97.0188V103.565C83.7864 103.162 79.7976 99.1774 79.3612 97.0188H85.9169Z" fill="#777100"/>
</svg>
