<svg width="183" height="183" viewBox="0 0 183 183" fill="none" xmlns="http://www.w3.org/2000/svg">
<circle cx="91.0458" cy="91.8818" r="91.04" fill="white"/>
<path d="M130.366 54.4297C127.732 59.848 125.097 65.2663 122.468 70.6846C122.38 70.865 122.298 71.0506 122.195 71.2826H136.15C127.68 80.6396 119.292 89.9141 110.899 99.1886L110.817 99.1422C112.812 92.7186 114.807 86.295 116.828 79.789C113.312 79.8869 109.863 79.9849 106.321 80.088C106.46 79.8251 106.553 79.6446 106.646 79.4642C111.142 71.2517 115.642 63.0443 120.138 54.8318C120.21 54.6978 120.277 54.5637 120.344 54.4297C123.685 54.4297 127.03 54.4297 130.371 54.4297H130.366Z" fill="#777100"/>
<path d="M131.547 79.2127C132.176 80.914 132.774 82.5431 133.393 84.2135C129.299 86.322 126.974 89.5957 126.969 94.1891C126.969 98.7722 129.268 102.036 133.289 104.134C133.104 105.531 131.067 110.475 130.057 111.991C125.747 110.64 121.798 111.295 118.56 114.527C115.323 117.759 114.611 121.688 115.988 126.018C115.091 126.802 109.6 129.091 108.136 129.292C104.187 120.873 92.3351 120.801 88.2572 129.333C85.5145 128.55 82.9008 127.452 80.3849 126.085C81.7769 121.724 81.0861 117.796 77.8537 114.553C74.6161 111.305 70.6774 110.64 66.3005 112.001C64.9291 109.516 63.8568 106.907 63.0474 104.165C67.0789 102.056 69.404 98.8186 69.4143 94.2252C69.4195 89.6369 67.1253 86.3787 63.0371 84.2289C63.2897 83.4711 63.5062 82.672 63.8259 81.9142C64.5579 80.1871 65.3416 78.4858 66.0942 76.7691C66.2386 76.4391 66.3984 76.3876 66.749 76.501C73.188 78.5322 79.6323 74.6812 80.8953 68.0462C81.2614 66.1232 81.05 64.2364 80.3592 62.3289C80.8747 62.0608 81.3748 61.7515 81.9058 61.535C83.87 60.741 85.8496 59.9832 87.8138 59.1893C88.1953 59.0346 88.3294 59.1738 88.5047 59.4934C90.5874 63.3497 93.8508 65.4376 98.2174 65.4376C102.558 65.4376 105.811 63.3548 107.889 59.5244C108.095 59.1429 108.265 59.0501 108.672 59.2047C110.559 59.9265 112.457 60.6225 114.457 61.3648C111.972 65.8964 109.57 70.2939 107.136 74.7276C106.94 74.6554 106.765 74.5987 106.595 74.5265C94.0725 69.1855 79.7766 76.7897 77.1938 90.1628C74.9202 101.943 82.8028 113.254 94.6911 115.28C106.059 117.218 116.967 109.671 119.205 98.3186C119.561 96.5245 119.633 94.7047 119.576 92.8797C119.571 92.6425 119.638 92.3383 119.793 92.1682C123.628 87.9047 127.474 83.6567 131.325 79.4087C131.361 79.3674 131.413 79.3365 131.567 79.2076L131.547 79.2127Z" fill="#777100"/>
<path d="M106.647 106.65C110.297 102.618 113.942 98.5918 117.639 94.5087C117.829 100.236 114.37 108.531 105.822 112.171C97.4862 115.718 87.7941 113.047 82.4428 105.753C77.0657 98.4216 77.4266 88.4408 83.3604 81.4965C89.4025 74.4337 98.9915 73.083 106.183 76.4082C105.183 78.2435 104.178 80.0788 103.111 82.0379C106.874 81.9296 110.514 81.8265 114.272 81.7182C111.684 90.0596 109.117 98.3237 106.549 106.583L106.642 106.644L106.647 106.65ZM95.0013 93.2611C92.5576 93.2611 90.1501 93.2611 87.7374 93.2611C86.5207 93.2611 85.3092 93.2508 84.0925 93.2611C83.4532 93.2663 83.0769 93.6117 83.0563 94.153C83.0357 94.7562 83.4171 95.1067 84.1286 95.1119C87.5466 95.1119 90.9646 95.1222 94.3826 95.1067C94.8105 95.1067 95.0322 95.2047 95.223 95.6274C95.821 96.9575 97.28 97.705 98.6874 97.4782C100.079 97.2514 101.239 96.1224 101.44 94.7974C101.672 93.256 100.976 91.8434 99.605 91.2299C99.2235 91.0598 99.1204 90.8639 99.1256 90.4721C99.141 87.7397 99.1359 85.0074 99.1256 82.2699C99.1256 82.0275 99.1153 81.7749 99.0534 81.5378C98.94 81.0893 98.5946 80.8779 98.1615 80.8934C97.7027 80.9088 97.3727 81.1563 97.2954 81.6409C97.2593 81.8626 97.2645 82.0946 97.2645 82.3214C97.2645 85.0538 97.2645 87.7861 97.249 90.5236C97.249 90.7195 97.1253 91.0288 96.9758 91.0958C96.022 91.5289 95.3725 92.2197 95.0013 93.256V93.2611Z" fill="#777100"/>
<path d="M51.5872 107.072C53.0874 107.072 54.5825 107.072 56.0827 107.072C56.8044 107.072 57.2014 107.397 57.2117 107.985C57.2272 108.593 56.8199 108.949 56.0672 108.949C53.0719 108.954 50.0715 108.954 47.0762 108.949C46.3339 108.949 45.9214 108.578 45.9421 107.975C45.9575 107.402 46.3648 107.078 47.0865 107.078C48.5868 107.078 50.0818 107.078 51.582 107.078L51.5872 107.072Z" fill="#777100"/>
<path d="M51.5459 81.3108C50.0509 81.3108 48.5507 81.3108 47.0556 81.3108C46.3287 81.3108 45.9472 80.9808 45.9472 80.388C45.9472 79.8002 46.3339 79.4755 47.0659 79.4755C50.0818 79.4755 53.0926 79.4755 56.1084 79.4755C56.8405 79.4755 57.2169 79.8002 57.2117 80.3983C57.2117 80.9911 56.8302 81.3056 56.093 81.3108C54.5773 81.3108 53.0616 81.3108 51.5459 81.3108Z" fill="#777100"/>
<path d="M56.7632 93.2747C58.2634 93.2747 59.7585 93.2747 61.2587 93.2747C61.965 93.2747 62.3825 93.615 62.3929 94.182C62.398 94.7543 61.9959 95.1152 61.2844 95.1152C58.2686 95.1203 55.2527 95.1203 52.2419 95.1152C51.5305 95.1152 51.1077 94.7594 51.1026 94.2027C51.0974 93.6253 51.5408 93.2695 52.278 93.2695C53.7782 93.2695 55.2733 93.2695 56.7735 93.2695L56.7632 93.2747Z" fill="#777100"/>
</svg>
