<svg width="50" height="38" viewBox="0 0 50 38" fill="none" xmlns="http://www.w3.org/2000/svg">
<path d="M47.1623 35.9444C47.8243 35.9444 48.406 35.9364 48.9918 35.9444C49.4933 35.9525 49.7701 36.1891 49.746 36.5902C49.7179 37.0475 49.4251 37.1999 49.0078 37.1919C48.8875 37.1919 48.7671 37.1919 48.6467 37.1919C32.8033 37.1919 16.9599 37.1919 1.11644 37.1919C0.959967 37.1919 0.807509 37.1919 0.651041 37.1919C0.2699 37.1839 0.0211568 36.9994 0.00109679 36.6103C-0.0189633 36.1891 0.237806 35.9685 0.634995 35.9525C1.26488 35.9324 1.89878 35.9485 2.55675 35.9485V18.9416C1.26488 18.2637 0.727273 17.3372 0.988054 16.2461C1.24482 15.1752 2.09537 14.4733 3.15454 14.4492C4.22574 14.4251 5.15653 15.111 5.42534 16.1178C5.73827 17.277 5.23276 18.1955 3.86467 18.9616V35.9043H13.0401C13.1324 35.07 13.2247 34.2357 13.313 33.4014C13.6179 30.4974 13.9188 27.5934 14.2157 24.6894C14.5045 21.8696 14.7854 19.0499 15.0782 16.2301C15.3711 13.4103 15.672 10.5946 15.9649 7.7748C16.1053 6.42708 16.2538 5.07535 16.3821 3.72363C16.4303 3.21021 16.6991 3.01367 17.1966 3.01367C22.3039 3.01768 27.4152 3.01367 32.5225 3.01768C33.1082 3.01768 33.2847 3.16208 33.3529 3.75973C33.5937 5.9618 33.8223 8.16788 34.051 10.3699C34.3078 12.8488 34.5606 15.3236 34.8173 17.8024C35.0781 20.3134 35.3389 22.8243 35.5997 25.3352C35.8604 27.8301 36.1172 30.325 36.378 32.8198C36.4663 33.6581 36.5465 34.4965 36.6348 35.3308C36.6548 35.5153 36.6829 35.6998 36.711 35.9083H45.8784C45.8865 35.7118 45.9025 35.5433 45.9025 35.3749C45.9025 30.0602 45.9025 24.7456 45.9105 19.4309C45.9105 19.09 45.8383 18.8934 45.4933 18.733C44.5384 18.2838 44.069 17.2208 44.3017 16.182C44.5184 15.2033 45.4371 14.4652 46.4682 14.4452C47.5514 14.4251 48.4381 15.0829 48.727 16.1218C49.0078 17.1406 48.5785 18.2116 47.6156 18.6969C47.2505 18.8814 47.1502 19.09 47.1543 19.4791C47.1663 24.7576 47.1623 30.0402 47.1623 35.3187V35.9404V35.9444ZM24.2577 4.27314C22.0872 4.27314 20.009 4.26512 17.9268 4.28919C17.7984 4.28919 17.5737 4.49375 17.5577 4.62211C17.2648 7.2694 16.992 9.9167 16.7191 12.564C16.3621 16.0496 16.017 19.5392 15.656 23.0248C15.2628 26.8353 14.8536 30.6458 14.4524 34.4523C14.4002 34.9377 14.3721 35.423 14.332 35.9083H21.9428C21.6258 34.8334 22.1474 34.2157 23.018 33.7785C23.1223 33.7263 23.2467 33.5819 23.2507 33.4736C23.2708 32.8479 23.2627 32.2182 23.2627 31.5122C22.4443 31.8532 21.7342 32.154 21.024 32.4468C20.334 32.7276 19.9488 32.4829 19.9368 31.7569C19.9288 31.2916 19.8846 30.8223 19.9528 30.3651C19.997 30.0763 20.1454 29.7353 20.3621 29.5468C21.1524 28.8569 22.003 28.2392 22.8014 27.5573C22.9779 27.4089 23.1103 27.1121 23.1183 26.8835C23.1424 26.0091 23.0742 25.1306 23.1103 24.2522C23.1464 23.3297 23.9287 22.6478 24.8635 22.6398C25.8184 22.6317 26.5927 23.3297 26.6489 24.2763C26.6729 24.6694 26.689 25.0745 26.6248 25.4595C26.4081 26.7752 26.7612 27.794 28.0089 28.4197C28.1734 28.5039 28.3098 28.6483 28.4543 28.7687C30.0791 30.1324 29.7823 29.4385 29.8103 31.5724C29.8224 32.5431 29.4613 32.7677 28.5546 32.3786C27.8966 32.0978 27.2346 31.8211 26.4844 31.5002C26.4844 32.0537 26.5245 32.519 26.4723 32.9722C26.4202 33.4456 26.5646 33.7664 26.9939 33.963C27.6679 34.2718 27.9769 34.7812 27.8565 35.5313C27.8364 35.6556 27.8806 35.788 27.8926 35.9083H35.4071C35.4071 35.772 35.4151 35.6677 35.4071 35.5674C35.1583 33.1407 34.9056 30.714 34.6528 28.2873C34.392 25.7925 34.1273 23.2976 33.8705 20.8027C33.6137 18.3239 33.365 15.845 33.1122 13.3702C32.8153 10.4983 32.5064 7.6304 32.2256 4.75848C32.1895 4.38946 32.0892 4.2571 31.704 4.26111C29.7782 4.27715 27.8485 4.26913 25.9227 4.26913C25.7903 4.26913 25.6579 4.2932 25.4974 4.30924C25.4974 5.06332 25.4934 5.7813 25.4974 6.50329C25.5014 6.92445 25.349 7.20924 24.8956 7.23731C24.4824 7.26138 24.2657 6.99665 24.2657 6.48324C24.2617 5.76526 24.2657 5.04728 24.2657 4.26913L24.2577 4.27314ZM23.1143 35.3628L23.2467 35.5112C23.5997 35.3388 23.9648 35.1904 24.2978 34.9898C24.695 34.7492 25.0561 34.7532 25.4533 34.9898C25.7943 35.1904 26.1634 35.3428 26.6328 35.5714C26.4964 34.9818 26.0752 34.8695 25.7702 34.6729C25.349 34.4002 25.1604 34.0753 25.1885 33.5659C25.2366 32.6554 25.2246 31.7449 25.2487 30.8344C25.2728 29.984 25.6138 29.7754 26.4122 30.1084C27.0982 30.3931 27.7803 30.6819 28.4623 30.9707L28.6027 30.8384C28.4784 30.6298 28.3941 30.3691 28.2176 30.2207C27.4152 29.5468 26.5967 28.889 25.7622 28.2553C25.4252 27.9985 25.2968 27.6977 25.3169 27.2846C25.357 26.3741 25.365 25.4636 25.3971 24.553C25.4092 24.184 25.2728 23.9353 24.8876 23.9273C24.4704 23.9193 24.3259 24.172 24.338 24.5651C24.366 25.4595 24.37 26.354 24.4102 27.2445C24.4302 27.6777 24.3179 27.9945 23.9608 28.2673C23.1263 28.901 22.3079 29.5548 21.5055 30.2327C21.3289 30.3811 21.2648 30.6619 21.1484 30.8825L21.2969 30.9747C22.023 30.6699 22.7452 30.357 23.4754 30.0602C24.0892 29.8115 24.4503 30.0402 24.4784 30.694C24.5105 31.4681 24.4583 32.2463 24.5466 33.0124C24.6549 33.9309 24.3861 34.5767 23.5275 34.9698C23.359 35.046 23.2427 35.2345 23.1023 35.3709L23.1143 35.3628ZM4.23778 16.7515C4.24982 16.178 3.82454 15.7247 3.25885 15.7047C2.68513 15.6846 2.19166 16.1579 2.19166 16.7275C2.19166 17.273 2.66507 17.7543 3.2067 17.7623C3.75233 17.7703 4.22173 17.3091 4.23377 16.7515H4.23778ZM45.5093 16.7275C45.5093 17.289 45.9627 17.7543 46.5123 17.7623C47.0499 17.7703 47.5354 17.297 47.5514 16.7515C47.5675 16.182 47.082 15.6966 46.5083 15.7047C45.9426 15.7127 45.5053 16.1579 45.5093 16.7275Z" fill="black"/>
<path d="M39.9845 4.50084V21.4957C40.3376 21.4957 40.6746 21.4877 41.0116 21.4957C41.477 21.5077 41.81 21.7845 41.7659 22.1535C41.7137 22.5867 41.4329 22.7511 41.0076 22.7471C39.8882 22.7391 38.7729 22.7471 37.6535 22.7471C37.2323 22.7471 36.9394 22.5787 36.9474 22.1214C36.9555 21.6641 37.2564 21.5037 37.6696 21.4997C37.9946 21.4997 38.3195 21.4997 38.7127 21.4997V20.9221C38.7127 15.6115 38.7127 10.2968 38.7127 4.98617C38.7127 4.68534 38.7047 4.47276 38.3436 4.31232C37.3727 3.87912 36.8672 2.77608 37.1079 1.78936C37.3727 0.722421 38.2313 0.0204861 39.2945 0.000430838C40.3616 -0.0196244 41.2804 0.662255 41.5572 1.67705C41.8341 2.70388 41.3606 3.77885 40.3978 4.29226C40.2613 4.36446 40.1249 4.42864 39.9885 4.49683L39.9845 4.50084ZM40.3657 2.2747C40.3657 1.70914 39.9203 1.2599 39.3586 1.25188C38.809 1.24386 38.3276 1.70112 38.3115 2.24662C38.2955 2.80015 38.805 3.31757 39.3586 3.30955C39.9043 3.30153 40.3657 2.82823 40.3657 2.2747Z" fill="black"/>
<path d="M11.0337 21.4957C11.4469 21.4957 11.788 21.4877 12.129 21.4957C12.5262 21.5077 12.795 21.6882 12.803 22.1134C12.807 22.5386 12.5543 22.7351 12.149 22.7391C10.9816 22.7431 9.81005 22.7391 8.64256 22.7391C8.24938 22.7391 8.00464 22.5225 7.99261 22.1535C7.98057 21.7564 8.22931 21.5158 8.63854 21.4997C8.99561 21.4837 9.35669 21.4997 9.794 21.4997V20.9181C9.794 15.6035 9.794 10.2928 9.80203 4.97817C9.80203 4.6252 9.70975 4.4447 9.37274 4.28827C8.42189 3.83903 7.94848 2.76006 8.18519 1.73323C8.40585 0.746508 9.32058 0.0205065 10.3517 0.000451249C11.4389 -0.019604 12.3095 0.630187 12.6064 1.68108C12.8832 2.6678 12.47 3.76683 11.5392 4.22409C11.0939 4.4447 11.0297 4.70943 11.0337 5.13059C11.0457 10.357 11.0417 15.5834 11.0417 20.8098V21.4917L11.0337 21.4957ZM10.3958 3.30957C10.9334 3.31358 11.4229 2.83627 11.4349 2.29478C11.4469 1.75328 10.9816 1.26795 10.4319 1.2519C9.84615 1.23586 9.37675 1.69312 9.38076 2.27873C9.38076 2.83226 9.84616 3.30155 10.3958 3.30957Z" fill="black"/>
<path d="M24.2576 11.6036C24.2576 11.1222 24.2536 10.6449 24.2576 10.1636C24.2657 9.75045 24.4863 9.5138 24.8956 9.52583C25.2807 9.53786 25.4853 9.77451 25.4853 10.1596C25.4893 11.1383 25.4933 12.113 25.4853 13.0917C25.4853 13.5048 25.2526 13.7414 24.8474 13.7294C24.4663 13.7174 24.2617 13.4807 24.2576 13.0917C24.2536 12.5943 24.2576 12.0969 24.2576 11.5995V11.6036Z" fill="black"/>
<path d="M25.4937 18.1546C25.4937 18.5838 25.4817 19.013 25.4937 19.4381C25.5098 19.8793 25.3493 20.1842 24.8839 20.2243C24.5027 20.2564 24.258 19.9475 24.258 19.4622C24.254 18.5717 24.262 17.6813 24.254 16.7908C24.25 16.3576 24.3744 16.0408 24.8638 16.0167C25.2731 15.9966 25.4857 16.2574 25.4937 16.7708C25.4977 17.2321 25.4937 17.6973 25.4937 18.1586V18.1546Z" fill="black"/>
</svg>
