<svg width="46" height="46" viewBox="0 0 46 46" fill="none" xmlns="http://www.w3.org/2000/svg">
<path d="M4.47465 2.65204C4.47465 2.10213 4.47465 1.61853 4.47465 1.13492C4.47465 0.456307 4.92326 0.00390006 5.59423 0.00390006C6.50316 0.00390006 7.41209 0.00390006 8.32102 0.00390006C8.87106 0.00390006 9.33528 0.483607 9.33918 1.03742C9.33918 1.52102 9.33918 2.00853 9.34698 2.49214C9.34698 2.52334 9.36258 2.55064 9.38209 2.61304H35.8191C35.8191 2.08263 35.8191 1.55222 35.8191 1.02572C35.8191 0.475807 36.2989 0 36.8489 0C37.7735 0 38.698 0 39.6226 0C40.1882 0 40.6485 0.460207 40.6524 1.01402C40.6524 1.52882 40.6524 2.04753 40.6524 2.64424H42.3884C43.4 2.64424 44.2517 3.01605 44.9435 3.75966C45.0566 3.88056 45.1425 4.08336 45.1425 4.24717C45.1542 10.6355 45.1542 17.0238 45.1425 23.4121C45.1425 23.5759 45.0566 23.7787 44.9435 23.8996C44.2569 24.6458 43.4052 25.0176 42.3884 25.015C28.887 25.015 15.3857 25.015 1.88439 25.0228C1.47478 25.0228 1.21343 24.8668 0.905247 24.6211C0.195267 24.0517 -0.0075871 23.3809 0.000214872 22.476C0.0431257 16.4973 0.0275213 10.5146 0.0119174 4.53577C0.0119174 4.10676 0.171861 3.83376 0.429326 3.51005C0.99887 2.79244 1.68154 2.52334 2.58267 2.63254C3.18342 2.70274 3.79588 2.64424 4.47855 2.64424L4.47465 2.65204ZM22.5908 3.97416C15.8382 3.97416 9.08951 3.97416 2.3369 3.97416C1.66593 3.97416 1.34605 4.29397 1.34605 4.96478C1.34605 10.8812 1.34605 16.8015 1.34605 22.7179C1.34605 23.3809 1.67374 23.7085 2.34081 23.7085C15.8265 23.7085 29.3122 23.7085 42.798 23.7085C43.4533 23.7085 43.8005 23.3692 43.8005 22.714C43.8005 16.7976 43.8005 10.8773 43.8005 4.96088C43.8005 4.30567 43.4611 3.97416 42.794 3.97416C36.057 3.97416 29.3239 3.97416 22.5869 3.97416H22.5908ZM39.3144 1.36892H37.1922V2.61304H39.3144V1.36892ZM7.96603 1.36502H5.8673V2.62474H7.96603V1.36502Z" fill="black"/>
<path d="M4.50195 26.8457H5.82438V43.7408H7.98163V26.8496H9.29626V45.0941H4.50195V26.8457Z" fill="black"/>
<path d="M37.1467 43.7525H39.3195V26.8496H40.6225V45.0902H35.8516V26.8457H37.1467V43.7486V43.7525Z" fill="black"/>
<path d="M42.4815 5.33201V22.3558H2.69922V5.32031H34.0983V6.59563H4.02166V21.0376H41.1123V6.62293H35.8888V5.33201H42.4854H42.4815Z" fill="black"/>
<path d="M23.0508 17.6211H24.3186V18.9042H23.0508V17.6211Z" fill="black"/>
<path d="M20.8398 17.6172H22.0921V18.9003H20.8398V17.6172Z" fill="black"/>
</svg>
