<svg width="49" height="43" viewBox="0 0 49 43" fill="none" xmlns="http://www.w3.org/2000/svg">
<g clip-path="url(#clip0_97_8608)">
<path d="M0 34.3345C0.0637943 34.0908 0.133569 33.849 0.187396 33.6052C0.456528 32.3983 0.982831 31.3094 1.80418 30.3902C4.45165 27.425 7.11904 24.4777 9.77847 21.5225C9.84226 21.4525 9.8921 21.3686 10.0017 21.2188C10.1792 21.8622 10.3486 22.3957 10.4583 22.9431C10.4822 23.063 10.3147 23.2429 10.2031 23.3668C9.02091 24.6855 7.83075 26.0003 6.64457 27.3151C6.54888 27.421 6.45718 27.5289 6.27377 27.7387C8.33313 27.427 10.1832 27.7447 11.9076 28.8017C12.42 28.2582 12.9223 27.7267 13.4427 27.1752C13.8713 27.4589 14.2919 27.7387 14.7464 28.0404C14.2142 28.6139 13.6978 29.1694 13.1576 29.7488C14.7684 31.3653 15.5937 33.2855 15.516 35.7093L16.8397 34.1667C16.8397 35.0159 16.8457 35.7412 16.8317 36.4666C16.8317 36.5605 16.74 36.6644 16.6702 36.7463C15.6356 37.9632 14.6408 39.216 13.5543 40.3809C11.3534 42.7387 8.6222 43.546 5.54811 42.6348C2.51589 41.7377 0.671834 39.6256 0.0917043 36.4686C0.0777493 36.3946 0.0338907 36.3247 0.00398714 36.2528V34.3345H0ZM13.9789 35.2857C13.9809 31.9088 11.1839 29.1514 7.75898 29.1534C4.35595 29.1534 1.54103 31.9328 1.53306 35.2997C1.52508 38.6545 4.33602 41.422 7.76695 41.4339C11.166 41.4459 13.9789 38.6625 13.9809 35.2857H13.9789Z" fill="black"/>
<path d="M18.3739 29.1582H19.901V29.6877C19.901 33.0606 19.901 36.4335 19.901 39.8063C19.901 40.9632 20.3695 41.4348 21.5238 41.4348C25.1441 41.4348 28.7644 41.4348 32.3848 41.4348H32.8871V28.3989H22.991C23.7087 27.8954 24.3965 27.3999 25.1022 26.9323C25.2318 26.8464 25.4372 26.8584 25.6066 26.8584C28.0467 26.8544 30.4869 26.8504 32.927 26.8624C33.228 26.8624 33.4234 26.7704 33.6168 26.5447C34.165 25.9012 34.7412 25.2818 35.397 24.5505C34.781 24.5505 34.2687 24.5505 33.7563 24.5505C33.4852 24.5505 33.2141 24.5585 32.943 24.5505C32.4565 24.5345 32.1495 24.2268 32.1535 23.7792C32.1575 23.3336 32.4685 23.0279 32.9609 23.0259C34.1092 23.0179 35.2575 23.0319 36.4058 23.0139C36.5892 23.0119 36.8304 22.946 36.9441 22.8181C40.0261 19.4053 43.0962 15.9825 46.1683 12.5597C46.1982 12.5257 46.2181 12.4817 46.3079 12.3379H37.7594C38.0106 11.7824 38.198 11.3288 38.4233 10.8972C38.4691 10.8093 38.6565 10.7533 38.7801 10.7533C41.2522 10.7533 43.7242 10.7374 46.1962 10.7753C47.8329 10.8013 48.9892 12.0401 48.9912 13.6826C48.9932 17.5031 48.9872 21.3235 48.9992 25.144C48.9992 25.5376 48.8915 25.8413 48.6383 26.141C44.2465 31.3762 39.8626 36.6173 35.4788 41.8604C34.8568 42.6037 34.0833 42.9754 33.1024 42.9734C29.1631 42.9614 25.2238 42.9694 21.2845 42.9674C19.5641 42.9674 18.3739 41.7705 18.3739 40.0441C18.3719 36.5753 18.3739 33.1065 18.3739 29.6378C18.3739 29.4819 18.3739 29.3281 18.3739 29.1602V29.1582ZM34.4481 33.2164C34.5458 33.1505 34.5877 33.1325 34.6176 33.1006C38.832 28.4349 43.0484 23.7712 47.2528 19.0956C47.3824 18.9497 47.4542 18.7019 47.4562 18.5001C47.4681 16.9815 47.4562 15.465 47.4502 13.9464C47.4502 13.8285 47.4302 13.7126 47.4103 13.5088C47.201 13.7346 47.0515 13.8944 46.9039 14.0583C46.1264 14.9255 45.349 15.7927 44.5695 16.6598C41.296 20.3045 38.0206 23.9491 34.7531 27.5997C34.6156 27.7535 34.4621 27.9713 34.4601 28.1611C34.4361 29.8216 34.4461 31.4821 34.4461 33.2184L34.4481 33.2164ZM34.4481 40.6395C34.6435 40.4217 34.7611 40.3019 34.8687 40.172C38.6067 35.7081 42.3008 31.2063 46.1065 26.8024C47.1133 25.6375 47.6914 24.4986 47.4781 22.962C47.4023 22.4245 47.4661 21.869 47.4661 21.2096C47.2568 21.4294 47.1352 21.5533 47.0196 21.6812C45.7676 23.0659 44.5176 24.4506 43.2677 25.8373C40.4248 28.9864 37.58 32.1354 34.7432 35.2905C34.6056 35.4444 34.4641 35.6642 34.4621 35.856C34.4401 37.4045 34.4501 38.9531 34.4501 40.6395H34.4481Z" fill="black"/>
<path d="M29.4205 4.36983e-06C33.7825 -0.00399191 36.9084 2.73346 37.4187 6.3501C37.7576 8.75586 37.1336 10.8679 35.5448 12.6982C32.058 16.7105 28.5613 20.7167 25.0845 24.741C23.4318 26.6532 21.3904 27.6683 18.8446 27.6203C15.3419 27.5524 12.0705 24.6291 11.58 21.1523C11.2152 18.5587 11.9409 16.3348 13.7092 14.4226C17.4152 10.4123 21.1073 6.38806 24.8094 2.3738C26.2468 0.81125 28.033 0.0259802 29.4205 4.36983e-06ZM13.0134 19.9095C13.0035 23.3063 15.7546 26.0857 19.1337 26.0857C22.4829 26.0857 25.252 23.2903 25.2619 19.8975C25.2699 16.5086 22.5028 13.7272 19.1277 13.7312C15.7386 13.7352 13.0254 16.4787 13.0134 19.9095ZM24.4426 14.3007C26.0893 15.9871 26.8648 17.9613 26.8528 20.2951C26.9764 20.2172 27.0402 20.1093 27.1199 20.0174C29.4983 17.2839 31.8706 14.5425 34.2649 11.821C35.2019 10.758 35.8119 9.56111 35.9415 8.14443C36.101 6.39006 35.5926 4.8435 34.4164 3.46678C31.0852 7.08541 27.7798 10.6761 24.4426 14.2987V14.3007ZM33.2262 2.47171C30.8858 0.939131 27.8496 1.35075 25.9497 3.41283C24.0897 5.43095 22.2317 7.44908 20.3737 9.4692C19.5563 10.3564 18.7429 11.2455 17.9415 12.1187C18.8546 12.1767 19.7696 12.1367 20.6388 12.3185C21.528 12.5044 22.3713 12.908 23.3102 13.2437C26.5518 9.72296 29.877 6.11232 33.2262 2.4737V2.47171Z" fill="black"/>
<path d="M26.4466 31.4587C27.2919 31.4587 28.1371 31.4548 28.9824 31.4587C29.5825 31.4627 29.8516 31.7365 29.8536 32.3439C29.8576 34.0543 29.8576 35.7647 29.8536 37.4751C29.8536 38.0826 29.5825 38.3583 28.9824 38.3583C27.26 38.3623 25.5375 38.3643 23.8151 38.3583C23.2449 38.3583 22.9718 38.0766 22.9698 37.4991C22.9658 35.7727 22.9658 34.0463 22.9698 32.3199C22.9698 31.7425 23.2449 31.4647 23.8151 31.4607C24.6922 31.4528 25.5694 31.4607 26.4466 31.4607V31.4587ZM28.3066 33.0253H24.5347V36.8038H28.3066V33.0253Z" fill="black"/>
<path d="M7.75816 38.7453C5.8224 38.7453 4.27539 37.2168 4.27539 35.3065C4.27539 33.3863 5.81443 31.8478 7.73822 31.8438C9.68993 31.8398 11.2848 33.4063 11.2629 35.3085C11.2409 37.2168 9.68196 38.7453 7.75816 38.7473V38.7453ZM9.68993 35.2866C9.68993 34.2355 8.8327 33.3843 7.76414 33.3763C6.70954 33.3683 5.83237 34.2255 5.8244 35.2766C5.81443 36.3516 6.69359 37.2248 7.77411 37.2128C8.83469 37.2028 9.68794 36.3456 9.68993 35.2886V35.2866Z" fill="black"/>
<path d="M15.6953 19.8631C15.6993 17.9409 17.2443 16.3983 19.1582 16.4043C21.0501 16.4103 22.5851 17.9828 22.5811 19.9091C22.5771 21.8233 21.0042 23.3998 19.1183 23.3818C17.2264 23.3638 15.6913 21.7853 15.6953 19.8631ZM19.0924 21.8073C20.135 21.8413 21.0162 21 21.0481 19.935C21.08 18.888 20.1908 17.9649 19.1342 17.9469C18.1434 17.9309 17.2603 18.8041 17.2264 19.8371C17.1925 20.8782 18.0398 21.7733 19.0924 21.8093V21.8073Z" fill="black"/>
</g>
<defs>
<clipPath id="clip0_97_8608">
<rect width="49" height="43" fill="white"/>
</clipPath>
</defs>
</svg>
