<svg width="161" height="238" viewBox="0 0 161 238" fill="none" xmlns="http://www.w3.org/2000/svg">
<path d="M46.8105 189.888C46.7082 189.024 46.2934 188.354 45.5661 187.876C44.8389 187.399 43.9468 187.16 42.89 187.16C42.1173 187.16 41.4411 187.285 40.8616 187.535C40.2877 187.785 39.8389 188.129 39.515 188.567C39.1968 189.004 39.0377 189.501 39.0377 190.058C39.0377 190.524 39.1485 190.925 39.3701 191.26C39.5974 191.589 39.8872 191.865 40.2394 192.086C40.5917 192.302 40.961 192.481 41.3474 192.623C41.7338 192.76 42.0889 192.871 42.4127 192.956L44.1855 193.433C44.64 193.552 45.1457 193.717 45.7025 193.927C46.265 194.138 46.8019 194.425 47.3133 194.788C47.8303 195.146 48.2565 195.606 48.5917 196.169C48.9269 196.731 49.0945 197.422 49.0945 198.24C49.0945 199.183 48.8474 200.035 48.3531 200.797C47.8644 201.558 47.1485 202.163 46.2053 202.612C45.2678 203.061 44.1286 203.285 42.7877 203.285C41.5377 203.285 40.4553 203.084 39.5406 202.68C38.6315 202.277 37.9156 201.714 37.3928 200.993C36.8758 200.271 36.5832 199.433 36.515 198.479H38.6968C38.7536 199.138 38.9752 199.683 39.3616 200.115C39.7536 200.541 40.248 200.859 40.8445 201.069C41.4468 201.274 42.0945 201.376 42.7877 201.376C43.5945 201.376 44.319 201.246 44.961 200.984C45.6031 200.717 46.1116 200.348 46.4866 199.876C46.8616 199.399 47.0491 198.842 47.0491 198.206C47.0491 197.626 46.8872 197.155 46.5633 196.791C46.2394 196.427 45.8133 196.132 45.2849 195.905C44.7565 195.677 44.1855 195.479 43.5718 195.308L41.4241 194.694C40.0605 194.302 38.9809 193.743 38.1855 193.015C37.39 192.288 36.9923 191.336 36.9923 190.16C36.9923 189.183 37.2565 188.331 37.7849 187.604C38.319 186.871 39.0349 186.302 39.9326 185.899C40.836 185.49 41.8445 185.285 42.9582 185.285C44.0832 185.285 45.0832 185.487 45.9582 185.89C46.8332 186.288 47.5264 186.834 48.0377 187.527C48.5548 188.22 48.8275 189.007 48.8559 189.888H46.8105ZM53.5924 207.888C53.2515 207.888 52.9475 207.859 52.6805 207.802C52.4134 207.751 52.2288 207.7 52.1265 207.649L52.6379 205.876C53.1265 206.001 53.5583 206.047 53.9333 206.013C54.3083 205.979 54.6407 205.811 54.9305 205.51C55.2259 205.214 55.4958 204.734 55.7401 204.069L56.1151 203.047L51.2742 189.888H53.4561L57.0697 200.319H57.2061L60.8197 189.888H63.0015L57.4447 204.888C57.1947 205.564 56.885 206.123 56.5157 206.567C56.1464 207.015 55.7174 207.348 55.2288 207.564C54.7458 207.78 54.2004 207.888 53.5924 207.888ZM74.9291 192.819L73.1222 193.331C73.0086 193.03 72.841 192.737 72.6194 192.453C72.4035 192.163 72.108 191.925 71.733 191.737C71.358 191.55 70.8779 191.456 70.2927 191.456C69.4916 191.456 68.824 191.64 68.2899 192.01C67.7615 192.373 67.4972 192.836 67.4972 193.399C67.4972 193.899 67.6791 194.294 68.0427 194.584C68.4063 194.873 68.9745 195.115 69.7472 195.308L71.6904 195.785C72.8609 196.069 73.733 196.504 74.3069 197.089C74.8808 197.669 75.1677 198.416 75.1677 199.331C75.1677 200.081 74.9518 200.751 74.52 201.342C74.0938 201.933 73.4972 202.399 72.7302 202.74C71.9632 203.081 71.0711 203.251 70.0541 203.251C68.7188 203.251 67.6137 202.961 66.7387 202.382C65.8637 201.802 65.3097 200.956 65.0768 199.842L66.9859 199.365C67.1677 200.069 67.5115 200.598 68.0171 200.95C68.5285 201.302 69.1961 201.479 70.02 201.479C70.9575 201.479 71.7018 201.28 72.2529 200.882C72.8097 200.479 73.0882 199.996 73.0882 199.433C73.0882 198.979 72.9291 198.598 72.6109 198.291C72.2927 197.979 71.8041 197.746 71.145 197.592L68.9632 197.081C67.7643 196.797 66.8836 196.356 66.3211 195.76C65.7643 195.157 65.4859 194.405 65.4859 193.501C65.4859 192.763 65.6933 192.109 66.108 191.541C66.5285 190.973 67.0995 190.527 67.8211 190.203C68.5484 189.879 69.3722 189.717 70.2927 189.717C71.5882 189.717 72.6052 190.001 73.3438 190.569C74.0882 191.138 74.6166 191.888 74.9291 192.819ZM83.8886 189.888V191.592H77.1045V189.888H83.8886ZM79.0818 186.751H81.0931V199.229C81.0931 199.797 81.1755 200.223 81.3403 200.507C81.5107 200.785 81.7267 200.973 81.988 201.069C82.2551 201.16 82.5363 201.206 82.8318 201.206C83.0534 201.206 83.2352 201.194 83.3772 201.172C83.5193 201.143 83.6329 201.121 83.7181 201.104L84.1272 202.91C83.9909 202.961 83.8005 203.013 83.5562 203.064C83.3119 203.121 83.0022 203.149 82.6272 203.149C82.059 203.149 81.5022 203.027 80.9568 202.782C80.417 202.538 79.9681 202.166 79.6102 201.666C79.2579 201.166 79.0818 200.535 79.0818 199.774V186.751ZM92.2622 203.251C91.0008 203.251 89.9127 202.973 88.998 202.416C88.0889 201.854 87.3872 201.069 86.8928 200.064C86.4042 199.052 86.1599 197.876 86.1599 196.535C86.1599 195.194 86.4042 194.013 86.8928 192.99C87.3872 191.961 88.0747 191.16 88.9553 190.586C89.8417 190.007 90.8758 189.717 92.0576 189.717C92.7394 189.717 93.4127 189.831 94.0775 190.058C94.7423 190.285 95.3474 190.655 95.8928 191.166C96.4383 191.672 96.873 192.342 97.1968 193.177C97.5207 194.013 97.6826 195.041 97.6826 196.263V197.115H87.5917V195.376H95.6372C95.6372 194.638 95.4894 193.979 95.194 193.399C94.9042 192.819 94.4894 192.362 93.9497 192.027C93.4156 191.692 92.7849 191.524 92.0576 191.524C91.2565 191.524 90.5633 191.723 89.9781 192.121C89.3985 192.513 88.9525 193.024 88.64 193.655C88.3275 194.285 88.1713 194.961 88.1713 195.683V196.842C88.1713 197.831 88.3417 198.669 88.6826 199.356C89.0292 200.038 89.5093 200.558 90.123 200.916C90.7366 201.268 91.4497 201.444 92.2622 201.444C92.7906 201.444 93.2678 201.371 93.694 201.223C94.1258 201.069 94.498 200.842 94.8105 200.541C95.123 200.234 95.3644 199.854 95.5349 199.399L97.4781 199.944C97.2735 200.604 96.9298 201.183 96.4468 201.683C95.9639 202.177 95.3673 202.564 94.657 202.842C93.9468 203.115 93.1485 203.251 92.2622 203.251ZM100.742 202.979V189.888H102.685V191.933H102.856C103.129 191.234 103.569 190.692 104.177 190.305C104.785 189.913 105.515 189.717 106.367 189.717C107.231 189.717 107.95 189.913 108.524 190.305C109.103 190.692 109.555 191.234 109.879 191.933H110.015C110.35 191.257 110.853 190.72 111.524 190.322C112.194 189.919 112.998 189.717 113.935 189.717C115.106 189.717 116.063 190.084 116.808 190.817C117.552 191.544 117.924 192.677 117.924 194.217V202.979H115.913V194.217C115.913 193.251 115.649 192.561 115.12 192.146C114.592 191.731 113.97 191.524 113.254 191.524C112.333 191.524 111.62 191.802 111.114 192.359C110.609 192.91 110.356 193.609 110.356 194.456V202.979H108.31V194.013C108.31 193.268 108.069 192.669 107.586 192.214C107.103 191.754 106.481 191.524 105.72 191.524C105.197 191.524 104.708 191.663 104.254 191.942C103.805 192.22 103.441 192.606 103.163 193.101C102.89 193.589 102.754 194.155 102.754 194.797V202.979H100.742ZM23.406 214.524V231.979H21.2923V214.524H23.406ZM29.3825 224.104V231.979H27.3712V218.888H29.3144V220.933H29.4848C29.7916 220.268 30.2575 219.734 30.8825 219.331C31.5075 218.922 32.3144 218.717 33.303 218.717C34.1894 218.717 34.9649 218.899 35.6297 219.263C36.2945 219.621 36.8115 220.166 37.1808 220.899C37.5502 221.626 37.7348 222.547 37.7348 223.66V231.979H35.7235V223.797C35.7235 222.768 35.4564 221.967 34.9223 221.393C34.3882 220.814 33.6553 220.524 32.7235 220.524C32.0814 220.524 31.5075 220.663 31.0019 220.942C30.5019 221.22 30.107 221.626 29.8172 222.16C29.5274 222.694 29.3825 223.342 29.3825 224.104ZM47.1034 218.888V220.592H40.3193V218.888H47.1034ZM42.2966 215.751H44.308V228.229C44.308 228.797 44.3904 229.223 44.5551 229.507C44.7256 229.785 44.9415 229.973 45.2029 230.069C45.4699 230.16 45.7512 230.206 46.0466 230.206C46.2682 230.206 46.45 230.194 46.5921 230.172C46.7341 230.143 46.8477 230.121 46.933 230.104L47.3421 231.91C47.2057 231.961 47.0154 232.013 46.771 232.064C46.5267 232.121 46.2171 232.149 45.8421 232.149C45.2739 232.149 44.7171 232.027 44.1716 231.782C43.6318 231.538 43.183 231.166 42.825 230.666C42.4727 230.166 42.2966 229.535 42.2966 228.774V215.751ZM55.477 232.251C54.2156 232.251 53.1276 231.973 52.2128 231.416C51.3037 230.854 50.602 230.069 50.1077 229.064C49.6191 228.052 49.3747 226.876 49.3747 225.535C49.3747 224.194 49.6191 223.013 50.1077 221.99C50.602 220.961 51.2895 220.16 52.1702 219.586C53.0566 219.007 54.0906 218.717 55.2725 218.717C55.9543 218.717 56.6276 218.831 57.2923 219.058C57.9571 219.285 58.5622 219.655 59.1077 220.166C59.6531 220.672 60.0878 221.342 60.4117 222.177C60.7355 223.013 60.8975 224.041 60.8975 225.263V226.115H50.8066V224.376H58.852C58.852 223.638 58.7043 222.979 58.4088 222.399C58.1191 221.819 57.7043 221.362 57.1645 221.027C56.6304 220.692 55.9997 220.524 55.2725 220.524C54.4713 220.524 53.7781 220.723 53.1929 221.121C52.6134 221.513 52.1673 222.024 51.8548 222.655C51.5423 223.285 51.3861 223.961 51.3861 224.683V225.842C51.3861 226.831 51.5566 227.669 51.8975 228.356C52.2441 229.038 52.7242 229.558 53.3378 229.916C53.9514 230.268 54.6645 230.444 55.477 230.444C56.0054 230.444 56.4827 230.371 56.9088 230.223C57.3406 230.069 57.7128 229.842 58.0253 229.541C58.3378 229.234 58.5793 228.854 58.7497 228.399L60.6929 228.944C60.4884 229.604 60.1446 230.183 59.6617 230.683C59.1787 231.177 58.5821 231.564 57.8719 231.842C57.1617 232.115 56.3634 232.251 55.477 232.251ZM69.2412 237.16C68.2696 237.16 67.4344 237.035 66.7355 236.785C66.0367 236.541 65.4543 236.217 64.9884 235.814C64.5281 235.416 64.1617 234.99 63.8889 234.535L65.4912 233.41C65.673 233.649 65.9031 233.922 66.1816 234.229C66.46 234.541 66.8406 234.811 67.3236 235.038C67.8122 235.271 68.4514 235.388 69.2412 235.388C70.298 235.388 71.1702 235.132 71.8577 234.621C72.5452 234.109 72.8889 233.308 72.8889 232.217V229.558H72.7185C72.5708 229.797 72.3605 230.092 72.0878 230.444C71.8208 230.791 71.4344 231.101 70.9287 231.373C70.4287 231.64 69.7526 231.774 68.9003 231.774C67.8435 231.774 66.8946 231.524 66.0537 231.024C65.2185 230.524 64.5566 229.797 64.0679 228.842C63.585 227.888 63.3435 226.729 63.3435 225.365C63.3435 224.024 63.5793 222.856 64.0509 221.862C64.5225 220.862 65.1787 220.089 66.0196 219.544C66.8605 218.993 67.8321 218.717 68.9344 218.717C69.7867 218.717 70.4628 218.859 70.9628 219.143C71.4685 219.422 71.8548 219.74 72.1219 220.098C72.3946 220.45 72.6048 220.74 72.7526 220.967H72.9571V218.888H74.9003V232.354C74.9003 233.479 74.6446 234.393 74.1333 235.098C73.6276 235.808 72.9458 236.328 72.0878 236.657C71.2355 236.993 70.2867 237.16 69.2412 237.16ZM69.173 229.967C69.9798 229.967 70.6617 229.782 71.2185 229.413C71.7753 229.044 72.1986 228.513 72.4884 227.819C72.7781 227.126 72.923 226.297 72.923 225.331C72.923 224.388 72.781 223.555 72.4969 222.834C72.2128 222.112 71.7923 221.547 71.2355 221.138C70.6787 220.729 69.9912 220.524 69.173 220.524C68.3208 220.524 67.6105 220.74 67.0423 221.172C66.4798 221.604 66.0566 222.183 65.7725 222.91C65.4941 223.638 65.3548 224.444 65.3548 225.331C65.3548 226.24 65.4969 227.044 65.781 227.743C66.0708 228.436 66.4969 228.981 67.0594 229.379C67.6276 229.771 68.3321 229.967 69.173 229.967ZM78.5821 231.979V218.888H80.5253V220.865H80.6617C80.9003 220.217 81.3321 219.692 81.9571 219.288C82.5821 218.885 83.2867 218.683 84.0708 218.683C84.2185 218.683 84.4031 218.686 84.6247 218.692C84.8463 218.697 85.0139 218.706 85.1276 218.717V220.763C85.0594 220.746 84.9031 220.72 84.6588 220.686C84.4202 220.646 84.1673 220.626 83.9003 220.626C83.2639 220.626 82.6958 220.76 82.1958 221.027C81.7014 221.288 81.3094 221.652 81.0196 222.118C80.7355 222.578 80.5935 223.104 80.5935 223.694V231.979H78.5821ZM91.3641 232.285C90.5345 232.285 89.7817 232.129 89.1056 231.817C88.4294 231.498 87.8925 231.041 87.4948 230.444C87.097 229.842 86.8982 229.115 86.8982 228.263C86.8982 227.513 87.0459 226.905 87.3414 226.439C87.6368 225.967 88.0317 225.598 88.526 225.331C89.0203 225.064 89.5658 224.865 90.1624 224.734C90.7646 224.598 91.3698 224.49 91.9777 224.41C92.7732 224.308 93.4181 224.231 93.9124 224.18C94.4124 224.123 94.776 224.03 95.0033 223.899C95.2362 223.768 95.3527 223.541 95.3527 223.217V223.149C95.3527 222.308 95.1226 221.655 94.6624 221.189C94.2078 220.723 93.5175 220.49 92.5914 220.49C91.6311 220.49 90.8783 220.7 90.3328 221.121C89.7874 221.541 89.4039 221.99 89.1823 222.467L87.2732 221.785C87.6141 220.99 88.0686 220.371 88.6368 219.927C89.2107 219.479 89.8357 219.166 90.5118 218.99C91.1936 218.808 91.8641 218.717 92.5232 218.717C92.9436 218.717 93.4266 218.768 93.972 218.871C94.5232 218.967 95.0544 219.169 95.5658 219.476C96.0828 219.782 96.5118 220.246 96.8527 220.865C97.1936 221.484 97.3641 222.314 97.3641 223.354V231.979H95.3527V230.206H95.2504C95.1141 230.49 94.8868 230.794 94.5686 231.118C94.2504 231.442 93.8271 231.717 93.2987 231.944C92.7703 232.172 92.1254 232.285 91.3641 232.285ZM91.6709 230.479C92.4664 230.479 93.1368 230.322 93.6823 230.01C94.2334 229.697 94.6482 229.294 94.9266 228.8C95.2107 228.305 95.3527 227.785 95.3527 227.24V225.399C95.2675 225.501 95.08 225.595 94.7902 225.68C94.5061 225.76 94.1766 225.831 93.8016 225.893C93.4323 225.95 93.0715 226.001 92.7192 226.047C92.3726 226.086 92.0914 226.121 91.8754 226.149C91.3527 226.217 90.8641 226.328 90.4095 226.481C89.9607 226.629 89.597 226.854 89.3186 227.155C89.0459 227.45 88.9095 227.854 88.9095 228.365C88.9095 229.064 89.1681 229.592 89.6851 229.95C90.2078 230.302 90.8698 230.479 91.6709 230.479ZM106.728 218.888V220.592H99.9443V218.888H106.728ZM101.922 215.751H103.933V228.229C103.933 228.797 104.015 229.223 104.18 229.507C104.351 229.785 104.566 229.973 104.828 230.069C105.095 230.16 105.376 230.206 105.672 230.206C105.893 230.206 106.075 230.194 106.217 230.172C106.359 230.143 106.473 230.121 106.558 230.104L106.967 231.91C106.831 231.961 106.64 232.013 106.396 232.064C106.152 232.121 105.842 232.149 105.467 232.149C104.899 232.149 104.342 232.027 103.797 231.782C103.257 231.538 102.808 231.166 102.45 230.666C102.098 230.166 101.922 229.535 101.922 228.774V215.751ZM109.754 231.979V218.888H111.765V231.979H109.754ZM110.777 216.706C110.385 216.706 110.047 216.572 109.763 216.305C109.484 216.038 109.345 215.717 109.345 215.342C109.345 214.967 109.484 214.646 109.763 214.379C110.047 214.112 110.385 213.979 110.777 213.979C111.169 213.979 111.504 214.112 111.782 214.379C112.066 214.646 112.209 214.967 112.209 215.342C112.209 215.717 112.066 216.038 111.782 216.305C111.504 216.572 111.169 216.706 110.777 216.706ZM120.767 232.251C119.586 232.251 118.549 231.97 117.657 231.407C116.77 230.845 116.077 230.058 115.577 229.047C115.083 228.035 114.836 226.854 114.836 225.501C114.836 224.138 115.083 222.947 115.577 221.93C116.077 220.913 116.77 220.123 117.657 219.561C118.549 218.998 119.586 218.717 120.767 218.717C121.949 218.717 122.983 218.998 123.87 219.561C124.762 220.123 125.455 220.913 125.949 221.93C126.449 222.947 126.699 224.138 126.699 225.501C126.699 226.854 126.449 228.035 125.949 229.047C125.455 230.058 124.762 230.845 123.87 231.407C122.983 231.97 121.949 232.251 120.767 232.251ZM120.767 230.444C121.665 230.444 122.404 230.214 122.983 229.754C123.563 229.294 123.992 228.689 124.27 227.939C124.549 227.189 124.688 226.376 124.688 225.501C124.688 224.626 124.549 223.811 124.27 223.055C123.992 222.3 123.563 221.689 122.983 221.223C122.404 220.757 121.665 220.524 120.767 220.524C119.87 220.524 119.131 220.757 118.552 221.223C117.972 221.689 117.543 222.3 117.265 223.055C116.986 223.811 116.847 224.626 116.847 225.501C116.847 226.376 116.986 227.189 117.265 227.939C117.543 228.689 117.972 229.294 118.552 229.754C119.131 230.214 119.87 230.444 120.767 230.444ZM131.781 224.104V231.979H129.77V218.888H131.713V220.933H131.883C132.19 220.268 132.656 219.734 133.281 219.331C133.906 218.922 134.713 218.717 135.701 218.717C136.588 218.717 137.363 218.899 138.028 219.263C138.693 219.621 139.21 220.166 139.579 220.899C139.949 221.626 140.133 222.547 140.133 223.66V231.979H138.122V223.797C138.122 222.768 137.855 221.967 137.321 221.393C136.787 220.814 136.054 220.524 135.122 220.524C134.48 220.524 133.906 220.663 133.4 220.942C132.9 221.22 132.505 221.626 132.216 222.16C131.926 222.694 131.781 223.342 131.781 224.104Z" fill="black"/>
<circle cx="80.5743" cy="80.5647" r="78.0022" fill="white" stroke="#777100" stroke-width="4"/>
<circle cx="80.5728" cy="80.5649" r="69.3657" fill="white"/>
<path d="M53.8257 67.3562V61.2961C52.7746 61.2961 51.7126 61.2632 50.6615 61.3289C50.4809 61.3399 50.2729 61.7614 50.1743 62.0296C49.397 64.0332 47.4974 65.3635 45.4007 65.3525C43.2876 65.3416 41.3825 63.9894 40.6599 61.9968C39.7238 59.4129 41.0158 56.5608 43.5832 55.559C46.1781 54.5462 49.1178 55.7944 50.0922 58.4275C50.3659 59.1666 50.7218 59.3144 51.4061 59.287C52.4517 59.2377 53.4973 59.2651 54.5429 59.276C55.583 59.287 55.8786 59.5771 55.8841 60.6392C55.895 62.5278 55.8841 64.4164 55.8841 66.2996C55.8841 66.6117 55.8841 66.9237 55.8841 67.3562C56.8366 67.3562 57.6961 67.3562 58.5555 67.3562C59.9186 67.3562 61.2872 67.3562 62.6503 67.3562C63.3565 67.3562 63.9423 67.5478 63.997 68.3799C64.0408 69.0258 63.5372 69.3981 62.6668 69.3981C60.7234 69.4036 58.7745 69.3981 56.8311 69.3981C56.5465 69.3981 56.2618 69.3981 55.9333 69.3981V75.491C56.4643 75.491 56.9789 75.491 57.488 75.491C58.145 75.491 58.5665 75.8304 58.5774 76.4819C58.5884 77.1388 58.1504 77.4782 57.5099 77.5001C56.6997 77.5275 55.8841 77.5275 55.0739 77.5001C54.198 77.4727 53.8914 77.1443 53.8859 76.2465C53.875 74.013 53.8859 71.7794 53.8859 69.5569C50.8039 68.6317 47.8149 70.7065 47.8094 73.7995C47.7875 84.0529 47.7985 94.3008 47.8039 104.554C47.8039 104.751 47.8368 104.948 47.8587 105.178H113.343V104.094C113.343 94.3665 113.25 84.6332 113.392 74.9107C113.447 71.2484 111.388 68.9273 107.255 69.4528C107.255 69.7375 107.255 70.0441 107.255 70.3451C107.255 72.2885 107.261 74.2374 107.255 76.1808C107.255 77.1716 106.943 77.4782 105.952 77.5001C105.257 77.5165 104.556 77.5165 103.861 77.5001C103.007 77.4837 102.487 77.0786 102.553 76.449C102.629 75.6936 103.144 75.4472 103.845 75.4801C104.277 75.4965 104.704 75.4801 105.191 75.4801V69.3871C103.106 69.3871 101.08 69.3871 99.0492 69.3871C98.7864 69.3871 98.5291 69.3871 98.2664 69.3871C97.6259 69.3817 97.177 69.0915 97.1387 68.4291C97.1003 67.7065 97.5821 67.3945 98.239 67.3507C98.7864 67.3178 99.3393 67.3397 99.8923 67.3397C101.633 67.3397 103.368 67.3397 105.246 67.3397C105.246 66.962 105.246 66.6554 105.246 66.3489C105.246 64.4055 105.235 62.4566 105.252 60.5132C105.263 59.5717 105.58 59.2706 106.522 59.2596C107.682 59.2487 108.843 59.2377 110.003 59.2596C110.502 59.2706 110.748 59.1501 110.934 58.6246C111.81 56.1228 114.29 54.7488 116.819 55.3071C119.206 55.8327 120.963 58.1593 120.777 60.5516C120.574 63.1628 118.593 65.1336 115.97 65.3252C113.835 65.4839 111.728 64.1099 110.978 61.9804C110.77 61.3946 110.502 61.2249 109.927 61.2577C109.067 61.3015 108.202 61.2687 107.31 61.2687C107.283 61.5479 107.255 61.7121 107.255 61.8818C107.255 63.65 107.255 65.4182 107.255 67.3343C107.732 67.3343 108.148 67.3343 108.569 67.3343C112.68 67.3835 115.385 70.0879 115.39 74.1881C115.396 85.6295 115.396 97.0709 115.39 108.512C115.39 112.612 112.653 115.344 108.564 115.35C103.976 115.355 99.3886 115.35 94.8011 115.35H93.8157V121.437C95.031 121.437 96.2135 121.437 97.396 121.437C97.7135 121.437 98.1021 121.35 98.3375 121.492C98.666 121.694 99.1094 122.089 99.093 122.379C99.0766 122.729 98.6879 123.134 98.354 123.375C98.135 123.528 97.7354 123.441 97.4179 123.441C86.179 123.441 74.9457 123.441 63.7069 123.441C62.4971 123.441 61.9989 123.151 61.9934 122.444C61.9879 121.738 62.4861 121.437 63.6905 121.437C64.8784 121.437 66.0609 121.437 67.3145 121.437V115.35H66.3291C61.8018 115.35 57.2691 115.35 52.7418 115.35C48.4663 115.35 45.762 112.662 45.762 108.403C45.762 97.0161 45.762 85.635 45.762 74.2483C45.762 70.0769 48.4499 67.3726 52.6049 67.3288C53.0046 67.3288 53.4042 67.3288 53.8476 67.3288L53.8257 67.3562ZM113.392 107.302H47.7547C47.7985 108.2 47.7383 109.06 47.9025 109.87C48.3514 112.065 50.1032 113.33 52.5666 113.33C70.5936 113.33 88.6151 113.33 106.642 113.33C107.452 113.33 108.268 113.346 109.078 113.319C111.022 113.264 112.686 111.994 113.135 110.105C113.343 109.224 113.31 108.282 113.386 107.302H113.392ZM91.6534 121.426V115.443H69.4604V121.426H91.6534ZM115.675 63.3106C117.355 63.3216 118.718 61.9804 118.724 60.2997C118.735 58.6246 117.383 57.2451 115.719 57.2286C114.071 57.2122 112.664 58.5972 112.647 60.2505C112.631 61.9037 114.005 63.2942 115.675 63.3052V63.3106ZM45.4281 63.3106C47.0978 63.2997 48.4718 61.9201 48.4609 60.2614C48.4499 58.6082 47.043 57.2232 45.3952 57.2286C43.731 57.2396 42.3789 58.6136 42.3843 60.2888C42.3898 61.9694 43.7475 63.3161 45.4281 63.3052V63.3106Z" fill="black"/>
<path d="M96.8835 64.936C96.6919 65.2754 96.5496 65.5874 96.3525 65.8611C95.7996 66.6056 94.8744 67.2845 94.754 68.0837C94.639 68.8392 95.5149 69.6932 95.6901 70.5581C96.035 72.2442 97.0259 72.8737 98.6408 72.7916C98.9528 72.7752 99.336 72.7697 99.5769 72.9285C99.9437 73.1748 100.458 73.558 100.48 73.9084C100.573 75.6164 100.54 77.3353 100.518 79.0433C100.513 79.64 100.163 80.0013 99.5441 80.078C98.8269 80.171 98.1098 80.3079 97.3872 80.3572C96.9109 80.39 96.7138 80.5488 96.5551 81.0305C96.1554 82.2677 95.6792 83.483 95.1591 84.6764C94.9675 85.1144 94.962 85.4045 95.2741 85.7603C95.6956 86.2421 96.0569 86.7731 96.4565 87.2713C96.9164 87.8461 96.8835 88.3771 96.3689 88.8917C95.2358 90.0194 94.108 91.1471 92.9803 92.2803C92.4603 92.8003 91.8526 92.9043 91.3763 92.3624C90.1446 90.9609 88.9238 90.9664 87.4458 92.012C86.7615 92.4938 85.8199 92.6033 85.0316 92.9591C84.7633 93.0795 84.5498 93.4244 84.413 93.7145C84.2926 93.9664 84.3145 94.2784 84.2707 94.5685C84.0955 95.8021 83.371 96.4189 82.0973 96.4189C80.8492 96.4189 79.601 96.3915 78.3529 96.4298C77.4934 96.4572 76.9296 96.0849 76.9734 95.2528C77.0555 93.5996 76.3602 92.762 74.7344 92.4335C73.8804 92.2638 73.0702 91.7602 72.3092 91.2949C71.7782 90.9664 71.4388 91.0321 71.0173 91.4153C70.6122 91.7876 70.1523 92.0996 69.7144 92.4335C69.1943 92.8277 68.6907 92.7949 68.2308 92.335C67.0593 91.169 65.8878 89.9975 64.7218 88.8205C64.262 88.3552 64.2565 87.857 64.6452 87.3369C65.1652 86.6417 65.9973 85.9848 66.1013 85.2348C66.1999 84.5286 65.5046 83.7239 65.1816 82.952C65.0119 82.5524 64.7984 82.1418 64.7711 81.7203C64.6944 80.6309 64.0813 80.2477 63.085 80.2641C63.0576 80.2641 63.0302 80.2532 62.9974 80.2532C60.2055 80.0725 60.6653 79.7002 60.6379 77.5872C60.6215 76.454 60.6489 75.3208 60.6379 74.1876C60.627 73.3719 60.9993 72.9613 61.8204 72.8847C62.7127 72.8026 63.7912 72.923 64.4426 72.4632C65.0612 72.0252 65.2364 70.9523 65.6086 70.164C65.6305 70.1092 65.6524 70.0545 65.6908 70.0107C66.8185 68.6914 66.3805 67.6458 65.313 66.4688C63.9609 64.9688 64.0485 64.8922 65.4827 63.4579C66.3641 62.5765 67.2674 61.7116 68.1268 60.8028C68.7235 60.1733 69.2983 60.1623 69.9553 60.6934C70.6286 61.2408 71.3403 61.7499 72.0081 62.3083C72.364 62.6039 72.6486 62.6586 73.0921 62.4451C74.0282 61.9962 74.9971 61.5857 75.9825 61.2682C76.4697 61.1149 76.623 60.8631 76.6723 60.4251C76.7763 59.5 76.9022 58.5803 77.0062 57.6606C77.0883 56.8777 77.5317 56.5493 78.2927 56.5548C79.831 56.5657 81.3693 56.5657 82.9075 56.5548C83.7725 56.5493 84.1666 56.9708 84.2433 57.8139C84.3254 58.7116 84.4239 59.604 84.5936 60.4853C84.6429 60.7536 84.8947 61.0875 85.1411 61.2025C86.1374 61.6623 87.1611 62.0729 88.1958 62.4397C88.464 62.5327 88.88 62.5163 89.1045 62.363C89.8928 61.8265 90.6264 61.2025 91.3873 60.6167C91.9566 60.1733 92.4986 60.2007 93.0186 60.7153C94.1464 61.8484 95.285 62.9652 96.3963 64.1093C96.6043 64.3228 96.7193 64.6294 96.9054 64.9414L96.8835 64.936ZM94.3599 87.9282C93.8836 87.3041 93.4292 86.7019 92.9639 86.1162C92.5971 85.6563 92.526 85.191 92.8435 84.6764C93.8343 83.0779 94.4693 81.348 94.8033 79.5032C94.9182 78.8572 95.3179 78.5616 95.931 78.4904C96.5934 78.4138 97.2613 78.3755 97.9182 78.2441C98.1262 78.2003 98.4328 77.932 98.4437 77.7514C98.4985 76.7989 98.4711 75.8463 98.4711 74.8445C97.5404 74.7131 96.6919 74.5489 95.827 74.4887C95.0715 74.4339 94.7485 74.0453 94.4803 73.3664C93.8945 71.8938 93.2486 70.4377 92.526 69.0308C92.1811 68.3629 92.1537 67.8702 92.63 67.2954C93.2321 66.5618 93.796 65.7954 94.2394 65.2261L91.9238 62.7298C91.1519 63.3265 90.3636 63.9177 89.6027 64.5418C89.0552 64.9907 88.5516 64.9524 87.922 64.6677C86.5261 64.0437 85.1028 63.4798 83.663 62.9652C83.0335 62.7408 82.705 62.4068 82.6338 61.739C82.5298 60.7098 82.3711 59.6861 82.2342 58.6514H78.873C78.7361 59.7353 78.5938 60.77 78.4733 61.8046C78.4022 62.4342 78.0682 62.7462 77.477 62.9597C76.0373 63.4798 74.6085 64.0272 73.218 64.6568C72.5501 64.9579 72.03 64.9743 71.4662 64.5035C70.7107 63.8794 69.9224 63.2937 69.1779 62.7189L66.7801 65.1057C67.3495 65.8392 67.9188 66.6002 68.521 67.3447C68.9425 67.8647 68.9261 68.3246 68.625 68.9322C67.8914 70.4048 67.229 71.9103 66.5995 73.4267C66.3532 74.0234 66.0466 74.4066 65.3678 74.4723C64.4809 74.5598 63.5941 74.7076 62.6744 74.8281V78.162C63.4737 78.266 64.2729 78.3809 65.0722 78.474C65.7948 78.5561 66.1287 78.9284 66.3641 79.6455C66.9006 81.3152 67.5466 82.9575 68.2308 84.5779C68.4881 85.1855 68.5265 85.6618 68.1104 86.1764C67.6396 86.7567 67.1962 87.3534 66.8404 87.8187L69.1889 90.2712C69.6487 89.9154 70.1578 89.5705 70.6067 89.1654C71.2527 88.5796 71.8275 88.6672 72.5665 89.0723C73.853 89.784 75.1668 90.5942 76.5683 90.9007C78.1504 91.2511 78.8182 91.9901 78.7744 93.523C78.7744 93.5503 78.7854 93.5832 78.7854 93.6105C78.7252 94.2784 79.0646 94.4864 79.6777 94.3988C79.8474 94.3769 80.028 94.3988 80.1978 94.3988C82.2068 94.3988 82.2178 94.3988 82.4751 92.4117C82.5627 91.7493 82.8692 91.3387 83.5261 91.2073C85.4312 90.8296 87.1721 90.0632 88.7651 88.9628C89.3235 88.5796 89.8381 88.6289 90.3526 89.0504C90.8891 89.4884 91.442 89.8989 91.9895 90.3259L94.3544 87.9336L94.3599 87.9282Z" fill="#777100"/>
<path d="M100.901 48.4577C101.706 47.3519 102.237 46.3227 103.042 45.5837C104.657 44.1001 107.093 44.0125 108.949 45.1785C110.788 46.3391 111.691 48.6055 111.149 50.7076C110.591 52.8645 108.773 54.3535 106.491 54.5232C104.427 54.6765 102.314 53.3627 101.569 51.3372C101.317 50.6474 101.005 50.4011 100.283 50.4449C99.2699 50.5106 98.2517 50.4941 97.2335 50.4449C96.6039 50.4175 96.4452 50.6584 96.4561 51.2496C96.4835 53.5433 96.4671 55.8371 96.4671 58.1308C96.4671 58.3936 96.4671 58.6564 96.4561 58.9137C96.4233 59.5377 96.062 59.91 95.4653 59.91C94.8741 59.91 94.4799 59.5542 94.4744 58.9191C94.4635 55.755 94.458 52.5908 94.4799 49.4212C94.4799 48.6985 94.9945 48.4467 95.6624 48.4467C97.4908 48.4467 99.3192 48.4467 100.89 48.4467L100.901 48.4577ZM106.217 52.4923C107.887 52.5032 109.272 51.1401 109.288 49.4814C109.304 47.8336 107.925 46.4267 106.266 46.4103C104.607 46.3939 103.217 47.7624 103.206 49.4321C103.195 51.1073 104.547 52.4813 106.211 52.4923H106.217Z" fill="black"/>
<path d="M59.9471 48.4572C61.666 48.4572 63.4068 48.4572 65.1477 48.4572C66.3904 48.4572 66.6477 48.709 66.6477 49.9189C66.6477 52.8203 66.6422 55.7271 66.6531 58.6285C66.6531 59.3347 66.4396 59.8438 65.6787 59.9205C65.0491 59.9862 64.6659 59.4716 64.644 58.6066C64.6386 58.3767 64.644 58.1413 64.644 57.9114C64.644 55.7052 64.6221 53.4991 64.655 51.2929C64.6659 50.6469 64.4798 50.428 63.8229 50.4499C62.52 50.4991 61.2116 50.4663 59.9306 50.4663C58.4361 53.7509 56.4325 55.0045 53.7063 54.3969C51.4564 53.8987 49.8086 51.8075 49.8086 49.4535C49.8086 47.0996 51.4509 45.0248 53.7118 44.5157C56.3997 43.908 58.3814 45.1562 59.9306 48.4572H59.9471ZM57.9106 49.4152C57.8887 47.751 56.4928 46.3879 54.834 46.4153C53.1753 46.4426 51.8067 47.8496 51.8341 49.5028C51.8615 51.167 53.252 52.5192 54.9216 52.4973C56.5913 52.4754 57.9325 51.0958 57.9161 49.4152H57.9106Z" fill="black"/>
<path d="M81.5811 47.7306C81.5811 49.3565 81.5811 51.0043 81.5811 52.6575C81.5811 52.9203 81.5921 53.1831 81.5756 53.4404C81.5318 54.0754 81.1979 54.5133 80.5519 54.5079C79.9005 54.5079 79.5501 54.0645 79.5447 53.4294C79.5228 52.0663 79.5337 50.7032 79.5337 49.3401C79.5337 48.82 79.5337 48.3 79.5337 47.7087C77.8969 47.2325 76.6159 46.3183 75.9206 44.7252C75.4389 43.6249 75.3677 42.4862 75.6853 41.3257C76.3148 39.0429 78.4169 37.5593 80.8694 37.6633C83.207 37.7619 85.1832 39.552 85.5719 41.9278C85.988 44.4734 84.592 46.5208 81.5866 47.7306H81.5811ZM80.5355 45.7216C82.2435 45.727 83.5792 44.3968 83.5792 42.6943C83.5792 41.0082 82.1942 39.6341 80.53 39.6505C78.8877 39.6669 77.552 41.0082 77.5301 42.6559C77.5082 44.3585 78.833 45.7106 80.5355 45.7161V45.7216Z" fill="black"/>
<path d="M71.508 77.0065C71.5409 72.0522 75.6357 68.0012 80.5899 68.0176C85.5825 68.0395 89.6554 72.1781 89.6007 77.1653C89.5405 82.1195 85.4183 86.1651 80.475 86.1158C75.5207 86.0665 71.4752 81.9553 71.508 77.0065ZM73.5609 77.0558C73.5609 80.9261 76.6429 84.0465 80.5023 84.0629C84.4165 84.0848 87.5478 80.9809 87.5533 77.0777C87.5533 73.2073 84.4767 70.0924 80.6118 70.0705C76.7032 70.0486 73.5664 73.1526 73.5609 77.0558Z" fill="#777100"/>
</svg>
