<svg width="161" height="238" viewBox="0 0 161 238" fill="none" xmlns="http://www.w3.org/2000/svg">
<path d="M37.6103 187.399V185.524H50.7012V187.399H45.2125V202.979H43.0989V187.399H37.6103ZM55.7615 203.285C54.932 203.285 54.1792 203.129 53.503 202.817C52.8269 202.498 52.29 202.041 51.8922 201.444C51.4945 200.842 51.2956 200.115 51.2956 199.263C51.2956 198.513 51.4434 197.905 51.7388 197.439C52.0343 196.967 52.4292 196.598 52.9235 196.331C53.4178 196.064 53.9632 195.865 54.5598 195.734C55.1621 195.598 55.7672 195.49 56.3752 195.41C57.1706 195.308 57.8155 195.231 58.3098 195.18C58.8098 195.123 59.1735 195.03 59.4007 194.899C59.6337 194.768 59.7502 194.541 59.7502 194.217V194.149C59.7502 193.308 59.5201 192.655 59.0598 192.189C58.6053 191.723 57.915 191.49 56.9888 191.49C56.0286 191.49 55.2757 191.7 54.7303 192.121C54.1848 192.541 53.8013 192.99 53.5797 193.467L51.6706 192.785C52.0115 191.99 52.4661 191.371 53.0343 190.927C53.6081 190.479 54.2331 190.166 54.9093 189.99C55.5911 189.808 56.2615 189.717 56.9206 189.717C57.3411 189.717 57.824 189.768 58.3695 189.871C58.9206 189.967 59.4519 190.169 59.9632 190.476C60.4803 190.782 60.9093 191.246 61.2502 191.865C61.5911 192.484 61.7615 193.314 61.7615 194.354V202.979H59.7502V201.206H59.6479C59.5115 201.49 59.2843 201.794 58.9661 202.118C58.6479 202.442 58.2246 202.717 57.6962 202.944C57.1678 203.172 56.5229 203.285 55.7615 203.285ZM56.0684 201.479C56.8638 201.479 57.5343 201.322 58.0797 201.01C58.6309 200.697 59.0456 200.294 59.324 199.8C59.6081 199.305 59.7502 198.785 59.7502 198.24V196.399C59.665 196.501 59.4775 196.595 59.1877 196.68C58.9036 196.76 58.574 196.831 58.199 196.893C57.8297 196.95 57.4689 197.001 57.1167 197.047C56.7701 197.086 56.4888 197.121 56.2729 197.149C55.7502 197.217 55.2615 197.328 54.807 197.481C54.3581 197.629 53.9945 197.854 53.7161 198.155C53.4434 198.45 53.307 198.854 53.307 199.365C53.307 200.064 53.5655 200.592 54.0826 200.95C54.6053 201.302 55.2672 201.479 56.0684 201.479ZM70.7509 203.251C69.5236 203.251 68.4668 202.961 67.5804 202.382C66.6941 201.802 66.0123 201.004 65.535 199.987C65.0577 198.97 64.8191 197.808 64.8191 196.501C64.8191 195.172 65.0634 193.998 65.552 192.981C66.0463 191.959 66.7338 191.16 67.6145 190.586C68.5009 190.007 69.535 189.717 70.7168 189.717C71.6373 189.717 72.4668 189.888 73.2054 190.229C73.9441 190.569 74.5492 191.047 75.0208 191.66C75.4924 192.274 75.785 192.99 75.8986 193.808H73.8873C73.7338 193.211 73.3929 192.683 72.8645 192.223C72.3418 191.757 71.6373 191.524 70.7509 191.524C69.9668 191.524 69.2793 191.729 68.6884 192.138C68.1032 192.541 67.6458 193.112 67.3162 193.851C66.9924 194.584 66.8304 195.444 66.8304 196.433C66.8304 197.444 66.9895 198.325 67.3077 199.075C67.6316 199.825 68.0861 200.407 68.6713 200.822C69.2623 201.237 69.9554 201.444 70.7509 201.444C71.2736 201.444 71.748 201.354 72.1742 201.172C72.6003 200.99 72.9611 200.729 73.2566 200.388C73.552 200.047 73.7623 199.638 73.8873 199.16H75.8986C75.785 199.933 75.5037 200.629 75.0549 201.248C74.6117 201.862 74.0236 202.351 73.2907 202.714C72.5634 203.072 71.7168 203.251 70.7509 203.251ZM84.5321 189.888V191.592H77.748V189.888H84.5321ZM79.7253 186.751H81.7367V199.229C81.7367 199.797 81.8191 200.223 81.9838 200.507C82.1543 200.785 82.3702 200.973 82.6316 201.069C82.8986 201.16 83.1799 201.206 83.4753 201.206C83.6969 201.206 83.8787 201.194 84.0208 201.172C84.1628 201.143 84.2765 201.121 84.3617 201.104L84.7708 202.91C84.6344 202.961 84.4441 203.013 84.1998 203.064C83.9554 203.121 83.6458 203.149 83.2708 203.149C82.7026 203.149 82.1458 203.027 81.6003 202.782C81.0605 202.538 80.6117 202.166 80.2537 201.666C79.9015 201.166 79.7253 200.535 79.7253 199.774V186.751ZM87.5577 202.979V189.888H89.5691V202.979H87.5577ZM88.5804 187.706C88.1884 187.706 87.8503 187.572 87.5662 187.305C87.2878 187.038 87.1486 186.717 87.1486 186.342C87.1486 185.967 87.2878 185.646 87.5662 185.379C87.8503 185.112 88.1884 184.979 88.5804 184.979C88.9725 184.979 89.3077 185.112 89.5861 185.379C89.8702 185.646 90.0123 185.967 90.0123 186.342C90.0123 186.717 89.8702 187.038 89.5861 187.305C89.3077 187.572 88.9725 187.706 88.5804 187.706ZM98.5712 203.251C97.3439 203.251 96.2871 202.961 95.4007 202.382C94.5144 201.802 93.8326 201.004 93.3553 199.987C92.878 198.97 92.6394 197.808 92.6394 196.501C92.6394 195.172 92.8837 193.998 93.3723 192.981C93.8667 191.959 94.5542 191.16 95.4348 190.586C96.3212 190.007 97.3553 189.717 98.5371 189.717C99.4576 189.717 100.287 189.888 101.026 190.229C101.764 190.569 102.369 191.047 102.841 191.66C103.313 192.274 103.605 192.99 103.719 193.808H101.708C101.554 193.211 101.213 192.683 100.685 192.223C100.162 191.757 99.4576 191.524 98.5712 191.524C97.7871 191.524 97.0996 191.729 96.5087 192.138C95.9235 192.541 95.4661 193.112 95.1365 193.851C94.8127 194.584 94.6507 195.444 94.6507 196.433C94.6507 197.444 94.8098 198.325 95.128 199.075C95.4519 199.825 95.9064 200.407 96.4917 200.822C97.0826 201.237 97.7757 201.444 98.5712 201.444C99.0939 201.444 99.5684 201.354 99.9945 201.172C100.421 200.99 100.781 200.729 101.077 200.388C101.372 200.047 101.583 199.638 101.708 199.16H103.719C103.605 199.933 103.324 200.629 102.875 201.248C102.432 201.862 101.844 202.351 101.111 202.714C100.384 203.072 99.5371 203.251 98.5712 203.251ZM110.512 203.285C109.682 203.285 108.929 203.129 108.253 202.817C107.577 202.498 107.04 202.041 106.642 201.444C106.244 200.842 106.046 200.115 106.046 199.263C106.046 198.513 106.193 197.905 106.489 197.439C106.784 196.967 107.179 196.598 107.673 196.331C108.168 196.064 108.713 195.865 109.31 195.734C109.912 195.598 110.517 195.49 111.125 195.41C111.921 195.308 112.566 195.231 113.06 195.18C113.56 195.123 113.923 195.03 114.151 194.899C114.384 194.768 114.5 194.541 114.5 194.217V194.149C114.5 193.308 114.27 192.655 113.81 192.189C113.355 191.723 112.665 191.49 111.739 191.49C110.779 191.49 110.026 191.7 109.48 192.121C108.935 192.541 108.551 192.99 108.33 193.467L106.421 192.785C106.762 191.99 107.216 191.371 107.784 190.927C108.358 190.479 108.983 190.166 109.659 189.99C110.341 189.808 111.012 189.717 111.671 189.717C112.091 189.717 112.574 189.768 113.119 189.871C113.671 189.967 114.202 190.169 114.713 190.476C115.23 190.782 115.659 191.246 116 191.865C116.341 192.484 116.512 193.314 116.512 194.354V202.979H114.5V201.206H114.398C114.262 201.49 114.034 201.794 113.716 202.118C113.398 202.442 112.975 202.717 112.446 202.944C111.918 203.172 111.273 203.285 110.512 203.285ZM110.818 201.479C111.614 201.479 112.284 201.322 112.83 201.01C113.381 200.697 113.796 200.294 114.074 199.8C114.358 199.305 114.5 198.785 114.5 198.24V196.399C114.415 196.501 114.227 196.595 113.938 196.68C113.654 196.76 113.324 196.831 112.949 196.893C112.58 196.95 112.219 197.001 111.867 197.047C111.52 197.086 111.239 197.121 111.023 197.149C110.5 197.217 110.012 197.328 109.557 197.481C109.108 197.629 108.744 197.854 108.466 198.155C108.193 198.45 108.057 198.854 108.057 199.365C108.057 200.064 108.316 200.592 108.833 200.95C109.355 201.302 110.017 201.479 110.818 201.479ZM122.194 185.524V202.979H120.183V185.524H122.194ZM15.3734 231.979V214.524H25.9075V216.399H17.487V222.297H25.362V224.172H17.487V230.104H26.0439V231.979H15.3734ZM31.4558 224.104V231.979H29.4444V218.888H31.3876V220.933H31.5581C31.8649 220.268 32.3308 219.734 32.9558 219.331C33.5808 218.922 34.3876 218.717 35.3762 218.717C36.2626 218.717 37.0382 218.899 37.7029 219.263C38.3677 219.621 38.8848 220.166 39.2541 220.899C39.6234 221.626 39.8081 222.547 39.8081 223.66V231.979H37.7967V223.797C37.7967 222.768 37.5297 221.967 36.9956 221.393C36.4615 220.814 35.7285 220.524 34.7967 220.524C34.1547 220.524 33.5808 220.663 33.0751 220.942C32.5751 221.22 32.1802 221.626 31.8904 222.16C31.6007 222.694 31.4558 223.342 31.4558 224.104ZM48.7676 237.16C47.796 237.16 46.9608 237.035 46.2619 236.785C45.563 236.541 44.9806 236.217 44.5147 235.814C44.0545 235.416 43.688 234.99 43.4153 234.535L45.0176 233.41C45.1994 233.649 45.4295 233.922 45.7079 234.229C45.9863 234.541 46.367 234.811 46.85 235.038C47.3386 235.271 47.9778 235.388 48.7676 235.388C49.8244 235.388 50.6966 235.132 51.3841 234.621C52.0716 234.109 52.4153 233.308 52.4153 232.217V229.558H52.2449C52.0971 229.797 51.8869 230.092 51.6142 230.444C51.3471 230.791 50.9608 231.101 50.4551 231.373C49.9551 231.64 49.2789 231.774 48.4267 231.774C47.3699 231.774 46.421 231.524 45.5801 231.024C44.7449 230.524 44.0829 229.797 43.5943 228.842C43.1113 227.888 42.8699 226.729 42.8699 225.365C42.8699 224.024 43.1056 222.856 43.5772 221.862C44.0488 220.862 44.7051 220.089 45.546 219.544C46.3869 218.993 47.3585 218.717 48.4608 218.717C49.313 218.717 49.9892 218.859 50.4892 219.143C50.9949 219.422 51.3812 219.74 51.6483 220.098C51.921 220.45 52.1312 220.74 52.2789 220.967H52.4835V218.888H54.4267V232.354C54.4267 233.479 54.171 234.393 53.6596 235.098C53.1539 235.808 52.4721 236.328 51.6142 236.657C50.7619 236.993 49.813 237.16 48.7676 237.16ZM48.6994 229.967C49.5062 229.967 50.188 229.782 50.7449 229.413C51.3017 229.044 51.725 228.513 52.0147 227.819C52.3045 227.126 52.4494 226.297 52.4494 225.331C52.4494 224.388 52.3074 223.555 52.0233 222.834C51.7392 222.112 51.3187 221.547 50.7619 221.138C50.2051 220.729 49.5176 220.524 48.6994 220.524C47.8471 220.524 47.1369 220.74 46.5687 221.172C46.0062 221.604 45.5829 222.183 45.2988 222.91C45.0204 223.638 44.8812 224.444 44.8812 225.331C44.8812 226.24 45.0233 227.044 45.3074 227.743C45.5971 228.436 46.0233 228.981 46.5858 229.379C47.1539 229.771 47.8585 229.967 48.6994 229.967ZM58.1085 231.979V218.888H60.1199V231.979H58.1085ZM59.1312 216.706C58.7392 216.706 58.4011 216.572 58.117 216.305C57.8386 216.038 57.6994 215.717 57.6994 215.342C57.6994 214.967 57.8386 214.646 58.117 214.379C58.4011 214.112 58.7392 213.979 59.1312 213.979C59.5233 213.979 59.8585 214.112 60.1369 214.379C60.421 214.646 60.563 214.967 60.563 215.342C60.563 215.717 60.421 216.038 60.1369 216.305C59.8585 216.572 59.5233 216.706 59.1312 216.706ZM65.8152 224.104V231.979H63.8038V218.888H65.747V220.933H65.9174C66.2243 220.268 66.6902 219.734 67.3152 219.331C67.9402 218.922 68.747 218.717 69.7356 218.717C70.622 218.717 71.3976 218.899 72.0623 219.263C72.7271 219.621 73.2441 220.166 73.6135 220.899C73.9828 221.626 74.1674 222.547 74.1674 223.66V231.979H72.1561V223.797C72.1561 222.768 71.889 221.967 71.3549 221.393C70.8208 220.814 70.0879 220.524 69.1561 220.524C68.514 220.524 67.9402 220.663 67.4345 220.942C66.9345 221.22 66.5396 221.626 66.2498 222.16C65.96 222.694 65.8152 223.342 65.8152 224.104ZM83.3315 232.251C82.0701 232.251 80.9821 231.973 80.0673 231.416C79.1582 230.854 78.4565 230.069 77.9622 229.064C77.4735 228.052 77.2292 226.876 77.2292 225.535C77.2292 224.194 77.4735 223.013 77.9622 221.99C78.4565 220.961 79.144 220.16 80.0247 219.586C80.911 219.007 81.9451 218.717 83.127 218.717C83.8088 218.717 84.4821 218.831 85.1468 219.058C85.8116 219.285 86.4167 219.655 86.9622 220.166C87.5076 220.672 87.9423 221.342 88.2662 222.177C88.59 223.013 88.752 224.041 88.752 225.263V226.115H78.661V224.376H86.7065C86.7065 223.638 86.5588 222.979 86.2633 222.399C85.9735 221.819 85.5588 221.362 85.019 221.027C84.4849 220.692 83.8542 220.524 83.127 220.524C82.3258 220.524 81.6326 220.723 81.0474 221.121C80.4679 221.513 80.0218 222.024 79.7093 222.655C79.3968 223.285 79.2406 223.961 79.2406 224.683V225.842C79.2406 226.831 79.411 227.669 79.752 228.356C80.0985 229.038 80.5787 229.558 81.1923 229.916C81.8059 230.268 82.519 230.444 83.3315 230.444C83.8599 230.444 84.3372 230.371 84.7633 230.223C85.1951 230.069 85.5673 229.842 85.8798 229.541C86.1923 229.234 86.4338 228.854 86.6042 228.399L88.5474 228.944C88.3429 229.604 87.9991 230.183 87.5162 230.683C87.0332 231.177 86.4366 231.564 85.7264 231.842C85.0162 232.115 84.2179 232.251 83.3315 232.251ZM97.3002 232.251C96.0389 232.251 94.9508 231.973 94.036 231.416C93.127 230.854 92.4252 230.069 91.9309 229.064C91.4423 228.052 91.198 226.876 91.198 225.535C91.198 224.194 91.4423 223.013 91.9309 221.99C92.4252 220.961 93.1127 220.16 93.9934 219.586C94.8798 219.007 95.9139 218.717 97.0957 218.717C97.7775 218.717 98.4508 218.831 99.1156 219.058C99.7804 219.285 100.385 219.655 100.931 220.166C101.476 220.672 101.911 221.342 102.235 222.177C102.559 223.013 102.721 224.041 102.721 225.263V226.115H92.6298V224.376H100.675C100.675 223.638 100.528 222.979 100.232 222.399C99.9423 221.819 99.5275 221.362 98.9877 221.027C98.4537 220.692 97.823 220.524 97.0957 220.524C96.2946 220.524 95.6014 220.723 95.0162 221.121C94.4366 221.513 93.9906 222.024 93.6781 222.655C93.3656 223.285 93.2093 223.961 93.2093 224.683V225.842C93.2093 226.831 93.3798 227.669 93.7207 228.356C94.0673 229.038 94.5474 229.558 95.161 229.916C95.7747 230.268 96.4877 230.444 97.3002 230.444C97.8287 230.444 98.3059 230.371 98.7321 230.223C99.1639 230.069 99.536 229.842 99.8485 229.541C100.161 229.234 100.403 228.854 100.573 228.399L102.516 228.944C102.312 229.604 101.968 230.183 101.485 230.683C101.002 231.177 100.405 231.564 99.6951 231.842C98.9849 232.115 98.1866 232.251 97.3002 232.251ZM105.78 231.979V218.888H107.724V220.865H107.86C108.099 220.217 108.53 219.692 109.155 219.288C109.78 218.885 110.485 218.683 111.269 218.683C111.417 218.683 111.601 218.686 111.823 218.692C112.045 218.697 112.212 218.706 112.326 218.717V220.763C112.258 220.746 112.101 220.72 111.857 220.686C111.618 220.646 111.366 220.626 111.099 220.626C110.462 220.626 109.894 220.76 109.394 221.027C108.9 221.288 108.508 221.652 108.218 222.118C107.934 222.578 107.792 223.104 107.792 223.694V231.979H105.78ZM114.71 231.979V218.888H116.721V231.979H114.71ZM115.733 216.706C115.341 216.706 115.003 216.572 114.719 216.305C114.44 216.038 114.301 215.717 114.301 215.342C114.301 214.967 114.44 214.646 114.719 214.379C115.003 214.112 115.341 213.979 115.733 213.979C116.125 213.979 116.46 214.112 116.738 214.379C117.023 214.646 117.165 214.967 117.165 215.342C117.165 215.717 117.023 216.038 116.738 216.305C116.46 216.572 116.125 216.706 115.733 216.706ZM122.417 224.104V231.979H120.405V218.888H122.349V220.933H122.519C122.826 220.268 123.292 219.734 123.917 219.331C124.542 218.922 125.349 218.717 126.337 218.717C127.224 218.717 127.999 218.899 128.664 219.263C129.329 219.621 129.846 220.166 130.215 220.899C130.584 221.626 130.769 222.547 130.769 223.66V231.979H128.758V223.797C128.758 222.768 128.491 221.967 127.956 221.393C127.422 220.814 126.689 220.524 125.758 220.524C125.116 220.524 124.542 220.663 124.036 220.942C123.536 221.22 123.141 221.626 122.851 222.16C122.562 222.694 122.417 223.342 122.417 224.104ZM139.729 237.16C138.757 237.16 137.922 237.035 137.223 236.785C136.524 236.541 135.942 236.217 135.476 235.814C135.015 235.416 134.649 234.99 134.376 234.535L135.979 233.41C136.16 233.649 136.39 233.922 136.669 234.229C136.947 234.541 137.328 234.811 137.811 235.038C138.3 235.271 138.939 235.388 139.729 235.388C140.785 235.388 141.657 235.132 142.345 234.621C143.032 234.109 143.376 233.308 143.376 232.217V229.558H143.206C143.058 229.797 142.848 230.092 142.575 230.444C142.308 230.791 141.922 231.101 141.416 231.373C140.916 231.64 140.24 231.774 139.388 231.774C138.331 231.774 137.382 231.524 136.541 231.024C135.706 230.524 135.044 229.797 134.555 228.842C134.072 227.888 133.831 226.729 133.831 225.365C133.831 224.024 134.067 222.856 134.538 221.862C135.01 220.862 135.666 220.089 136.507 219.544C137.348 218.993 138.319 218.717 139.422 218.717C140.274 218.717 140.95 218.859 141.45 219.143C141.956 219.422 142.342 219.74 142.609 220.098C142.882 220.45 143.092 220.74 143.24 220.967H143.444V218.888H145.388V232.354C145.388 233.479 145.132 234.393 144.621 235.098C144.115 235.808 143.433 236.328 142.575 236.657C141.723 236.993 140.774 237.16 139.729 237.16ZM139.66 229.967C140.467 229.967 141.149 229.782 141.706 229.413C142.263 229.044 142.686 228.513 142.976 227.819C143.265 227.126 143.41 226.297 143.41 225.331C143.41 224.388 143.268 223.555 142.984 222.834C142.7 222.112 142.28 221.547 141.723 221.138C141.166 220.729 140.479 220.524 139.66 220.524C138.808 220.524 138.098 220.74 137.53 221.172C136.967 221.604 136.544 222.183 136.26 222.91C135.981 223.638 135.842 224.444 135.842 225.331C135.842 226.24 135.984 227.044 136.268 227.743C136.558 228.436 136.984 228.981 137.547 229.379C138.115 229.771 138.819 229.967 139.66 229.967Z" fill="black"/>
<circle cx="80.2444" cy="80.5647" r="78.0022" fill="white" stroke="#777100" stroke-width="4"/>
<circle cx="80.2427" cy="80.5649" r="69.3657" fill="white"/>
<path d="M69.256 37.4121C70.9311 38.0387 71.5577 39.2558 71.4914 41.0273C71.4071 43.2446 71.4794 43.2325 73.5219 44.0218C74.4378 44.3773 75.3536 44.7509 76.1972 45.2389C76.872 45.6306 77.2998 45.5402 77.7758 44.9678C78.1855 44.4737 78.6735 44.0399 79.1375 43.594C80.5775 42.1962 82.5478 42.3649 83.7468 43.9676C84.1867 44.5581 84.1445 45.1365 83.6384 45.6366C83.1322 46.1367 82.4815 46.2452 81.9935 45.7089C81.3608 45.01 80.9571 45.257 80.4631 45.8294C80.0232 46.3416 79.5291 46.8055 79.0351 47.2634C78.077 48.1552 76.866 48.3239 75.679 47.8117C74.1124 47.1309 72.5398 46.4741 70.9491 45.8475C69.7079 45.3534 68.9849 44.3894 68.9427 43.0156C68.9186 42.2323 68.9186 41.443 68.9427 40.6537C68.9548 40.1717 68.8222 39.9307 68.2799 39.9367C66.8218 39.9608 65.3577 39.9608 63.8996 39.9367C63.3814 39.9307 63.2006 40.1416 63.2067 40.6356C63.2247 41.449 63.2247 42.2625 63.2067 43.0819C63.1705 44.4075 62.4656 45.3534 61.2364 45.8415C59.6517 46.4741 58.0731 47.1249 56.5066 47.8057C55.2834 48.3359 54.0844 48.1612 53.0962 47.2152C52.4274 46.5766 51.7707 45.9198 51.1079 45.2751C51.0718 45.2389 51.0055 45.2269 50.8488 45.1546C50.1499 45.8475 49.4028 46.5585 48.6857 47.2936C48.1194 47.872 47.1674 48.4685 47.1553 49.071C47.1433 49.6615 48.1073 50.27 48.6496 50.8605C48.8183 51.0473 49.0111 51.216 49.1738 51.4088C50.0173 52.3789 50.1439 53.4574 49.6558 54.6263C48.993 56.229 48.3182 57.8257 47.6615 59.4345C47.1674 60.6395 46.2997 61.3325 44.9742 61.3807C44.1608 61.4048 43.3474 61.4048 42.5279 61.3867C42.0097 61.3746 41.7567 61.5253 41.7687 62.1037C41.7989 63.5377 41.7989 64.9717 41.7687 66.3997C41.7567 66.9601 41.9736 67.1468 42.5098 67.1227C43.2389 67.0926 43.968 67.1047 44.703 67.1227C46.2576 67.1468 47.1915 67.8699 47.7398 69.3159C48.3062 70.8042 48.9268 72.2804 49.5775 73.7325C50.174 75.0641 50.0475 76.251 49.0171 77.2874C48.3303 77.9803 47.5771 78.6009 46.7516 79.348C48.1736 80.7519 49.3967 81.9811 50.656 83.1681C50.7584 83.2645 51.1923 83.1741 51.3489 83.0355C51.9394 82.5173 52.4696 81.9329 53.03 81.3846C54.1266 80.3181 55.2774 80.1735 56.6512 80.7881C58.1033 81.4448 59.5794 82.0534 61.0677 82.6198C62.4656 83.15 63.1886 84.0779 63.2127 85.5962C63.2247 86.3554 63.2308 87.1146 63.2127 87.8738C63.2006 88.3739 63.3934 88.5908 63.8996 88.5848C65.3577 88.5727 66.8218 88.5667 68.2799 88.5848C68.8041 88.5908 68.9608 88.3558 68.9427 87.8678C68.9186 87.0845 68.9186 86.2952 68.9427 85.5059C68.9849 84.1682 69.714 83.1379 70.8829 82.7222C71.636 82.451 72.2265 82.6499 72.5338 83.2645C72.8592 83.9152 72.6181 84.5298 71.9975 84.9997C71.7385 85.1986 71.5215 85.5902 71.4914 85.9095C71.4191 86.7169 71.4914 87.5364 71.4553 88.3498C71.4071 89.826 70.3466 91.0009 68.8704 91.0612C67.0207 91.1335 65.1649 91.1335 63.3151 91.0612C61.8208 91.0009 60.7725 89.82 60.7001 88.2715C60.664 87.458 60.67 86.6446 60.7001 85.8312C60.7122 85.3793 60.5736 85.1383 60.1217 84.9636C58.6094 84.3791 57.1272 83.7103 55.6148 83.1259C55.3738 83.0355 54.952 83.0957 54.7592 83.2645C54.1205 83.8128 53.5662 84.4514 52.9516 85.0299C51.7586 86.1566 50.1258 86.1867 48.9328 85.0479C47.6916 83.867 46.4805 82.6559 45.2995 81.4087C44.1668 80.2157 44.215 78.6009 45.3598 77.4019C45.9021 76.8355 46.4504 76.2691 47.0288 75.7329C47.3963 75.3894 47.4265 75.0942 47.2156 74.6302C46.5709 73.2022 45.9744 71.7502 45.414 70.286C45.2333 69.81 45.0043 69.6172 44.5042 69.6353C43.7209 69.6654 42.9316 69.6534 42.1423 69.6353C40.4673 69.5991 39.2863 68.4302 39.2622 66.7552C39.2381 65.0983 39.2381 63.4413 39.2622 61.7843C39.2863 60.1153 40.4492 58.9344 42.1242 58.8681C42.9376 58.838 43.751 58.838 44.5645 58.8681C45.0405 58.8862 45.2333 58.6874 45.402 58.2475C45.9804 56.7593 46.6372 55.3072 47.2035 53.8129C47.2999 53.5538 47.2276 53.0959 47.0529 52.885C46.5347 52.2584 45.9081 51.7282 45.3538 51.1317C44.1608 49.8603 44.1849 48.2456 45.408 46.9983C46.5468 45.8354 47.6976 44.6786 48.8665 43.5398C50.0836 42.3528 51.6924 42.3348 52.9396 43.4856C53.5361 44.0399 54.1145 44.6183 54.6688 45.2088C54.9882 45.5462 55.2593 45.5764 55.6992 45.3835C57.1573 44.7328 58.6516 44.1664 60.1036 43.5157C60.3567 43.4012 60.6158 43.0457 60.664 42.7626C60.7544 42.2444 60.7303 41.6961 60.6821 41.1659C60.5314 39.4005 61.1701 38.111 62.8512 37.4121L69.256 37.4121Z" fill="black"/>
<path d="M71.1133 65.2815C70.9988 62.0098 71.6254 58.955 73.2944 56.1894C76.4396 50.9896 81.067 48.2722 87.1526 48.0131C90.8942 47.8564 94.4311 48.4831 97.5944 50.5859C102.342 53.7431 104.825 58.2078 105.12 63.8957C105.144 64.3175 105.138 64.7392 105.15 65.161C105.15 65.1851 105.162 65.2152 105.192 65.3116C106.578 65.7816 107.548 66.7035 107.723 68.2701C107.88 69.6438 107.41 70.7766 106.235 71.5237C105.789 71.8069 105.644 72.1142 105.68 72.6083C105.722 73.1927 105.698 73.7892 105.686 74.3797C105.65 76.1812 104.674 77.4707 102.933 77.9587C102.541 78.0672 102.336 78.1756 102.27 78.6396C101.734 82.2909 99.9502 85.2131 97.0159 87.4304C96.5701 87.7679 96.3351 88.0932 96.3833 88.6656C96.4496 89.4429 96.1603 90.4612 96.558 90.9371C96.9557 91.4131 97.998 91.3589 98.7633 91.5156C102.939 92.3651 107.126 93.1605 111.29 94.0823C113.272 94.5222 115.092 95.432 116.737 96.6551C119.49 98.7037 121.093 101.439 121.171 104.88C121.274 109.483 121.256 114.092 121.201 118.696C121.165 121.642 118.912 123.715 115.875 123.715C104.3 123.721 92.732 123.715 81.1574 123.715C74.3067 123.715 67.4499 123.715 60.5992 123.715C57.1226 123.715 54.9957 121.588 54.9896 118.087C54.9836 114.267 55.074 110.447 54.9716 106.627C54.7788 99.6437 58.7615 96.0827 63.8468 94.4559C66.8474 93.4919 70.0106 93.0279 73.1076 92.3712C75.1382 91.9434 77.1807 91.5578 79.2233 91.1902C79.7113 91.0998 79.9222 90.907 79.8499 90.419C79.8499 90.3888 79.8499 90.3647 79.8499 90.3346C80.0849 88.756 79.627 87.6353 78.2532 86.5748C75.7889 84.6709 74.5055 81.9354 73.9934 78.8685C73.903 78.3383 73.7584 78.0611 73.192 77.9105C71.6375 77.4948 70.6855 76.2897 70.5469 74.693C70.5228 74.3857 70.5168 74.0784 70.5228 73.7651C70.5469 72.7107 70.5228 71.8551 69.4744 71.0236C67.703 69.6137 68.2633 66.6734 70.2938 65.637C70.5409 65.5105 70.8 65.4141 71.1193 65.2755L71.1133 65.2815ZM113.236 97.5167C113.146 97.7758 113.085 97.9265 113.037 98.0771C111.675 102.355 110.983 106.747 110.76 111.224C110.711 112.176 110.217 112.64 109.422 112.592C108.633 112.544 108.151 111.995 108.259 111.062C108.627 107.971 108.976 104.88 109.476 101.807C109.765 100.047 110.326 98.3362 110.772 96.5828C110.651 96.5226 110.561 96.4503 110.458 96.4262C107.572 95.8477 104.686 95.2573 101.794 94.721C101.571 94.6788 101.185 94.9319 101.029 95.1548C97.6727 99.963 94.3347 104.789 91.0027 109.616C90.0929 110.935 89.5024 112.393 89.4361 113.996C89.3638 115.791 89.3819 117.587 89.3638 119.382C89.3638 119.961 89.3638 120.545 89.3638 121.124H108.199C108.199 120.768 108.199 120.461 108.199 120.16C108.199 118.925 108.193 117.689 108.205 116.454C108.211 115.87 108.452 115.333 109.06 115.267C109.506 115.225 110.055 115.364 110.41 115.623C110.651 115.797 110.705 116.322 110.711 116.695C110.742 118.171 110.723 119.648 110.723 121.178C112.549 121.178 114.26 121.19 115.971 121.178C117.58 121.16 118.671 120.099 118.677 118.479C118.695 114.044 118.719 109.603 118.653 105.169C118.598 101.463 116.526 99.1074 113.23 97.5167H113.236ZM67.9922 121.124H86.8332C86.8332 119.123 86.8031 117.189 86.8392 115.249C86.8874 113.002 86.2186 111.019 84.9353 109.182C81.6997 104.56 78.4942 99.9208 75.3069 95.2633C74.9393 94.727 74.5838 94.6246 73.9934 94.7511C72.2942 95.1187 70.583 95.4199 68.8779 95.7634C67.715 95.9984 66.5521 96.2514 65.2989 96.5226C68.2211 104.596 68.1549 112.833 67.9922 121.124ZM73.0414 72.1624C73.0414 72.795 73.0414 73.3554 73.0414 73.9097C73.0474 75.2714 73.2884 75.5064 74.6682 75.5426C75.8732 75.5727 76.2649 75.9583 76.3251 77.1634C76.6987 84.7673 83.9531 88.4668 89.2373 87.9064C93.9912 87.4063 99.661 83.8213 99.9201 76.838C99.9502 76.0366 100.42 75.6209 101.197 75.5486C101.535 75.5185 101.921 75.6209 102.192 75.4823C102.553 75.3016 103.035 74.9822 103.089 74.6629C103.216 73.8555 103.132 73.012 103.132 72.1564H73.0474L73.0414 72.1624ZM73.6861 65.161H102.565C102.909 59.9612 99.3296 53.5081 95.4795 52.4477C95.4795 52.8875 95.4976 53.3033 95.4795 53.719C95.4313 54.6047 94.9734 55.0988 94.2202 55.1048C93.4731 55.1048 92.9971 54.5987 92.9669 53.7311C92.9428 53.0562 92.985 52.3814 92.9428 51.7126C92.9308 51.5017 92.7862 51.1583 92.6416 51.1221C91.5932 50.8751 90.5327 50.6883 89.3638 50.4654C89.3638 50.9655 89.3638 51.2728 89.3638 51.574C89.3638 53.2611 89.3759 54.9421 89.3578 56.6292C89.3458 57.5571 88.936 58.015 88.1588 58.0331C87.3454 58.0572 86.8633 57.5752 86.8453 56.6353C86.8212 55.147 86.8392 53.6588 86.8392 52.1705C86.8392 51.6463 86.8392 51.1281 86.8392 50.4654C85.7607 50.6642 84.8328 50.857 83.8929 51.0016C83.3446 51.086 83.2301 51.3872 83.2602 51.8753C83.2964 52.4899 83.2783 53.1105 83.2602 53.725C83.2361 54.5867 82.7601 55.1048 82.013 55.1048C81.2659 55.1048 80.7838 54.5867 80.7417 53.725C80.7236 53.2912 80.7417 52.8574 80.7417 52.3754C76.7228 54.3336 73.2342 59.5274 73.6921 65.167L73.6861 65.161ZM62.9671 97.5228C59.8761 99.0231 57.7191 101.21 57.6106 104.735C57.466 109.362 57.5142 114.002 57.5383 118.635C57.5383 119.919 58.4421 121.033 59.6532 121.106C61.5692 121.226 63.5033 121.136 65.4616 121.136C65.6303 113.152 65.6905 105.247 62.9731 97.5167L62.9671 97.5228ZM93.7322 89.3646C90.0206 90.8709 86.2247 90.8648 82.5131 89.3766C81.8142 92.2928 82.8324 94.4318 85.2546 95.9683C85.2787 95.9803 85.2968 96.0044 85.3209 96.0225C88.6649 98.1434 87.5562 98.1494 90.8762 96.0466C93.3345 94.4921 94.4492 92.335 93.7322 89.3646ZM88.1166 69.6016C93.3345 69.6016 98.5524 69.6016 103.776 69.6016C104.029 69.6016 104.349 69.68 104.517 69.5595C104.807 69.3546 105.192 69.0172 105.18 68.7461C105.168 68.4207 104.837 68.0471 104.542 67.8242C104.361 67.6856 103.999 67.7639 103.722 67.7639C93.3104 67.7639 82.8987 67.7639 72.4931 67.7639C72.2159 67.7639 71.8664 67.6916 71.6676 67.8242C71.3784 68.023 71.0048 68.3966 71.0289 68.6677C71.053 68.9871 71.4206 69.3305 71.7218 69.5595C71.8845 69.686 72.2099 69.6016 72.4629 69.6016C77.6808 69.6016 82.8987 69.6016 88.1226 69.6016H88.1166ZM83.8085 103.138L88.1166 109.374L92.4186 103.132C91.1473 102.385 89.9182 101.71 88.7432 100.951C88.2612 100.644 87.9238 100.68 87.4659 100.963C86.2789 101.704 85.0618 102.391 83.8025 103.132L83.8085 103.138ZM77.5422 94.0944C78.916 96.0647 80.1994 97.9686 81.549 99.8184C82.0612 100.517 82.9831 100.68 83.6639 100.306C84.2664 99.9751 84.8388 99.5894 85.4775 99.1918C83.206 97.7216 81.1092 96.1912 80.0367 93.6063C79.2233 93.769 78.44 93.9197 77.5362 94.1004L77.5422 94.0944ZM90.7436 99.2038C91.3341 99.5653 91.8523 99.8967 92.3765 100.204C93.1839 100.674 94.0876 100.608 94.642 99.8606C96.0157 97.9988 97.3112 96.0767 98.697 94.0823L96.1664 93.6063C95.118 96.2213 92.985 97.7156 90.7376 99.2038H90.7436Z" fill="#777100"/>
<path d="M54.1875 64.2315C54.2237 56.1275 62.1348 50.3914 69.793 52.9461C70.275 53.1088 70.8052 53.4944 71.0281 53.9222C71.1848 54.2235 70.9739 54.9345 70.6907 55.1755C70.3774 55.4346 69.7327 55.543 69.329 55.4105C67.3166 54.7537 65.3102 54.6633 63.2917 55.296C58.845 56.6818 56.0794 61.1525 56.8145 65.7317C57.5376 70.2266 61.4901 73.6128 66.0573 73.6369C66.2561 73.6369 66.4489 73.6249 66.6478 73.6369C67.4853 73.661 67.9372 74.0828 67.9613 74.848C67.9854 75.6011 67.5455 76.1012 66.7261 76.1494C64.8763 76.2579 63.0989 75.9265 61.3937 75.1914C57.0134 73.3055 54.1754 68.9854 54.1996 64.2375L54.1875 64.2315Z" fill="black"/>
</svg>
